<svg width="360" height="257" viewBox="0 0 360 257" fill="none" xmlns="http://www.w3.org/2000/svg">
<g clip-path="url(#clip0_3161_51764)">
<g clip-path="url(#clip1_3161_51764)">
<rect width="360" height="257" fill="white"/>
<path d="M-237 62.6926C-237 41.7666 -220.036 24.8027 -199.11 24.8027H296.915C317.841 24.8027 334.805 41.7666 334.805 62.6926V413.394H-237V62.6926Z" fill="#F3F5F7"/>
<path fill-rule="evenodd" clip-rule="evenodd" d="M296.917 29.2085H-121.938C-140.431 29.2085 -155.422 44.1999 -155.422 62.6926V408.988H330.401V62.6926C330.401 44.1999 315.41 29.2085 296.917 29.2085ZM-121.938 24.8027C-142.864 24.8027 -159.828 41.7666 -159.828 62.6926V413.394H334.807V62.6926C334.807 41.7666 317.843 24.8027 296.917 24.8027H-121.938Z" fill="#E9EBEE"/>
<rect x="36.0312" y="52.1016" width="270.516" height="57.2754" rx="13.2174" fill="white"/>
<rect x="51.4023" y="66.1484" width="29.1798" height="29.1798" rx="14.5899" fill="#07638E"/>
<path d="M69.0049 78.9695H72.0049V75.9695" stroke="white" stroke-linecap="round" stroke-linejoin="round"/>
<path d="M62.1045 76.8508C62.6147 76.3398 63.2207 75.9344 63.8878 75.6578C64.5548 75.3813 65.2699 75.2389 65.992 75.2389C66.7141 75.2389 67.4292 75.3813 68.0962 75.6578C68.7633 75.9344 69.3692 76.3398 69.8795 76.8508L72.0045 78.9696" stroke="white" stroke-linecap="round" stroke-linejoin="round"/>
<path d="M62.9795 82.5071H59.9795V85.5071" stroke="white" stroke-linecap="round" stroke-linejoin="round"/>
<path d="M69.8795 84.6258C69.3692 85.1368 68.7633 85.5422 68.0962 85.8188C67.4292 86.0954 66.7141 86.2377 65.992 86.2377C65.2699 86.2377 64.5548 86.0954 63.8878 85.8188C63.2207 85.5422 62.6147 85.1368 62.1045 84.6258L59.9795 82.5071" stroke="white" stroke-linecap="round" stroke-linejoin="round"/>
<path d="M242.487 89.9497V89.1499H244.914V89.9497H242.487ZM248.071 93.1396V92.377C247.599 92.346 247.199 92.2313 246.871 92.0329C246.548 91.8283 246.273 91.5741 246.043 91.2703L246.592 90.7774C246.79 91.044 247.007 91.2579 247.243 91.4191C247.485 91.5741 247.764 91.6733 248.08 91.7167V89.3266C247.441 89.184 246.973 88.9763 246.676 88.7035C246.384 88.4245 246.238 88.0432 246.238 87.5596C246.238 87.3116 246.282 87.0915 246.369 86.8993C246.462 86.7009 246.589 86.5304 246.75 86.3878C246.911 86.2452 247.103 86.1336 247.327 86.053C247.55 85.9662 247.798 85.9104 248.071 85.8856V85.123H248.647V85.8763C249.069 85.9135 249.431 86.022 249.735 86.2018C250.045 86.3754 250.312 86.6172 250.535 86.9272L249.968 87.355C249.813 87.138 249.627 86.9613 249.41 86.8249C249.193 86.6823 248.935 86.5893 248.638 86.5459V88.7221L248.722 88.7407C249.366 88.8833 249.834 89.0941 250.126 89.3731C250.423 89.6459 250.572 90.0272 250.572 90.517C250.572 91.0502 250.399 91.4811 250.051 91.8097C249.71 92.1321 249.242 92.3212 248.647 92.377V93.1396H248.071ZM249.838 90.5635C249.838 90.2473 249.745 90.0055 249.559 89.8381C249.379 89.6707 249.072 89.5343 248.638 89.4289V91.7167C249.01 91.6671 249.301 91.5431 249.512 91.3447C249.729 91.1401 249.838 90.8797 249.838 90.5635ZM246.973 87.5038C246.973 87.82 247.063 88.0587 247.243 88.2199C247.429 88.3749 247.708 88.502 248.08 88.6012V86.5459C247.745 86.5893 247.475 86.6916 247.271 86.8528C247.072 87.014 246.973 87.231 246.973 87.5038ZM253.908 92.4886C253.133 92.4886 252.565 92.1941 252.206 91.6051C251.852 91.0161 251.676 90.1915 251.676 89.1313C251.676 88.0711 251.852 87.2465 252.206 86.6575C252.565 86.0685 253.133 85.774 253.908 85.774C254.683 85.774 255.247 86.0685 255.6 86.6575C255.96 87.2465 256.14 88.0711 256.14 89.1313C256.14 90.1915 255.96 91.0161 255.6 91.6051C255.247 92.1941 254.683 92.4886 253.908 92.4886ZM253.908 91.8097C254.162 91.8097 254.379 91.757 254.559 91.6516C254.739 91.5462 254.884 91.3974 254.996 91.2052C255.107 91.013 255.188 90.7867 255.238 90.5263C255.293 90.2659 255.321 89.9776 255.321 89.6614V88.6012C255.321 88.285 255.293 87.9967 255.238 87.7363C255.188 87.4759 255.107 87.2496 254.996 87.0574C254.884 86.8652 254.739 86.7164 254.559 86.611C254.379 86.5056 254.162 86.4529 253.908 86.4529C253.654 86.4529 253.437 86.5056 253.257 86.611C253.077 86.7164 252.931 86.8652 252.82 87.0574C252.708 87.2496 252.624 87.4759 252.569 87.7363C252.519 87.9967 252.494 88.285 252.494 88.6012V89.6614C252.494 89.9776 252.519 90.2659 252.569 90.5263C252.624 90.7867 252.708 91.013 252.82 91.2052C252.931 91.3974 253.077 91.5462 253.257 91.6516C253.437 91.757 253.654 91.8097 253.908 91.8097ZM257.959 92.4886C257.76 92.4886 257.615 92.439 257.522 92.3398C257.435 92.2406 257.392 92.1104 257.392 91.9492V91.8283C257.392 91.6671 257.435 91.5369 257.522 91.4377C257.615 91.3385 257.76 91.2889 257.959 91.2889C258.157 91.2889 258.3 91.3385 258.387 91.4377C258.48 91.5369 258.526 91.6671 258.526 91.8283V91.9492C258.526 92.1104 258.48 92.2406 258.387 92.3398C258.3 92.439 258.157 92.4886 257.959 92.4886ZM261.655 88.6384C262.095 88.6384 262.424 88.5392 262.641 88.3408C262.864 88.1362 262.976 87.8758 262.976 87.5596V87.4945C262.976 87.1535 262.867 86.8993 262.65 86.7319C262.44 86.5583 262.161 86.4715 261.813 86.4715C261.479 86.4715 261.206 86.5459 260.995 86.6947C260.784 86.8373 260.611 87.0326 260.474 87.2806L259.898 86.8342C259.978 86.704 260.074 86.5769 260.186 86.4529C260.304 86.3227 260.44 86.208 260.595 86.1088C260.75 86.0096 260.93 85.929 261.134 85.867C261.339 85.805 261.572 85.774 261.832 85.774C262.105 85.774 262.362 85.8112 262.604 85.8856C262.846 85.9538 263.053 86.0592 263.227 86.2018C263.407 86.3382 263.546 86.5087 263.645 86.7133C263.751 86.9179 263.804 87.1504 263.804 87.4108C263.804 87.6216 263.769 87.8107 263.701 87.9781C263.639 88.1455 263.552 88.2912 263.441 88.4152C263.329 88.5392 263.196 88.6446 263.041 88.7314C262.892 88.8182 262.731 88.8833 262.557 88.9267V88.9639C262.731 89.0011 262.898 89.0631 263.06 89.1499C263.227 89.2305 263.373 89.339 263.497 89.4754C263.627 89.6056 263.729 89.7668 263.804 89.959C263.884 90.145 263.924 90.3589 263.924 90.6007C263.924 90.8797 263.872 91.137 263.766 91.3726C263.661 91.602 263.512 91.8004 263.32 91.9678C263.128 92.129 262.895 92.2561 262.622 92.3491C262.35 92.4421 262.049 92.4886 261.72 92.4886C261.441 92.4886 261.193 92.4576 260.976 92.3956C260.759 92.3336 260.567 92.2499 260.4 92.1445C260.232 92.0391 260.084 91.9213 259.953 91.7911C259.829 91.6609 259.718 91.5245 259.619 91.3819L260.204 90.9355C260.285 91.0657 260.372 91.1835 260.465 91.2889C260.564 91.3943 260.673 91.4842 260.79 91.5586C260.908 91.633 261.041 91.6919 261.19 91.7353C261.339 91.7725 261.513 91.7911 261.711 91.7911C262.17 91.7911 262.517 91.6888 262.753 91.4842C262.988 91.2734 263.106 90.9758 263.106 90.5914V90.517C263.106 90.1326 262.988 89.8381 262.753 89.6335C262.517 89.4227 262.17 89.3173 261.711 89.3173H260.948V88.6384H261.655ZM267.594 92.4886C266.819 92.4886 266.252 92.1941 265.892 91.6051C265.539 91.0161 265.362 90.1915 265.362 89.1313C265.362 88.0711 265.539 87.2465 265.892 86.6575C266.252 86.0685 266.819 85.774 267.594 85.774C268.369 85.774 268.934 86.0685 269.287 86.6575C269.647 87.2465 269.826 88.0711 269.826 89.1313C269.826 90.1915 269.647 91.0161 269.287 91.6051C268.934 92.1941 268.369 92.4886 267.594 92.4886ZM267.594 91.8097C267.849 91.8097 268.066 91.757 268.245 91.6516C268.425 91.5462 268.571 91.3974 268.682 91.2052C268.794 91.013 268.875 90.7867 268.924 90.5263C268.98 90.2659 269.008 89.9776 269.008 89.6614V88.6012C269.008 88.285 268.98 87.9967 268.924 87.7363C268.875 87.4759 268.794 87.2496 268.682 87.0574C268.571 86.8652 268.425 86.7164 268.245 86.611C268.066 86.5056 267.849 86.4529 267.594 86.4529C267.34 86.4529 267.123 86.5056 266.943 86.611C266.764 86.7164 266.618 86.8652 266.506 87.0574C266.395 87.2496 266.311 87.4759 266.255 87.7363C266.206 87.9967 266.181 88.285 266.181 88.6012V89.6614C266.181 89.9776 266.206 90.2659 266.255 90.5263C266.311 90.7867 266.395 91.013 266.506 91.2052C266.618 91.3974 266.764 91.5462 266.943 91.6516C267.123 91.757 267.34 91.8097 267.594 91.8097ZM274.178 85.8856V89.9032C274.178 90.5232 274.293 90.9944 274.522 91.3168C274.752 91.633 275.155 91.7911 275.731 91.7911C276.308 91.7911 276.711 91.633 276.94 91.3168C277.17 90.9944 277.284 90.5232 277.284 89.9032V85.8856H278.066V89.7172C278.066 90.1884 278.022 90.5976 277.935 90.9448C277.855 91.292 277.721 91.5803 277.535 91.8097C277.349 92.0391 277.105 92.2096 276.801 92.3212C276.503 92.4328 276.137 92.4886 275.703 92.4886C275.269 92.4886 274.904 92.4328 274.606 92.3212C274.315 92.2096 274.079 92.0391 273.899 91.8097C273.719 91.5803 273.589 91.292 273.509 90.9448C273.434 90.5976 273.397 90.1884 273.397 89.7172V85.8856H274.178ZM281.569 92.4886C281.042 92.4886 280.593 92.3894 280.221 92.191C279.849 91.9864 279.533 91.7074 279.272 91.354L279.849 90.8704C280.078 91.1742 280.332 91.4067 280.611 91.5679C280.89 91.7229 281.219 91.8004 281.597 91.8004C282.062 91.8004 282.416 91.6888 282.657 91.4656C282.905 91.2424 283.029 90.9448 283.029 90.5728C283.029 90.2628 282.936 90.0241 282.75 89.8567C282.564 89.6893 282.257 89.556 281.83 89.4568L281.3 89.3359C280.704 89.1995 280.249 88.9949 279.932 88.7221C279.622 88.4431 279.467 88.0525 279.467 87.5503C279.467 87.2651 279.52 87.0109 279.626 86.7877C279.731 86.5645 279.877 86.3785 280.063 86.2297C280.255 86.0809 280.481 85.9693 280.742 85.8949C281.008 85.8143 281.3 85.774 281.616 85.774C282.106 85.774 282.524 85.8639 282.871 86.0437C283.225 86.2235 283.522 86.487 283.764 86.8342L283.178 87.262C282.998 87.014 282.781 86.8187 282.527 86.6761C282.273 86.5335 281.957 86.4622 281.579 86.4622C281.163 86.4622 280.835 86.5521 280.593 86.7319C280.357 86.9055 280.239 87.169 280.239 87.5224C280.239 87.8324 280.339 88.068 280.537 88.2292C280.742 88.3842 281.048 88.5082 281.458 88.6012L281.988 88.7221C282.626 88.8647 283.088 89.0817 283.373 89.3731C283.659 89.6645 283.801 90.052 283.801 90.5356C283.801 90.8332 283.749 91.1029 283.643 91.3447C283.544 91.5865 283.398 91.7911 283.206 91.9585C283.014 92.1259 282.778 92.2561 282.499 92.3491C282.226 92.4421 281.916 92.4886 281.569 92.4886ZM285.15 85.8856H287.326C287.729 85.8856 288.095 85.9538 288.424 86.0902C288.752 86.2266 289.031 86.4312 289.261 86.704C289.496 86.9706 289.676 87.3085 289.8 87.7177C289.924 88.1207 289.986 88.5919 289.986 89.1313C289.986 89.6707 289.924 90.145 289.8 90.5542C289.676 90.9572 289.496 91.2951 289.261 91.5679C289.031 91.8345 288.752 92.036 288.424 92.1724C288.095 92.3088 287.729 92.377 287.326 92.377H285.15V85.8856ZM287.326 91.6888C287.593 91.6888 287.838 91.6454 288.061 91.5586C288.284 91.4656 288.477 91.3323 288.638 91.1587C288.799 90.9851 288.923 90.7743 289.01 90.5263C289.103 90.2721 289.149 89.9838 289.149 89.6614V88.6012C289.149 88.2788 289.103 87.9936 289.01 87.7456C288.923 87.4914 288.799 87.2775 288.638 87.1039C288.477 86.9303 288.284 86.8001 288.061 86.7133C287.838 86.6203 287.593 86.5738 287.326 86.5738H285.931V91.6888H287.326Z" fill="#606367"/>
<path d="M210.51 74.156V72.633H214.311V74.156H210.51ZM219.282 77.7369C218.688 77.7369 218.171 77.6271 217.732 77.4076C217.293 77.179 216.932 76.8542 216.648 76.4335C216.364 76.0128 216.154 75.496 216.017 74.8831C215.88 74.2703 215.811 73.5706 215.811 72.784C215.811 72.0065 215.88 71.3113 216.017 70.6985C216.154 70.0765 216.364 69.5552 216.648 69.1344C216.932 68.7137 217.293 68.3935 217.732 68.174C218.171 67.9453 218.688 67.831 219.282 67.831C220.471 67.831 221.345 68.2655 221.903 69.1344C222.47 70.0034 222.753 71.2199 222.753 72.784C222.753 74.348 222.47 75.5646 221.903 76.4335C221.345 77.3024 220.471 77.7369 219.282 77.7369ZM219.282 76.4198C219.612 76.4198 219.891 76.3558 220.119 76.2277C220.357 76.0905 220.549 75.8984 220.695 75.6515C220.842 75.4045 220.947 75.1118 221.011 74.7734C221.075 74.4258 221.107 74.0416 221.107 73.6209V71.947C221.107 71.5263 221.075 71.1467 221.011 70.8083C220.947 70.4607 220.842 70.1634 220.695 69.9165C220.549 69.6695 220.357 69.482 220.119 69.3539C219.891 69.2167 219.612 69.1481 219.282 69.1481C218.953 69.1481 218.669 69.2167 218.432 69.3539C218.203 69.482 218.015 69.6695 217.869 69.9165C217.723 70.1634 217.618 70.4607 217.554 70.8083C217.49 71.1467 217.458 71.5263 217.458 71.947V73.6209C217.458 74.0416 217.49 74.4258 217.554 74.7734C217.618 75.1118 217.723 75.4045 217.869 75.6515C218.015 75.8984 218.203 76.0905 218.432 76.2277C218.669 76.3558 218.953 76.4198 219.282 76.4198ZM225.382 77.7369C225.044 77.7369 224.792 77.65 224.628 77.4762C224.463 77.2933 224.381 77.0692 224.381 76.8039V76.5981C224.381 76.3329 224.463 76.1134 224.628 75.9396C224.792 75.7566 225.044 75.6652 225.382 75.6652C225.721 75.6652 225.972 75.7566 226.137 75.9396C226.302 76.1134 226.384 76.3329 226.384 76.5981V76.8039C226.384 77.0692 226.302 77.2933 226.137 77.4762C225.972 77.65 225.721 77.7369 225.382 77.7369ZM231.488 77.7369C230.894 77.7369 230.377 77.6271 229.938 77.4076C229.499 77.179 229.138 76.8542 228.854 76.4335C228.571 76.0128 228.36 75.496 228.223 74.8831C228.086 74.2703 228.017 73.5706 228.017 72.784C228.017 72.0065 228.086 71.3113 228.223 70.6985C228.36 70.0765 228.571 69.5552 228.854 69.1344C229.138 68.7137 229.499 68.3935 229.938 68.174C230.377 67.9453 230.894 67.831 231.488 67.831C232.677 67.831 233.551 68.2655 234.109 69.1344C234.676 70.0034 234.96 71.2199 234.96 72.784C234.96 74.348 234.676 75.5646 234.109 76.4335C233.551 77.3024 232.677 77.7369 231.488 77.7369ZM231.488 76.4198C231.818 76.4198 232.097 76.3558 232.325 76.2277C232.563 76.0905 232.755 75.8984 232.901 75.6515C233.048 75.4045 233.153 75.1118 233.217 74.7734C233.281 74.4258 233.313 74.0416 233.313 73.6209V71.947C233.313 71.5263 233.281 71.1467 233.217 70.8083C233.153 70.4607 233.048 70.1634 232.901 69.9165C232.755 69.6695 232.563 69.482 232.325 69.3539C232.097 69.2167 231.818 69.1481 231.488 69.1481C231.159 69.1481 230.875 69.2167 230.638 69.3539C230.409 69.482 230.222 69.6695 230.075 69.9165C229.929 70.1634 229.824 70.4607 229.76 70.8083C229.696 71.1467 229.664 71.5263 229.664 71.947V73.6209C229.664 74.0416 229.696 74.4258 229.76 74.7734C229.824 75.1118 229.929 75.4045 230.075 75.6515C230.222 75.8984 230.409 76.0905 230.638 76.2277C230.875 76.3558 231.159 76.4198 231.488 76.4198ZM239.715 77.7369C239.12 77.7369 238.604 77.6271 238.165 77.4076C237.726 77.179 237.364 76.8542 237.081 76.4335C236.797 76.0128 236.587 75.496 236.45 74.8831C236.312 74.2703 236.244 73.5706 236.244 72.784C236.244 72.0065 236.312 71.3113 236.45 70.6985C236.587 70.0765 236.797 69.5552 237.081 69.1344C237.364 68.7137 237.726 68.3935 238.165 68.174C238.604 67.9453 239.12 67.831 239.715 67.831C240.904 67.831 241.778 68.2655 242.336 69.1344C242.903 70.0034 243.186 71.2199 243.186 72.784C243.186 74.348 242.903 75.5646 242.336 76.4335C241.778 77.3024 240.904 77.7369 239.715 77.7369ZM239.715 76.4198C240.044 76.4198 240.323 76.3558 240.552 76.2277C240.79 76.0905 240.982 75.8984 241.128 75.6515C241.275 75.4045 241.38 75.1118 241.444 74.7734C241.508 74.4258 241.54 74.0416 241.54 73.6209V71.947C241.54 71.5263 241.508 71.1467 241.444 70.8083C241.38 70.4607 241.275 70.1634 241.128 69.9165C240.982 69.6695 240.79 69.482 240.552 69.3539C240.323 69.2167 240.044 69.1481 239.715 69.1481C239.386 69.1481 239.102 69.2167 238.864 69.3539C238.636 69.482 238.448 69.6695 238.302 69.9165C238.155 70.1634 238.05 70.4607 237.986 70.8083C237.922 71.1467 237.89 71.5263 237.89 71.947V73.6209C237.89 74.0416 237.922 74.4258 237.986 74.7734C238.05 75.1118 238.155 75.4045 238.302 75.6515C238.448 75.8984 238.636 76.0905 238.864 76.2277C239.102 76.3558 239.386 76.4198 239.715 76.4198ZM247.942 77.7369C247.347 77.7369 246.83 77.6271 246.391 77.4076C245.952 77.179 245.591 76.8542 245.307 76.4335C245.024 76.0128 244.814 75.496 244.676 74.8831C244.539 74.2703 244.471 73.5706 244.471 72.784C244.471 72.0065 244.539 71.3113 244.676 70.6985C244.814 70.0765 245.024 69.5552 245.307 69.1344C245.591 68.7137 245.952 68.3935 246.391 68.174C246.83 67.9453 247.347 67.831 247.942 67.831C249.131 67.831 250.004 68.2655 250.562 69.1344C251.129 70.0034 251.413 71.2199 251.413 72.784C251.413 74.348 251.129 75.5646 250.562 76.4335C250.004 77.3024 249.131 77.7369 247.942 77.7369ZM247.942 76.4198C248.271 76.4198 248.55 76.3558 248.779 76.2277C249.016 76.0905 249.209 75.8984 249.355 75.6515C249.501 75.4045 249.606 75.1118 249.67 74.7734C249.734 74.4258 249.766 74.0416 249.766 73.6209V71.947C249.766 71.5263 249.734 71.1467 249.67 70.8083C249.606 70.4607 249.501 70.1634 249.355 69.9165C249.209 69.6695 249.016 69.482 248.779 69.3539C248.55 69.2167 248.271 69.1481 247.942 69.1481C247.612 69.1481 247.329 69.2167 247.091 69.3539C246.862 69.482 246.675 69.6695 246.529 69.9165C246.382 70.1634 246.277 70.4607 246.213 70.8083C246.149 71.1467 246.117 71.5263 246.117 71.947V73.6209C246.117 74.0416 246.149 74.4258 246.213 74.7734C246.277 75.1118 246.382 75.4045 246.529 75.6515C246.675 75.8984 246.862 76.0905 247.091 76.2277C247.329 76.3558 247.612 76.4198 247.942 76.4198ZM253.26 77.5723V76.2826H255.949V69.1207H255.839L253.616 71.4943L252.67 70.6436L255.112 67.9957H257.472V76.2826H259.804V77.5723H253.26ZM264.701 77.5723V67.9957H270.834V69.3677H266.252V72.0294H270.409V73.4014H266.252V76.2003H270.834V77.5723H264.701ZM276.388 69.3677V77.5723H274.837V69.3677H271.984V67.9957H279.242V69.3677H276.388ZM286.639 73.4014H282.303V77.5723H280.753V67.9957H282.303V72.0294H286.639V67.9957H288.189V77.5723H286.639V73.4014Z" fill="#1D1D20"/>
<path d="M90.5529 67.7582H94.0258C94.6538 67.7582 95.2209 67.8613 95.7271 68.0676C96.2426 68.2738 96.6785 68.5831 97.0347 68.9955C97.4003 69.3986 97.6815 69.9094 97.8783 70.5281C98.0751 71.1374 98.1736 71.8498 98.1736 72.6652C98.1736 73.4807 98.0751 74.1978 97.8783 74.8165C97.6815 75.4257 97.4003 75.9366 97.0347 76.349C96.6785 76.7521 96.2426 77.0567 95.7271 77.2629C95.2209 77.4692 94.6538 77.5723 94.0258 77.5723H90.5529V67.7582ZM94.0258 76.1662C94.7569 76.1662 95.3475 75.9366 95.7974 75.4773C96.2473 75.018 96.4723 74.3431 96.4723 73.4526V71.8779C96.4723 70.9874 96.2473 70.3125 95.7974 69.8532C95.3475 69.3939 94.7569 69.1643 94.0258 69.1643H92.1417V76.1662H94.0258ZM102.906 77.741C102.382 77.741 101.913 77.6519 101.5 77.4738C101.088 77.2957 100.737 77.0427 100.446 76.7146C100.155 76.3771 99.9304 75.9741 99.7711 75.5054C99.6211 75.0274 99.5461 74.4978 99.5461 73.9166C99.5461 73.3355 99.6211 72.8105 99.7711 72.3419C99.9304 71.8638 100.155 71.4608 100.446 71.1327C100.737 70.7952 101.088 70.5375 101.5 70.3594C101.913 70.1813 102.382 70.0922 102.906 70.0922C103.441 70.0922 103.909 70.186 104.313 70.3734C104.725 70.5609 105.067 70.8234 105.339 71.1608C105.611 71.4889 105.812 71.8732 105.943 72.3137C106.084 72.7543 106.154 73.2277 106.154 73.7338V74.3103H101.135V74.5493C101.135 75.1117 101.299 75.5757 101.627 75.9413C101.964 76.2975 102.442 76.4756 103.061 76.4756C103.511 76.4756 103.891 76.3771 104.2 76.1803C104.509 75.9835 104.772 75.7163 104.987 75.3789L105.887 76.2647C105.615 76.7146 105.222 77.0755 104.706 77.3473C104.191 77.6098 103.591 77.741 102.906 77.741ZM102.906 71.2873C102.644 71.2873 102.4 71.3342 102.175 71.4279C101.96 71.5217 101.772 71.6529 101.613 71.8216C101.463 71.9904 101.346 72.1919 101.261 72.4262C101.177 72.6606 101.135 72.9183 101.135 73.1995V73.298H104.537V73.1574C104.537 72.5949 104.392 72.145 104.102 71.8076C103.811 71.4608 103.413 71.2873 102.906 71.2873ZM107.851 70.2609H109.384V71.4701H109.454C109.613 71.0296 109.871 70.6921 110.227 70.4578C110.593 70.2141 111.019 70.0922 111.507 70.0922C112.435 70.0922 113.152 70.4297 113.658 71.1046C114.164 71.7701 114.417 72.7074 114.417 73.9166C114.417 75.1258 114.164 76.0678 113.658 76.7427C113.152 77.4082 112.435 77.741 111.507 77.741C111.019 77.741 110.593 77.6191 110.227 77.3754C109.871 77.1317 109.613 76.7943 109.454 76.3631H109.384V80.3843H107.851V70.2609ZM111.043 76.4193C111.577 76.4193 112.003 76.2506 112.322 75.9132C112.641 75.5663 112.8 75.1117 112.8 74.5493V73.2839C112.8 72.7215 112.641 72.2716 112.322 71.9341C112.003 71.5873 111.577 71.4139 111.043 71.4139C110.574 71.4139 110.18 71.5311 109.862 71.7654C109.543 71.9904 109.384 72.2903 109.384 72.6652V75.168C109.384 75.5429 109.543 75.8475 109.862 76.0819C110.18 76.3068 110.574 76.4193 111.043 76.4193ZM119.04 77.741C118.534 77.741 118.07 77.6519 117.648 77.4738C117.236 77.2957 116.884 77.0427 116.594 76.7146C116.303 76.3771 116.078 75.9741 115.919 75.5054C115.759 75.0274 115.68 74.4978 115.68 73.9166C115.68 73.3355 115.759 72.8105 115.919 72.3419C116.078 71.8638 116.303 71.4608 116.594 71.1327C116.884 70.7952 117.236 70.5375 117.648 70.3594C118.07 70.1813 118.534 70.0922 119.04 70.0922C119.546 70.0922 120.006 70.1813 120.418 70.3594C120.84 70.5375 121.196 70.7952 121.487 71.1327C121.777 71.4608 122.002 71.8638 122.161 72.3419C122.321 72.8105 122.4 73.3355 122.4 73.9166C122.4 74.4978 122.321 75.0274 122.161 75.5054C122.002 75.9741 121.777 76.3771 121.487 76.7146C121.196 77.0427 120.84 77.2957 120.418 77.4738C120.006 77.6519 119.546 77.741 119.04 77.741ZM119.04 76.4756C119.565 76.4756 119.987 76.3162 120.305 75.9975C120.624 75.6694 120.784 75.182 120.784 74.5353V73.298C120.784 72.6512 120.624 72.1685 120.305 71.8498C119.987 71.5217 119.565 71.3576 119.04 71.3576C118.515 71.3576 118.093 71.5217 117.775 71.8498C117.456 72.1685 117.297 72.6512 117.297 73.298V74.5353C117.297 75.182 117.456 75.6694 117.775 75.9975C118.093 76.3162 118.515 76.4756 119.04 76.4756ZM126.428 77.741C125.734 77.741 125.153 77.6191 124.685 77.3754C124.216 77.1317 123.808 76.7943 123.461 76.3631L124.446 75.4632C124.717 75.7913 125.017 76.0491 125.345 76.2365C125.683 76.4146 126.072 76.5037 126.512 76.5037C126.962 76.5037 127.295 76.4193 127.511 76.2506C127.736 76.0725 127.848 75.8288 127.848 75.5195C127.848 75.2851 127.768 75.0883 127.609 74.9289C127.459 74.7602 127.192 74.6524 126.808 74.6056L126.133 74.5212C125.383 74.4275 124.792 74.2119 124.361 73.8744C123.939 73.5276 123.728 73.0168 123.728 72.3419C123.728 71.9857 123.794 71.6717 123.925 71.3998C124.057 71.1186 124.239 70.8843 124.474 70.6968C124.717 70.5 125.003 70.35 125.331 70.2469C125.669 70.1438 126.039 70.0922 126.442 70.0922C127.098 70.0922 127.633 70.1953 128.045 70.4016C128.467 70.6078 128.842 70.8937 129.17 71.2592L128.228 72.1591C128.04 71.9341 127.792 71.742 127.483 71.5826C127.183 71.4139 126.836 71.3295 126.442 71.3295C126.02 71.3295 125.706 71.4139 125.5 71.5826C125.303 71.7513 125.205 71.9716 125.205 72.2434C125.205 72.5246 125.294 72.7355 125.472 72.8762C125.65 73.0168 125.936 73.1199 126.33 73.1855L127.004 73.2698C127.811 73.3917 128.396 73.6307 128.762 73.9869C129.137 74.3337 129.324 74.8024 129.324 75.3929C129.324 75.7491 129.254 76.0725 129.114 76.3631C128.982 76.6443 128.79 76.888 128.537 77.0942C128.284 77.3004 127.979 77.4598 127.623 77.5723C127.267 77.6847 126.869 77.741 126.428 77.741ZM131.829 68.9533C131.51 68.9533 131.276 68.8784 131.126 68.7284C130.986 68.5784 130.915 68.3863 130.915 68.1519V67.9129C130.915 67.6786 130.986 67.4864 131.126 67.3364C131.276 67.1864 131.51 67.1115 131.829 67.1115C132.148 67.1115 132.377 67.1864 132.518 67.3364C132.659 67.4864 132.729 67.6786 132.729 67.9129V68.1519C132.729 68.3863 132.659 68.5784 132.518 68.7284C132.377 68.8784 132.148 68.9533 131.829 68.9533ZM131.056 70.2609H132.588V77.5723H131.056V70.2609ZM136.802 77.5723C136.267 77.5723 135.864 77.4364 135.592 77.1645C135.32 76.8833 135.185 76.4896 135.185 75.9835V71.5123H134.046V70.2609H134.664C134.917 70.2609 135.091 70.2047 135.185 70.0922C135.288 69.9797 135.339 69.797 135.339 69.5439V68.2644H136.717V70.2609H138.25V71.5123H136.717V76.3209H138.137V77.5723H136.802ZM144.824 77.5723L142.335 70.2609H143.854L144.964 73.5932L145.71 76.1522H145.794L146.539 73.5932L147.678 70.2609H149.14L146.623 77.5723H144.824ZM153.017 71.7935C153.626 71.7935 154.076 71.667 154.367 71.4139C154.657 71.1514 154.803 70.8187 154.803 70.4156V70.3172C154.803 69.8673 154.662 69.5251 154.381 69.2908C154.1 69.0471 153.72 68.9252 153.242 68.9252C152.773 68.9252 152.375 69.033 152.047 69.2486C151.719 69.4548 151.442 69.7454 151.217 70.1203L150.163 69.2064C150.313 68.9908 150.481 68.7846 150.669 68.5878C150.856 68.3909 151.077 68.2222 151.33 68.0816C151.583 67.9316 151.869 67.8145 152.187 67.7301C152.506 67.6364 152.872 67.5895 153.284 67.5895C153.743 67.5895 154.17 67.6457 154.564 67.7582C154.957 67.8707 155.295 68.0394 155.576 68.2644C155.857 68.48 156.077 68.7471 156.237 69.0658C156.396 69.3752 156.476 69.7267 156.476 70.1203C156.476 70.4297 156.424 70.7109 156.321 70.964C156.227 71.217 156.091 71.442 155.913 71.6389C155.745 71.8263 155.543 71.981 155.309 72.1028C155.084 72.2247 154.845 72.3137 154.592 72.37V72.4403C154.873 72.4965 155.135 72.5903 155.379 72.7215C155.632 72.8433 155.852 73.0074 156.04 73.2136C156.227 73.4104 156.373 73.6495 156.476 73.9307C156.588 74.2025 156.644 74.5165 156.644 74.8727C156.644 75.3039 156.56 75.6976 156.391 76.0538C156.223 76.4006 155.984 76.7005 155.674 76.9536C155.374 77.2067 155.009 77.4035 154.578 77.5441C154.146 77.6754 153.668 77.741 153.143 77.741C152.684 77.741 152.281 77.6894 151.934 77.5863C151.587 77.4926 151.278 77.366 151.006 77.2067C150.744 77.038 150.509 76.8505 150.303 76.6443C150.106 76.4287 149.933 76.2084 149.783 75.9835L150.95 75.0695C151.072 75.2664 151.198 75.4492 151.33 75.6179C151.47 75.7772 151.625 75.9178 151.794 76.0397C151.972 76.1522 152.169 76.2412 152.384 76.3068C152.609 76.3725 152.862 76.4053 153.143 76.4053C153.743 76.4053 154.203 76.2647 154.521 75.9835C154.84 75.6929 154.999 75.2945 154.999 74.7883V74.6899C154.999 74.1838 154.831 73.7994 154.493 73.537C154.156 73.2745 153.678 73.1433 153.059 73.1433H152.019V71.7935H153.017Z" fill="#1D1D20"/>
<path d="M92.4965 92.7054C91.6719 92.7054 91.0302 92.4263 90.5714 91.8683C90.1126 91.3041 89.8832 90.4764 89.8832 89.3852C89.8832 88.294 90.1126 87.457 90.5714 86.8742C91.0302 86.2852 91.6719 85.9907 92.4965 85.9907C93.0421 85.9907 93.4978 86.1147 93.8636 86.3627C94.2356 86.6107 94.5239 86.961 94.7285 87.4136L94.0961 87.7949C93.9659 87.4601 93.7675 87.1935 93.5009 86.9951C93.2343 86.7905 92.8995 86.6882 92.4965 86.6882C92.2175 86.6882 91.9664 86.7409 91.7432 86.8463C91.5262 86.9517 91.3402 87.1036 91.1852 87.302C91.0364 87.4942 90.9217 87.7267 90.8411 87.9995C90.7605 88.2661 90.7202 88.5668 90.7202 88.9016V89.8688C90.7202 90.5384 90.8752 91.0623 91.1852 91.4405C91.4952 91.8187 91.9323 92.0078 92.4965 92.0078C92.9119 92.0078 93.2591 91.9024 93.5381 91.6916C93.8171 91.4746 94.0217 91.1894 94.1519 90.836L94.775 91.2266C94.5704 91.6854 94.2759 92.0481 93.8915 92.3147C93.5071 92.5751 93.0421 92.7054 92.4965 92.7054ZM97.7239 92.7054C97.4015 92.7054 97.107 92.6465 96.8404 92.5286C96.5738 92.4108 96.3444 92.2434 96.1522 92.0264C95.9662 91.8032 95.8205 91.5397 95.7151 91.2359C95.6097 90.9259 95.557 90.5787 95.557 90.1943C95.557 89.8161 95.6097 89.472 95.7151 89.162C95.8205 88.852 95.9662 88.5885 96.1522 88.3715C96.3444 88.1483 96.5738 87.9778 96.8404 87.86C97.107 87.7422 97.4015 87.6833 97.7239 87.6833C98.0463 87.6833 98.3377 87.7422 98.5981 87.86C98.8647 87.9778 99.0941 88.1483 99.2863 88.3715C99.4785 88.5885 99.6273 88.852 99.7327 89.162C99.8381 89.472 99.8908 89.8161 99.8908 90.1943C99.8908 90.5787 99.8381 90.9259 99.7327 91.2359C99.6273 91.5397 99.4785 91.8032 99.2863 92.0264C99.0941 92.2434 98.8647 92.4108 98.5981 92.5286C98.3377 92.6465 98.0463 92.7054 97.7239 92.7054ZM97.7239 92.045C98.1269 92.045 98.4555 91.921 98.7097 91.673C98.9639 91.425 99.091 91.0468 99.091 90.5384V89.8502C99.091 89.3418 98.9639 88.9636 98.7097 88.7156C98.4555 88.4676 98.1269 88.3436 97.7239 88.3436C97.3209 88.3436 96.9923 88.4676 96.7381 88.7156C96.4839 88.9636 96.3568 89.3418 96.3568 89.8502V90.5384C96.3568 91.0468 96.4839 91.425 96.7381 91.673C96.9923 91.921 97.3209 92.045 97.7239 92.045ZM101.114 92.5938V87.7949H101.858V88.5761H101.896C102.013 88.3033 102.178 88.0863 102.389 87.9251C102.606 87.7639 102.894 87.6833 103.253 87.6833C103.749 87.6833 104.14 87.8445 104.425 88.1669C104.717 88.4831 104.862 88.9326 104.862 89.5154V92.5938H104.118V89.6456C104.118 88.7838 103.756 88.3529 103.03 88.3529C102.881 88.3529 102.736 88.3715 102.593 88.4087C102.457 88.4459 102.333 88.5017 102.221 88.5761C102.11 88.6505 102.02 88.7466 101.951 88.8644C101.889 88.976 101.858 89.1093 101.858 89.2643V92.5938H101.114ZM106.661 88.4459H105.879V87.7949H106.661V86.8277C106.661 86.4929 106.747 86.2232 106.921 86.0186C107.095 85.814 107.358 85.7117 107.711 85.7117H108.437V86.3627H107.405V87.7949H110.092V92.5938H109.348V88.4459H107.405V92.5938H106.661V88.4459ZM109.72 86.6696C109.559 86.6696 109.441 86.6324 109.367 86.558C109.299 86.4774 109.265 86.3751 109.265 86.2511V86.1302C109.265 86.0062 109.299 85.907 109.367 85.8326C109.441 85.752 109.559 85.7117 109.72 85.7117C109.881 85.7117 109.996 85.752 110.064 85.8326C110.139 85.907 110.176 86.0062 110.176 86.1302V86.2511C110.176 86.3751 110.139 86.4774 110.064 86.558C109.996 86.6324 109.881 86.6696 109.72 86.6696ZM111.677 92.5938V87.7949H112.421V88.6784H112.467C112.554 88.449 112.709 88.2444 112.932 88.0646C113.156 87.8848 113.462 87.7949 113.853 87.7949H114.141V88.5389H113.704C113.301 88.5389 112.985 88.6164 112.756 88.7714C112.532 88.9202 112.421 89.1093 112.421 89.3387V92.5938H111.677ZM115.092 92.5938V87.7949H115.836V88.5761H115.873C115.929 88.4521 115.991 88.3374 116.059 88.232C116.133 88.1204 116.22 88.0243 116.319 87.9437C116.425 87.8631 116.546 87.8011 116.682 87.7577C116.818 87.7081 116.98 87.6833 117.166 87.6833C117.482 87.6833 117.773 87.7608 118.04 87.9158C118.306 88.0646 118.505 88.3126 118.635 88.6598H118.654C118.74 88.3994 118.902 88.1731 119.137 87.9809C119.379 87.7825 119.704 87.6833 120.114 87.6833C120.603 87.6833 120.985 87.8445 121.258 88.1669C121.537 88.4831 121.676 88.9326 121.676 89.5154V92.5938H120.932V89.6456C120.932 89.2178 120.848 88.8954 120.681 88.6784C120.514 88.4614 120.247 88.3529 119.881 88.3529C119.732 88.3529 119.59 88.3715 119.453 88.4087C119.323 88.4459 119.205 88.5017 119.1 88.5761C118.995 88.6505 118.911 88.7466 118.849 88.8644C118.787 88.976 118.756 89.1093 118.756 89.2643V92.5938H118.012V89.6456C118.012 89.2178 117.928 88.8954 117.761 88.6784C117.593 88.4614 117.333 88.3529 116.98 88.3529C116.831 88.3529 116.688 88.3715 116.552 88.4087C116.415 88.4459 116.294 88.5017 116.189 88.5761C116.084 88.6505 115.997 88.7466 115.929 88.8644C115.867 88.976 115.836 89.1093 115.836 89.2643V92.5938H115.092ZM125.015 92.7054C124.687 92.7054 124.389 92.6465 124.122 92.5286C123.862 92.4108 123.636 92.2434 123.444 92.0264C123.258 91.8032 123.112 91.5397 123.006 91.2359C122.907 90.9259 122.858 90.5787 122.858 90.1943C122.858 89.8161 122.907 89.472 123.006 89.162C123.112 88.852 123.258 88.5885 123.444 88.3715C123.636 88.1483 123.862 87.9778 124.122 87.86C124.389 87.7422 124.687 87.6833 125.015 87.6833C125.338 87.6833 125.626 87.7422 125.88 87.86C126.134 87.9778 126.351 88.1421 126.531 88.3529C126.711 88.5575 126.847 88.8024 126.94 89.0876C127.04 89.3728 127.089 89.6859 127.089 90.0269V90.3803H123.639V90.6035C123.639 90.8081 123.67 91.0003 123.732 91.1801C123.8 91.3537 123.893 91.5056 124.011 91.6358C124.135 91.766 124.284 91.8683 124.457 91.9427C124.637 92.0171 124.839 92.0543 125.062 92.0543C125.366 92.0543 125.629 91.983 125.852 91.8404C126.082 91.6978 126.258 91.4932 126.382 91.2266L126.912 91.6079C126.757 91.9365 126.516 92.2031 126.187 92.4077C125.858 92.6061 125.468 92.7054 125.015 92.7054ZM125.015 88.3064C124.811 88.3064 124.625 88.3436 124.457 88.418C124.29 88.4862 124.144 88.5854 124.02 88.7156C123.902 88.8458 123.809 89.0008 123.741 89.1806C123.673 89.3542 123.639 89.5464 123.639 89.7572V89.8223H126.289V89.72C126.289 89.2922 126.172 88.9512 125.936 88.697C125.707 88.4366 125.4 88.3064 125.015 88.3064ZM131.384 91.8125H131.347C131.056 92.4077 130.587 92.7054 129.943 92.7054C129.645 92.7054 129.375 92.6465 129.134 92.5286C128.892 92.4108 128.684 92.2434 128.51 92.0264C128.343 91.8094 128.213 91.5459 128.12 91.2359C128.033 90.9259 127.99 90.5787 127.99 90.1943C127.99 89.8099 128.033 89.4627 128.12 89.1527C128.213 88.8427 128.343 88.5792 128.51 88.3622C128.684 88.1452 128.892 87.9778 129.134 87.86C129.375 87.7422 129.645 87.6833 129.943 87.6833C130.277 87.6833 130.563 87.7577 130.798 87.9065C131.04 88.0491 131.223 88.2723 131.347 88.5761H131.384V85.7117H132.128V92.5938H131.384V91.8125ZM130.147 92.0357C130.315 92.0357 130.473 92.014 130.622 91.9706C130.777 91.9272 130.91 91.8652 131.021 91.7846C131.133 91.6978 131.22 91.5955 131.282 91.4777C131.35 91.3537 131.384 91.2142 131.384 91.0592V89.2736C131.384 89.1434 131.35 89.0225 131.282 88.9109C131.22 88.7931 131.133 88.6939 131.021 88.6133C130.91 88.5327 130.777 88.4707 130.622 88.4273C130.473 88.3777 130.315 88.3529 130.147 88.3529C129.726 88.3529 129.394 88.4862 129.152 88.7528C128.91 89.0132 128.789 89.3573 128.789 89.7851V90.6035C128.789 91.0313 128.91 91.3785 129.152 91.6451C129.394 91.9055 129.726 92.0357 130.147 92.0357Z" fill="#07638E"/>
<rect x="36.0312" y="117.377" width="270.516" height="57.2754" rx="13.2174" fill="white"/>
<rect x="51.4023" y="131.424" width="29.1798" height="29.1798" rx="14.5899" fill="#0B6E40"/>
<path d="M71.8457 141.66C72.041 141.855 72.041 142.172 71.8457 142.367L64.8457 149.367C64.752 149.461 64.6248 149.514 64.4922 149.514C64.3596 149.514 64.2324 149.461 64.1386 149.367L60.6386 145.867C60.4434 145.672 60.4434 145.355 60.6386 145.16C60.8339 144.965 61.1505 144.965 61.3457 145.16L64.4922 148.307L71.1386 141.66C71.3339 141.465 71.6505 141.465 71.8457 141.66Z" fill="white"/>
<path d="M96.6832 142.848L95.7974 140.19H92.1277L91.27 142.848H89.6531L92.9994 133.034H94.996L98.3423 142.848H96.6832ZM93.9977 134.496H93.9274L92.5073 138.826H95.4037L93.9977 134.496ZM99.7499 135.536H101.282V136.746H101.353C101.512 136.305 101.77 135.968 102.126 135.733C102.492 135.489 102.918 135.368 103.406 135.368C104.333 135.368 105.051 135.705 105.557 136.38C106.063 137.045 106.316 137.983 106.316 139.192C106.316 140.401 106.063 141.343 105.557 142.018C105.051 142.684 104.333 143.016 103.406 143.016C102.918 143.016 102.492 142.895 102.126 142.651C101.77 142.407 101.512 142.07 101.353 141.638H101.282V145.66H99.7499V135.536ZM102.942 141.695C103.476 141.695 103.902 141.526 104.221 141.189C104.54 140.842 104.699 140.387 104.699 139.825V138.559C104.699 137.997 104.54 137.547 104.221 137.21C103.902 136.863 103.476 136.689 102.942 136.689C102.473 136.689 102.079 136.806 101.76 137.041C101.442 137.266 101.282 137.566 101.282 137.941V140.443C101.282 140.818 101.442 141.123 101.76 141.357C102.079 141.582 102.473 141.695 102.942 141.695ZM108.071 135.536H109.603V136.746H109.674C109.833 136.305 110.091 135.968 110.447 135.733C110.812 135.489 111.239 135.368 111.726 135.368C112.654 135.368 113.371 135.705 113.878 136.38C114.384 137.045 114.637 137.983 114.637 139.192C114.637 140.401 114.384 141.343 113.878 142.018C113.371 142.684 112.654 143.016 111.726 143.016C111.239 143.016 110.812 142.895 110.447 142.651C110.091 142.407 109.833 142.07 109.674 141.638H109.603V145.66H108.071V135.536ZM111.262 141.695C111.797 141.695 112.223 141.526 112.542 141.189C112.86 140.842 113.02 140.387 113.02 139.825V138.559C113.02 137.997 112.86 137.547 112.542 137.21C112.223 136.863 111.797 136.689 111.262 136.689C110.794 136.689 110.4 136.806 110.081 137.041C109.763 137.266 109.603 137.566 109.603 137.941V140.443C109.603 140.818 109.763 141.123 110.081 141.357C110.4 141.582 110.794 141.695 111.262 141.695ZM116.391 142.848V135.536H117.924V136.942H117.994C118.097 136.567 118.313 136.239 118.641 135.958C118.969 135.677 119.424 135.536 120.005 135.536H120.413V137.013H119.808C119.199 137.013 118.73 137.111 118.402 137.308C118.083 137.505 117.924 137.795 117.924 138.18V142.848H116.391ZM124.574 143.016C124.067 143.016 123.603 142.927 123.182 142.749C122.769 142.571 122.418 142.318 122.127 141.99C121.836 141.653 121.611 141.249 121.452 140.781C121.293 140.303 121.213 139.773 121.213 139.192C121.213 138.611 121.293 138.086 121.452 137.617C121.611 137.139 121.836 136.736 122.127 136.408C122.418 136.071 122.769 135.813 123.182 135.635C123.603 135.457 124.067 135.368 124.574 135.368C125.08 135.368 125.539 135.457 125.951 135.635C126.373 135.813 126.729 136.071 127.02 136.408C127.311 136.736 127.536 137.139 127.695 137.617C127.854 138.086 127.934 138.611 127.934 139.192C127.934 139.773 127.854 140.303 127.695 140.781C127.536 141.249 127.311 141.653 127.02 141.99C126.729 142.318 126.373 142.571 125.951 142.749C125.539 142.927 125.08 143.016 124.574 143.016ZM124.574 141.751C125.098 141.751 125.52 141.592 125.839 141.273C126.158 140.945 126.317 140.457 126.317 139.811V138.573C126.317 137.927 126.158 137.444 125.839 137.125C125.52 136.797 125.098 136.633 124.574 136.633C124.049 136.633 123.627 136.797 123.308 137.125C122.989 137.444 122.83 137.927 122.83 138.573V139.811C122.83 140.457 122.989 140.945 123.308 141.273C123.627 141.592 124.049 141.751 124.574 141.751ZM131.121 142.848L128.632 135.536H130.15L131.261 138.869L132.006 141.428H132.091L132.836 138.869L133.975 135.536H135.437L132.92 142.848H131.121ZM139.485 143.016C138.96 143.016 138.491 142.927 138.079 142.749C137.667 142.571 137.315 142.318 137.024 141.99C136.734 141.653 136.509 141.249 136.35 140.781C136.2 140.303 136.125 139.773 136.125 139.192C136.125 138.611 136.2 138.086 136.35 137.617C136.509 137.139 136.734 136.736 137.024 136.408C137.315 136.071 137.667 135.813 138.079 135.635C138.491 135.457 138.96 135.368 139.485 135.368C140.019 135.368 140.488 135.461 140.891 135.649C141.303 135.836 141.646 136.099 141.917 136.436C142.189 136.764 142.391 137.149 142.522 137.589C142.663 138.03 142.733 138.503 142.733 139.009V139.586H137.713V139.825C137.713 140.387 137.877 140.851 138.206 141.217C138.543 141.573 139.021 141.751 139.64 141.751C140.09 141.751 140.469 141.653 140.779 141.456C141.088 141.259 141.35 140.992 141.566 140.654L142.466 141.54C142.194 141.99 141.8 142.351 141.285 142.623C140.769 142.885 140.169 143.016 139.485 143.016ZM139.485 136.563C139.223 136.563 138.979 136.61 138.754 136.703C138.538 136.797 138.351 136.928 138.191 137.097C138.042 137.266 137.924 137.467 137.84 137.702C137.756 137.936 137.713 138.194 137.713 138.475V138.573H141.116V138.433C141.116 137.87 140.971 137.42 140.68 137.083C140.39 136.736 139.991 136.563 139.485 136.563ZM149.369 133.034V139.08C149.369 139.914 149.529 140.542 149.847 140.964C150.166 141.385 150.71 141.596 151.478 141.596C152.247 141.596 152.791 141.385 153.109 140.964C153.428 140.542 153.587 139.914 153.587 139.08V133.034H155.148V138.826C155.148 139.548 155.082 140.172 154.951 140.696C154.82 141.221 154.609 141.657 154.318 142.004C154.028 142.341 153.648 142.595 153.18 142.763C152.72 142.932 152.153 143.016 151.478 143.016C150.803 143.016 150.232 142.932 149.763 142.763C149.304 142.595 148.929 142.341 148.638 142.004C148.348 141.657 148.137 141.221 148.005 140.696C147.874 140.172 147.809 139.548 147.809 138.826V133.034H149.369ZM160.442 143.016C159.617 143.016 158.914 142.866 158.333 142.566C157.762 142.267 157.269 141.863 156.857 141.357L157.954 140.331C158.301 140.753 158.68 141.071 159.093 141.287C159.514 141.503 159.992 141.61 160.527 141.61C161.155 141.61 161.628 141.47 161.947 141.189C162.265 140.907 162.425 140.528 162.425 140.05C162.425 139.665 162.312 139.361 162.087 139.136C161.862 138.911 161.464 138.742 160.892 138.63L160.021 138.475C159.064 138.297 158.347 137.983 157.869 137.533C157.391 137.083 157.152 136.464 157.152 135.677C157.152 135.246 157.232 134.857 157.391 134.51C157.56 134.154 157.79 133.858 158.08 133.624C158.38 133.38 158.741 133.193 159.163 133.062C159.585 132.931 160.058 132.865 160.583 132.865C161.323 132.865 161.966 132.996 162.509 133.259C163.053 133.512 163.517 133.882 163.901 134.369L162.79 135.354C162.537 135.025 162.228 134.763 161.862 134.566C161.497 134.369 161.042 134.271 160.499 134.271C159.936 134.271 159.5 134.383 159.191 134.608C158.882 134.833 158.727 135.161 158.727 135.593C158.727 136.005 158.854 136.314 159.107 136.521C159.36 136.717 159.753 136.867 160.288 136.97L161.159 137.153C162.144 137.341 162.861 137.659 163.311 138.109C163.77 138.559 164 139.178 164 139.965C164 140.425 163.92 140.842 163.761 141.217C163.601 141.592 163.367 141.915 163.058 142.187C162.758 142.449 162.387 142.655 161.947 142.805C161.506 142.946 161.005 143.016 160.442 143.016ZM165.907 133.034H169.38C170.008 133.034 170.575 133.137 171.081 133.343C171.597 133.549 172.033 133.858 172.389 134.271C172.754 134.674 173.035 135.185 173.232 135.803C173.429 136.413 173.528 137.125 173.528 137.941C173.528 138.756 173.429 139.473 173.232 140.092C173.035 140.701 172.754 141.212 172.389 141.624C172.033 142.027 171.597 142.332 171.081 142.538C170.575 142.745 170.008 142.848 169.38 142.848H165.907V133.034ZM169.38 141.442C170.111 141.442 170.701 141.212 171.151 140.753C171.601 140.293 171.826 139.618 171.826 138.728V137.153C171.826 136.263 171.601 135.588 171.151 135.129C170.701 134.669 170.111 134.44 169.38 134.44H167.496V141.442H169.38ZM179.188 143.016C177.904 143.016 176.897 142.585 176.166 141.723C175.434 140.851 175.069 139.59 175.069 137.941C175.069 137.116 175.163 136.389 175.35 135.761C175.537 135.133 175.809 134.604 176.166 134.172C176.522 133.741 176.953 133.418 177.459 133.202C177.975 132.977 178.551 132.865 179.188 132.865C180.041 132.865 180.754 133.052 181.326 133.427C181.907 133.802 182.361 134.355 182.689 135.086L181.354 135.818C181.185 135.349 180.923 134.979 180.566 134.707C180.22 134.426 179.76 134.285 179.188 134.285C178.429 134.285 177.834 134.543 177.403 135.058C176.972 135.574 176.756 136.286 176.756 137.195V138.686C176.756 139.595 176.972 140.307 177.403 140.823C177.834 141.339 178.429 141.596 179.188 141.596C179.779 141.596 180.257 141.446 180.623 141.146C180.998 140.837 181.274 140.443 181.452 139.965L182.732 140.739C182.404 141.451 181.944 142.009 181.354 142.412C180.763 142.815 180.041 143.016 179.188 143.016ZM189.946 143.016C189.253 143.016 188.671 142.895 188.203 142.651C187.734 142.407 187.326 142.07 186.979 141.638L187.964 140.739C188.236 141.067 188.535 141.324 188.864 141.512C189.201 141.69 189.59 141.779 190.031 141.779C190.48 141.779 190.813 141.695 191.029 141.526C191.254 141.348 191.366 141.104 191.366 140.795C191.366 140.561 191.287 140.364 191.127 140.204C190.977 140.036 190.71 139.928 190.326 139.881L189.651 139.797C188.901 139.703 188.311 139.487 187.879 139.15C187.458 138.803 187.247 138.292 187.247 137.617C187.247 137.261 187.312 136.947 187.443 136.675C187.575 136.394 187.757 136.16 187.992 135.972C188.236 135.775 188.521 135.625 188.849 135.522C189.187 135.419 189.557 135.368 189.96 135.368C190.616 135.368 191.151 135.471 191.563 135.677C191.985 135.883 192.36 136.169 192.688 136.535L191.746 137.434C191.558 137.21 191.31 137.017 191.001 136.858C190.701 136.689 190.354 136.605 189.96 136.605C189.538 136.605 189.224 136.689 189.018 136.858C188.821 137.027 188.723 137.247 188.723 137.519C188.723 137.8 188.812 138.011 188.99 138.152C189.168 138.292 189.454 138.395 189.848 138.461L190.523 138.545C191.329 138.667 191.915 138.906 192.28 139.262C192.655 139.609 192.843 140.078 192.843 140.668C192.843 141.025 192.772 141.348 192.632 141.638C192.5 141.92 192.308 142.163 192.055 142.37C191.802 142.576 191.497 142.735 191.141 142.848C190.785 142.96 190.387 143.016 189.946 143.016ZM194.574 135.536H196.107V136.746H196.177C196.336 136.305 196.594 135.968 196.95 135.733C197.316 135.489 197.742 135.368 198.23 135.368C199.158 135.368 199.875 135.705 200.381 136.38C200.887 137.045 201.14 137.983 201.14 139.192C201.14 140.401 200.887 141.343 200.381 142.018C199.875 142.684 199.158 143.016 198.23 143.016C197.742 143.016 197.316 142.895 196.95 142.651C196.594 142.407 196.336 142.07 196.177 141.638H196.107V145.66H194.574V135.536ZM197.766 141.695C198.3 141.695 198.726 141.526 199.045 141.189C199.364 140.842 199.523 140.387 199.523 139.825V138.559C199.523 137.997 199.364 137.547 199.045 137.21C198.726 136.863 198.3 136.689 197.766 136.689C197.297 136.689 196.903 136.806 196.585 137.041C196.266 137.266 196.107 137.566 196.107 137.941V140.443C196.107 140.818 196.266 141.123 196.585 141.357C196.903 141.582 197.297 141.695 197.766 141.695ZM205.763 143.016C205.238 143.016 204.769 142.927 204.357 142.749C203.945 142.571 203.593 142.318 203.303 141.99C203.012 141.653 202.787 141.249 202.628 140.781C202.478 140.303 202.403 139.773 202.403 139.192C202.403 138.611 202.478 138.086 202.628 137.617C202.787 137.139 203.012 136.736 203.303 136.408C203.593 136.071 203.945 135.813 204.357 135.635C204.769 135.457 205.238 135.368 205.763 135.368C206.297 135.368 206.766 135.461 207.169 135.649C207.582 135.836 207.924 136.099 208.195 136.436C208.467 136.764 208.669 137.149 208.8 137.589C208.941 138.03 209.011 138.503 209.011 139.009V139.586H203.991V139.825C203.991 140.387 204.156 140.851 204.484 141.217C204.821 141.573 205.299 141.751 205.918 141.751C206.368 141.751 206.747 141.653 207.057 141.456C207.366 141.259 207.628 140.992 207.844 140.654L208.744 141.54C208.472 141.99 208.078 142.351 207.563 142.623C207.047 142.885 206.447 143.016 205.763 143.016ZM205.763 136.563C205.501 136.563 205.257 136.61 205.032 136.703C204.816 136.797 204.629 136.928 204.47 137.097C204.32 137.266 204.202 137.467 204.118 137.702C204.034 137.936 203.991 138.194 203.991 138.475V138.573H207.394V138.433C207.394 137.87 207.249 137.42 206.958 137.083C206.668 136.736 206.269 136.563 205.763 136.563ZM210.708 142.848V135.536H212.24V136.746H212.31C212.47 136.352 212.709 136.024 213.027 135.761C213.356 135.499 213.801 135.368 214.363 135.368C215.113 135.368 215.694 135.616 216.107 136.113C216.528 136.6 216.739 137.299 216.739 138.208V142.848H215.207V138.405C215.207 137.261 214.748 136.689 213.829 136.689C213.632 136.689 213.435 136.717 213.238 136.774C213.051 136.821 212.882 136.895 212.732 136.999C212.582 137.102 212.46 137.233 212.367 137.392C212.282 137.552 212.24 137.739 212.24 137.955V142.848H210.708ZM223.461 141.638H223.391C223.232 142.07 222.969 142.407 222.604 142.651C222.247 142.895 221.826 143.016 221.338 143.016C220.41 143.016 219.693 142.684 219.187 142.018C218.681 141.343 218.428 140.401 218.428 139.192C218.428 137.983 218.681 137.045 219.187 136.38C219.693 135.705 220.41 135.368 221.338 135.368C221.826 135.368 222.247 135.489 222.604 135.733C222.969 135.968 223.232 136.305 223.391 136.746H223.461V132.443H224.994V142.848H223.461V141.638ZM221.802 141.695C222.271 141.695 222.665 141.582 222.983 141.357C223.302 141.123 223.461 140.818 223.461 140.443V137.941C223.461 137.566 223.302 137.266 222.983 137.041C222.665 136.806 222.271 136.689 221.802 136.689C221.268 136.689 220.841 136.863 220.523 137.21C220.204 137.547 220.045 137.997 220.045 138.559V139.825C220.045 140.387 220.204 140.842 220.523 141.189C220.841 141.526 221.268 141.695 221.802 141.695ZM227.958 134.229C227.639 134.229 227.405 134.154 227.255 134.004C227.114 133.854 227.044 133.662 227.044 133.427V133.188C227.044 132.954 227.114 132.762 227.255 132.612C227.405 132.462 227.639 132.387 227.958 132.387C228.276 132.387 228.506 132.462 228.647 132.612C228.787 132.762 228.858 132.954 228.858 133.188V133.427C228.858 133.662 228.787 133.854 228.647 134.004C228.506 134.154 228.276 134.229 227.958 134.229ZM227.184 135.536H228.717V142.848H227.184V135.536ZM230.905 142.848V135.536H232.438V136.746H232.508C232.668 136.352 232.907 136.024 233.225 135.761C233.553 135.499 233.999 135.368 234.561 135.368C235.311 135.368 235.892 135.616 236.304 136.113C236.726 136.6 236.937 137.299 236.937 138.208V142.848H235.405V138.405C235.405 137.261 234.945 136.689 234.027 136.689C233.83 136.689 233.633 136.717 233.436 136.774C233.249 136.821 233.08 136.895 232.93 136.999C232.78 137.102 232.658 137.233 232.564 137.392C232.48 137.552 232.438 137.739 232.438 137.955V142.848H230.905ZM245.473 143.537C245.473 144.296 245.182 144.868 244.601 145.252C244.02 145.636 243.073 145.828 241.761 145.828C241.161 145.828 240.65 145.786 240.228 145.702C239.816 145.627 239.474 145.514 239.202 145.364C238.94 145.214 238.747 145.032 238.626 144.816C238.504 144.6 238.443 144.352 238.443 144.071C238.443 143.668 238.551 143.354 238.766 143.129C238.991 142.904 239.3 142.749 239.694 142.665V142.51C239.141 142.332 238.865 141.957 238.865 141.385C238.865 141.01 238.991 140.725 239.244 140.528C239.497 140.322 239.802 140.176 240.158 140.092V140.036C239.727 139.829 239.394 139.544 239.16 139.178C238.935 138.803 238.822 138.367 238.822 137.87C238.822 137.12 239.071 136.516 239.568 136.057C240.074 135.597 240.795 135.368 241.733 135.368C242.248 135.368 242.689 135.443 243.054 135.593V135.396C243.054 135.068 243.129 134.815 243.279 134.636C243.439 134.449 243.683 134.355 244.011 134.355H245.135V135.593H243.645V135.888C243.973 136.103 244.226 136.385 244.404 136.731C244.582 137.069 244.671 137.449 244.671 137.87C244.671 138.611 244.418 139.211 243.912 139.67C243.406 140.12 242.684 140.345 241.747 140.345C241.391 140.345 241.072 140.307 240.791 140.232C240.603 140.298 240.439 140.392 240.299 140.514C240.158 140.626 240.088 140.776 240.088 140.964C240.088 141.16 240.177 141.301 240.355 141.385C240.533 141.47 240.786 141.512 241.114 141.512H242.914C243.814 141.512 244.465 141.695 244.868 142.06C245.271 142.416 245.473 142.909 245.473 143.537ZM244.039 143.705C244.039 143.452 243.94 143.251 243.743 143.101C243.556 142.951 243.209 142.876 242.703 142.876H240.228C239.891 143.073 239.722 143.354 239.722 143.719C239.722 144.019 239.839 144.258 240.074 144.436C240.317 144.624 240.725 144.718 241.297 144.718H242.253C243.443 144.718 244.039 144.38 244.039 143.705ZM241.747 139.234C242.197 139.234 242.544 139.136 242.787 138.939C243.04 138.733 243.167 138.419 243.167 137.997V137.716C243.167 137.294 243.04 136.985 242.787 136.788C242.544 136.581 242.197 136.478 241.747 136.478C241.297 136.478 240.945 136.581 240.692 136.788C240.449 136.985 240.327 137.294 240.327 137.716V137.997C240.327 138.419 240.449 138.733 240.692 138.939C240.945 139.136 241.297 139.234 241.747 139.234ZM252.762 143.016C252.237 143.016 251.769 142.927 251.356 142.749C250.944 142.571 250.597 142.318 250.316 141.99C250.035 141.653 249.819 141.249 249.669 140.781C249.519 140.303 249.444 139.773 249.444 139.192C249.444 138.611 249.519 138.086 249.669 137.617C249.819 137.139 250.035 136.736 250.316 136.408C250.597 136.071 250.944 135.813 251.356 135.635C251.769 135.457 252.237 135.368 252.762 135.368C253.493 135.368 254.093 135.532 254.562 135.86C255.031 136.188 255.373 136.624 255.588 137.167L254.323 137.758C254.22 137.42 254.037 137.153 253.775 136.956C253.521 136.75 253.184 136.647 252.762 136.647C252.2 136.647 251.773 136.825 251.483 137.181C251.202 137.528 251.061 137.983 251.061 138.545V139.853C251.061 140.415 251.202 140.875 251.483 141.231C251.773 141.578 252.2 141.751 252.762 141.751C253.212 141.751 253.568 141.643 253.831 141.428C254.103 141.203 254.318 140.907 254.478 140.542L255.645 141.16C255.401 141.76 255.035 142.22 254.548 142.538C254.06 142.857 253.465 143.016 252.762 143.016ZM262.46 142.848C262.057 142.848 261.748 142.735 261.532 142.51C261.317 142.276 261.186 141.981 261.139 141.624H261.069C260.928 142.084 260.67 142.431 260.295 142.665C259.92 142.899 259.466 143.016 258.931 143.016C258.172 143.016 257.586 142.82 257.174 142.426C256.771 142.032 256.569 141.503 256.569 140.837C256.569 140.106 256.832 139.558 257.357 139.192C257.891 138.826 258.669 138.644 259.691 138.644H261.012V138.025C261.012 137.575 260.89 137.228 260.647 136.985C260.403 136.741 260.023 136.619 259.508 136.619C259.077 136.619 258.725 136.713 258.453 136.9C258.181 137.088 257.952 137.327 257.764 137.617L256.85 136.788C257.094 136.375 257.436 136.038 257.877 135.775C258.317 135.504 258.894 135.368 259.606 135.368C260.553 135.368 261.279 135.588 261.786 136.028C262.292 136.469 262.545 137.102 262.545 137.927V141.596H263.318V142.848H262.46ZM259.367 141.849C259.845 141.849 260.239 141.746 260.548 141.54C260.858 141.324 261.012 141.039 261.012 140.682V139.628H259.719C258.66 139.628 258.13 139.956 258.13 140.612V140.865C258.13 141.193 258.238 141.442 258.453 141.61C258.678 141.77 258.983 141.849 259.367 141.849ZM264.82 135.536H266.353V136.746H266.423C266.582 136.305 266.84 135.968 267.196 135.733C267.562 135.489 267.988 135.368 268.476 135.368C269.404 135.368 270.121 135.705 270.627 136.38C271.133 137.045 271.386 137.983 271.386 139.192C271.386 140.401 271.133 141.343 270.627 142.018C270.121 142.684 269.404 143.016 268.476 143.016C267.988 143.016 267.562 142.895 267.196 142.651C266.84 142.407 266.582 142.07 266.423 141.638H266.353V145.66H264.82V135.536ZM268.012 141.695C268.546 141.695 268.973 141.526 269.291 141.189C269.61 140.842 269.769 140.387 269.769 139.825V138.559C269.769 137.997 269.61 137.547 269.291 137.21C268.973 136.863 268.546 136.689 268.012 136.689C267.543 136.689 267.149 136.806 266.831 137.041C266.512 137.266 266.353 137.566 266.353 137.941V140.443C266.353 140.818 266.512 141.123 266.831 141.357C267.149 141.582 267.543 141.695 268.012 141.695Z" fill="#1D1D20"/>
<path d="M92.4965 158.981C91.6719 158.981 91.0302 158.702 90.5714 158.144C90.1126 157.58 89.8832 156.752 89.8832 155.661C89.8832 154.569 90.1126 153.732 90.5714 153.15C91.0302 152.561 91.6719 152.266 92.4965 152.266C93.0421 152.266 93.4978 152.39 93.8636 152.638C94.2356 152.886 94.5239 153.236 94.7285 153.689L94.0961 154.07C93.9659 153.736 93.7675 153.469 93.5009 153.271C93.2343 153.066 92.8995 152.964 92.4965 152.964C92.2175 152.964 91.9664 153.016 91.7432 153.122C91.5262 153.227 91.3402 153.379 91.1852 153.577C91.0364 153.77 90.9217 154.002 90.8411 154.275C90.7605 154.542 90.7202 154.842 90.7202 155.177V156.144C90.7202 156.814 90.8752 157.338 91.1852 157.716C91.4952 158.094 91.9323 158.283 92.4965 158.283C92.9119 158.283 93.2591 158.178 93.5381 157.967C93.8171 157.75 94.0217 157.465 94.1519 157.111L94.775 157.502C94.5704 157.961 94.2759 158.324 93.8915 158.59C93.5071 158.851 93.0421 158.981 92.4965 158.981ZM97.7239 158.981C97.4015 158.981 97.107 158.922 96.8404 158.804C96.5738 158.686 96.3444 158.519 96.1522 158.302C95.9662 158.079 95.8205 157.815 95.7151 157.511C95.6097 157.201 95.557 156.854 95.557 156.47C95.557 156.092 95.6097 155.747 95.7151 155.437C95.8205 155.127 95.9662 154.864 96.1522 154.647C96.3444 154.424 96.5738 154.253 96.8404 154.135C97.107 154.018 97.4015 153.959 97.7239 153.959C98.0463 153.959 98.3377 154.018 98.5981 154.135C98.8647 154.253 99.0941 154.424 99.2863 154.647C99.4785 154.864 99.6273 155.127 99.7327 155.437C99.8381 155.747 99.8908 156.092 99.8908 156.47C99.8908 156.854 99.8381 157.201 99.7327 157.511C99.6273 157.815 99.4785 158.079 99.2863 158.302C99.0941 158.519 98.8647 158.686 98.5981 158.804C98.3377 158.922 98.0463 158.981 97.7239 158.981ZM97.7239 158.32C98.1269 158.32 98.4555 158.196 98.7097 157.948C98.9639 157.7 99.091 157.322 99.091 156.814V156.126C99.091 155.617 98.9639 155.239 98.7097 154.991C98.4555 154.743 98.1269 154.619 97.7239 154.619C97.3209 154.619 96.9923 154.743 96.7381 154.991C96.4839 155.239 96.3568 155.617 96.3568 156.126V156.814C96.3568 157.322 96.4839 157.7 96.7381 157.948C96.9923 158.196 97.3209 158.32 97.7239 158.32ZM101.114 158.869V154.07H101.858V154.852H101.896C102.013 154.579 102.178 154.362 102.389 154.201C102.606 154.039 102.894 153.959 103.253 153.959C103.749 153.959 104.14 154.12 104.425 154.442C104.717 154.759 104.862 155.208 104.862 155.791V158.869H104.118V155.921C104.118 155.059 103.756 154.628 103.03 154.628C102.881 154.628 102.736 154.647 102.593 154.684C102.457 154.721 102.333 154.777 102.221 154.852C102.11 154.926 102.02 155.022 101.951 155.14C101.889 155.251 101.858 155.385 101.858 155.54V158.869H101.114ZM106.661 154.721H105.879V154.07H106.661V153.103C106.661 152.768 106.747 152.499 106.921 152.294C107.095 152.089 107.358 151.987 107.711 151.987H108.437V152.638H107.405V154.07H110.092V158.869H109.348V154.721H107.405V158.869H106.661V154.721ZM109.72 152.945C109.559 152.945 109.441 152.908 109.367 152.833C109.299 152.753 109.265 152.651 109.265 152.527V152.406C109.265 152.282 109.299 152.182 109.367 152.108C109.441 152.027 109.559 151.987 109.72 151.987C109.881 151.987 109.996 152.027 110.064 152.108C110.139 152.182 110.176 152.282 110.176 152.406V152.527C110.176 152.651 110.139 152.753 110.064 152.833C109.996 152.908 109.881 152.945 109.72 152.945ZM111.677 158.869V154.07H112.421V154.954H112.467C112.554 154.724 112.709 154.52 112.932 154.34C113.156 154.16 113.462 154.07 113.853 154.07H114.141V154.814H113.704C113.301 154.814 112.985 154.892 112.756 155.047C112.532 155.196 112.421 155.385 112.421 155.614V158.869H111.677ZM115.092 158.869V154.07H115.836V154.852H115.873C115.929 154.728 115.991 154.613 116.059 154.507C116.133 154.396 116.22 154.3 116.319 154.219C116.425 154.139 116.546 154.077 116.682 154.033C116.818 153.984 116.98 153.959 117.166 153.959C117.482 153.959 117.773 154.036 118.04 154.191C118.306 154.34 118.505 154.588 118.635 154.935H118.654C118.74 154.675 118.902 154.449 119.137 154.256C119.379 154.058 119.704 153.959 120.114 153.959C120.603 153.959 120.985 154.12 121.258 154.442C121.537 154.759 121.676 155.208 121.676 155.791V158.869H120.932V155.921C120.932 155.493 120.848 155.171 120.681 154.954C120.514 154.737 120.247 154.628 119.881 154.628C119.732 154.628 119.59 154.647 119.453 154.684C119.323 154.721 119.205 154.777 119.1 154.852C118.995 154.926 118.911 155.022 118.849 155.14C118.787 155.251 118.756 155.385 118.756 155.54V158.869H118.012V155.921C118.012 155.493 117.928 155.171 117.761 154.954C117.593 154.737 117.333 154.628 116.98 154.628C116.831 154.628 116.688 154.647 116.552 154.684C116.415 154.721 116.294 154.777 116.189 154.852C116.084 154.926 115.997 155.022 115.929 155.14C115.867 155.251 115.836 155.385 115.836 155.54V158.869H115.092ZM125.015 158.981C124.687 158.981 124.389 158.922 124.122 158.804C123.862 158.686 123.636 158.519 123.444 158.302C123.258 158.079 123.112 157.815 123.006 157.511C122.907 157.201 122.858 156.854 122.858 156.47C122.858 156.092 122.907 155.747 123.006 155.437C123.112 155.127 123.258 154.864 123.444 154.647C123.636 154.424 123.862 154.253 124.122 154.135C124.389 154.018 124.687 153.959 125.015 153.959C125.338 153.959 125.626 154.018 125.88 154.135C126.134 154.253 126.351 154.418 126.531 154.628C126.711 154.833 126.847 155.078 126.94 155.363C127.04 155.648 127.089 155.961 127.089 156.302V156.656H123.639V156.879C123.639 157.084 123.67 157.276 123.732 157.456C123.8 157.629 123.893 157.781 124.011 157.911C124.135 158.041 124.284 158.144 124.457 158.218C124.637 158.293 124.839 158.33 125.062 158.33C125.366 158.33 125.629 158.258 125.852 158.116C126.082 157.973 126.258 157.769 126.382 157.502L126.912 157.883C126.757 158.212 126.516 158.479 126.187 158.683C125.858 158.882 125.468 158.981 125.015 158.981ZM125.015 154.582C124.811 154.582 124.625 154.619 124.457 154.693C124.29 154.762 124.144 154.861 124.02 154.991C123.902 155.121 123.809 155.276 123.741 155.456C123.673 155.63 123.639 155.822 123.639 156.033V156.098H126.289V155.995C126.289 155.568 126.172 155.227 125.936 154.972C125.707 154.712 125.4 154.582 125.015 154.582ZM131.384 158.088H131.347C131.056 158.683 130.587 158.981 129.943 158.981C129.645 158.981 129.375 158.922 129.134 158.804C128.892 158.686 128.684 158.519 128.51 158.302C128.343 158.085 128.213 157.821 128.12 157.511C128.033 157.201 127.99 156.854 127.99 156.47C127.99 156.085 128.033 155.738 128.12 155.428C128.213 155.118 128.343 154.855 128.51 154.638C128.684 154.421 128.892 154.253 129.134 154.135C129.375 154.018 129.645 153.959 129.943 153.959C130.277 153.959 130.563 154.033 130.798 154.182C131.04 154.325 131.223 154.548 131.347 154.852H131.384V151.987H132.128V158.869H131.384V158.088ZM130.147 158.311C130.315 158.311 130.473 158.289 130.622 158.246C130.777 158.203 130.91 158.141 131.021 158.06C131.133 157.973 131.22 157.871 131.282 157.753C131.35 157.629 131.384 157.49 131.384 157.335V155.549C131.384 155.419 131.35 155.298 131.282 155.186C131.22 155.069 131.133 154.969 131.021 154.889C130.91 154.808 130.777 154.746 130.622 154.703C130.473 154.653 130.315 154.628 130.147 154.628C129.726 154.628 129.394 154.762 129.152 155.028C128.91 155.289 128.789 155.633 128.789 156.061V156.879C128.789 157.307 128.91 157.654 129.152 157.921C129.394 158.181 129.726 158.311 130.147 158.311Z" fill="#0B6E40"/>
<rect x="36.0312" y="182.652" width="270.516" height="57.2754" rx="13.2174" fill="white"/>
<rect x="51.4023" y="196.699" width="29.1798" height="29.1798" rx="14.5899" fill="#4B468D"/>
<path d="M63.3672 210.164L65.9922 212.789L68.6172 210.164" stroke="white" stroke-linecap="round" stroke-linejoin="round"/>
<path d="M65.9922 205.789V212.789" stroke="white" stroke-linecap="round" stroke-linejoin="round"/>
<path d="M71.4922 212.789V216.289C71.4922 216.422 71.4395 216.549 71.3457 216.643C71.252 216.736 71.1248 216.789 70.9922 216.789H60.9922C60.8596 216.789 60.7324 216.736 60.6386 216.643C60.5449 216.549 60.4922 216.422 60.4922 216.289V212.789" stroke="white" stroke-linecap="round" stroke-linejoin="round"/>
<path d="M92.1417 208.123H90.5529V198.309H94.7851C95.6662 198.309 96.3598 198.576 96.866 199.11C97.3721 199.635 97.6252 200.352 97.6252 201.262C97.6252 201.965 97.4612 202.551 97.1331 203.019C96.8144 203.478 96.3411 203.802 95.713 203.989L97.8361 208.123H96.0645L94.0961 204.158H92.1417V208.123ZM94.6726 202.822C95.0756 202.822 95.3896 202.719 95.6146 202.513C95.8396 202.297 95.9521 201.993 95.9521 201.599V200.924C95.9521 200.531 95.8396 200.231 95.6146 200.024C95.3896 199.809 95.0756 199.701 94.6726 199.701H92.1417V202.822H94.6726ZM102.316 208.292C101.791 208.292 101.322 208.203 100.91 208.025C100.498 207.847 100.146 207.593 99.8555 207.265C99.5649 206.928 99.34 206.525 99.1806 206.056C99.0307 205.578 98.9557 205.049 98.9557 204.467C98.9557 203.886 99.0307 203.361 99.1806 202.893C99.34 202.415 99.5649 202.012 99.8555 201.683C100.146 201.346 100.498 201.088 100.91 200.91C101.322 200.732 101.791 200.643 102.316 200.643C102.85 200.643 103.319 200.737 103.722 200.924C104.135 201.112 104.477 201.374 104.748 201.712C105.02 202.04 105.222 202.424 105.353 202.865C105.494 203.305 105.564 203.778 105.564 204.285V204.861H100.544V205.1C100.544 205.663 100.709 206.126 101.037 206.492C101.374 206.848 101.852 207.026 102.471 207.026C102.921 207.026 103.3 206.928 103.61 206.731C103.919 206.534 104.181 206.267 104.397 205.93L105.297 206.815C105.025 207.265 104.631 207.626 104.116 207.898C103.6 208.161 103 208.292 102.316 208.292ZM102.316 201.838C102.054 201.838 101.81 201.885 101.585 201.979C101.369 202.072 101.182 202.204 101.023 202.372C100.873 202.541 100.755 202.743 100.671 202.977C100.587 203.211 100.544 203.469 100.544 203.75V203.849H103.947V203.708C103.947 203.146 103.802 202.696 103.511 202.358C103.221 202.012 102.822 201.838 102.316 201.838ZM110.087 208.292C109.562 208.292 109.093 208.203 108.681 208.025C108.268 207.847 107.921 207.593 107.64 207.265C107.359 206.928 107.143 206.525 106.993 206.056C106.843 205.578 106.768 205.049 106.768 204.467C106.768 203.886 106.843 203.361 106.993 202.893C107.143 202.415 107.359 202.012 107.64 201.683C107.921 201.346 108.268 201.088 108.681 200.91C109.093 200.732 109.562 200.643 110.087 200.643C110.818 200.643 111.418 200.807 111.886 201.135C112.355 201.463 112.697 201.899 112.913 202.443L111.647 203.033C111.544 202.696 111.361 202.429 111.099 202.232C110.846 202.026 110.508 201.922 110.087 201.922C109.524 201.922 109.098 202.101 108.807 202.457C108.526 202.804 108.385 203.258 108.385 203.821V205.128C108.385 205.691 108.526 206.15 108.807 206.506C109.098 206.853 109.524 207.026 110.087 207.026C110.537 207.026 110.893 206.919 111.155 206.703C111.427 206.478 111.643 206.183 111.802 205.817L112.969 206.436C112.725 207.036 112.36 207.495 111.872 207.814C111.385 208.132 110.79 208.292 110.087 208.292ZM117.214 208.292C116.689 208.292 116.22 208.203 115.808 208.025C115.395 207.847 115.044 207.593 114.753 207.265C114.463 206.928 114.238 206.525 114.078 206.056C113.928 205.578 113.853 205.049 113.853 204.467C113.853 203.886 113.928 203.361 114.078 202.893C114.238 202.415 114.463 202.012 114.753 201.683C115.044 201.346 115.395 201.088 115.808 200.91C116.22 200.732 116.689 200.643 117.214 200.643C117.748 200.643 118.217 200.737 118.62 200.924C119.032 201.112 119.374 201.374 119.646 201.712C119.918 202.04 120.12 202.424 120.251 202.865C120.391 203.305 120.462 203.778 120.462 204.285V204.861H115.442V205.1C115.442 205.663 115.606 206.126 115.934 206.492C116.272 206.848 116.75 207.026 117.369 207.026C117.818 207.026 118.198 206.928 118.507 206.731C118.817 206.534 119.079 206.267 119.295 205.93L120.195 206.815C119.923 207.265 119.529 207.626 119.014 207.898C118.498 208.161 117.898 208.292 117.214 208.292ZM117.214 201.838C116.951 201.838 116.708 201.885 116.483 201.979C116.267 202.072 116.08 202.204 115.92 202.372C115.77 202.541 115.653 202.743 115.569 202.977C115.484 203.211 115.442 203.469 115.442 203.75V203.849H118.845V203.708C118.845 203.146 118.7 202.696 118.409 202.358C118.118 202.012 117.72 201.838 117.214 201.838ZM122.932 199.504C122.613 199.504 122.379 199.429 122.229 199.279C122.088 199.129 122.018 198.937 122.018 198.703V198.464C122.018 198.229 122.088 198.037 122.229 197.887C122.379 197.737 122.613 197.662 122.932 197.662C123.25 197.662 123.48 197.737 123.621 197.887C123.761 198.037 123.831 198.229 123.831 198.464V198.703C123.831 198.937 123.761 199.129 123.621 199.279C123.48 199.429 123.25 199.504 122.932 199.504ZM122.158 200.812H123.691V208.123H122.158V200.812ZM127.468 208.123L124.979 200.812H126.498L127.609 204.144L128.354 206.703H128.438L129.184 204.144L130.322 200.812H131.785L129.268 208.123H127.468ZM135.833 208.292C135.308 208.292 134.839 208.203 134.427 208.025C134.014 207.847 133.663 207.593 133.372 207.265C133.082 206.928 132.857 206.525 132.697 206.056C132.547 205.578 132.472 205.049 132.472 204.467C132.472 203.886 132.547 203.361 132.697 202.893C132.857 202.415 133.082 202.012 133.372 201.683C133.663 201.346 134.014 201.088 134.427 200.91C134.839 200.732 135.308 200.643 135.833 200.643C136.367 200.643 136.836 200.737 137.239 200.924C137.651 201.112 137.993 201.374 138.265 201.712C138.537 202.04 138.738 202.424 138.87 202.865C139.01 203.305 139.081 203.778 139.081 204.285V204.861H134.061V205.1C134.061 205.663 134.225 206.126 134.553 206.492C134.891 206.848 135.369 207.026 135.987 207.026C136.437 207.026 136.817 206.928 137.126 206.731C137.436 206.534 137.698 206.267 137.914 205.93L138.813 206.815C138.542 207.265 138.148 207.626 137.632 207.898C137.117 208.161 136.517 208.292 135.833 208.292ZM135.833 201.838C135.57 201.838 135.326 201.885 135.102 201.979C134.886 202.072 134.698 202.204 134.539 202.372C134.389 202.541 134.272 202.743 134.188 202.977C134.103 203.211 134.061 203.469 134.061 203.75V203.849H137.464V203.708C137.464 203.146 137.318 202.696 137.028 202.358C136.737 202.012 136.339 201.838 135.833 201.838Z" fill="#1D1D20"/>
<path d="M93.2684 219.997V224.805C93.2684 225.078 93.2219 225.326 93.1289 225.549C93.0421 225.772 92.915 225.961 92.7476 226.116C92.5864 226.271 92.3911 226.392 92.1617 226.479C91.9323 226.56 91.6812 226.6 91.4084 226.6C90.9062 226.6 90.5001 226.467 90.1901 226.2C89.8863 225.927 89.691 225.568 89.6042 225.121L90.311 224.954C90.373 225.233 90.4908 225.462 90.6644 225.642C90.838 225.816 91.0922 225.902 91.427 225.902C91.7618 225.902 92.0222 225.8 92.2082 225.595C92.3942 225.391 92.4872 225.081 92.4872 224.665V220.685H90.2552V219.997H93.2684ZM98.3626 226.488C98.0836 226.488 97.8821 226.414 97.7581 226.265C97.6403 226.116 97.5659 225.93 97.5349 225.707H97.4884C97.383 226.005 97.2094 226.228 96.9676 226.377C96.7258 226.525 96.4375 226.6 96.1027 226.6C95.5943 226.6 95.1975 226.47 94.9123 226.209C94.6333 225.949 94.4938 225.595 94.4938 225.149C94.4938 224.696 94.6581 224.349 94.9867 224.107C95.3215 223.866 95.8392 223.745 96.5398 223.745H97.4884V223.27C97.4884 222.929 97.3954 222.669 97.2094 222.489C97.0234 222.309 96.7382 222.22 96.3538 222.22C96.0624 222.22 95.8175 222.285 95.6191 222.415C95.4269 222.545 95.2657 222.719 95.1355 222.936L94.6891 222.517C94.8193 222.257 95.027 222.037 95.3122 221.857C95.5974 221.671 95.957 221.578 96.391 221.578C96.9738 221.578 97.4264 221.72 97.7488 222.006C98.0712 222.291 98.2324 222.688 98.2324 223.196V225.837H98.7811V226.488H98.3626ZM96.2236 225.967C96.4096 225.967 96.5801 225.946 96.7351 225.902C96.8901 225.859 97.0234 225.797 97.135 225.716C97.2466 225.636 97.3334 225.543 97.3954 225.437C97.4574 225.332 97.4884 225.217 97.4884 225.093V224.303H96.5026C96.0748 224.303 95.7617 224.365 95.5633 224.489C95.3711 224.613 95.275 224.793 95.275 225.028V225.223C95.275 225.459 95.3587 225.642 95.5261 225.772C95.6997 225.902 95.9322 225.967 96.2236 225.967ZM99.8429 226.488V221.689H100.587V222.471H100.624C100.742 222.198 100.906 221.981 101.117 221.82C101.334 221.658 101.622 221.578 101.982 221.578C102.478 221.578 102.869 221.739 103.154 222.061C103.445 222.378 103.591 222.827 103.591 223.41V226.488H102.847V223.54C102.847 222.678 102.484 222.247 101.759 222.247C101.61 222.247 101.464 222.266 101.322 222.303C101.185 222.34 101.061 222.396 100.95 222.471C100.838 222.545 100.748 222.641 100.68 222.759C100.618 222.871 100.587 223.004 100.587 223.159V226.488H99.8429ZM107.354 226.488V225.8H109.168V220.573H109.103L107.466 222.099L107.01 221.606L108.731 219.997H109.949V225.8H111.623V226.488H107.354ZM117.069 226.488H112.81V225.688L114.93 223.735C115.234 223.456 115.488 223.162 115.693 222.852C115.898 222.536 116 222.22 116 221.903V221.792C116 221.432 115.901 221.141 115.702 220.918C115.504 220.694 115.203 220.583 114.8 220.583C114.602 220.583 114.428 220.611 114.279 220.666C114.131 220.722 114 220.8 113.889 220.899C113.783 220.998 113.693 221.116 113.619 221.252C113.551 221.383 113.495 221.525 113.452 221.68L112.754 221.41C112.816 221.218 112.9 221.032 113.005 220.852C113.117 220.666 113.253 220.502 113.414 220.36C113.582 220.217 113.78 220.102 114.01 220.015C114.245 219.929 114.521 219.885 114.837 219.885C115.154 219.885 115.436 219.932 115.684 220.025C115.932 220.118 116.139 220.248 116.307 220.415C116.474 220.583 116.601 220.781 116.688 221.011C116.781 221.24 116.828 221.494 116.828 221.773C116.828 222.027 116.79 222.263 116.716 222.48C116.648 222.697 116.552 222.905 116.428 223.103C116.304 223.295 116.152 223.484 115.972 223.67C115.798 223.856 115.609 224.042 115.405 224.228L113.656 225.8H117.069V226.488Z" fill="#4B468D"/>
<path d="M125.209 226.488V219.997H129.077V220.685H125.99V222.861H128.808V223.549H125.99V226.488H125.209ZM130.148 226.488V221.689H130.892V222.573H130.938C131.025 222.344 131.18 222.139 131.403 221.959C131.626 221.779 131.933 221.689 132.324 221.689H132.612V222.433H132.175C131.772 222.433 131.456 222.511 131.226 222.666C131.003 222.815 130.892 223.004 130.892 223.233V226.488H130.148ZM135.33 226.6C135.008 226.6 134.714 226.541 134.447 226.423C134.18 226.305 133.951 226.138 133.759 225.921C133.573 225.698 133.427 225.434 133.322 225.13C133.216 224.82 133.164 224.473 133.164 224.089C133.164 223.711 133.216 223.367 133.322 223.057C133.427 222.747 133.573 222.483 133.759 222.266C133.951 222.043 134.18 221.872 134.447 221.755C134.714 221.637 135.008 221.578 135.33 221.578C135.653 221.578 135.944 221.637 136.205 221.755C136.471 221.872 136.701 222.043 136.893 222.266C137.085 222.483 137.234 222.747 137.339 223.057C137.445 223.367 137.497 223.711 137.497 224.089C137.497 224.473 137.445 224.82 137.339 225.13C137.234 225.434 137.085 225.698 136.893 225.921C136.701 226.138 136.471 226.305 136.205 226.423C135.944 226.541 135.653 226.6 135.33 226.6ZM135.33 225.94C135.733 225.94 136.062 225.816 136.316 225.568C136.57 225.32 136.698 224.941 136.698 224.433V223.745C136.698 223.236 136.57 222.858 136.316 222.61C136.062 222.362 135.733 222.238 135.33 222.238C134.927 222.238 134.599 222.362 134.345 222.61C134.09 222.858 133.963 223.236 133.963 223.745V224.433C133.963 224.941 134.09 225.32 134.345 225.568C134.599 225.816 134.927 225.94 135.33 225.94ZM138.721 226.488V221.689H139.465V222.471H139.502C139.558 222.347 139.62 222.232 139.688 222.127C139.763 222.015 139.849 221.919 139.949 221.838C140.054 221.758 140.175 221.696 140.311 221.652C140.448 221.603 140.609 221.578 140.795 221.578C141.111 221.578 141.402 221.655 141.669 221.81C141.936 221.959 142.134 222.207 142.264 222.554H142.283C142.37 222.294 142.531 222.068 142.766 221.875C143.008 221.677 143.334 221.578 143.743 221.578C144.233 221.578 144.614 221.739 144.887 222.061C145.166 222.378 145.305 222.827 145.305 223.41V226.488H144.561V223.54C144.561 223.112 144.478 222.79 144.31 222.573C144.143 222.356 143.876 222.247 143.51 222.247C143.362 222.247 143.219 222.266 143.083 222.303C142.952 222.34 142.835 222.396 142.729 222.471C142.624 222.545 142.54 222.641 142.478 222.759C142.416 222.871 142.385 223.004 142.385 223.159V226.488H141.641V223.54C141.641 223.112 141.557 222.79 141.39 222.573C141.223 222.356 140.962 222.247 140.609 222.247C140.46 222.247 140.317 222.266 140.181 222.303C140.045 222.34 139.924 222.396 139.818 222.471C139.713 222.545 139.626 222.641 139.558 222.759C139.496 222.871 139.465 223.004 139.465 223.159V226.488H138.721ZM147.408 226.6C147.209 226.6 147.064 226.55 146.971 226.451C146.884 226.352 146.84 226.222 146.84 226.06V225.94C146.84 225.778 146.884 225.648 146.971 225.549C147.064 225.45 147.209 225.4 147.408 225.4C147.606 225.4 147.749 225.45 147.835 225.549C147.928 225.648 147.975 225.778 147.975 225.94V226.06C147.975 226.222 147.928 226.352 147.835 226.451C147.749 226.55 147.606 226.6 147.408 226.6ZM147.408 222.778C147.209 222.778 147.064 222.728 146.971 222.629C146.884 222.53 146.84 222.399 146.84 222.238V222.117C146.84 221.956 146.884 221.826 146.971 221.727C147.064 221.627 147.209 221.578 147.408 221.578C147.606 221.578 147.749 221.627 147.835 221.727C147.928 221.826 147.975 221.956 147.975 222.117V222.238C147.975 222.399 147.928 222.53 147.835 222.629C147.749 222.728 147.606 222.778 147.408 222.778ZM153.753 226.6C152.978 226.6 152.411 226.305 152.051 225.716C151.698 225.127 151.521 224.303 151.521 223.243C151.521 222.182 151.698 221.358 152.051 220.769C152.411 220.18 152.978 219.885 153.753 219.885C154.528 219.885 155.092 220.18 155.446 220.769C155.805 221.358 155.985 222.182 155.985 223.243C155.985 224.303 155.805 225.127 155.446 225.716C155.092 226.305 154.528 226.6 153.753 226.6ZM153.753 225.921C154.007 225.921 154.224 225.868 154.404 225.763C154.584 225.657 154.73 225.509 154.841 225.316C154.953 225.124 155.033 224.898 155.083 224.638C155.139 224.377 155.167 224.089 155.167 223.773V222.712C155.167 222.396 155.139 222.108 155.083 221.848C155.033 221.587 154.953 221.361 154.841 221.169C154.73 220.976 154.584 220.828 154.404 220.722C154.224 220.617 154.007 220.564 153.753 220.564C153.499 220.564 153.282 220.617 153.102 220.722C152.922 220.828 152.777 220.976 152.665 221.169C152.553 221.361 152.47 221.587 152.414 221.848C152.364 222.108 152.34 222.396 152.34 222.712V223.773C152.34 224.089 152.364 224.377 152.414 224.638C152.47 224.898 152.553 225.124 152.665 225.316C152.777 225.509 152.922 225.657 153.102 225.763C153.282 225.868 153.499 225.921 153.753 225.921ZM156.735 226.488L158.511 224.07L156.809 221.689H157.683L158.902 223.475H158.93L160.194 221.689H161.022L159.33 224.014L161.059 226.488H160.185L158.939 224.61H158.911L157.563 226.488H156.735ZM162.881 226.488L165.364 220.666H162.592V221.875H161.895V219.997H166.154V220.685L163.718 226.488H162.881ZM169.619 226.6C169.247 226.6 168.922 226.553 168.643 226.46C168.364 226.361 168.128 226.228 167.936 226.06C167.75 225.893 167.608 225.695 167.508 225.465C167.415 225.236 167.369 224.988 167.369 224.721C167.369 224.275 167.49 223.921 167.732 223.661C167.973 223.401 168.29 223.218 168.68 223.112V223.038C168.339 222.92 168.066 222.731 167.862 222.471C167.663 222.204 167.564 221.885 167.564 221.513C167.564 221.017 167.744 220.623 168.104 220.332C168.463 220.034 168.968 219.885 169.619 219.885C170.27 219.885 170.776 220.034 171.135 220.332C171.495 220.623 171.675 221.017 171.675 221.513C171.675 221.885 171.572 222.204 171.368 222.471C171.169 222.731 170.9 222.92 170.559 223.038V223.112C170.949 223.218 171.266 223.401 171.507 223.661C171.749 223.921 171.87 224.275 171.87 224.721C171.87 224.988 171.82 225.236 171.721 225.465C171.628 225.695 171.486 225.893 171.293 226.06C171.107 226.228 170.875 226.361 170.596 226.46C170.317 226.553 169.991 226.6 169.619 226.6ZM169.619 225.921C170.072 225.921 170.422 225.822 170.67 225.623C170.918 225.419 171.042 225.13 171.042 224.758V224.563C171.042 224.191 170.918 223.906 170.67 223.708C170.422 223.503 170.072 223.401 169.619 223.401C169.167 223.401 168.817 223.503 168.569 223.708C168.321 223.906 168.197 224.191 168.197 224.563V224.758C168.197 225.13 168.321 225.419 168.569 225.623C168.817 225.822 169.167 225.921 169.619 225.921ZM169.619 222.75C170.029 222.75 170.339 222.663 170.549 222.489C170.76 222.316 170.866 222.061 170.866 221.727V221.587C170.866 221.252 170.76 220.998 170.549 220.825C170.339 220.651 170.029 220.564 169.619 220.564C169.21 220.564 168.9 220.651 168.689 220.825C168.479 220.998 168.373 221.252 168.373 221.587V221.727C168.373 222.061 168.479 222.316 168.689 222.489C168.9 222.663 169.21 222.75 169.619 222.75ZM175.205 226.6C174.87 226.6 174.567 226.544 174.294 226.432C174.027 226.315 173.798 226.15 173.606 225.94C173.42 225.723 173.277 225.459 173.178 225.149C173.079 224.839 173.029 224.492 173.029 224.107C173.029 223.624 173.1 223.171 173.243 222.75C173.385 222.322 173.568 221.934 173.792 221.587C174.021 221.234 174.272 220.924 174.545 220.657C174.818 220.384 175.084 220.164 175.345 219.997H176.349C176.002 220.251 175.692 220.499 175.419 220.741C175.146 220.983 174.908 221.237 174.703 221.503C174.498 221.764 174.325 222.046 174.182 222.35C174.04 222.647 173.925 222.985 173.838 223.363L173.885 223.382C174.04 223.115 174.238 222.895 174.48 222.722C174.728 222.542 175.05 222.452 175.447 222.452C175.726 222.452 175.983 222.499 176.219 222.592C176.454 222.685 176.656 222.818 176.823 222.991C176.991 223.165 177.121 223.376 177.214 223.624C177.313 223.872 177.363 224.148 177.363 224.452C177.363 224.768 177.31 225.059 177.205 225.326C177.105 225.586 176.96 225.812 176.768 226.005C176.582 226.191 176.355 226.336 176.089 226.442C175.822 226.547 175.528 226.6 175.205 226.6ZM175.196 225.921C175.624 225.921 175.955 225.803 176.191 225.568C176.433 225.332 176.554 224.994 176.554 224.554V224.479C176.554 224.039 176.433 223.701 176.191 223.466C175.955 223.23 175.624 223.112 175.196 223.112C174.768 223.112 174.433 223.23 174.191 223.466C173.956 223.701 173.838 224.039 173.838 224.479V224.554C173.838 224.994 173.956 225.332 174.191 225.568C174.433 225.803 174.768 225.921 175.196 225.921ZM179.247 226.6C179.049 226.6 178.903 226.55 178.81 226.451C178.723 226.352 178.68 226.222 178.68 226.06V225.94C178.68 225.778 178.723 225.648 178.81 225.549C178.903 225.45 179.049 225.4 179.247 225.4C179.445 225.4 179.588 225.45 179.675 225.549C179.768 225.648 179.814 225.778 179.814 225.94V226.06C179.814 226.222 179.768 226.352 179.675 226.451C179.588 226.55 179.445 226.6 179.247 226.6ZM181.781 226.6C181.583 226.6 181.437 226.55 181.344 226.451C181.257 226.352 181.214 226.222 181.214 226.06V225.94C181.214 225.778 181.257 225.648 181.344 225.549C181.437 225.45 181.583 225.4 181.781 225.4C181.979 225.4 182.122 225.45 182.209 225.549C182.302 225.648 182.348 225.778 182.348 225.94V226.06C182.348 226.222 182.302 226.352 182.209 226.451C182.122 226.55 181.979 226.6 181.781 226.6ZM184.315 226.6C184.116 226.6 183.971 226.55 183.878 226.451C183.791 226.352 183.748 226.222 183.748 226.06V225.94C183.748 225.778 183.791 225.648 183.878 225.549C183.971 225.45 184.116 225.4 184.315 225.4C184.513 225.4 184.656 225.45 184.743 225.549C184.836 225.648 184.882 225.778 184.882 225.94V226.06C184.882 226.222 184.836 226.352 184.743 226.451C184.656 226.55 184.513 226.6 184.315 226.6ZM186.374 219.606H187.118V222.471H187.156C187.28 222.167 187.459 221.944 187.695 221.801C187.937 221.652 188.225 221.578 188.56 221.578C188.857 221.578 189.127 221.637 189.369 221.755C189.611 221.872 189.815 222.04 189.983 222.257C190.156 222.474 190.287 222.737 190.373 223.047C190.466 223.357 190.513 223.704 190.513 224.089C190.513 224.473 190.466 224.82 190.373 225.13C190.287 225.44 190.156 225.704 189.983 225.921C189.815 226.138 189.611 226.305 189.369 226.423C189.127 226.541 188.857 226.6 188.56 226.6C187.909 226.6 187.441 226.302 187.156 225.707H187.118V226.488H186.374V219.606ZM188.355 225.93C188.777 225.93 189.109 225.8 189.35 225.54C189.592 225.273 189.713 224.926 189.713 224.498V223.68C189.713 223.252 189.592 222.908 189.35 222.647C189.109 222.381 188.777 222.247 188.355 222.247C188.188 222.247 188.027 222.272 187.872 222.322C187.723 222.365 187.593 222.427 187.481 222.508C187.369 222.588 187.28 222.688 187.211 222.805C187.149 222.917 187.118 223.038 187.118 223.168V224.954C187.118 225.109 187.149 225.248 187.211 225.372C187.28 225.49 187.369 225.592 187.481 225.679C187.593 225.76 187.723 225.822 187.872 225.865C188.027 225.909 188.188 225.93 188.355 225.93ZM195.936 226.488H191.676V225.688L193.797 223.735C194.1 223.456 194.355 223.162 194.559 222.852C194.764 222.536 194.866 222.22 194.866 221.903V221.792C194.866 221.432 194.767 221.141 194.568 220.918C194.37 220.694 194.069 220.583 193.666 220.583C193.468 220.583 193.294 220.611 193.146 220.666C192.997 220.722 192.867 220.8 192.755 220.899C192.65 220.998 192.56 221.116 192.485 221.252C192.417 221.383 192.361 221.525 192.318 221.68L191.62 221.41C191.682 221.218 191.766 221.032 191.871 220.852C191.983 220.666 192.119 220.502 192.281 220.36C192.448 220.217 192.646 220.102 192.876 220.015C193.111 219.929 193.387 219.885 193.704 219.885C194.02 219.885 194.302 219.932 194.55 220.025C194.798 220.118 195.006 220.248 195.173 220.415C195.34 220.583 195.467 220.781 195.554 221.011C195.647 221.24 195.694 221.494 195.694 221.773C195.694 222.027 195.657 222.263 195.582 222.48C195.514 222.697 195.418 222.905 195.294 223.103C195.17 223.295 195.018 223.484 194.838 223.67C194.665 223.856 194.475 224.042 194.271 224.228L192.522 225.8H195.936V226.488ZM201.512 222.378C201.512 222.861 201.441 223.317 201.298 223.745C201.155 224.166 200.969 224.554 200.74 224.907C200.517 225.254 200.269 225.564 199.996 225.837C199.723 226.104 199.457 226.321 199.196 226.488H198.192C198.539 226.234 198.849 225.986 199.122 225.744C199.395 225.502 199.633 225.251 199.838 224.991C200.042 224.724 200.216 224.442 200.359 224.145C200.501 223.841 200.616 223.5 200.703 223.122L200.656 223.103C200.501 223.37 200.3 223.593 200.052 223.773C199.81 223.946 199.491 224.033 199.094 224.033C198.815 224.033 198.558 223.987 198.322 223.894C198.086 223.801 197.885 223.667 197.717 223.494C197.55 223.32 197.417 223.112 197.318 222.871C197.225 222.623 197.178 222.344 197.178 222.034C197.178 221.717 197.228 221.429 197.327 221.169C197.432 220.902 197.578 220.676 197.764 220.49C197.956 220.298 198.182 220.149 198.443 220.043C198.709 219.938 199.007 219.885 199.336 219.885C199.67 219.885 199.971 219.944 200.238 220.062C200.511 220.174 200.74 220.338 200.926 220.555C201.118 220.766 201.264 221.026 201.363 221.336C201.462 221.646 201.512 221.993 201.512 222.378ZM199.345 223.373C199.773 223.373 200.104 223.255 200.34 223.019C200.582 222.784 200.703 222.446 200.703 222.006V221.931C200.703 221.491 200.582 221.153 200.34 220.918C200.104 220.682 199.773 220.564 199.345 220.564C198.917 220.564 198.582 220.682 198.341 220.918C198.105 221.153 197.987 221.491 197.987 221.931V222.006C197.987 222.446 198.105 222.784 198.341 223.019C198.582 223.255 198.917 223.373 199.345 223.373ZM204.707 226.6C204.373 226.6 204.072 226.541 203.805 226.423C203.539 226.305 203.312 226.138 203.126 225.921C202.947 225.704 202.807 225.44 202.708 225.13C202.615 224.82 202.568 224.473 202.568 224.089C202.568 223.704 202.615 223.357 202.708 223.047C202.807 222.737 202.947 222.474 203.126 222.257C203.312 222.04 203.539 221.872 203.805 221.755C204.072 221.637 204.373 221.578 204.707 221.578C205.185 221.578 205.566 221.683 205.851 221.894C206.143 222.099 206.36 222.368 206.502 222.703L205.879 223.019C205.792 222.771 205.65 222.579 205.451 222.443C205.253 222.306 205.005 222.238 204.707 222.238C204.484 222.238 204.289 222.275 204.122 222.35C203.954 222.418 203.815 222.517 203.703 222.647C203.591 222.771 203.508 222.923 203.452 223.103C203.396 223.277 203.368 223.469 203.368 223.68V224.498C203.368 224.92 203.48 225.267 203.703 225.54C203.932 225.806 204.267 225.94 204.707 225.94C205.309 225.94 205.743 225.661 206.009 225.103L206.549 225.465C206.394 225.812 206.161 226.088 205.851 226.293C205.548 226.498 205.166 226.6 204.707 226.6Z" fill="#606367"/>
<path d="M237.729 224.061V223.261H240.157V224.061H237.729ZM243.313 227.251V226.488C242.842 226.457 242.442 226.343 242.114 226.144C241.791 225.94 241.515 225.685 241.286 225.382L241.835 224.889C242.033 225.155 242.25 225.369 242.486 225.53C242.727 225.685 243.006 225.785 243.323 225.828V223.438C242.684 223.295 242.216 223.088 241.918 222.815C241.627 222.536 241.481 222.154 241.481 221.671C241.481 221.423 241.525 221.203 241.611 221.011C241.704 220.812 241.831 220.642 241.993 220.499C242.154 220.356 242.346 220.245 242.569 220.164C242.792 220.077 243.04 220.022 243.313 219.997V219.234H243.89V219.988C244.311 220.025 244.674 220.133 244.978 220.313C245.288 220.487 245.555 220.728 245.778 221.038L245.21 221.466C245.055 221.249 244.869 221.073 244.652 220.936C244.435 220.794 244.178 220.701 243.881 220.657V222.833L243.964 222.852C244.609 222.995 245.077 223.205 245.369 223.484C245.666 223.757 245.815 224.138 245.815 224.628C245.815 225.161 245.641 225.592 245.294 225.921C244.953 226.243 244.485 226.432 243.89 226.488V227.251H243.313ZM245.08 224.675C245.08 224.359 244.987 224.117 244.801 223.949C244.621 223.782 244.315 223.646 243.881 223.54V225.828C244.253 225.778 244.544 225.654 244.755 225.456C244.972 225.251 245.08 224.991 245.08 224.675ZM242.216 221.615C242.216 221.931 242.306 222.17 242.486 222.331C242.672 222.486 242.951 222.613 243.323 222.712V220.657C242.988 220.701 242.718 220.803 242.513 220.964C242.315 221.125 242.216 221.342 242.216 221.615ZM247.988 226.488L250.471 220.666H247.7V221.875H247.002V219.997H251.262V220.685L248.825 226.488H247.988ZM256.894 222.378C256.894 222.861 256.822 223.317 256.68 223.745C256.537 224.166 256.351 224.554 256.122 224.907C255.899 225.254 255.651 225.564 255.378 225.837C255.105 226.104 254.838 226.321 254.578 226.488H253.574C253.921 226.234 254.231 225.986 254.504 225.744C254.776 225.502 255.015 225.251 255.22 224.991C255.424 224.724 255.598 224.442 255.741 224.145C255.883 223.841 255.998 223.5 256.085 223.122L256.038 223.103C255.883 223.37 255.682 223.593 255.434 223.773C255.192 223.946 254.873 224.033 254.476 224.033C254.197 224.033 253.939 223.987 253.704 223.894C253.468 223.801 253.267 223.667 253.099 223.494C252.932 223.32 252.799 223.112 252.699 222.871C252.606 222.623 252.56 222.344 252.56 222.034C252.56 221.717 252.61 221.429 252.709 221.169C252.814 220.902 252.96 220.676 253.146 220.49C253.338 220.298 253.564 220.149 253.825 220.043C254.091 219.938 254.389 219.885 254.718 219.885C255.052 219.885 255.353 219.944 255.62 220.062C255.892 220.174 256.122 220.338 256.308 220.555C256.5 220.766 256.646 221.026 256.745 221.336C256.844 221.646 256.894 221.993 256.894 222.378ZM254.727 223.373C255.155 223.373 255.486 223.255 255.722 223.019C255.964 222.784 256.085 222.446 256.085 222.006V221.931C256.085 221.491 255.964 221.153 255.722 220.918C255.486 220.682 255.155 220.564 254.727 220.564C254.299 220.564 253.964 220.682 253.722 220.918C253.487 221.153 253.369 221.491 253.369 221.931V222.006C253.369 222.446 253.487 222.784 253.722 223.019C253.964 223.255 254.299 223.373 254.727 223.373ZM258.778 226.6C258.58 226.6 258.434 226.55 258.341 226.451C258.254 226.352 258.211 226.222 258.211 226.06V225.94C258.211 225.778 258.254 225.648 258.341 225.549C258.434 225.45 258.58 225.4 258.778 225.4C258.976 225.4 259.119 225.45 259.206 225.549C259.299 225.648 259.345 225.778 259.345 225.94V226.06C259.345 226.222 259.299 226.352 259.206 226.451C259.119 226.55 258.976 226.6 258.778 226.6ZM262.846 226.6C262.512 226.6 262.208 226.544 261.935 226.432C261.668 226.315 261.439 226.15 261.247 225.94C261.061 225.723 260.918 225.459 260.819 225.149C260.72 224.839 260.67 224.492 260.67 224.107C260.67 223.624 260.741 223.171 260.884 222.75C261.027 222.322 261.21 221.934 261.433 221.587C261.662 221.234 261.913 220.924 262.186 220.657C262.459 220.384 262.725 220.164 262.986 219.997H263.99C263.643 220.251 263.333 220.499 263.06 220.741C262.787 220.983 262.549 221.237 262.344 221.503C262.14 221.764 261.966 222.046 261.823 222.35C261.681 222.647 261.566 222.985 261.479 223.363L261.526 223.382C261.681 223.115 261.879 222.895 262.121 222.722C262.369 222.542 262.691 222.452 263.088 222.452C263.367 222.452 263.624 222.499 263.86 222.592C264.096 222.685 264.297 222.818 264.465 222.991C264.632 223.165 264.762 223.376 264.855 223.624C264.954 223.872 265.004 224.148 265.004 224.452C265.004 224.768 264.951 225.059 264.846 225.326C264.747 225.586 264.601 225.812 264.409 226.005C264.223 226.191 263.996 226.336 263.73 226.442C263.463 226.547 263.169 226.6 262.846 226.6ZM262.837 225.921C263.265 225.921 263.597 225.803 263.832 225.568C264.074 225.332 264.195 224.994 264.195 224.554V224.479C264.195 224.039 264.074 223.701 263.832 223.466C263.597 223.23 263.265 223.112 262.837 223.112C262.409 223.112 262.074 223.23 261.833 223.466C261.597 223.701 261.479 224.039 261.479 224.479V224.554C261.479 224.994 261.597 225.332 261.833 225.568C262.074 225.803 262.409 225.921 262.837 225.921ZM267.251 226.488L269.734 220.666H266.963V221.875H266.265V219.997H270.525V220.685L268.088 226.488H267.251ZM274.997 219.997V224.014C274.997 224.634 275.112 225.106 275.341 225.428C275.571 225.744 275.974 225.902 276.55 225.902C277.127 225.902 277.53 225.744 277.759 225.428C277.989 225.106 278.103 224.634 278.103 224.014V219.997H278.885V223.828C278.885 224.3 278.841 224.709 278.754 225.056C278.674 225.403 278.541 225.692 278.355 225.921C278.169 226.15 277.924 226.321 277.62 226.432C277.322 226.544 276.956 226.6 276.522 226.6C276.088 226.6 275.723 226.544 275.425 226.432C275.134 226.321 274.898 226.15 274.718 225.921C274.538 225.692 274.408 225.403 274.328 225.056C274.253 224.709 274.216 224.3 274.216 223.828V219.997H274.997ZM282.388 226.6C281.861 226.6 281.412 226.501 281.04 226.302C280.668 226.098 280.352 225.819 280.091 225.465L280.668 224.982C280.897 225.285 281.151 225.518 281.43 225.679C281.709 225.834 282.038 225.912 282.416 225.912C282.881 225.912 283.235 225.8 283.476 225.577C283.724 225.354 283.848 225.056 283.848 224.684C283.848 224.374 283.755 224.135 283.569 223.968C283.383 223.801 283.076 223.667 282.649 223.568L282.119 223.447C281.523 223.311 281.068 223.106 280.751 222.833C280.441 222.554 280.286 222.164 280.286 221.662C280.286 221.376 280.339 221.122 280.445 220.899C280.55 220.676 280.696 220.49 280.882 220.341C281.074 220.192 281.3 220.081 281.561 220.006C281.827 219.926 282.119 219.885 282.435 219.885C282.925 219.885 283.343 219.975 283.69 220.155C284.044 220.335 284.341 220.598 284.583 220.945L283.997 221.373C283.817 221.125 283.6 220.93 283.346 220.787C283.092 220.645 282.776 220.573 282.398 220.573C281.982 220.573 281.654 220.663 281.412 220.843C281.176 221.017 281.058 221.28 281.058 221.634C281.058 221.944 281.158 222.179 281.356 222.34C281.561 222.495 281.867 222.619 282.277 222.712L282.807 222.833C283.445 222.976 283.907 223.193 284.192 223.484C284.478 223.776 284.62 224.163 284.62 224.647C284.62 224.944 284.568 225.214 284.462 225.456C284.363 225.698 284.217 225.902 284.025 226.07C283.833 226.237 283.597 226.367 283.318 226.46C283.045 226.553 282.735 226.6 282.388 226.6ZM285.969 219.997H288.145C288.548 219.997 288.914 220.065 289.243 220.201C289.571 220.338 289.85 220.542 290.08 220.815C290.315 221.082 290.495 221.42 290.619 221.829C290.743 222.232 290.805 222.703 290.805 223.243C290.805 223.782 290.743 224.256 290.619 224.665C290.495 225.068 290.315 225.406 290.08 225.679C289.85 225.946 289.571 226.147 289.243 226.284C288.914 226.42 288.548 226.488 288.145 226.488H285.969V219.997ZM288.145 225.8C288.412 225.8 288.657 225.757 288.88 225.67C289.103 225.577 289.296 225.444 289.457 225.27C289.618 225.096 289.742 224.886 289.829 224.638C289.922 224.383 289.968 224.095 289.968 223.773V222.712C289.968 222.39 289.922 222.105 289.829 221.857C289.742 221.603 289.618 221.389 289.457 221.215C289.296 221.042 289.103 220.911 288.88 220.825C288.657 220.732 288.412 220.685 288.145 220.685H286.75V225.8H288.145Z" fill="#606367"/>
<path d="M226.963 204.707V203.184H230.764V204.707H226.963ZM235.736 208.288C235.141 208.288 234.624 208.178 234.185 207.958C233.746 207.73 233.385 207.405 233.101 206.984C232.818 206.564 232.607 206.047 232.47 205.434C232.333 204.821 232.264 204.121 232.264 203.335C232.264 202.557 232.333 201.862 232.47 201.249C232.607 200.627 232.818 200.106 233.101 199.685C233.385 199.264 233.746 198.944 234.185 198.725C234.624 198.496 235.141 198.382 235.736 198.382C236.925 198.382 237.798 198.816 238.356 199.685C238.923 200.554 239.207 201.771 239.207 203.335C239.207 204.899 238.923 206.115 238.356 206.984C237.798 207.853 236.925 208.288 235.736 208.288ZM235.736 206.971C236.065 206.971 236.344 206.907 236.573 206.778C236.81 206.641 237.002 206.449 237.149 206.202C237.295 205.955 237.4 205.663 237.464 205.324C237.528 204.977 237.56 204.592 237.56 204.172V202.498C237.56 202.077 237.528 201.697 237.464 201.359C237.4 201.011 237.295 200.714 237.149 200.467C237.002 200.22 236.81 200.033 236.573 199.905C236.344 199.768 236.065 199.699 235.736 199.699C235.406 199.699 235.123 199.768 234.885 199.905C234.656 200.033 234.469 200.22 234.322 200.467C234.176 200.714 234.071 201.011 234.007 201.359C233.943 201.697 233.911 202.077 233.911 202.498V204.172C233.911 204.592 233.943 204.977 234.007 205.324C234.071 205.663 234.176 205.955 234.322 206.202C234.469 206.449 234.656 206.641 234.885 206.778C235.123 206.907 235.406 206.971 235.736 206.971ZM241.836 208.288C241.497 208.288 241.246 208.201 241.081 208.027C240.916 207.844 240.834 207.62 240.834 207.355V207.149C240.834 206.884 240.916 206.664 241.081 206.49C241.246 206.307 241.497 206.216 241.836 206.216C242.174 206.216 242.426 206.307 242.59 206.49C242.755 206.664 242.837 206.884 242.837 207.149V207.355C242.837 207.62 242.755 207.844 242.59 208.027C242.426 208.201 242.174 208.288 241.836 208.288ZM247.942 208.288C247.347 208.288 246.83 208.178 246.391 207.958C245.952 207.73 245.591 207.405 245.307 206.984C245.024 206.564 244.814 206.047 244.676 205.434C244.539 204.821 244.471 204.121 244.471 203.335C244.471 202.557 244.539 201.862 244.676 201.249C244.814 200.627 245.024 200.106 245.307 199.685C245.591 199.264 245.952 198.944 246.391 198.725C246.83 198.496 247.347 198.382 247.942 198.382C249.131 198.382 250.004 198.816 250.562 199.685C251.129 200.554 251.413 201.771 251.413 203.335C251.413 204.899 251.129 206.115 250.562 206.984C250.004 207.853 249.131 208.288 247.942 208.288ZM247.942 206.971C248.271 206.971 248.55 206.907 248.779 206.778C249.016 206.641 249.209 206.449 249.355 206.202C249.501 205.955 249.606 205.663 249.67 205.324C249.734 204.977 249.766 204.592 249.766 204.172V202.498C249.766 202.077 249.734 201.697 249.67 201.359C249.606 201.011 249.501 200.714 249.355 200.467C249.209 200.22 249.016 200.033 248.779 199.905C248.55 199.768 248.271 199.699 247.942 199.699C247.612 199.699 247.329 199.768 247.091 199.905C246.862 200.033 246.675 200.22 246.529 200.467C246.382 200.714 246.277 201.011 246.213 201.359C246.149 201.697 246.117 202.077 246.117 202.498V204.172C246.117 204.592 246.149 204.977 246.213 205.324C246.277 205.663 246.382 205.955 246.529 206.202C246.675 206.449 246.862 206.641 247.091 206.778C247.329 206.907 247.612 206.971 247.942 206.971ZM259.022 199.891H254.769L254.522 203.28H254.618C254.728 203.088 254.842 202.919 254.961 202.772C255.08 202.617 255.217 202.484 255.373 202.374C255.528 202.265 255.706 202.182 255.908 202.127C256.109 202.063 256.347 202.031 256.621 202.031C257.033 202.031 257.412 202.1 257.76 202.237C258.117 202.374 258.423 202.571 258.679 202.827C258.944 203.083 259.15 203.399 259.297 203.774C259.443 204.14 259.516 204.556 259.516 205.022C259.516 205.498 259.438 205.937 259.283 206.339C259.136 206.742 258.917 207.089 258.624 207.382C258.332 207.666 257.97 207.89 257.54 208.054C257.12 208.21 256.639 208.288 256.1 208.288C255.67 208.288 255.29 208.237 254.961 208.137C254.632 208.045 254.339 207.922 254.083 207.766C253.836 207.602 253.616 207.419 253.424 207.218C253.241 207.007 253.077 206.792 252.93 206.573L254.055 205.681C254.174 205.873 254.298 206.047 254.426 206.202C254.554 206.358 254.7 206.495 254.865 206.614C255.03 206.733 255.213 206.824 255.414 206.888C255.624 206.952 255.862 206.984 256.127 206.984C256.694 206.984 257.129 206.829 257.431 206.518C257.742 206.207 257.897 205.777 257.897 205.228V205.063C257.897 204.515 257.742 204.085 257.431 203.774C257.129 203.463 256.694 203.307 256.127 203.307C255.716 203.307 255.386 203.385 255.139 203.541C254.892 203.696 254.682 203.87 254.508 204.062L253.232 203.884L253.589 198.546H259.022V199.891ZM264.701 208.123V198.546H270.834V199.918H266.252V202.58H270.409V203.952H266.252V206.751H270.834V208.123H264.701ZM276.388 199.918V208.123H274.837V199.918H271.984V198.546H279.242V199.918H276.388ZM286.639 203.952H282.303V208.123H280.753V198.546H282.303V202.58H286.639V198.546H288.189V208.123H286.639V203.952Z" fill="#1D1D20"/>
</g>
</g>
<defs>
<clipPath id="clip0_3161_51764">
<rect width="360" height="257" fill="white"/>
</clipPath>
<clipPath id="clip1_3161_51764">
<rect width="360" height="257" fill="white"/>
</clipPath>
</defs>
</svg>
