<svg width="700" height="282" viewBox="0 0 350 141" fill="none" xmlns="http://www.w3.org/2000/svg">
<g clip-path="url(#clip0_6637_206)">
<rect width="350" height="141" fill="white"/>
<rect x="24.5202" y="17" width="300.96" height="233.665" rx="19" fill="#F6F6F7" stroke="#EBEBED" stroke-width="2"/>
<rect x="43.3002" y="80.607" width="129.658" height="41.2407" rx="5.16357" fill="white"/>
<rect x="177.356" y="80.607" width="129.658" height="41.2407" rx="5.16357" fill="white"/>
<rect x="43.3002" y="126.69" width="129.658" height="41.2407" rx="5.16357" fill="white"/>
<rect x="177.356" y="126.69" width="129.658" height="41.2407" rx="5.16357" fill="white"/>
<path d="M47.9701 35.2207H46.0101V40.4527H45.1861V35.2207H43.2341V34.5007H47.9701V35.2207ZM51.1651 40.5807C49.3651 40.5807 48.2531 39.2527 48.2531 37.4767C48.2531 35.6927 49.3651 34.3727 51.1651 34.3727C52.9571 34.3727 54.0851 35.6927 54.0851 37.4767C54.0851 39.2527 52.9571 40.5807 51.1651 40.5807ZM51.1651 39.8607C52.5171 39.8607 53.2371 38.8367 53.2371 37.4767C53.2371 36.1087 52.5171 35.0767 51.1651 35.0767C49.8131 35.0767 49.0851 36.1087 49.0851 37.4767C49.0851 38.8367 49.8131 39.8607 51.1651 39.8607ZM59.0951 35.2207H57.1351V40.4527H56.3111V35.2207H54.3591V34.5007H59.0951V35.2207ZM61.0347 36.4127L60.4507 38.0767H62.3547L61.7867 36.4127C61.5867 35.8367 61.4267 35.1487 61.4267 35.1487H61.4027C61.4027 35.1487 61.2267 35.8607 61.0347 36.4127ZM63.1627 40.4527L62.5707 38.7167H60.2267L59.6187 40.4527H58.7787L60.9547 34.5007H61.8667L64.0587 40.4527H63.1627ZM64.8286 40.4527V34.5007H65.6446V39.7087H68.7246V40.4527H64.8286ZM73.2955 40.4527L71.2395 34.5007H72.1195L73.4235 38.4687C73.5675 38.9007 73.7755 39.7407 73.7755 39.7407H73.7915C73.7915 39.7407 73.9995 38.8847 74.1355 38.4687L75.4235 34.5007H76.2715L74.1915 40.4527H73.2955ZM78.2535 36.4127L77.6695 38.0767H79.5735L79.0055 36.4127C78.8055 35.8367 78.6455 35.1487 78.6455 35.1487H78.6215C78.6215 35.1487 78.4455 35.8607 78.2535 36.4127ZM80.3815 40.4527L79.7895 38.7167H77.4455L76.8375 40.4527H75.9975L78.1735 34.5007H79.0855L81.2775 40.4527H80.3815ZM82.0474 40.4527V34.5007H82.8634V39.7087H85.9434V40.4527H82.0474ZM88.849 40.5407C87.513 40.5407 86.553 39.9487 86.553 38.5167V34.5007H87.369V38.4447C87.369 39.4207 87.913 39.8447 88.865 39.8447C89.785 39.8447 90.329 39.4207 90.329 38.4447V34.5007H91.145V38.5167C91.145 39.9487 90.153 40.5407 88.849 40.5407ZM96.6018 39.7087V40.4527H92.2818V34.5007H96.5138V35.2207H93.0978V37.0207H96.1858V37.7007H93.0978V39.7087H96.6018Z" fill="#606064"/>
<text x="45" y="60" font-family="Arial, sans-serif" font-size="20" font-weight="bold" fill="#0F0F15">$8,432.50</text>
<rect x="214.229" y="33.1857" width="92.367" height="29.4202" rx="14.7101" fill="white"/>
<path d="M232.699 50.8958V46.4679H231.275V45.9156C232.052 45.8983 232.777 45.6048 232.889 44.7072H233.537V50.8958H232.699ZM237.175 51.0339C235.656 51.0339 234.758 49.7737 234.758 47.8144C234.758 45.8292 235.716 44.6036 237.184 44.6036C238.66 44.6036 239.6 45.812 239.6 47.8144C239.6 49.7737 238.72 51.0339 237.175 51.0339ZM237.184 50.3261C238.254 50.3261 238.737 49.368 238.737 47.8144C238.737 46.2867 238.228 45.3027 237.184 45.3027C236.131 45.3027 235.613 46.2694 235.613 47.8144C235.613 49.3421 236.131 50.3261 237.184 50.3261ZM243.904 45.2423V47.5382H245.544C246.416 47.5382 246.83 47.098 246.83 46.3816C246.83 45.6307 246.373 45.2423 245.579 45.2423H243.904ZM245.63 48.2546H243.904V50.8958H243.015V44.4741H245.717C246.398 44.4741 246.925 44.6986 247.253 45.0956C247.538 45.4322 247.71 45.8465 247.71 46.3557C247.71 47.5382 247.02 48.2546 245.63 48.2546ZM251.588 51.0339C249.646 51.0339 248.446 49.6011 248.446 47.6849C248.446 45.7602 249.646 44.336 251.588 44.336C253.521 44.336 254.738 45.7602 254.738 47.6849C254.738 49.6011 253.521 51.0339 251.588 51.0339ZM251.588 50.257C253.046 50.257 253.823 49.1523 253.823 47.6849C253.823 46.209 253.046 45.0956 251.588 45.0956C250.129 45.0956 249.344 46.209 249.344 47.6849C249.344 49.1523 250.129 50.257 251.588 50.257ZM258.175 51.0252C256.38 51.0252 255.491 50.0413 255.422 48.8156H256.293C256.397 49.7823 257.036 50.3175 258.201 50.3175C259.055 50.3175 259.677 49.9377 259.677 49.1609C259.677 48.3237 258.934 48.1251 257.812 47.8748C256.664 47.6332 255.689 47.3052 255.689 46.0709C255.689 44.992 256.595 44.3533 257.916 44.3533C259.495 44.3533 260.203 45.1474 260.359 46.2435H259.504C259.392 45.4667 258.831 45.0438 257.925 45.0438C257.079 45.0438 256.526 45.389 256.526 46.0278C256.526 46.7269 257.225 46.9254 258.192 47.1239C259.435 47.3742 260.566 47.6936 260.566 49.1264C260.566 50.3434 259.564 51.0252 258.175 51.0252ZM261.635 50.8958V44.4741H262.515V50.8958H261.635ZM268.572 45.2509H266.458V50.8958H265.569V45.2509H263.463V44.4741H268.572V45.2509ZM269.524 50.8958V44.4741H270.405V50.8958H269.524ZM274.649 51.0339C272.707 51.0339 271.508 49.6011 271.508 47.6849C271.508 45.7602 272.707 44.336 274.649 44.336C276.583 44.336 277.8 45.7602 277.8 47.6849C277.8 49.6011 276.583 51.0339 274.649 51.0339ZM274.649 50.257C276.108 50.257 276.885 49.1523 276.885 47.6849C276.885 46.209 276.108 45.0956 274.649 45.0956C273.191 45.0956 272.405 46.209 272.405 47.6849C272.405 49.1523 273.191 50.257 274.649 50.257ZM278.88 50.8958V44.4741H279.804L282.436 48.4963C282.747 48.971 283.152 49.7737 283.152 49.7737H283.178C283.178 49.7737 283.118 48.9365 283.118 48.4013V44.4741H283.947V50.8958H283.032L280.408 46.8736C280.097 46.3903 279.674 45.6048 279.674 45.6048H279.657C279.657 45.6048 279.709 46.4421 279.709 46.9599V50.8958H278.88ZM287.634 51.0252C285.839 51.0252 284.95 50.0413 284.881 48.8156H285.752C285.856 49.7823 286.495 50.3175 287.66 50.3175C288.514 50.3175 289.136 49.9377 289.136 49.1609C289.136 48.3237 288.393 48.1251 287.271 47.8748C286.123 47.6332 285.148 47.3052 285.148 46.0709C285.148 44.992 286.054 44.3533 287.375 44.3533C288.954 44.3533 289.662 45.1474 289.818 46.2435H288.963C288.851 45.4667 288.29 45.0438 287.384 45.0438C286.538 45.0438 285.985 45.389 285.985 46.0278C285.985 46.7269 286.684 46.9254 287.651 47.1239C288.894 47.3742 290.025 47.6936 290.025 49.1264C290.025 50.3434 289.024 51.0252 287.634 51.0252Z" fill="#606064"/>
<path d="M58.4281 89.9715L58.0199 91.182H59.519L59.1179 89.9715C58.9138 89.3521 58.7871 88.7117 58.7871 88.7117H58.773C58.773 88.7117 58.5971 89.4718 58.4281 89.9715ZM60.1736 93.1456L59.7583 91.8999H57.7736L57.3513 93.1456H56.366L58.2663 87.9093H59.3079L61.2152 93.1456H60.1736ZM63.0654 92.6248C63.6777 92.6248 64.0156 92.2025 64.0156 91.7803V91.2242C63.8396 91.3369 63.5581 91.4143 63.2836 91.4706C62.7347 91.5761 62.4179 91.6888 62.4179 92.104C62.4179 92.5052 62.7206 92.6248 63.0654 92.6248ZM62.805 93.2371C62.0731 93.2371 61.5241 92.8571 61.5241 92.1251C61.5241 91.2735 62.1716 91.0694 63.0654 90.9638C63.6848 90.8864 63.9945 90.7879 63.9945 90.4501C63.9945 90.1263 63.7692 89.9081 63.3188 89.9081C62.8191 89.9081 62.5728 90.1404 62.5517 90.5134H61.7071C61.7353 89.8729 62.242 89.2888 63.3118 89.2888C63.7411 89.2888 64.0719 89.3521 64.3182 89.507C64.6701 89.7181 64.8531 90.0771 64.8531 90.5768V92.5544C64.8531 92.8641 64.9094 93.026 64.9939 93.0823V93.1456H64.1282C64.0719 93.0612 64.0226 92.9134 64.0015 92.66H63.9874C63.7411 92.9908 63.4033 93.2371 62.805 93.2371ZM66.5397 93.1456L65.2377 89.3873H66.1737L66.7227 91.1398C66.8846 91.6465 67.0394 92.3996 67.0394 92.3996H67.0605C67.0605 92.3996 67.2083 91.6465 67.3702 91.1398L67.9403 89.3873H68.8482L67.518 93.1456H66.5397ZM70.8666 89.9363C70.2824 89.9363 69.9798 90.3375 69.9024 90.9287H71.7745C71.7393 90.3093 71.4085 89.9363 70.8666 89.9363ZM72.6261 92.0829C72.4431 92.7585 71.8378 93.2582 70.9159 93.2582C69.7194 93.2582 69.0015 92.3855 69.0015 91.2735C69.0015 90.1545 69.7546 89.2888 70.8666 89.2888C71.4156 89.2888 71.8449 89.4788 72.1616 89.8166C72.5276 90.2037 72.7035 90.7949 72.6965 91.4917H69.8883C69.9517 92.1392 70.3036 92.5755 70.9229 92.5755C71.3522 92.5755 71.6337 92.3926 71.7534 92.0829H72.6261ZM76.1792 93.1456L74.7857 87.9093H75.7851L76.4044 90.443C76.5593 91.0835 76.6789 92.1533 76.6789 92.1533H76.693C76.693 92.1533 76.8619 91.0413 77.0097 90.4149L77.6502 87.9093H78.6073L79.2407 90.4078C79.3885 91.0413 79.5434 92.1533 79.5434 92.1533H79.5575C79.5575 92.1533 79.6982 91.0765 79.8601 90.436L80.4794 87.9093H81.4788L80.029 93.1456H79.0789L78.4103 90.4078C78.2695 89.8518 78.1358 88.8384 78.1358 88.8384H78.1217C78.1217 88.8384 77.9809 89.8518 77.8543 90.4078L77.1505 93.1456H76.1792ZM82.108 93.1456V87.9093H84.4798C85.0218 87.9093 85.437 88.0431 85.7115 88.3105C85.9719 88.5498 86.1127 88.8665 86.1127 89.2677C86.1127 89.8096 85.8171 90.1685 85.254 90.3375V90.3586C85.9086 90.5134 86.3238 90.9638 86.3238 91.6254C86.3238 92.0899 86.1549 92.4559 85.8593 92.7093C85.5567 92.9908 85.1203 93.1456 84.5573 93.1456H82.108ZM83.0722 90.07H84.3391C84.8458 90.07 85.1625 89.8237 85.1625 89.3732C85.1625 88.9439 84.8669 88.6906 84.3884 88.6906H83.0722V90.07ZM83.0722 92.3503H84.4728C84.7684 92.3503 84.9936 92.2659 85.1344 92.1251C85.2681 91.9984 85.3455 91.8154 85.3455 91.5902C85.3455 91.0553 84.9655 90.7949 84.4447 90.7949H83.0722V92.3503ZM90.8678 88.7469H89.228V93.1456H88.2497V88.7469H86.6169V87.9093H90.8678V88.7469ZM93.6195 93.2582C92.1064 93.2582 91.0999 92.111 91.0999 90.5416C91.0999 88.9862 92.0712 87.8108 93.6266 87.8108C94.2248 87.8108 94.7175 87.9656 95.0764 88.2401C95.4987 88.5709 95.7521 89.0425 95.8154 89.5914H94.8442C94.7527 89.0284 94.3093 88.6343 93.6195 88.6343C92.6201 88.6343 92.0923 89.4507 92.0923 90.5416C92.0923 91.6536 92.6905 92.4348 93.6266 92.4348C94.4078 92.4348 94.8371 91.914 94.8934 91.2806H95.8717C95.8506 91.8014 95.6043 92.3292 95.2383 92.6811C94.8582 93.0612 94.3234 93.2582 93.6195 93.2582Z" fill="#0F0F15"/>
<path d="M58.1032 103.821C57.634 103.821 57.2235 103.692 56.9244 103.446C56.6194 103.2 56.4376 102.836 56.4317 102.373H56.983C57.0006 102.988 57.4112 103.358 58.0856 103.358C58.6428 103.358 59.0358 103.076 59.0358 102.508C59.0358 101.997 58.6545 101.727 57.9801 101.727H57.7161V101.293H57.9742C58.5959 101.293 58.9185 101.03 58.9185 100.596C58.9185 100.156 58.5314 99.8917 58.0446 99.8917C57.4581 99.8917 57.1179 100.273 57.112 100.795H56.5666C56.5725 100.009 57.1296 99.4518 58.0622 99.4518C58.8481 99.4518 59.4698 99.88 59.4698 100.601C59.4698 101.071 59.1883 101.34 58.7777 101.475V101.493C59.3583 101.645 59.6164 102.015 59.6164 102.554C59.6164 103.37 58.9537 103.821 58.1032 103.821ZM60.4978 103.059C60.6972 103.059 60.8497 103.211 60.8497 103.411C60.8497 103.61 60.6972 103.757 60.4978 103.757C60.2984 103.757 60.1459 103.61 60.1459 103.411C60.1459 103.211 60.2984 103.059 60.4978 103.059ZM61.7659 103.727V100.719H60.7982V100.343C61.326 100.332 61.8187 100.132 61.8949 99.5222H62.3348V103.727H61.7659ZM63.558 102.296C63.558 102.296 63.9392 102.273 64.1797 102.273H65.1239V100.854C65.1239 100.631 65.1533 100.238 65.1533 100.238H65.1415C65.1415 100.238 64.948 100.566 64.7779 100.783L64.0037 101.769C63.8395 101.974 63.558 102.285 63.558 102.285V102.296ZM66.3556 102.713H65.6752V103.727H65.1239V102.713H63.1005V102.208L65.2119 99.5046H65.6752V102.273H66.3556V102.713ZM69.3096 103.727L68.1718 99.3639H68.7994L69.4269 101.933C69.5325 102.361 69.6322 103.088 69.6322 103.088H69.6439C69.6439 103.088 69.7612 102.355 69.8727 101.927L70.5765 99.3639H71.2099L71.8902 101.927C72.0017 102.355 72.119 103.088 72.119 103.088H72.1307C72.1307 103.088 72.2421 102.361 72.3477 101.933L72.9987 99.3639H73.6146L72.4005 103.727H71.8199L71.1043 100.936C71.0046 100.549 70.8991 99.8448 70.8991 99.8448H70.8873C70.8873 99.8448 70.7759 100.549 70.6762 100.93L69.9079 103.727H69.3096ZM74.1767 103.727V99.3639H76.0535C76.5051 99.3639 76.8511 99.487 77.0975 99.7334C77.2793 99.921 77.3907 100.173 77.3907 100.49C77.3907 100.965 77.1209 101.27 76.6517 101.405V101.422C77.1854 101.546 77.5667 101.898 77.5667 102.472C77.5667 102.818 77.4435 103.112 77.2324 103.323C76.986 103.581 76.6107 103.727 76.1415 103.727H74.1767ZM74.7749 101.223H75.9714C76.4816 101.223 76.7866 100.971 76.7866 100.531C76.7866 100.12 76.511 99.88 76.0418 99.88H74.7749V101.223ZM74.7749 103.2H76.1063C76.4054 103.2 76.6224 103.123 76.7632 102.983C76.8863 102.865 76.9567 102.695 76.9567 102.49C76.9567 101.968 76.5872 101.71 76.0711 101.71H74.7749V103.2ZM81.2852 99.8917H79.8483V103.727H79.2442V99.8917H77.8131V99.3639H81.2852V99.8917ZM83.5454 103.815C82.302 103.815 81.4927 102.865 81.4927 101.546C81.4927 100.261 82.2668 99.27 83.563 99.27C84.0733 99.27 84.4838 99.4167 84.7771 99.6571C85.0879 99.9093 85.2756 100.267 85.3343 100.684H84.736C84.6363 100.15 84.2199 99.792 83.5513 99.792C82.6246 99.792 82.1026 100.543 82.1026 101.546C82.1026 102.59 82.6774 103.293 83.5571 103.293C84.3489 103.293 84.7302 102.76 84.7829 102.138H85.3812C85.3753 102.572 85.17 103.053 84.8592 103.352C84.5542 103.657 84.1085 103.815 83.5454 103.815Z" fill="#606064"/>
<path d="M56.9572 113.358V109.431H57.4956V112.867H59.5278V113.358H56.9572ZM62.9469 112.867V113.358H60.0965V109.431H62.8888V109.906H60.6349V111.094H62.6724V111.542H60.6349V112.867H62.9469ZM63.612 113.358V109.431H64.1768L65.7868 111.891C65.9768 112.181 66.2249 112.672 66.2249 112.672H66.2408C66.2408 112.672 66.2038 112.16 66.2038 111.833V109.431H66.7105V113.358H66.151L64.5463 110.898C64.3563 110.603 64.0977 110.122 64.0977 110.122H64.0871C64.0871 110.122 64.1188 110.634 64.1188 110.951V113.358H63.612ZM67.5245 113.358V109.431H68.9761C70.148 109.431 70.7286 110.233 70.7286 111.41C70.7286 112.582 70.1163 113.358 68.9392 113.358H67.5245ZM68.0682 112.888H68.9181C69.8049 112.888 70.1691 112.313 70.1691 111.41C70.1691 110.508 69.8418 109.901 68.9497 109.901H68.0682V112.888Z" fill="#E5401B"/>
<path d="M130.114 94.6677C130.114 95.1557 130.45 95.3768 131.151 95.5369V93.7833C130.534 93.829 130.114 94.1416 130.114 94.6677ZM132.722 97.2219C132.722 96.6653 132.333 96.49 131.601 96.3146V98.1979C132.211 98.1445 132.722 97.7938 132.722 97.2219ZM131.601 99.5779H131.151V98.7849C129.794 98.6934 129.23 97.8776 129.177 97.0237H129.908C129.985 97.687 130.335 98.114 131.151 98.1902V96.2155C130.16 95.9944 129.421 95.7275 129.421 94.7058C129.421 93.8061 130.122 93.2648 131.151 93.219V92.6624H131.601V93.219C132.669 93.2953 133.21 93.8138 133.324 94.6448H132.608C132.547 94.1569 132.196 93.8595 131.601 93.7909V95.6284C132.646 95.8419 133.446 96.1164 133.446 97.1914C133.446 98.1521 132.653 98.7239 131.601 98.7849V99.5779ZM136.181 98.8612C135.571 98.8612 135.037 98.6934 134.648 98.3732C134.252 98.053 134.015 97.5803 134.008 96.9779H134.725C134.747 97.7785 135.281 98.2589 136.158 98.2589C136.882 98.2589 137.393 97.8929 137.393 97.1533C137.393 96.49 136.898 96.1392 136.021 96.1392H135.678V95.575H136.013C136.821 95.575 137.241 95.2319 137.241 94.6677C137.241 94.0959 136.737 93.7528 136.105 93.7528C135.342 93.7528 134.9 94.2483 134.892 94.9269H134.183C134.191 93.9052 134.915 93.1809 136.127 93.1809C137.149 93.1809 137.957 93.7375 137.957 94.6753C137.957 95.2853 137.591 95.636 137.058 95.8114V95.8343C137.812 96.0325 138.148 96.5128 138.148 97.2143C138.148 98.2741 137.286 98.8612 136.181 98.8612ZM139.385 96.8788C139.385 96.8788 139.881 96.8483 140.193 96.8483H141.421V95.0032C141.421 94.7134 141.459 94.2026 141.459 94.2026H141.444C141.444 94.2026 141.192 94.6296 140.971 94.9117L139.965 96.1926C139.751 96.4595 139.385 96.8636 139.385 96.8636V96.8788ZM143.022 97.4202H142.138V98.7392H141.421V97.4202H138.791V96.7644L141.535 93.2495H142.138V96.8483H143.022V97.4202ZM145.76 98.8612C144.418 98.8612 143.625 97.748 143.625 96.0172C143.625 94.2636 144.471 93.1809 145.767 93.1809C147.071 93.1809 147.902 94.2483 147.902 96.0172C147.902 97.748 147.125 98.8612 145.76 98.8612ZM145.767 98.236C146.713 98.236 147.14 97.3897 147.14 96.0172C147.14 94.6677 146.69 93.7985 145.767 93.7985C144.837 93.7985 144.38 94.6524 144.38 96.0172C144.38 97.3668 144.837 98.236 145.767 98.236ZM148.578 99.7761V99.3415C148.799 99.25 148.921 99.0518 148.944 98.7468C148.662 98.7773 148.479 98.5638 148.479 98.3198C148.479 98.0606 148.669 97.87 148.921 97.87C149.226 97.87 149.409 98.175 149.409 98.5867C149.409 99.2043 149.111 99.6236 148.578 99.7761ZM150.585 98.7392V94.8278H149.327V94.3398C150.013 94.3246 150.653 94.0654 150.752 93.2724H151.324V98.7392H150.585ZM153.013 98.7392C153.128 96.8331 154.127 94.9346 155.354 93.9434V93.9281C155.354 93.9281 154.927 93.9586 154.355 93.9586H152.243V93.3105H156.063V93.8976C154.965 94.8736 153.898 96.612 153.791 98.7392H153.013ZM158.336 98.8536C157.192 98.8536 156.43 98.1597 156.361 97.2829H157.085C157.2 97.8319 157.581 98.2207 158.32 98.2207C159.075 98.2207 159.556 97.7175 159.556 96.9474C159.556 96.1621 159.029 95.697 158.381 95.697C157.779 95.697 157.398 95.941 157.192 96.2002H156.491L157.078 93.3105H159.975V93.951H157.596L157.245 95.5674H157.261C157.566 95.2548 157.962 95.0794 158.519 95.0794C159.434 95.0794 160.303 95.7656 160.303 96.9627C160.303 98.1292 159.464 98.8536 158.336 98.8536Z" fill="#0F0F15"/>
<path d="M139.331 107.978V108.469H136.481V104.542H139.273V105.017H137.019V106.205H139.057V106.653H137.019V107.978H139.331ZM141.16 108.443C141.028 108.475 140.89 108.49 140.764 108.49C140.384 108.485 140.12 108.332 140.12 107.915V106.015H139.676V105.635H140.12V104.743H140.605V105.635H141.191V106.015H140.605V107.804C140.605 108.01 140.716 108.068 140.896 108.068C140.98 108.068 141.091 108.047 141.144 108.031H141.16V108.443ZM142.192 106.743V108.469H141.701V104.542H142.192V105.571C142.192 105.709 142.187 105.909 142.176 106.046H142.192C142.403 105.746 142.688 105.566 143.1 105.566C143.691 105.566 144.055 105.899 144.055 106.49V108.469H143.57V106.548C143.57 106.184 143.332 105.978 142.947 105.978C142.509 105.978 142.192 106.289 142.192 106.743ZM145.92 105.946C145.408 105.946 145.139 106.316 145.076 106.817H146.717C146.691 106.273 146.411 105.946 145.92 105.946ZM147.182 107.662C147.055 108.189 146.601 108.548 145.947 108.548C145.076 108.548 144.564 107.883 144.564 107.055C144.564 106.231 145.107 105.566 145.92 105.566C146.342 105.566 146.67 105.73 146.891 106.004C147.124 106.284 147.24 106.69 147.24 107.171H145.065C145.102 107.725 145.403 108.147 145.952 108.147C146.342 108.147 146.612 107.963 146.701 107.662H147.182ZM148.254 108.469H147.763V105.635H148.249V106.147H148.265C148.439 105.819 148.729 105.598 149.104 105.598C149.183 105.598 149.231 105.608 149.283 105.629V106.094H149.267C149.199 106.073 149.151 106.068 149.067 106.068C148.629 106.068 148.254 106.395 148.254 106.928V108.469ZM150.864 105.946C150.352 105.946 150.082 106.316 150.019 106.817H151.661C151.634 106.273 151.354 105.946 150.864 105.946ZM152.125 107.662C151.998 108.189 151.545 108.548 150.89 108.548C150.019 108.548 149.507 107.883 149.507 107.055C149.507 106.231 150.051 105.566 150.864 105.566C151.286 105.566 151.613 105.73 151.835 106.004C152.067 106.284 152.183 106.69 152.183 107.171H150.008C150.045 107.725 150.346 108.147 150.895 108.147C151.286 108.147 151.555 107.963 151.645 107.662H152.125ZM153.651 108.533C153.065 108.533 152.691 108.179 152.691 107.588V105.635H153.182V107.561C153.182 107.92 153.409 108.131 153.799 108.131C154.232 108.131 154.512 107.799 154.512 107.361V105.635H155.003V108.469H154.517V108.073H154.507C154.306 108.353 154.058 108.533 153.651 108.533ZM155.686 108.469V105.635H156.172V106.057H156.187C156.362 105.751 156.663 105.566 157.027 105.566C157.37 105.566 157.644 105.746 157.76 106.094H157.771C157.972 105.74 158.304 105.566 158.647 105.566C159.165 105.566 159.524 105.899 159.524 106.49V108.469H159.033V106.532C159.033 106.184 158.806 105.978 158.521 105.978C158.162 105.978 157.85 106.289 157.85 106.722V108.469H157.365V106.532C157.365 106.184 157.169 105.978 156.879 105.978C156.541 105.978 156.177 106.289 156.177 106.722V108.469H155.686Z" fill="#606064"/>
<path d="M189.07 88.731V90.3779H190.238C190.836 90.3779 191.146 90.0541 191.146 89.5474C191.146 89.0196 190.822 88.731 190.252 88.731H189.07ZM190.393 91.1591H189.07V93.1298H188.084V87.8935H190.35C190.942 87.8935 191.392 88.0694 191.681 88.3861C191.962 88.6888 192.124 89.0688 192.124 89.5333C192.124 90.5187 191.498 91.1591 190.393 91.1591ZM194.238 89.9204C193.654 89.9204 193.352 90.3216 193.274 90.9128H195.146C195.111 90.2934 194.78 89.9204 194.238 89.9204ZM195.998 92.067C195.815 92.7427 195.21 93.2424 194.288 93.2424C193.091 93.2424 192.373 92.3697 192.373 91.2576C192.373 90.1386 193.126 89.2729 194.238 89.2729C194.787 89.2729 195.217 89.4629 195.533 89.8008C195.899 90.1879 196.075 90.7791 196.068 91.4758H193.26C193.324 92.1233 193.675 92.5597 194.295 92.5597C194.724 92.5597 195.006 92.3767 195.125 92.067H195.998ZM197.588 90.9269V93.1298H196.694V89.3715H197.567V89.9204H197.588C197.834 89.5052 198.228 89.2729 198.756 89.2729C199.566 89.2729 200.051 89.7726 200.051 90.582V93.1298H199.157V90.7298C199.157 90.2864 198.897 90.0119 198.44 90.0119C197.94 90.0119 197.588 90.392 197.588 90.9269ZM202.464 92.5175C203.126 92.5175 203.457 91.9966 203.457 91.2576C203.457 90.5046 203.126 89.9697 202.464 89.9697C201.859 89.9697 201.557 90.5116 201.557 91.2506C201.557 92.0037 201.859 92.5175 202.464 92.5175ZM202.281 93.2494C201.289 93.2494 200.649 92.4823 200.649 91.2576C200.649 90.0612 201.324 89.2729 202.281 89.2729C202.802 89.2729 203.189 89.5193 203.436 89.9134H203.45C203.436 89.7093 203.422 89.4066 203.422 89.1322V87.8935H204.315V93.1298H203.45V92.5808H203.436C203.203 93.0172 202.795 93.2494 202.281 93.2494ZM205.148 93.1298V87.8935H206.049V93.1298H205.148ZM208.555 89.9204C207.971 89.9204 207.668 90.3216 207.591 90.9128H209.463C209.428 90.2934 209.097 89.9204 208.555 89.9204ZM210.315 92.067C210.132 92.7427 209.526 93.2424 208.604 93.2424C207.408 93.2424 206.69 92.3697 206.69 91.2576C206.69 90.1386 207.443 89.2729 208.555 89.2729C209.104 89.2729 209.533 89.4629 209.85 89.8008C210.216 90.1879 210.392 90.7791 210.385 91.4758H207.577C207.64 92.1233 207.992 92.5597 208.611 92.5597C209.041 92.5597 209.322 92.3767 209.442 92.067H210.315ZM213.861 88.731V90.3779H215.029C215.627 90.3779 215.937 90.0541 215.937 89.5474C215.937 89.0196 215.613 88.731 215.043 88.731H213.861ZM215.184 91.1591H213.861V93.1298H212.875V87.8935H215.142C215.733 87.8935 216.183 88.0694 216.472 88.3861C216.753 88.6888 216.915 89.0688 216.915 89.5333C216.915 90.5187 216.289 91.1591 215.184 91.1591ZM221.539 88.731H219.899V93.1298H218.921V88.731H217.288V87.8935H221.539V88.731ZM225.431 93.2494C224.362 93.2494 223.742 92.7356 223.686 91.9755H224.545C224.615 92.426 224.96 92.616 225.438 92.616C225.931 92.616 226.163 92.4048 226.163 92.1022C226.163 91.7292 225.783 91.6588 225.192 91.5462C224.488 91.4054 223.82 91.2436 223.82 90.392C223.82 89.6811 224.425 89.2729 225.305 89.2729C226.304 89.2729 226.804 89.7234 226.895 90.3779H226.044C225.98 90.0541 225.741 89.8782 225.298 89.8782C224.882 89.8782 224.664 90.0682 224.664 90.3286C224.664 90.6594 225.051 90.7228 225.621 90.8283C226.332 90.962 227.036 91.131 227.036 92.0459C227.036 92.8342 226.36 93.2494 225.431 93.2494ZM229.776 93.2213C228.474 93.2213 227.678 92.6089 227.678 91.3632V87.8935H228.65V91.3491C228.65 92.0529 229.037 92.4119 229.783 92.4119C230.494 92.4119 230.895 92.0389 230.895 91.3351V87.8935H231.873V91.3632C231.873 92.6019 231.064 93.2213 229.776 93.2213ZM234.806 93.2494C233.37 93.2494 232.561 92.5245 232.519 91.4547H233.497C233.567 92.1304 234.011 92.4682 234.813 92.4682C235.383 92.4682 235.855 92.2219 235.855 91.701C235.855 91.138 235.334 91.0113 234.503 90.8213C233.525 90.6031 232.709 90.3427 232.709 89.294C232.709 88.3017 233.525 87.802 234.644 87.802C235.862 87.802 236.565 88.3861 236.664 89.3503H235.714C235.636 88.8366 235.249 88.548 234.63 88.548C234.046 88.548 233.659 88.7943 233.659 89.2096C233.659 89.6952 234.165 89.8219 234.975 89.9908C235.946 90.2019 236.84 90.4905 236.84 91.6236C236.84 92.6653 235.967 93.2494 234.806 93.2494ZM237.619 93.1298V87.8935H239.681C241.194 87.8935 242.06 88.9492 242.06 90.5398C242.06 92.1022 241.208 93.1298 239.624 93.1298H237.619ZM238.597 92.2993H239.561C240.596 92.2993 241.06 91.6377 241.06 90.5398C241.06 89.4489 240.617 88.724 239.589 88.724H238.597V92.2993ZM246.72 92.2782V93.1298H242.828V87.8935H246.657V88.724H243.799V90.019H246.326V90.8002H243.799V92.2782H246.72Z" fill="#0F0F15"/>
<path d="M188.811 103.727V100.719H187.844V100.343C188.372 100.332 188.864 100.132 188.94 99.5222H189.38V103.727H188.811ZM190.533 103.059C190.733 103.059 190.885 103.211 190.885 103.411C190.885 103.61 190.733 103.757 190.533 103.757C190.334 103.757 190.181 103.61 190.181 103.411C190.181 103.211 190.334 103.059 190.533 103.059ZM191.768 103.727C191.856 102.261 192.624 100.801 193.569 100.038V100.027C193.569 100.027 193.24 100.05 192.8 100.05H191.176V99.5516H194.114V100.003C193.269 100.754 192.448 102.091 192.366 103.727H191.768ZM194.533 102.296C194.533 102.296 194.914 102.273 195.154 102.273H196.099V100.854C196.099 100.631 196.128 100.238 196.128 100.238H196.116C196.116 100.238 195.923 100.566 195.753 100.783L194.978 101.769C194.814 101.974 194.533 102.285 194.533 102.285V102.296ZM197.33 102.713H196.65V103.727H196.099V102.713H194.075V102.208L196.187 99.5046H196.65V102.273H197.33V102.713ZM197.935 103.727V99.3639H198.709L199.618 101.733C199.794 102.208 200.058 103.1 200.058 103.1H200.069C200.069 103.1 200.339 102.214 200.515 101.733L201.407 99.3639H202.204V103.727H201.63V101.088C201.63 100.701 201.665 99.968 201.665 99.968H201.653C201.653 99.968 201.477 100.625 201.348 100.965L200.287 103.727H199.817L198.756 100.965C198.633 100.625 198.451 99.968 198.451 99.968H198.439C198.439 99.968 198.474 100.701 198.474 101.088V103.727H197.935ZM206.272 103.792C205.292 103.792 204.588 103.358 204.588 102.308V99.3639H205.187V102.255C205.187 102.971 205.585 103.282 206.283 103.282C206.958 103.282 207.357 102.971 207.357 102.255V99.3639H207.955V102.308C207.955 103.358 207.228 103.792 206.272 103.792ZM210.447 103.815C209.227 103.815 208.623 103.147 208.576 102.314H209.168C209.239 102.971 209.673 103.334 210.464 103.334C211.045 103.334 211.467 103.076 211.467 102.549C211.467 101.98 210.963 101.845 210.2 101.675C209.42 101.51 208.758 101.288 208.758 100.449C208.758 99.7158 209.373 99.2818 210.271 99.2818C211.344 99.2818 211.825 99.8213 211.931 100.566H211.35C211.274 100.038 210.893 99.751 210.277 99.751C209.702 99.751 209.327 99.9856 209.327 100.42C209.327 100.895 209.802 101.03 210.459 101.164C211.303 101.335 212.071 101.552 212.071 102.525C212.071 103.352 211.391 103.815 210.447 103.815ZM212.786 103.727V99.3639H214.399C215.701 99.3639 216.346 100.255 216.346 101.563C216.346 102.865 215.666 103.727 214.358 103.727H212.786ZM213.39 103.205H214.335C215.32 103.205 215.725 102.566 215.725 101.563C215.725 100.56 215.361 99.8859 214.37 99.8859H213.39V103.205ZM218.343 100.924C217.774 100.924 217.475 101.335 217.404 101.892H219.228C219.199 101.288 218.888 100.924 218.343 100.924ZM219.745 102.83C219.604 103.417 219.099 103.815 218.372 103.815C217.404 103.815 216.836 103.076 216.836 102.156C216.836 101.241 217.44 100.502 218.343 100.502C218.812 100.502 219.176 100.684 219.422 100.988C219.68 101.299 219.809 101.751 219.809 102.285H217.393C217.434 102.9 217.768 103.37 218.378 103.37C218.812 103.37 219.111 103.164 219.211 102.83H219.745Z" fill="#606064"/>
<path d="M189.905 114.318H189.366V112.671L187.952 110.391H188.554L189.261 111.574C189.424 111.853 189.646 112.307 189.646 112.307H189.657C189.657 112.307 189.884 111.853 190.047 111.574L190.76 110.391H191.335L189.905 112.698V114.318ZM191.851 114.318V110.391H192.39V114.318H191.851ZM196.062 113.827V114.318H193.212V110.391H196.004V110.866H193.75V112.054H195.788V112.503H193.75V113.827H196.062ZM196.727 114.318V110.391H197.266V113.827H199.298V114.318H196.727ZM199.867 114.318V110.391H201.318C202.49 110.391 203.071 111.194 203.071 112.371C203.071 113.542 202.458 114.318 201.281 114.318H199.867ZM200.41 113.849H201.26C202.147 113.849 202.511 113.273 202.511 112.371C202.511 111.468 202.184 110.861 201.292 110.861H200.41V113.849Z" fill="#446BCE"/>
<path d="M259.2 95.6279C259.2 96.1159 259.536 96.337 260.237 96.4971V94.7435C259.62 94.7892 259.2 95.1018 259.2 95.6279ZM261.808 98.1821C261.808 97.6255 261.419 97.4502 260.687 97.2748V99.1581C261.297 99.1047 261.808 98.754 261.808 98.1821ZM260.687 100.538H260.237V99.7451C258.88 99.6537 258.316 98.8378 258.263 97.9839H258.995C259.071 98.6472 259.422 99.0742 260.237 99.1504V97.1757C259.246 96.9546 258.507 96.6877 258.507 95.666C258.507 94.7663 259.208 94.225 260.237 94.1792V93.6227H260.687V94.1792C261.755 94.2555 262.296 94.774 262.41 95.605H261.694C261.633 95.1171 261.282 94.8197 260.687 94.7511V96.5886C261.732 96.8021 262.532 97.0766 262.532 98.1516C262.532 99.1123 261.739 99.6842 260.687 99.7451V100.538ZM264.466 99.6994V95.788H263.208V95.3C263.894 95.2848 264.535 95.0256 264.634 94.2326H265.206V99.6994H264.466ZM266.346 100.736V100.302C266.567 100.21 266.689 100.012 266.712 99.707C266.43 99.7375 266.247 99.524 266.247 99.2801C266.247 99.0208 266.438 98.8302 266.689 98.8302C266.994 98.8302 267.177 99.1352 267.177 99.5469C267.177 100.164 266.88 100.584 266.346 100.736ZM268.31 99.6994C268.424 97.7933 269.423 95.8948 270.651 94.9036V94.8883C270.651 94.8883 270.224 94.9188 269.652 94.9188H267.54V94.2707H271.36V94.8578C270.262 95.8338 269.194 97.5722 269.088 99.6994H268.31ZM273.911 99.8214C273.302 99.8214 272.768 99.6537 272.379 99.3334C271.982 99.0132 271.746 98.5405 271.738 97.9381H272.455C272.478 98.7387 273.012 99.2191 273.889 99.2191C274.613 99.2191 275.124 98.8531 275.124 98.1135C275.124 97.4502 274.628 97.0994 273.751 97.0994H273.408V96.5352H273.744C274.552 96.5352 274.971 96.1921 274.971 95.6279C274.971 95.0561 274.468 94.713 273.835 94.713C273.073 94.713 272.631 95.2086 272.623 95.8871H271.914C271.921 94.8655 272.646 94.1411 273.858 94.1411C274.88 94.1411 275.688 94.6977 275.688 95.6355C275.688 96.2455 275.322 96.5962 274.788 96.7716V96.7945C275.543 96.9927 275.879 97.473 275.879 98.1745C275.879 99.2343 275.017 99.8214 273.911 99.8214ZM278.748 99.8214C278.138 99.8214 277.688 99.6232 277.36 99.3029C276.796 98.7845 276.605 98.0449 276.605 96.9546C276.605 96.1082 276.788 95.3992 277.146 94.9036C277.505 94.4156 278.031 94.1411 278.732 94.1411C279.823 94.1411 280.364 94.8655 280.463 95.5364H279.739C279.685 95.1628 279.358 94.7435 278.748 94.7435C277.726 94.7435 277.337 95.5669 277.299 96.9774H277.314C277.673 96.3827 278.153 96.1235 278.809 96.1235C279.807 96.1235 280.608 96.9393 280.616 97.9534C280.623 98.9827 279.792 99.8214 278.748 99.8214ZM278.732 99.2343C279.419 99.2343 279.929 98.7235 279.929 97.9763C279.929 97.2291 279.403 96.7182 278.709 96.7182C277.955 96.7182 277.436 97.2138 277.436 97.9686C277.436 98.7158 278 99.2343 278.732 99.2343ZM281.364 100.736V100.302C281.586 100.21 281.708 100.012 281.73 99.707C281.448 99.7375 281.265 99.524 281.265 99.2801C281.265 99.0208 281.456 98.8302 281.708 98.8302C282.012 98.8302 282.195 99.1352 282.195 99.5469C282.195 100.164 281.898 100.584 281.364 100.736ZM283.266 97.839C283.266 97.839 283.762 97.8085 284.074 97.8085H285.302V95.9634C285.302 95.6737 285.34 95.1628 285.34 95.1628H285.325C285.325 95.1628 285.073 95.5898 284.852 95.8719L283.846 97.1528C283.632 97.4197 283.266 97.8238 283.266 97.8238V97.839ZM286.903 98.3804H286.019V99.6994H285.302V98.3804H282.671V97.7246L285.416 94.2097H286.019V97.8085H286.903V98.3804ZM289.648 99.8214C289.038 99.8214 288.588 99.6232 288.261 99.3029C287.696 98.7845 287.506 98.0449 287.506 96.9546C287.506 96.1082 287.689 95.3992 288.047 94.9036C288.405 94.4156 288.932 94.1411 289.633 94.1411C290.723 94.1411 291.265 94.8655 291.364 95.5364H290.639C290.586 95.1628 290.258 94.7435 289.648 94.7435C288.627 94.7435 288.238 95.5669 288.2 96.9774H288.215C288.573 96.3827 289.054 96.1235 289.709 96.1235C290.708 96.1235 291.509 96.9393 291.516 97.9534C291.524 98.9827 290.693 99.8214 289.648 99.8214ZM289.633 99.2343C290.319 99.2343 290.83 98.7235 290.83 97.9763C290.83 97.2291 290.304 96.7182 289.61 96.7182C288.855 96.7182 288.337 97.2138 288.337 97.9686C288.337 98.7158 288.901 99.2343 289.633 99.2343ZM294.413 99.8214C293.072 99.8214 292.279 98.7082 292.279 96.9774C292.279 95.2238 293.125 94.1411 294.421 94.1411C295.725 94.1411 296.556 95.2086 296.556 96.9774C296.556 98.7082 295.778 99.8214 294.413 99.8214ZM294.421 99.1962C295.366 99.1962 295.793 98.3499 295.793 96.9774C295.793 95.6279 295.344 94.7587 294.421 94.7587C293.491 94.7587 293.033 95.6127 293.033 96.9774C293.033 98.327 293.491 99.1962 294.421 99.1962Z" fill="#0F0F15"/>
<path d="M275.906 108.939V109.429H273.056V105.502H275.848V105.977H273.594V107.165H275.632V107.614H273.594V108.939H275.906ZM277.734 109.403C277.602 109.435 277.465 109.451 277.338 109.451C276.958 109.445 276.694 109.292 276.694 108.875V106.975H276.251V106.595H276.694V105.703H277.18V106.595H277.766V106.975H277.18V108.764C277.18 108.97 277.291 109.028 277.47 109.028C277.555 109.028 277.666 109.007 277.718 108.991H277.734V109.403ZM278.767 107.703V109.429H278.276V105.502H278.767V106.532C278.767 106.669 278.761 106.869 278.751 107.007H278.767C278.978 106.706 279.263 106.526 279.675 106.526C280.266 106.526 280.63 106.859 280.63 107.45V109.429H280.144V107.508C280.144 107.144 279.907 106.938 279.522 106.938C279.083 106.938 278.767 107.249 278.767 107.703ZM282.495 106.906C281.983 106.906 281.714 107.276 281.65 107.777H283.292C283.266 107.234 282.986 106.906 282.495 106.906ZM283.756 108.622C283.63 109.15 283.176 109.509 282.521 109.509C281.65 109.509 281.138 108.844 281.138 108.015C281.138 107.191 281.682 106.526 282.495 106.526C282.917 106.526 283.244 106.69 283.466 106.964C283.698 107.244 283.815 107.651 283.815 108.131H281.64C281.677 108.685 281.978 109.107 282.527 109.107C282.917 109.107 283.186 108.923 283.276 108.622H283.756ZM284.829 109.429H284.338V106.595H284.823V107.107H284.839C285.014 106.78 285.304 106.558 285.679 106.558C285.758 106.558 285.805 106.569 285.858 106.59V107.054H285.842C285.774 107.033 285.726 107.028 285.642 107.028C285.204 107.028 284.829 107.355 284.829 107.888V109.429ZM287.438 106.906C286.926 106.906 286.657 107.276 286.594 107.777H288.235C288.209 107.234 287.929 106.906 287.438 106.906ZM288.7 108.622C288.573 109.15 288.119 109.509 287.465 109.509C286.594 109.509 286.082 108.844 286.082 108.015C286.082 107.191 286.625 106.526 287.438 106.526C287.861 106.526 288.188 106.69 288.41 106.964C288.642 107.244 288.758 107.651 288.758 108.131H286.583C286.62 108.685 286.921 109.107 287.47 109.107C287.861 109.107 288.13 108.923 288.22 108.622H288.7ZM290.226 109.493C289.64 109.493 289.265 109.139 289.265 108.548V106.595H289.756V108.522C289.756 108.881 289.983 109.092 290.374 109.092C290.807 109.092 291.087 108.759 291.087 108.321V106.595H291.577V109.429H291.092V109.034H291.081C290.881 109.313 290.633 109.493 290.226 109.493ZM292.261 109.429V106.595H292.746V107.017H292.762C292.936 106.711 293.237 106.526 293.602 106.526C293.945 106.526 294.219 106.706 294.335 107.054H294.346C294.546 106.7 294.879 106.526 295.222 106.526C295.739 106.526 296.098 106.859 296.098 107.45V109.429H295.607V107.492C295.607 107.144 295.38 106.938 295.095 106.938C294.736 106.938 294.425 107.249 294.425 107.682V109.429H293.939V107.492C293.939 107.144 293.744 106.938 293.454 106.938C293.116 106.938 292.752 107.249 292.752 107.682V109.429H292.261Z" fill="#606064"/>
<path d="M58.4281 135.76L58.0199 136.971H59.519L59.1179 135.76C58.9138 135.141 58.7871 134.5 58.7871 134.5H58.773C58.773 134.5 58.5971 135.26 58.4281 135.76ZM60.1736 138.934L59.7583 137.688H57.7736L57.3513 138.934H56.366L58.2663 133.698H59.3079L61.2152 138.934H60.1736ZM63.0654 138.413C63.6777 138.413 64.0156 137.991 64.0156 137.569V137.013C63.8396 137.125 63.5581 137.203 63.2836 137.259C62.7347 137.365 62.4179 137.477 62.4179 137.893C62.4179 138.294 62.7206 138.413 63.0654 138.413ZM62.805 139.026C62.0731 139.026 61.5241 138.646 61.5241 137.914C61.5241 137.062 62.1716 136.858 63.0654 136.752C63.6848 136.675 63.9945 136.576 63.9945 136.239C63.9945 135.915 63.7692 135.697 63.3188 135.697C62.8191 135.697 62.5728 135.929 62.5517 136.302H61.7071C61.7353 135.661 62.242 135.077 63.3118 135.077C63.7411 135.077 64.0719 135.141 64.3182 135.295C64.6701 135.507 64.8531 135.866 64.8531 136.365V138.343C64.8531 138.653 64.9094 138.814 64.9939 138.871V138.934H64.1282C64.0719 138.85 64.0226 138.702 64.0015 138.449H63.9874C63.7411 138.779 63.4033 139.026 62.805 139.026ZM66.5397 138.934L65.2377 135.176H66.1737L66.7227 136.928C66.8846 137.435 67.0394 138.188 67.0394 138.188H67.0605C67.0605 138.188 67.2083 137.435 67.3702 136.928L67.9403 135.176H68.8482L67.518 138.934H66.5397ZM70.8666 135.725C70.2824 135.725 69.9798 136.126 69.9024 136.717H71.7745C71.7393 136.098 71.4085 135.725 70.8666 135.725ZM72.6261 137.871C72.4431 138.547 71.8378 139.047 70.9159 139.047C69.7194 139.047 69.0015 138.174 69.0015 137.062C69.0015 135.943 69.7546 135.077 70.8666 135.077C71.4156 135.077 71.8449 135.267 72.1616 135.605C72.5276 135.992 72.7035 136.583 72.6965 137.28H69.8883C69.9517 137.928 70.3036 138.364 70.9229 138.364C71.3522 138.364 71.6337 138.181 71.7534 137.871H72.6261ZM76.1792 138.934L74.7857 133.698H75.7851L76.4044 136.232C76.5593 136.872 76.6789 137.942 76.6789 137.942H76.693C76.693 137.942 76.8619 136.83 77.0097 136.203L77.6502 133.698H78.6073L79.2407 136.196C79.3885 136.83 79.5434 137.942 79.5434 137.942H79.5575C79.5575 137.942 79.6982 136.865 79.8601 136.225L80.4794 133.698H81.4788L80.029 138.934H79.0789L78.4103 136.196C78.2695 135.64 78.1358 134.627 78.1358 134.627H78.1217C78.1217 134.627 77.9809 135.64 77.8543 136.196L77.1505 138.934H76.1792ZM86.0001 138.083V138.934H82.108V133.698H85.9367V134.528H83.0793V135.823H85.6059V136.605H83.0793V138.083H86.0001ZM90.7716 134.535H89.1318V138.934H88.1535V134.535H86.5207V133.698H90.7716V134.535ZM94.749 138.934V136.612H92.4335V138.934H91.4623V133.698H92.4335V135.802H94.749V133.698H95.7273V138.934H94.749Z" fill="#0F0F15"/>
<path d="M131.018 140.944C131.018 141.432 131.354 141.653 132.055 141.813V140.06C131.438 140.106 131.018 140.418 131.018 140.944ZM133.626 143.498C133.626 142.942 133.237 142.767 132.505 142.591V144.474C133.115 144.421 133.626 144.07 133.626 143.498ZM132.505 145.854H132.055V145.062C130.698 144.97 130.134 144.154 130.08 143.3H130.812C130.889 143.964 131.239 144.391 132.055 144.467V142.492C131.064 142.271 130.324 142.004 130.324 140.982C130.324 140.083 131.026 139.541 132.055 139.496V138.939H132.505V139.496C133.572 139.572 134.114 140.09 134.228 140.921H133.511C133.45 140.433 133.1 140.136 132.505 140.067V141.905C133.55 142.118 134.35 142.393 134.35 143.468C134.35 144.429 133.557 145.001 132.505 145.062V145.854ZM136.284 145.016V141.104H135.026V140.616C135.712 140.601 136.353 140.342 136.452 139.549H137.024V145.016H136.284ZM139.285 145.016V141.104H138.027V140.616C138.713 140.601 139.353 140.342 139.453 139.549H140.024V145.016H139.285ZM143.239 145.138C141.897 145.138 141.104 144.025 141.104 142.294C141.104 140.54 141.95 139.457 143.246 139.457C144.55 139.457 145.381 140.525 145.381 142.294C145.381 144.025 144.603 145.138 143.239 145.138ZM143.246 144.513C144.192 144.513 144.619 143.666 144.619 142.294C144.619 140.944 144.169 140.075 143.246 140.075C142.316 140.075 141.858 140.929 141.858 142.294C141.858 143.643 142.316 144.513 143.246 144.513ZM146.057 146.053V145.618C146.278 145.527 146.4 145.328 146.423 145.023C146.14 145.054 145.957 144.84 145.957 144.596C145.957 144.337 146.148 144.147 146.4 144.147C146.705 144.147 146.888 144.452 146.888 144.863C146.888 145.481 146.59 145.9 146.057 146.053ZM148.02 145.016C148.135 143.11 149.133 141.211 150.361 140.22V140.205C150.361 140.205 149.934 140.235 149.362 140.235H147.25V139.587H151.07V140.174C149.972 141.15 148.905 142.889 148.798 145.016H148.02ZM153.486 142.568C154.278 142.568 154.782 142.05 154.782 141.303C154.782 140.555 154.21 140.045 153.493 140.045C152.761 140.045 152.25 140.555 152.25 141.303C152.25 142.042 152.799 142.568 153.486 142.568ZM153.524 145.138C152.449 145.138 151.709 144.474 151.64 143.674H152.38C152.449 144.124 152.815 144.535 153.508 144.535C153.912 144.535 154.202 144.413 154.416 144.169C154.728 143.826 154.866 143.247 154.896 142.393H154.881C154.53 142.873 154.027 143.163 153.386 143.163C152.38 143.163 151.572 142.34 151.564 141.318C151.557 140.289 152.38 139.457 153.493 139.457C154.034 139.457 154.454 139.633 154.774 139.877C155.392 140.35 155.59 141.127 155.59 142.317C155.59 143.399 155.369 144.2 154.843 144.673C154.515 144.978 154.065 145.138 153.524 145.138ZM158.357 145.138C157.747 145.138 157.214 144.97 156.825 144.65C156.428 144.33 156.192 143.857 156.184 143.255H156.901C156.924 144.055 157.458 144.535 158.335 144.535C159.059 144.535 159.57 144.169 159.57 143.43C159.57 142.767 159.074 142.416 158.197 142.416H157.854V141.852H158.19C158.998 141.852 159.417 141.508 159.417 140.944C159.417 140.372 158.914 140.029 158.281 140.029C157.519 140.029 157.076 140.525 157.069 141.204H156.36C156.367 140.182 157.092 139.457 158.304 139.457C159.326 139.457 160.134 140.014 160.134 140.952C160.134 141.562 159.768 141.913 159.234 142.088V142.111C159.989 142.309 160.325 142.789 160.325 143.491C160.325 144.551 159.463 145.138 158.357 145.138Z" fill="#0F0F15"/>
<path d="M190.111 139.336C188.809 139.336 188.014 138.724 188.014 137.478V134.008H188.985V137.464C188.985 138.168 189.372 138.527 190.118 138.527C190.829 138.527 191.23 138.154 191.23 137.45V134.008H192.208V137.478C192.208 138.717 191.399 139.336 190.111 139.336ZM193.925 137.042V139.245H193.031V135.486H193.904V136.035H193.925C194.171 135.62 194.565 135.388 195.093 135.388C195.902 135.388 196.388 135.888 196.388 136.697V139.245H195.494V136.845C195.494 136.401 195.234 136.127 194.776 136.127C194.277 136.127 193.925 136.507 193.925 137.042ZM197.619 133.973C197.9 133.973 198.111 134.191 198.111 134.473C198.111 134.762 197.9 134.966 197.619 134.966C197.337 134.966 197.126 134.762 197.126 134.473C197.126 134.191 197.337 133.973 197.619 133.973ZM197.175 139.245V135.486H198.069V139.245H197.175ZM200.393 139.364C199.323 139.364 198.704 138.851 198.647 138.091H199.506C199.576 138.541 199.921 138.731 200.4 138.731C200.893 138.731 201.125 138.52 201.125 138.217C201.125 137.844 200.745 137.774 200.154 137.661C199.45 137.52 198.781 137.359 198.781 136.507C198.781 135.796 199.386 135.388 200.266 135.388C201.266 135.388 201.765 135.838 201.857 136.493H201.005C200.942 136.169 200.702 135.993 200.259 135.993C199.844 135.993 199.626 136.183 199.626 136.444C199.626 136.774 200.013 136.838 200.583 136.943C201.294 137.077 201.997 137.246 201.997 138.161C201.997 138.949 201.322 139.364 200.393 139.364ZM203.38 139.245L202.205 135.486H203.134L203.62 137.239C203.739 137.675 203.852 138.372 203.852 138.372H203.866C203.866 138.372 203.986 137.689 204.112 137.239L204.577 135.486H205.365L205.844 137.239C205.956 137.668 206.083 138.379 206.083 138.379H206.097C206.097 138.379 206.203 137.696 206.336 137.239L206.836 135.486H207.737L206.54 139.245H205.682L205.21 137.457C205.112 137.063 204.978 136.352 204.978 136.352H204.964C204.964 136.352 204.823 137.063 204.725 137.457L204.239 139.245H203.38ZM209.442 138.724C210.054 138.724 210.392 138.302 210.392 137.879V137.323C210.216 137.436 209.934 137.513 209.66 137.57C209.111 137.675 208.794 137.788 208.794 138.203C208.794 138.604 209.097 138.724 209.442 138.724ZM209.181 139.336C208.449 139.336 207.9 138.956 207.9 138.224C207.9 137.373 208.548 137.169 209.442 137.063C210.061 136.986 210.371 136.887 210.371 136.549C210.371 136.225 210.145 136.007 209.695 136.007C209.195 136.007 208.949 136.24 208.928 136.613H208.083C208.111 135.972 208.618 135.388 209.688 135.388C210.117 135.388 210.448 135.451 210.694 135.606C211.046 135.817 211.229 136.176 211.229 136.676V138.654C211.229 138.963 211.285 139.125 211.37 139.181V139.245H210.504C210.448 139.16 210.399 139.012 210.378 138.759H210.363C210.117 139.09 209.779 139.336 209.181 139.336ZM213.914 138.654C214.505 138.654 214.821 138.133 214.821 137.394C214.821 136.648 214.519 136.113 213.906 136.113C213.231 136.113 212.914 136.683 212.914 137.394C212.914 138.105 213.224 138.654 213.914 138.654ZM212.949 139.498V140.505H212.055V135.486H212.921V136.042H212.942C213.21 135.613 213.583 135.388 214.111 135.388C215.089 135.388 215.729 136.176 215.729 137.373C215.729 138.583 215.096 139.364 214.082 139.364C213.583 139.364 213.175 139.146 212.942 138.766H212.921C212.935 138.907 212.949 139.153 212.949 139.498ZM219.588 139.245L217.821 134.008H218.849L219.799 136.979C219.947 137.464 220.13 138.323 220.13 138.323H220.144C220.144 138.323 220.327 137.457 220.475 136.979L221.411 134.008H222.41L220.63 139.245H219.588ZM224.745 139.364C224.133 139.364 223.647 139.21 223.281 138.921C222.901 138.611 222.69 138.147 222.683 137.605H223.57C223.598 138.21 223.978 138.625 224.71 138.625C225.308 138.625 225.695 138.323 225.695 137.753C225.695 137.218 225.301 136.943 224.611 136.943H224.302V136.275H224.59C225.217 136.275 225.561 136.007 225.561 135.55C225.561 135.099 225.195 134.825 224.696 134.825C224.062 134.825 223.732 135.24 223.717 135.74H222.838C222.852 134.811 223.534 134.121 224.717 134.121C225.723 134.121 226.476 134.642 226.476 135.515C226.476 136.057 226.139 136.373 225.632 136.542V136.556C226.293 136.739 226.638 137.161 226.638 137.823C226.638 138.844 225.78 139.364 224.745 139.364ZM230.157 134.846V136.493H231.325C231.923 136.493 232.233 136.169 232.233 135.662C232.233 135.135 231.909 134.846 231.339 134.846H230.157ZM231.48 137.274H230.157V139.245H229.171V134.008H231.438C232.029 134.008 232.479 134.184 232.768 134.501C233.049 134.804 233.211 135.184 233.211 135.648C233.211 136.634 232.585 137.274 231.48 137.274ZM235.382 139.357C234.214 139.357 233.461 138.485 233.461 137.373C233.461 136.254 234.214 135.388 235.382 135.388C236.55 135.388 237.289 136.254 237.289 137.373C237.289 138.485 236.55 139.357 235.382 139.357ZM235.375 138.682C236.03 138.682 236.381 138.126 236.381 137.373C236.381 136.613 236.03 136.049 235.375 136.049C234.713 136.049 234.369 136.613 234.369 137.373C234.369 138.126 234.713 138.682 235.375 138.682ZM239.65 139.357C238.482 139.357 237.729 138.485 237.729 137.373C237.729 136.254 238.482 135.388 239.65 135.388C240.819 135.388 241.558 136.254 241.558 137.373C241.558 138.485 240.819 139.357 239.65 139.357ZM239.643 138.682C240.298 138.682 240.65 138.126 240.65 137.373C240.65 136.613 240.298 136.049 239.643 136.049C238.982 136.049 238.637 136.613 238.637 137.373C238.637 138.126 238.982 138.682 239.643 138.682ZM242.201 139.245V134.008H243.102V139.245H242.201Z" fill="#0F0F15"/>
<path d="M275.819 141.255C275.819 141.743 276.155 141.964 276.856 142.124V140.37C276.239 140.416 275.819 140.729 275.819 141.255ZM278.427 143.809C278.427 143.253 278.038 143.077 277.306 142.902V144.785C277.916 144.732 278.427 144.381 278.427 143.809ZM277.306 146.165H276.856V145.372C275.499 145.281 274.935 144.465 274.882 143.611H275.614C275.69 144.274 276.041 144.701 276.856 144.777V142.803C275.865 142.582 275.126 142.315 275.126 141.293C275.126 140.393 275.827 139.852 276.856 139.806V139.25H277.306V139.806C278.374 139.883 278.915 140.401 279.029 141.232H278.313C278.252 140.744 277.901 140.447 277.306 140.378V142.216C278.351 142.429 279.151 142.704 279.151 143.779C279.151 144.739 278.358 145.311 277.306 145.372V146.165ZM281.085 145.326V141.415H279.827V140.927C280.514 140.912 281.154 140.653 281.253 139.86H281.825V145.326H281.085ZM284.086 145.326V141.415H282.828V140.927C283.514 140.912 284.155 140.653 284.254 139.86H284.826V145.326H284.086ZM286.324 144.457C286.583 144.457 286.782 144.655 286.782 144.915C286.782 145.174 286.583 145.365 286.324 145.365C286.065 145.365 285.867 145.174 285.867 144.915C285.867 144.655 286.065 144.457 286.324 144.457ZM289.322 142.879C290.115 142.879 290.618 142.36 290.618 141.613C290.618 140.866 290.046 140.355 289.33 140.355C288.598 140.355 288.087 140.866 288.087 141.613C288.087 142.353 288.636 142.879 289.322 142.879ZM289.36 145.448C288.285 145.448 287.545 144.785 287.477 143.984H288.216C288.285 144.434 288.651 144.846 289.345 144.846C289.749 144.846 290.039 144.724 290.252 144.48C290.565 144.137 290.702 143.558 290.733 142.704H290.717C290.367 143.184 289.863 143.474 289.223 143.474C288.216 143.474 287.408 142.65 287.401 141.629C287.393 140.599 288.216 139.768 289.33 139.768C289.871 139.768 290.29 139.943 290.611 140.187C291.228 140.66 291.426 141.438 291.426 142.627C291.426 143.71 291.205 144.511 290.679 144.983C290.351 145.288 289.901 145.448 289.36 145.448ZM294.194 145.448C293.584 145.448 293.05 145.281 292.661 144.96C292.265 144.64 292.029 144.167 292.021 143.565H292.738C292.76 144.366 293.294 144.846 294.171 144.846C294.895 144.846 295.406 144.48 295.406 143.741C295.406 143.077 294.911 142.726 294.034 142.726H293.691V142.162H294.026C294.834 142.162 295.254 141.819 295.254 141.255C295.254 140.683 294.75 140.34 294.118 140.34C293.355 140.34 292.913 140.836 292.905 141.514H292.196C292.204 140.492 292.928 139.768 294.141 139.768C295.162 139.768 295.97 140.325 295.97 141.263C295.97 141.873 295.604 142.223 295.071 142.399V142.421C295.826 142.62 296.161 143.1 296.161 143.802C296.161 144.861 295.299 145.448 294.194 145.448Z" fill="#0F0F15"/>
<g clip-path="url(#clip1_6637_206)">
<path d="M43.3002 86.231C43.3002 83.1249 45.8181 80.607 48.9242 80.607V80.607V121.848V121.848C45.8181 121.848 43.3002 119.33 43.3002 116.224V86.231Z" fill="#E5401B"/>
</g>
<g clip-path="url(#clip2_6637_206)">
<path d="M177.67 86.231C177.67 83.1249 180.188 80.607 183.294 80.607V80.607V121.848V121.848C180.188 121.848 177.67 119.33 177.67 116.224V86.231Z" fill="#446BCE"/>
</g>
<g clip-path="url(#clip3_6637_206)">
<path d="M177.67 131.858C177.67 128.752 180.188 126.234 183.294 126.234V126.234V167.475V167.475C180.188 167.475 177.67 164.957 177.67 161.851V131.858Z" fill="#AD69C2"/>
</g>
<g clip-path="url(#clip4_6637_206)">
<path d="M43.3002 132.523C43.3002 129.417 45.8181 126.899 48.9242 126.899V126.899V168.14V168.14C45.8181 168.14 43.3002 165.622 43.3002 162.516V132.523Z" fill="#109C6B"/>
</g>
</g>
<defs>
<clipPath id="clip0_6637_206">
<rect width="350" height="141" fill="white"/>
</clipPath>
<clipPath id="clip1_6637_206">
<rect width="4.13086" height="41.3086" fill="white" transform="translate(42.9861 80.6499)"/>
</clipPath>
<clipPath id="clip2_6637_206">
<rect width="4.13086" height="41.3086" fill="white" transform="translate(177.356 80.6499)"/>
</clipPath>
<clipPath id="clip3_6637_206">
<rect width="4.13086" height="41.3086" fill="white" transform="translate(177.356 126.277)"/>
</clipPath>
<clipPath id="clip4_6637_206">
<rect width="4.13086" height="41.3086" fill="white" transform="translate(42.9861 126.942)"/>
</clipPath>
</defs>
</svg>
