<svg width="305" height="97" viewBox="0 0 305 97" fill="none" xmlns="http://www.w3.org/2000/svg">
<path d="M96.0228 47.6352C96.1654 66.6025 84.9835 84.6534 66.3813 92.3587C47.7791 100.064 27.1081 95.207 13.797 81.6943L96.0228 47.6352Z" fill="#171717"/>
<path d="M29.6437 3.66629C54.1354 -6.47842 82.2139 5.15206 92.3587 29.6437C93.9478 33.4799 95.0023 37.4043 95.5571 41.3338L9.6705 76.9092C7.28424 73.7383 5.25532 70.2175 3.66632 66.3813C-6.47844 41.8896 5.15202 13.8111 29.6437 3.66629Z" fill="#171717"/>
<path d="M229.043 30.0125H240.105V37.7937C241.855 34.7312 244.105 32.4187 246.855 30.8562C249.605 29.2937 252.762 28.5125 256.324 28.5125C259.762 28.5125 262.73 29.3875 265.23 31.1375C267.793 32.825 269.668 35.2625 270.855 38.45C272.605 35.2 274.918 32.7312 277.793 31.0437C280.73 29.3562 284.137 28.5125 288.012 28.5125C293.012 28.5125 297.012 30.2312 300.012 33.6687C303.012 37.0437 304.512 41.7312 304.512 47.7312V84.0125H293.262V49.1375C293.262 45.95 292.48 43.325 290.918 41.2625C289.418 39.1375 287.199 38.075 284.262 38.075C280.762 38.075 277.887 39.3875 275.637 42.0125C273.449 44.6375 272.355 48.0437 272.355 52.2312V84.0125H261.105V49.1375C261.105 45.95 260.355 43.325 258.855 41.2625C257.418 39.1375 255.23 38.075 252.293 38.075C248.793 38.075 245.918 39.4187 243.668 42.1062C241.418 44.7312 240.293 48.1062 240.293 52.2312V84.0125H229.043V30.0125Z" fill="#171717"/>
<path d="M208.324 30.0125H219.574V84.0125H208.324V30.0125ZM213.949 21.8562C211.949 21.8562 210.23 21.1687 208.793 19.7937C207.418 18.3562 206.73 16.6375 206.73 14.6375C206.73 12.575 207.418 10.8562 208.793 9.4812C210.23 8.1062 211.949 7.4187 213.949 7.4187C216.012 7.4187 217.73 8.13745 219.105 9.57495C220.48 10.95 221.168 12.6375 221.168 14.6375C221.168 16.7 220.48 18.4187 219.105 19.7937C217.73 21.1687 216.012 21.8562 213.949 21.8562Z" fill="#171717"/>
<path d="M174.293 85.5125C164.543 85.5125 157.012 83.2625 151.699 78.7625C146.387 74.2625 143.574 68.2 143.262 60.575H154.793C155.355 65.8875 157.23 69.825 160.418 72.3875C163.605 74.8875 168.199 76.1375 174.199 76.1375C178.824 76.1375 182.605 75.1687 185.543 73.2312C188.48 71.2312 189.949 68.3875 189.949 64.7C189.949 61.95 189.168 59.7937 187.605 58.2312C186.043 56.6062 183.949 55.3562 181.324 54.4812C178.762 53.6062 175.012 52.6062 170.074 51.4812C164.887 50.2937 160.605 49.0125 157.23 47.6375C153.918 46.2625 151.199 44.2312 149.074 41.5437C146.949 38.8562 145.887 35.2625 145.887 30.7625C145.887 24.3875 148.262 19.4187 153.012 15.8562C157.762 12.2937 164.074 10.5125 171.949 10.5125C180.137 10.5125 186.512 12.2937 191.074 15.8562C195.699 19.4187 198.449 24.5125 199.324 31.1375H188.074C187.387 27.325 185.605 24.4812 182.73 22.6062C179.918 20.6687 176.355 19.7 172.043 19.7C167.48 19.7 163.887 20.6062 161.262 22.4187C158.637 24.1687 157.324 26.6375 157.324 29.825C157.324 32.075 157.98 33.9187 159.293 35.3562C160.668 36.7312 162.543 37.825 164.918 38.6375C167.293 39.45 170.543 40.2937 174.668 41.1687C180.48 42.3562 185.23 43.7 188.918 45.2C192.668 46.6375 195.668 48.825 197.918 51.7625C200.23 54.7 201.387 58.6687 201.387 63.6687C201.387 68.2312 200.23 72.1687 197.918 75.4812C195.668 78.7312 192.48 81.2312 188.355 82.9812C184.293 84.6687 179.605 85.5125 174.293 85.5125Z" fill="#171717"/>
</svg>