<svg width="95" height="40" viewBox="0 0 95 40" fill="none" xmlns="http://www.w3.org/2000/svg">
<g clip-path="url(#clip0_13020_3954)">
<path d="M19.9893 39.9687C31.0278 39.9687 39.9764 31.0214 39.9764 19.9844C39.9764 8.94735 31.0278 7.62939e-05 19.9893 7.62939e-05C8.95072 7.62939e-05 0.00219727 8.94735 0.00219727 19.9844C0.00219727 31.0214 8.95072 39.9687 19.9893 39.9687Z" fill="#F4603E"/>
<path d="M3.47949 31.257C3.47949 31.257 16.6871 26.9308 39.9651 19.3408C39.9651 19.3408 41.2401 31.7705 28.3541 38.2539C28.3541 38.2539 21.9997 41.2994 15.0284 39.3458C15.0284 39.3458 8.08667 38.0355 3.47949 31.257Z" fill="#1E1870"/>
</g>
<path d="M58.8644 30.0062C57.2803 30.0062 55.9338 29.7246 54.825 29.1613C53.7337 28.5981 52.792 27.8589 52 26.9436L54.3497 24.6731C54.9834 25.4123 55.6874 25.9755 56.4619 26.3628C57.2539 26.75 58.1251 26.9436 59.0756 26.9436C60.1493 26.9436 60.9589 26.7148 61.5045 26.2572C62.0502 25.7819 62.323 25.1483 62.323 24.3563C62.323 23.7402 62.147 23.2386 61.795 22.8514C61.4429 22.4641 60.7829 22.1825 59.8148 22.0065L58.0723 21.7425C54.3937 21.1617 52.5544 19.3752 52.5544 16.383C52.5544 15.5558 52.704 14.8077 53.0033 14.1389C53.3201 13.47 53.7689 12.898 54.3497 12.4228C54.9306 11.9475 55.6258 11.5867 56.4355 11.3403C57.2627 11.0763 58.1956 10.9443 59.234 10.9443C60.6245 10.9443 61.839 11.1731 62.8774 11.6307C63.9159 12.0884 64.8047 12.766 65.544 13.6636L63.1678 15.9078C62.7102 15.3445 62.1558 14.8869 61.5045 14.5349C60.8533 14.1829 60.0349 14.0069 59.0492 14.0069C58.0459 14.0069 57.2891 14.2005 56.7787 14.5877C56.2858 14.9573 56.0394 15.4853 56.0394 16.1718C56.0394 16.8758 56.2418 17.3951 56.6467 17.7295C57.0515 18.0639 57.7027 18.3103 58.6004 18.4687L60.3165 18.7855C62.1822 19.12 63.5551 19.7184 64.4351 20.5808C65.3328 21.4257 65.7816 22.6138 65.7816 24.145C65.7816 25.0251 65.6232 25.8259 65.3064 26.5476C65.0071 27.2516 64.5583 27.8677 63.9599 28.3957C63.379 28.9061 62.6574 29.3021 61.795 29.5838C60.9501 29.8654 59.9733 30.0062 58.8644 30.0062Z" fill="#F3F5F7"/>
<path d="M70.2257 13.9013C69.5217 13.9013 69.0112 13.7428 68.6944 13.426C68.3952 13.1092 68.2456 12.7044 68.2456 12.2116V11.6835C68.2456 11.1907 68.3952 10.7859 68.6944 10.4691C69.0112 10.1522 69.5217 9.99384 70.2257 9.99384C70.9121 9.99384 71.4138 10.1522 71.7306 10.4691C72.0474 10.7859 72.2058 11.1907 72.2058 11.6835V12.2116C72.2058 12.7044 72.0474 13.1092 71.7306 13.426C71.4138 13.7428 70.9121 13.9013 70.2257 13.9013ZM68.536 15.9078H71.9154V29.6894H68.536V15.9078Z" fill="#F3F5F7"/>
<path d="M75.3045 29.6894V15.9078H78.6839V18.2047H78.8159C79.0799 17.4831 79.5023 16.867 80.0832 16.3566C80.664 15.8462 81.4736 15.591 82.5121 15.591C83.4625 15.591 84.281 15.8198 84.9674 16.2774C85.6539 16.735 86.1643 17.4303 86.4987 18.3631H86.5515C86.7979 17.5887 87.282 16.9374 88.0036 16.4094C88.7428 15.8638 89.6669 15.591 90.7758 15.591C92.131 15.591 93.1695 16.0574 93.8911 16.9902C94.6304 17.9231 95 19.252 95 20.9769V29.6894H91.6206V21.3201C91.6206 19.3488 90.8814 18.3631 89.4029 18.3631C89.0685 18.3631 88.7428 18.4159 88.426 18.5215C88.1268 18.6095 87.854 18.7503 87.6076 18.9439C87.3788 19.12 87.194 19.3488 87.0532 19.6304C86.9123 19.8944 86.8419 20.2112 86.8419 20.5808V29.6894H83.4625V21.3201C83.4625 19.3488 82.7233 18.3631 81.2448 18.3631C80.928 18.3631 80.6112 18.4159 80.2944 18.5215C79.9951 18.6095 79.7223 18.7503 79.4759 18.9439C79.2471 19.12 79.0535 19.3488 78.8951 19.6304C78.7543 19.8944 78.6839 20.2112 78.6839 20.5808V29.6894H75.3045Z" fill="#F3F5F7"/>
<defs>
<clipPath id="clip0_13020_3954">
<rect width="40" height="40" rx="20" fill="white"/>
</clipPath>
</defs>
</svg>
