<svg width="720" height="275" viewBox="0 0 720 275" fill="none" xmlns="http://www.w3.org/2000/svg">
<g clip-path="url(#clip0_3939_114042)">
<rect x="0.5" width="719" height="275" rx="18" fill="white"/>
<path d="M-189.328 81.4022C-189.328 53.5659 -166.762 31 -138.926 31H520.902C548.739 31 571.305 53.5658 571.305 81.4022V547.916H-189.328V81.4022Z" fill="#F3F5F7"/>
<path fill-rule="evenodd" clip-rule="evenodd" d="M520.905 36.8607H-208.098C-232.697 36.8607 -252.639 56.8026 -252.639 81.4022V542.055H565.446V81.4022C565.446 56.8026 545.504 36.8607 520.905 36.8607ZM-208.098 31C-235.934 31 -258.5 53.5659 -258.5 81.4022V547.916H571.307V81.4022C571.307 53.5658 548.741 31 520.905 31H-208.098Z" fill="#E9EBEE"/>
<rect x="173.867" y="67.3125" width="359.849" height="76.1894" rx="17.5822" fill="white"/>
<rect x="194.316" y="85.998" width="38.8159" height="38.8159" rx="19.4079" fill="#07638E"/>
<path d="M217.73 103.051H221.721V99.0605" stroke="white" stroke-width="1.33023" stroke-linecap="round" stroke-linejoin="round"/>
<path d="M208.555 100.234C209.233 99.5543 210.04 99.0151 210.927 98.6471C211.814 98.2792 212.765 98.0898 213.726 98.0898C214.687 98.0898 215.638 98.2792 216.525 98.6471C217.412 99.0151 218.218 99.5543 218.897 100.234L221.724 103.052" stroke="white" stroke-width="1.33023" stroke-linecap="round" stroke-linejoin="round"/>
<path d="M209.717 107.76H205.727V111.75" stroke="white" stroke-width="1.33023" stroke-linecap="round" stroke-linejoin="round"/>
<path d="M218.896 110.578C218.217 111.258 217.411 111.797 216.524 112.165C215.636 112.533 214.685 112.722 213.725 112.722C212.764 112.722 211.813 112.533 210.925 112.165C210.038 111.797 209.232 111.258 208.553 110.578L205.727 107.76" stroke="white" stroke-width="1.33023" stroke-linecap="round" stroke-linejoin="round"/>
<path d="M448.5 117.355V116.291H451.729V117.355H448.5ZM455.928 121.598V120.584C455.301 120.543 454.769 120.39 454.332 120.126C453.903 119.854 453.536 119.516 453.231 119.112L453.961 118.456C454.225 118.811 454.513 119.095 454.827 119.31C455.148 119.516 455.52 119.648 455.94 119.706V116.526C455.091 116.337 454.468 116.06 454.072 115.697C453.684 115.326 453.491 114.819 453.491 114.176C453.491 113.846 453.548 113.553 453.664 113.297C453.788 113.033 453.957 112.807 454.171 112.617C454.385 112.427 454.641 112.279 454.938 112.172C455.235 112.056 455.565 111.982 455.928 111.949V110.934H456.695V111.937C457.256 111.986 457.738 112.13 458.142 112.37C458.555 112.6 458.909 112.922 459.206 113.334L458.451 113.904C458.245 113.615 457.998 113.38 457.709 113.198C457.421 113.009 457.078 112.885 456.682 112.827V115.722L456.794 115.747C457.651 115.937 458.274 116.217 458.662 116.588C459.058 116.951 459.256 117.458 459.256 118.11C459.256 118.819 459.025 119.392 458.563 119.829C458.109 120.258 457.487 120.51 456.695 120.584V121.598H455.928ZM458.278 118.172C458.278 117.751 458.155 117.429 457.907 117.207C457.668 116.984 457.26 116.803 456.682 116.662V119.706C457.177 119.64 457.565 119.475 457.845 119.211C458.134 118.939 458.278 118.592 458.278 118.172ZM454.468 114.102C454.468 114.522 454.588 114.84 454.827 115.054C455.074 115.26 455.445 115.429 455.94 115.561V112.827C455.495 112.885 455.136 113.021 454.864 113.236C454.6 113.45 454.468 113.739 454.468 114.102ZM463.693 120.732C462.662 120.732 461.907 120.341 461.429 119.557C460.959 118.774 460.724 117.677 460.724 116.266C460.724 114.856 460.959 113.759 461.429 112.976C461.907 112.192 462.662 111.8 463.693 111.8C464.724 111.8 465.474 112.192 465.944 112.976C466.422 113.759 466.662 114.856 466.662 116.266C466.662 117.677 466.422 118.774 465.944 119.557C465.474 120.341 464.724 120.732 463.693 120.732ZM463.693 119.829C464.031 119.829 464.319 119.759 464.559 119.619C464.798 119.479 464.992 119.281 465.14 119.025C465.288 118.77 465.396 118.469 465.462 118.122C465.536 117.776 465.573 117.392 465.573 116.972V115.561C465.573 115.141 465.536 114.757 465.462 114.411C465.396 114.064 465.288 113.763 465.14 113.508C464.992 113.252 464.798 113.054 464.559 112.914C464.319 112.774 464.031 112.704 463.693 112.704C463.354 112.704 463.066 112.774 462.827 112.914C462.587 113.054 462.394 113.252 462.245 113.508C462.097 113.763 461.985 114.064 461.911 114.411C461.845 114.757 461.812 115.141 461.812 115.561V116.972C461.812 117.392 461.845 117.776 461.911 118.122C461.985 118.469 462.097 118.77 462.245 119.025C462.394 119.281 462.587 119.479 462.827 119.619C463.066 119.759 463.354 119.829 463.693 119.829ZM469.082 120.732C468.818 120.732 468.624 120.666 468.5 120.534C468.385 120.403 468.327 120.229 468.327 120.015V119.854C468.327 119.64 468.385 119.466 468.5 119.334C468.624 119.203 468.818 119.137 469.082 119.137C469.345 119.137 469.535 119.203 469.651 119.334C469.774 119.466 469.836 119.64 469.836 119.854V120.015C469.836 120.229 469.774 120.403 469.651 120.534C469.535 120.666 469.345 120.732 469.082 120.732ZM473.999 115.611C474.584 115.611 475.021 115.479 475.31 115.215C475.607 114.943 475.755 114.596 475.755 114.176V114.089C475.755 113.636 475.611 113.297 475.322 113.075C475.042 112.844 474.671 112.728 474.209 112.728C473.764 112.728 473.401 112.827 473.12 113.025C472.84 113.215 472.609 113.475 472.427 113.805L471.66 113.211C471.768 113.038 471.896 112.869 472.044 112.704C472.201 112.53 472.382 112.378 472.588 112.246C472.794 112.114 473.034 112.007 473.306 111.924C473.578 111.842 473.887 111.8 474.234 111.8C474.597 111.8 474.939 111.85 475.26 111.949C475.582 112.04 475.858 112.18 476.089 112.37C476.329 112.551 476.514 112.778 476.646 113.05C476.786 113.322 476.856 113.631 476.856 113.978C476.856 114.258 476.811 114.51 476.72 114.732C476.638 114.955 476.522 115.149 476.374 115.314C476.225 115.479 476.048 115.619 475.842 115.734C475.644 115.85 475.43 115.937 475.199 115.994V116.044C475.43 116.093 475.652 116.176 475.867 116.291C476.089 116.398 476.283 116.543 476.448 116.724C476.621 116.897 476.757 117.112 476.856 117.367C476.964 117.615 477.017 117.899 477.017 118.221C477.017 118.592 476.947 118.934 476.807 119.248C476.667 119.553 476.469 119.817 476.213 120.04C475.957 120.254 475.648 120.423 475.285 120.547C474.922 120.671 474.522 120.732 474.085 120.732C473.714 120.732 473.384 120.691 473.096 120.609C472.807 120.526 472.551 120.415 472.329 120.275C472.106 120.134 471.908 119.978 471.735 119.805C471.57 119.631 471.421 119.45 471.289 119.26L472.069 118.666C472.176 118.84 472.291 118.996 472.415 119.137C472.547 119.277 472.691 119.396 472.848 119.495C473.005 119.594 473.182 119.673 473.38 119.73C473.578 119.78 473.809 119.805 474.073 119.805C474.683 119.805 475.145 119.669 475.458 119.396C475.772 119.116 475.929 118.72 475.929 118.209V118.11C475.929 117.598 475.772 117.207 475.458 116.934C475.145 116.654 474.683 116.514 474.073 116.514H473.058V115.611H473.999ZM481.899 120.732C480.868 120.732 480.113 120.341 479.635 119.557C479.165 118.774 478.93 117.677 478.93 116.266C478.93 114.856 479.165 113.759 479.635 112.976C480.113 112.192 480.868 111.8 481.899 111.8C482.93 111.8 483.68 112.192 484.15 112.976C484.629 113.759 484.868 114.856 484.868 116.266C484.868 117.677 484.629 118.774 484.15 119.557C483.68 120.341 482.93 120.732 481.899 120.732ZM481.899 119.829C482.237 119.829 482.526 119.759 482.765 119.619C483.004 119.479 483.198 119.281 483.346 119.025C483.495 118.77 483.602 118.469 483.668 118.122C483.742 117.776 483.779 117.392 483.779 116.972V115.561C483.779 115.141 483.742 114.757 483.668 114.411C483.602 114.064 483.495 113.763 483.346 113.508C483.198 113.252 483.004 113.054 482.765 112.914C482.526 112.774 482.237 112.704 481.899 112.704C481.561 112.704 481.272 112.774 481.033 112.914C480.794 113.054 480.6 113.252 480.452 113.508C480.303 113.763 480.192 114.064 480.117 114.411C480.052 114.757 480.019 115.141 480.019 115.561V116.972C480.019 117.392 480.052 117.776 480.117 118.122C480.192 118.469 480.303 118.77 480.452 119.025C480.6 119.281 480.794 119.479 481.033 119.619C481.272 119.759 481.561 119.829 481.899 119.829ZM490.657 111.949V117.293C490.657 118.118 490.81 118.745 491.115 119.174C491.42 119.594 491.956 119.805 492.723 119.805C493.49 119.805 494.026 119.594 494.331 119.174C494.636 118.745 494.789 118.118 494.789 117.293V111.949H495.828V117.046C495.828 117.673 495.77 118.217 495.655 118.679C495.548 119.141 495.37 119.524 495.123 119.829C494.875 120.134 494.55 120.361 494.146 120.51C493.75 120.658 493.263 120.732 492.686 120.732C492.108 120.732 491.622 120.658 491.226 120.51C490.838 120.361 490.525 120.134 490.286 119.829C490.047 119.524 489.873 119.141 489.766 118.679C489.667 118.217 489.618 117.673 489.618 117.046V111.949H490.657ZM500.489 120.732C499.788 120.732 499.19 120.6 498.695 120.337C498.2 120.064 497.779 119.693 497.433 119.223L498.2 118.58C498.505 118.984 498.843 119.293 499.214 119.508C499.586 119.714 500.023 119.817 500.526 119.817C501.144 119.817 501.614 119.669 501.936 119.372C502.266 119.075 502.431 118.679 502.431 118.184C502.431 117.772 502.307 117.454 502.06 117.231C501.812 117.009 501.404 116.831 500.835 116.699L500.13 116.539C499.338 116.357 498.732 116.085 498.311 115.722C497.899 115.351 497.693 114.831 497.693 114.163C497.693 113.784 497.763 113.446 497.903 113.149C498.043 112.852 498.237 112.605 498.485 112.407C498.74 112.209 499.041 112.06 499.388 111.961C499.742 111.854 500.13 111.8 500.551 111.8C501.202 111.8 501.759 111.92 502.221 112.159C502.691 112.398 503.087 112.749 503.408 113.211L502.629 113.78C502.39 113.45 502.101 113.19 501.763 113C501.425 112.811 501.004 112.716 500.501 112.716C499.948 112.716 499.511 112.836 499.19 113.075C498.876 113.306 498.72 113.656 498.72 114.126C498.72 114.539 498.852 114.852 499.116 115.066C499.388 115.273 499.796 115.438 500.34 115.561L501.045 115.722C501.895 115.912 502.509 116.2 502.889 116.588C503.268 116.976 503.458 117.491 503.458 118.134C503.458 118.53 503.388 118.889 503.247 119.211C503.116 119.532 502.922 119.805 502.666 120.027C502.41 120.25 502.097 120.423 501.726 120.547C501.363 120.671 500.951 120.732 500.489 120.732ZM505.252 111.949H508.147C508.683 111.949 509.17 112.04 509.607 112.221C510.044 112.403 510.415 112.675 510.72 113.038C511.034 113.392 511.273 113.842 511.438 114.386C511.603 114.922 511.685 115.549 511.685 116.266C511.685 116.984 511.603 117.615 511.438 118.159C511.273 118.695 511.034 119.145 510.72 119.508C510.415 119.862 510.044 120.13 509.607 120.312C509.17 120.493 508.683 120.584 508.147 120.584H505.252V111.949ZM508.147 119.669C508.502 119.669 508.828 119.611 509.124 119.495C509.421 119.372 509.677 119.194 509.891 118.963C510.106 118.732 510.271 118.452 510.386 118.122C510.51 117.784 510.572 117.4 510.572 116.972V115.561C510.572 115.132 510.51 114.753 510.386 114.423C510.271 114.085 510.106 113.8 509.891 113.57C509.677 113.339 509.421 113.165 509.124 113.05C508.828 112.926 508.502 112.864 508.147 112.864H506.291V119.669H508.147Z" fill="#606367"/>
<path d="M406.543 96.354V94.3281H411.599V96.354H406.543ZM418.212 101.117C417.421 101.117 416.734 100.971 416.15 100.679C415.566 100.375 415.085 99.9433 414.708 99.3836C414.331 98.8239 414.051 98.1365 413.869 97.3213C413.686 96.5061 413.595 95.5753 413.595 94.5289C413.595 93.4947 413.686 92.57 413.869 91.7548C414.051 90.9274 414.331 90.2339 414.708 89.6742C415.085 89.1145 415.566 88.6886 416.15 88.3966C416.734 88.0924 417.421 87.9403 418.212 87.9403C419.794 87.9403 420.956 88.5183 421.698 89.6742C422.453 90.83 422.83 92.4483 422.83 94.5289C422.83 96.6095 422.453 98.2277 421.698 99.3836C420.956 100.54 419.794 101.117 418.212 101.117ZM418.212 99.3654C418.65 99.3654 419.021 99.2802 419.326 99.1099C419.642 98.9273 419.898 98.6718 420.092 98.3433C420.287 98.0148 420.427 97.6255 420.512 97.1753C420.597 96.7129 420.64 96.2019 420.64 95.6422V93.4156C420.64 92.8559 420.597 92.351 420.512 91.9008C420.427 91.4384 420.287 91.043 420.092 90.7145C419.898 90.3859 419.642 90.1365 419.326 89.9662C419.021 89.7837 418.65 89.6924 418.212 89.6924C417.774 89.6924 417.397 89.7837 417.081 89.9662C416.777 90.1365 416.527 90.3859 416.333 90.7145C416.138 91.043 415.998 91.4384 415.913 91.9008C415.828 92.351 415.785 92.8559 415.785 93.4156V95.6422C415.785 96.2019 415.828 96.7129 415.913 97.1753C415.998 97.6255 416.138 98.0148 416.333 98.3433C416.527 98.6718 416.777 98.9273 417.081 99.1099C417.397 99.2802 417.774 99.3654 418.212 99.3654ZM426.327 101.117C425.877 101.117 425.542 101.002 425.323 100.771C425.104 100.527 424.995 100.229 424.995 99.8764V99.6026C424.995 99.2498 425.104 98.9578 425.323 98.7266C425.542 98.4832 425.877 98.3616 426.327 98.3616C426.777 98.3616 427.112 98.4832 427.331 98.7266C427.55 98.9578 427.659 99.2498 427.659 99.6026V99.8764C427.659 100.229 427.55 100.527 427.331 100.771C427.112 101.002 426.777 101.117 426.327 101.117ZM434.449 101.117C433.658 101.117 432.971 100.971 432.387 100.679C431.803 100.375 431.322 99.9433 430.945 99.3836C430.568 98.8239 430.288 98.1365 430.105 97.3213C429.923 96.5061 429.832 95.5753 429.832 94.5289C429.832 93.4947 429.923 92.57 430.105 91.7548C430.288 90.9274 430.568 90.2339 430.945 89.6742C431.322 89.1145 431.803 88.6886 432.387 88.3966C432.971 88.0924 433.658 87.9403 434.449 87.9403C436.031 87.9403 437.193 88.5183 437.935 89.6742C438.689 90.83 439.067 92.4483 439.067 94.5289C439.067 96.6095 438.689 98.2277 437.935 99.3836C437.193 100.54 436.031 101.117 434.449 101.117ZM434.449 99.3654C434.887 99.3654 435.258 99.2802 435.562 99.1099C435.879 98.9273 436.134 98.6718 436.329 98.3433C436.524 98.0148 436.664 97.6255 436.749 97.1753C436.834 96.7129 436.877 96.2019 436.877 95.6422V93.4156C436.877 92.8559 436.834 92.351 436.749 91.9008C436.664 91.4384 436.524 91.043 436.329 90.7145C436.134 90.3859 435.879 90.1365 435.562 89.9662C435.258 89.7837 434.887 89.6924 434.449 89.6924C434.011 89.6924 433.634 89.7837 433.318 89.9662C433.013 90.1365 432.764 90.3859 432.569 90.7145C432.375 91.043 432.235 91.4384 432.15 91.9008C432.064 92.351 432.022 92.8559 432.022 93.4156V95.6422C432.022 96.2019 432.064 96.7129 432.15 97.1753C432.235 97.6255 432.375 98.0148 432.569 98.3433C432.764 98.6718 433.013 98.9273 433.318 99.1099C433.634 99.2802 434.011 99.3654 434.449 99.3654ZM445.393 101.117C444.602 101.117 443.914 100.971 443.33 100.679C442.746 100.375 442.266 99.9433 441.888 99.3836C441.511 98.8239 441.231 98.1365 441.049 97.3213C440.866 96.5061 440.775 95.5753 440.775 94.5289C440.775 93.4947 440.866 92.57 441.049 91.7548C441.231 90.9274 441.511 90.2339 441.888 89.6742C442.266 89.1145 442.746 88.6886 443.33 88.3966C443.914 88.0924 444.602 87.9403 445.393 87.9403C446.974 87.9403 448.136 88.5183 448.878 89.6742C449.633 90.83 450.01 92.4483 450.01 94.5289C450.01 96.6095 449.633 98.2277 448.878 99.3836C448.136 100.54 446.974 101.117 445.393 101.117ZM445.393 99.3654C445.831 99.3654 446.202 99.2802 446.506 99.1099C446.822 98.9273 447.078 98.6718 447.272 98.3433C447.467 98.0148 447.607 97.6255 447.692 97.1753C447.777 96.7129 447.82 96.2019 447.82 95.6422V93.4156C447.82 92.8559 447.777 92.351 447.692 91.9008C447.607 91.4384 447.467 91.043 447.272 90.7145C447.078 90.3859 446.822 90.1365 446.506 89.9662C446.202 89.7837 445.831 89.6924 445.393 89.6924C444.955 89.6924 444.577 89.7837 444.261 89.9662C443.957 90.1365 443.707 90.3859 443.513 90.7145C443.318 91.043 443.178 91.4384 443.093 91.9008C443.008 92.351 442.965 92.8559 442.965 93.4156V95.6422C442.965 96.2019 443.008 96.7129 443.093 97.1753C443.178 97.6255 443.318 98.0148 443.513 98.3433C443.707 98.6718 443.957 98.9273 444.261 99.1099C444.577 99.2802 444.955 99.3654 445.393 99.3654ZM456.336 101.117C455.545 101.117 454.858 100.971 454.274 100.679C453.69 100.375 453.209 99.9433 452.832 99.3836C452.455 98.8239 452.175 98.1365 451.992 97.3213C451.81 96.5061 451.718 95.5753 451.718 94.5289C451.718 93.4947 451.81 92.57 451.992 91.7548C452.175 90.9274 452.455 90.2339 452.832 89.6742C453.209 89.1145 453.69 88.6886 454.274 88.3966C454.858 88.0924 455.545 87.9403 456.336 87.9403C457.918 87.9403 459.08 88.5183 459.822 89.6742C460.576 90.83 460.953 92.4483 460.953 94.5289C460.953 96.6095 460.576 98.2277 459.822 99.3836C459.08 100.54 457.918 101.117 456.336 101.117ZM456.336 99.3654C456.774 99.3654 457.145 99.2802 457.449 99.1099C457.766 98.9273 458.021 98.6718 458.216 98.3433C458.41 98.0148 458.55 97.6255 458.636 97.1753C458.721 96.7129 458.763 96.2019 458.763 95.6422V93.4156C458.763 92.8559 458.721 92.351 458.636 91.9008C458.55 91.4384 458.41 91.043 458.216 90.7145C458.021 90.3859 457.766 90.1365 457.449 89.9662C457.145 89.7837 456.774 89.6924 456.336 89.6924C455.898 89.6924 455.521 89.7837 455.204 89.9662C454.9 90.1365 454.651 90.3859 454.456 90.7145C454.261 91.043 454.122 91.4384 454.036 91.9008C453.951 92.351 453.909 92.8559 453.909 93.4156V95.6422C453.909 96.2019 453.951 96.7129 454.036 97.1753C454.122 97.6255 454.261 98.0148 454.456 98.3433C454.651 98.6718 454.9 98.9273 455.204 99.1099C455.521 99.2802 455.898 99.3654 456.336 99.3654ZM463.41 100.898V99.1829H466.987V89.6559H466.841L463.885 92.8133L462.625 91.6818L465.874 88.1593H469.013V99.1829H472.116V100.898H463.41ZM478.63 100.898V88.1593H486.788V89.9844H480.693V93.5251H486.223V95.3502H480.693V99.0734H486.788V100.898H478.63ZM494.176 89.9844V100.898H492.113V89.9844H488.317V88.1593H497.972V89.9844H494.176ZM507.812 95.3502H502.045V100.898H499.982V88.1593H502.045V93.5251H507.812V88.1593H509.874V100.898H507.812V95.3502Z" fill="#1D1D20"/>
<path d="M246.394 87.8435H251.013C251.849 87.8435 252.603 87.9807 253.276 88.255C253.962 88.5293 254.542 88.9408 255.016 89.4894C255.502 90.0256 255.876 90.7051 256.138 91.5281C256.4 92.3385 256.531 93.2862 256.531 94.371C256.531 95.4558 256.4 96.4096 256.138 97.2326C255.876 98.0431 255.502 98.7226 255.016 99.2712C254.542 99.8074 253.962 100.213 253.276 100.487C252.603 100.761 251.849 100.898 251.013 100.898H246.394V87.8435ZM251.013 99.0281C251.986 99.0281 252.771 98.7226 253.37 98.1116C253.968 97.5007 254.268 96.6029 254.268 95.4184V93.3236C254.268 92.139 253.968 91.2413 253.37 90.6303C252.771 90.0193 251.986 89.7138 251.013 89.7138H248.507V99.0281H251.013ZM262.827 101.123C262.128 101.123 261.505 101.004 260.956 100.768C260.408 100.531 259.94 100.194 259.554 99.7575C259.167 99.3087 258.868 98.7725 258.656 98.149C258.456 97.5131 258.357 96.8086 258.357 96.0356C258.357 95.2625 258.456 94.5642 258.656 93.9408C258.868 93.3049 259.167 92.7687 259.554 92.3323C259.94 91.8834 260.408 91.5405 260.956 91.3036C261.505 91.0667 262.128 90.9483 262.827 90.9483C263.537 90.9483 264.161 91.073 264.697 91.3223C265.246 91.5717 265.701 91.9208 266.062 92.3697C266.424 92.8061 266.692 93.3174 266.867 93.9034C267.054 94.4894 267.147 95.1191 267.147 95.7924V96.5593H260.47V96.8772C260.47 97.6254 260.688 98.2426 261.125 98.7289C261.574 99.2027 262.21 99.4396 263.032 99.4396C263.631 99.4396 264.136 99.3087 264.547 99.0468C264.959 98.785 265.308 98.4296 265.595 97.9807L266.792 99.159C266.43 99.7575 265.907 100.238 265.221 100.599C264.535 100.948 263.737 101.123 262.827 101.123ZM262.827 92.538C262.478 92.538 262.153 92.6004 261.854 92.7251C261.567 92.8498 261.318 93.0243 261.106 93.2488C260.907 93.4732 260.751 93.7413 260.638 94.053C260.526 94.3647 260.47 94.7076 260.47 95.0817V95.2126H264.996V95.0256C264.996 94.2775 264.803 93.6789 264.416 93.2301C264.03 92.7687 263.5 92.538 262.827 92.538ZM269.404 91.1727H271.443V92.7812H271.536C271.748 92.1952 272.091 91.7463 272.565 91.4345C273.051 91.1104 273.618 90.9483 274.267 90.9483C275.501 90.9483 276.455 91.3971 277.128 92.2949C277.802 93.1802 278.138 94.4271 278.138 96.0356C278.138 97.6441 277.802 98.8972 277.128 99.7949C276.455 100.68 275.501 101.123 274.267 101.123C273.618 101.123 273.051 100.961 272.565 100.637C272.091 100.312 271.748 99.8635 271.536 99.29H271.443V104.639H269.404V91.1727ZM273.65 99.3648C274.36 99.3648 274.928 99.1403 275.352 98.6914C275.776 98.2301 275.988 97.6254 275.988 96.8772V95.1939C275.988 94.4458 275.776 93.8473 275.352 93.3984C274.928 92.9371 274.36 92.7064 273.65 92.7064C273.026 92.7064 272.503 92.8622 272.079 93.174C271.655 93.4732 271.443 93.8722 271.443 94.371V97.7002C271.443 98.1989 271.655 98.6042 272.079 98.9159C272.503 99.2151 273.026 99.3648 273.65 99.3648ZM284.288 101.123C283.615 101.123 282.998 101.004 282.436 100.768C281.888 100.531 281.42 100.194 281.034 99.7575C280.647 99.3087 280.348 98.7725 280.136 98.149C279.924 97.5131 279.818 96.8086 279.818 96.0356C279.818 95.2625 279.924 94.5642 280.136 93.9408C280.348 93.3049 280.647 92.7687 281.034 92.3323C281.42 91.8834 281.888 91.5405 282.436 91.3036C282.998 91.0667 283.615 90.9483 284.288 90.9483C284.961 90.9483 285.572 91.0667 286.121 91.3036C286.682 91.5405 287.156 91.8834 287.542 92.3323C287.929 92.7687 288.228 93.3049 288.44 93.9408C288.652 94.5642 288.758 95.2625 288.758 96.0356C288.758 96.8086 288.652 97.5131 288.44 98.149C288.228 98.7725 287.929 99.3087 287.542 99.7575C287.156 100.194 286.682 100.531 286.121 100.768C285.572 101.004 284.961 101.123 284.288 101.123ZM284.288 99.4396C284.986 99.4396 285.547 99.2276 285.971 98.8037C286.395 98.3673 286.607 97.7189 286.607 96.8585V95.2126C286.607 94.3523 286.395 93.7101 285.971 93.2862C285.547 92.8498 284.986 92.6316 284.288 92.6316C283.59 92.6316 283.029 92.8498 282.605 93.2862C282.181 93.7101 281.969 94.3523 281.969 95.2126V96.8585C281.969 97.7189 282.181 98.3673 282.605 98.8037C283.029 99.2276 283.59 99.4396 284.288 99.4396ZM294.116 101.123C293.193 101.123 292.42 100.961 291.797 100.637C291.173 100.312 290.631 99.8635 290.169 99.29L291.479 98.0929C291.84 98.5293 292.239 98.8722 292.676 99.1216C293.125 99.3585 293.642 99.477 294.228 99.477C294.827 99.477 295.269 99.3648 295.556 99.1403C295.855 98.9034 296.005 98.5792 296.005 98.1678C296.005 97.856 295.899 97.5942 295.687 97.3822C295.487 97.1578 295.132 97.0144 294.621 96.952L293.723 96.8398C292.726 96.7151 291.94 96.4283 291.366 95.9795C290.805 95.5181 290.525 94.8386 290.525 93.9408C290.525 93.467 290.612 93.0493 290.787 92.6877C290.961 92.3136 291.204 92.0019 291.516 91.7525C291.84 91.4907 292.221 91.2912 292.657 91.154C293.106 91.0168 293.598 90.9483 294.134 90.9483C295.007 90.9483 295.718 91.0854 296.267 91.3597C296.828 91.6341 297.327 92.0144 297.763 92.5006L296.51 93.6977C296.26 93.3984 295.93 93.1428 295.519 92.9308C295.12 92.7064 294.658 92.5942 294.134 92.5942C293.573 92.5942 293.156 92.7064 292.881 92.9308C292.62 93.1553 292.489 93.4483 292.489 93.8099C292.489 94.1839 292.607 94.4645 292.844 94.6515C293.081 94.8386 293.461 94.9757 293.985 95.063L294.883 95.1752C295.955 95.3373 296.734 95.6553 297.221 96.1291C297.719 96.5904 297.969 97.2139 297.969 97.9994C297.969 98.4732 297.875 98.9034 297.688 99.29C297.514 99.664 297.258 99.9882 296.921 100.263C296.585 100.537 296.179 100.749 295.706 100.898C295.232 101.048 294.702 101.123 294.116 101.123ZM301.3 89.4333C300.877 89.4333 300.565 89.3335 300.365 89.134C300.178 88.9345 300.085 88.6789 300.085 88.3672V88.0492C300.085 87.7375 300.178 87.4819 300.365 87.2824C300.565 87.0829 300.877 86.9832 301.3 86.9832C301.724 86.9832 302.03 87.0829 302.217 87.2824C302.404 87.4819 302.498 87.7375 302.498 88.0492V88.3672C302.498 88.6789 302.404 88.9345 302.217 89.134C302.03 89.3335 301.724 89.4333 301.3 89.4333ZM300.272 91.1727H302.31V100.898H300.272V91.1727ZM307.915 100.898C307.204 100.898 306.668 100.718 306.306 100.356C305.945 99.982 305.764 99.4583 305.764 98.785V92.8373H304.249V91.1727H305.072C305.409 91.1727 305.639 91.0979 305.764 90.9483C305.901 90.7986 305.97 90.5555 305.97 90.2188V88.5168H307.803V91.1727H309.841V92.8373H307.803V99.2338H309.692V100.898H307.915ZM318.586 100.898L315.276 91.1727H317.296L318.773 95.6054L319.765 99.0094H319.877L320.868 95.6054L322.383 91.1727H324.328L320.98 100.898H318.586ZM329.485 93.2114C330.296 93.2114 330.894 93.043 331.281 92.7064C331.667 92.3572 331.86 91.9146 331.86 91.3784V91.2475C331.86 90.649 331.673 90.1939 331.299 89.8822C330.925 89.558 330.42 89.3959 329.784 89.3959C329.161 89.3959 328.631 89.5393 328.195 89.8261C327.758 90.1004 327.39 90.4869 327.091 90.9857L325.688 89.77C325.888 89.4832 326.112 89.2089 326.362 88.947C326.611 88.6852 326.904 88.4607 327.241 88.2737C327.577 88.0742 327.958 87.9183 328.382 87.8061C328.806 87.6814 329.292 87.6191 329.84 87.6191C330.451 87.6191 331.019 87.6939 331.542 87.8435C332.066 87.9931 332.515 88.2176 332.889 88.5168C333.263 88.8036 333.556 89.159 333.768 89.5829C333.98 89.9944 334.086 90.462 334.086 90.9857C334.086 91.3971 334.018 91.7712 333.88 92.1079C333.756 92.4445 333.575 92.7438 333.338 93.0056C333.114 93.255 332.845 93.4607 332.534 93.6228C332.234 93.7849 331.917 93.9034 331.58 93.9782V94.0717C331.954 94.1465 332.303 94.2712 332.627 94.4458C332.964 94.6079 333.257 94.8261 333.506 95.1004C333.756 95.3623 333.949 95.6802 334.086 96.0543C334.236 96.4159 334.311 96.8336 334.311 97.3074C334.311 97.881 334.198 98.4047 333.974 98.8785C333.749 99.3398 333.432 99.7388 333.02 100.075C332.621 100.412 332.135 100.674 331.561 100.861C330.988 101.036 330.352 101.123 329.653 101.123C329.042 101.123 328.506 101.054 328.045 100.917C327.584 100.792 327.172 100.624 326.811 100.412C326.461 100.188 326.15 99.9383 325.875 99.664C325.614 99.3772 325.383 99.0842 325.183 98.785L326.736 97.5692C326.898 97.8311 327.066 98.0742 327.241 98.2987C327.428 98.5106 327.633 98.6977 327.858 98.8598C328.095 99.0094 328.357 99.1279 328.643 99.2151C328.943 99.3024 329.279 99.3461 329.653 99.3461C330.451 99.3461 331.062 99.159 331.486 98.785C331.91 98.3984 332.122 97.8685 332.122 97.1952V97.0643C332.122 96.3909 331.898 95.8797 331.449 95.5306C331 95.1815 330.364 95.0069 329.541 95.0069H328.157V93.2114H329.485Z" fill="#1D1D20"/>
<path d="M248.979 122.354C247.882 122.354 247.028 121.982 246.418 121.24C245.808 120.49 245.503 119.389 245.503 117.937C245.503 116.485 245.808 115.372 246.418 114.597C247.028 113.813 247.882 113.422 248.979 113.422C249.705 113.422 250.311 113.587 250.798 113.916C251.292 114.246 251.676 114.712 251.948 115.314L251.107 115.822C250.934 115.376 250.67 115.022 250.315 114.758C249.96 114.485 249.515 114.349 248.979 114.349C248.608 114.349 248.274 114.42 247.977 114.56C247.688 114.7 247.441 114.902 247.235 115.166C247.037 115.422 246.884 115.731 246.777 116.094C246.67 116.448 246.616 116.848 246.616 117.294V118.58C246.616 119.471 246.822 120.168 247.235 120.671C247.647 121.174 248.228 121.426 248.979 121.426C249.532 121.426 249.993 121.285 250.365 121.005C250.736 120.716 251.008 120.337 251.181 119.867L252.01 120.387C251.738 120.997 251.346 121.479 250.835 121.834C250.323 122.18 249.705 122.354 248.979 122.354ZM255.933 122.354C255.504 122.354 255.112 122.275 254.757 122.118C254.403 121.962 254.098 121.739 253.842 121.45C253.595 121.154 253.401 120.803 253.261 120.399C253.12 119.987 253.05 119.525 253.05 119.013C253.05 118.51 253.12 118.052 253.261 117.64C253.401 117.228 253.595 116.877 253.842 116.589C254.098 116.292 254.403 116.065 254.757 115.908C255.112 115.751 255.504 115.673 255.933 115.673C256.362 115.673 256.749 115.751 257.096 115.908C257.45 116.065 257.755 116.292 258.011 116.589C258.267 116.877 258.465 117.228 258.605 117.64C258.745 118.052 258.815 118.51 258.815 119.013C258.815 119.525 258.745 119.987 258.605 120.399C258.465 120.803 258.267 121.154 258.011 121.45C257.755 121.739 257.45 121.962 257.096 122.118C256.749 122.275 256.362 122.354 255.933 122.354ZM255.933 121.475C256.469 121.475 256.906 121.31 257.244 120.98C257.582 120.65 257.751 120.147 257.751 119.471V118.556C257.751 117.879 257.582 117.376 257.244 117.046C256.906 116.716 256.469 116.551 255.933 116.551C255.397 116.551 254.96 116.716 254.621 117.046C254.283 117.376 254.114 117.879 254.114 118.556V119.471C254.114 120.147 254.283 120.65 254.621 120.98C254.96 121.31 255.397 121.475 255.933 121.475ZM260.443 122.205V115.822H261.433V116.861H261.482C261.639 116.498 261.857 116.209 262.138 115.995C262.426 115.78 262.81 115.673 263.288 115.673C263.948 115.673 264.468 115.888 264.847 116.316C265.235 116.737 265.428 117.335 265.428 118.11V122.205H264.439V118.283C264.439 117.137 263.956 116.564 262.991 116.564C262.793 116.564 262.6 116.589 262.41 116.638C262.228 116.688 262.063 116.762 261.915 116.861C261.767 116.96 261.647 117.088 261.556 117.244C261.474 117.393 261.433 117.57 261.433 117.776V122.205H260.443ZM267.821 116.688H266.781V115.822H267.821V114.535C267.821 114.09 267.936 113.731 268.167 113.459C268.398 113.187 268.748 113.05 269.218 113.05H270.183V113.916H268.81V115.822H272.385V122.205H271.396V116.688H268.81V122.205H267.821V116.688ZM271.891 114.325C271.676 114.325 271.519 114.275 271.421 114.176C271.33 114.069 271.284 113.933 271.284 113.768V113.607C271.284 113.442 271.33 113.31 271.421 113.211C271.519 113.104 271.676 113.05 271.891 113.05C272.105 113.05 272.258 113.104 272.348 113.211C272.447 113.31 272.497 113.442 272.497 113.607V113.768C272.497 113.933 272.447 114.069 272.348 114.176C272.258 114.275 272.105 114.325 271.891 114.325ZM274.493 122.205V115.822H275.483V116.997H275.545C275.66 116.692 275.866 116.42 276.163 116.18C276.46 115.941 276.869 115.822 277.388 115.822H277.772V116.811H277.19C276.654 116.811 276.234 116.914 275.928 117.121C275.631 117.318 275.483 117.57 275.483 117.875V122.205H274.493ZM279.036 122.205V115.822H280.026V116.861H280.075C280.149 116.696 280.232 116.543 280.322 116.403C280.421 116.255 280.537 116.127 280.669 116.02C280.809 115.912 280.97 115.83 281.151 115.772C281.333 115.706 281.547 115.673 281.795 115.673C282.215 115.673 282.603 115.776 282.957 115.982C283.312 116.18 283.576 116.51 283.749 116.972H283.774C283.889 116.626 284.104 116.325 284.417 116.069C284.739 115.805 285.172 115.673 285.716 115.673C286.368 115.673 286.875 115.888 287.238 116.316C287.609 116.737 287.795 117.335 287.795 118.11V122.205H286.805V118.283C286.805 117.714 286.694 117.285 286.471 116.997C286.248 116.708 285.894 116.564 285.407 116.564C285.209 116.564 285.019 116.589 284.838 116.638C284.665 116.688 284.508 116.762 284.368 116.861C284.228 116.96 284.116 117.088 284.034 117.244C283.951 117.393 283.91 117.57 283.91 117.776V122.205H282.92V118.283C282.92 117.714 282.809 117.285 282.586 116.997C282.364 116.708 282.017 116.564 281.547 116.564C281.349 116.564 281.16 116.589 280.978 116.638C280.797 116.688 280.636 116.762 280.496 116.861C280.355 116.96 280.24 117.088 280.149 117.244C280.067 117.393 280.026 117.57 280.026 117.776V122.205H279.036ZM292.236 122.354C291.799 122.354 291.403 122.275 291.049 122.118C290.702 121.962 290.401 121.739 290.146 121.45C289.898 121.154 289.704 120.803 289.564 120.399C289.432 119.987 289.366 119.525 289.366 119.013C289.366 118.51 289.432 118.052 289.564 117.64C289.704 117.228 289.898 116.877 290.146 116.589C290.401 116.292 290.702 116.065 291.049 115.908C291.403 115.751 291.799 115.673 292.236 115.673C292.665 115.673 293.049 115.751 293.387 115.908C293.725 116.065 294.014 116.283 294.253 116.564C294.492 116.836 294.674 117.162 294.797 117.541C294.929 117.921 294.995 118.337 294.995 118.791V119.261H290.405V119.558C290.405 119.83 290.447 120.085 290.529 120.325C290.62 120.556 290.744 120.758 290.9 120.931C291.065 121.104 291.263 121.24 291.494 121.339C291.733 121.438 292.001 121.488 292.298 121.488C292.702 121.488 293.053 121.393 293.35 121.203C293.655 121.013 293.89 120.741 294.055 120.387L294.76 120.894C294.554 121.331 294.232 121.685 293.795 121.958C293.358 122.222 292.838 122.354 292.236 122.354ZM292.236 116.502C291.964 116.502 291.717 116.551 291.494 116.65C291.271 116.741 291.078 116.873 290.913 117.046C290.756 117.22 290.632 117.426 290.542 117.665C290.451 117.896 290.405 118.151 290.405 118.432V118.518H293.931V118.382C293.931 117.813 293.775 117.36 293.461 117.022C293.156 116.675 292.748 116.502 292.236 116.502ZM300.709 121.166H300.659C300.271 121.958 299.649 122.354 298.791 122.354C298.395 122.354 298.036 122.275 297.715 122.118C297.393 121.962 297.117 121.739 296.886 121.45C296.663 121.162 296.49 120.811 296.366 120.399C296.251 119.987 296.193 119.525 296.193 119.013C296.193 118.502 296.251 118.04 296.366 117.628C296.49 117.215 296.663 116.865 296.886 116.576C297.117 116.288 297.393 116.065 297.715 115.908C298.036 115.751 298.395 115.673 298.791 115.673C299.236 115.673 299.616 115.772 299.929 115.97C300.251 116.16 300.494 116.457 300.659 116.861H300.709V113.05H301.698V122.205H300.709V121.166ZM299.063 121.463C299.286 121.463 299.496 121.434 299.694 121.376C299.9 121.318 300.078 121.236 300.226 121.129C300.374 121.013 300.49 120.877 300.572 120.721C300.663 120.556 300.709 120.37 300.709 120.164V117.789C300.709 117.615 300.663 117.455 300.572 117.306C300.49 117.149 300.374 117.017 300.226 116.91C300.078 116.803 299.9 116.721 299.694 116.663C299.496 116.597 299.286 116.564 299.063 116.564C298.502 116.564 298.061 116.741 297.739 117.096C297.418 117.442 297.257 117.9 297.257 118.469V119.558C297.257 120.127 297.418 120.589 297.739 120.943C298.061 121.29 298.502 121.463 299.063 121.463Z" fill="#07638E"/>
<rect x="173.867" y="154.141" width="359.849" height="76.1894" rx="17.5822" fill="white"/>
<rect x="194.316" y="172.83" width="38.8159" height="38.8159" rx="19.4079" fill="#0B6E40"/>
<path d="M221.509 186.447C221.769 186.707 221.769 187.128 221.509 187.387L212.197 196.699C212.073 196.824 211.904 196.894 211.727 196.894C211.551 196.894 211.382 196.824 211.257 196.699L206.601 192.043C206.341 191.783 206.341 191.362 206.601 191.103C206.861 190.843 207.282 190.843 207.542 191.103L211.727 195.288L220.568 186.447C220.828 186.187 221.249 186.187 221.509 186.447Z" fill="white"/>
<path d="M254.548 187.729L253.37 184.194H248.488L247.348 187.729H245.197L249.648 174.674H252.304L256.755 187.729H254.548ZM250.976 176.619H250.882L248.993 182.379H252.846L250.976 176.619ZM258.628 178.003H260.666V179.611H260.76C260.972 179.025 261.315 178.576 261.789 178.265C262.275 177.94 262.842 177.778 263.491 177.778C264.725 177.778 265.679 178.227 266.352 179.125C267.025 180.01 267.362 181.257 267.362 182.866C267.362 184.474 267.025 185.727 266.352 186.625C265.679 187.51 264.725 187.953 263.491 187.953C262.842 187.953 262.275 187.791 261.789 187.467C261.315 187.142 260.972 186.694 260.76 186.12H260.666V191.469H258.628V178.003ZM262.873 186.195C263.584 186.195 264.151 185.97 264.575 185.522C264.999 185.06 265.211 184.455 265.211 183.707V182.024C265.211 181.276 264.999 180.677 264.575 180.228C264.151 179.767 263.584 179.536 262.873 179.536C262.25 179.536 261.726 179.692 261.302 180.004C260.878 180.303 260.666 180.702 260.666 181.201V184.53C260.666 185.029 260.878 185.434 261.302 185.746C261.726 186.045 262.25 186.195 262.873 186.195ZM269.696 178.003H271.735V179.611H271.828C272.04 179.025 272.383 178.576 272.857 178.265C273.343 177.94 273.911 177.778 274.559 177.778C275.794 177.778 276.747 178.227 277.421 179.125C278.094 180.01 278.431 181.257 278.431 182.866C278.431 184.474 278.094 185.727 277.421 186.625C276.747 187.51 275.794 187.953 274.559 187.953C273.911 187.953 273.343 187.791 272.857 187.467C272.383 187.142 272.04 186.694 271.828 186.12H271.735V191.469H269.696V178.003ZM273.942 186.195C274.653 186.195 275.22 185.97 275.644 185.522C276.068 185.06 276.28 184.455 276.28 183.707V182.024C276.28 181.276 276.068 180.677 275.644 180.228C275.22 179.767 274.653 179.536 273.942 179.536C273.318 179.536 272.795 179.692 272.371 180.004C271.947 180.303 271.735 180.702 271.735 181.201V184.53C271.735 185.029 271.947 185.434 272.371 185.746C272.795 186.045 273.318 186.195 273.942 186.195ZM280.765 187.729V178.003H282.803V179.873H282.897C283.034 179.374 283.321 178.938 283.757 178.564C284.194 178.19 284.799 178.003 285.572 178.003H286.114V179.967H285.31C284.499 179.967 283.876 180.098 283.439 180.359C283.015 180.621 282.803 181.008 282.803 181.519V187.729H280.765ZM291.649 187.953C290.976 187.953 290.358 187.835 289.797 187.598C289.249 187.361 288.781 187.024 288.394 186.588C288.008 186.139 287.709 185.603 287.497 184.979C287.285 184.343 287.179 183.639 287.179 182.866C287.179 182.093 287.285 181.394 287.497 180.771C287.709 180.135 288.008 179.599 288.394 179.162C288.781 178.714 289.249 178.371 289.797 178.134C290.358 177.897 290.976 177.778 291.649 177.778C292.322 177.778 292.933 177.897 293.482 178.134C294.043 178.371 294.517 178.714 294.903 179.162C295.29 179.599 295.589 180.135 295.801 180.771C296.013 181.394 296.119 182.093 296.119 182.866C296.119 183.639 296.013 184.343 295.801 184.979C295.589 185.603 295.29 186.139 294.903 186.588C294.517 187.024 294.043 187.361 293.482 187.598C292.933 187.835 292.322 187.953 291.649 187.953ZM291.649 186.27C292.347 186.27 292.908 186.058 293.332 185.634C293.756 185.197 293.968 184.549 293.968 183.689V182.043C293.968 181.182 293.756 180.54 293.332 180.116C292.908 179.68 292.347 179.462 291.649 179.462C290.951 179.462 290.389 179.68 289.966 180.116C289.542 180.54 289.33 181.182 289.33 182.043V183.689C289.33 184.549 289.542 185.197 289.966 185.634C290.389 186.058 290.951 186.27 291.649 186.27ZM300.358 187.729L297.047 178.003H299.067L300.545 182.435L301.536 185.839H301.648L302.64 182.435L304.155 178.003H306.1L302.752 187.729H300.358ZM311.485 187.953C310.786 187.953 310.163 187.835 309.614 187.598C309.066 187.361 308.598 187.024 308.212 186.588C307.825 186.139 307.526 185.603 307.314 184.979C307.114 184.343 307.015 183.639 307.015 182.866C307.015 182.093 307.114 181.394 307.314 180.771C307.526 180.135 307.825 179.599 308.212 179.162C308.598 178.714 309.066 178.371 309.614 178.134C310.163 177.897 310.786 177.778 311.485 177.778C312.195 177.778 312.819 177.903 313.355 178.152C313.904 178.402 314.359 178.751 314.72 179.2C315.082 179.636 315.35 180.147 315.525 180.733C315.712 181.32 315.805 181.949 315.805 182.623V183.389H309.128V183.707C309.128 184.455 309.346 185.073 309.783 185.559C310.231 186.033 310.867 186.27 311.69 186.27C312.289 186.27 312.794 186.139 313.205 185.877C313.617 185.615 313.966 185.26 314.253 184.811L315.45 185.989C315.088 186.588 314.564 187.068 313.879 187.429C313.193 187.778 312.395 187.953 311.485 187.953ZM311.485 179.368C311.135 179.368 310.811 179.43 310.512 179.555C310.225 179.68 309.976 179.854 309.764 180.079C309.564 180.303 309.409 180.571 309.296 180.883C309.184 181.195 309.128 181.538 309.128 181.912V182.043H313.654V181.856C313.654 181.108 313.461 180.509 313.074 180.06C312.688 179.599 312.158 179.368 311.485 179.368ZM324.633 174.674V182.716C324.633 183.826 324.845 184.661 325.269 185.222C325.693 185.783 326.416 186.064 327.438 186.064C328.461 186.064 329.184 185.783 329.608 185.222C330.032 184.661 330.244 183.826 330.244 182.716V174.674H332.32V182.379C332.32 183.339 332.233 184.169 332.058 184.867C331.884 185.565 331.603 186.145 331.216 186.606C330.83 187.055 330.325 187.392 329.702 187.616C329.091 187.841 328.336 187.953 327.438 187.953C326.541 187.953 325.78 187.841 325.157 187.616C324.546 187.392 324.047 187.055 323.66 186.606C323.274 186.145 322.993 185.565 322.819 184.867C322.644 184.169 322.557 183.339 322.557 182.379V174.674H324.633ZM339.363 187.953C338.265 187.953 337.33 187.753 336.557 187.354C335.797 186.955 335.142 186.419 334.593 185.746L336.052 184.381C336.514 184.942 337.019 185.366 337.567 185.652C338.128 185.939 338.764 186.083 339.475 186.083C340.31 186.083 340.94 185.896 341.364 185.522C341.788 185.147 342 184.642 342 184.007C342 183.495 341.85 183.09 341.551 182.791C341.252 182.492 340.722 182.267 339.961 182.118L338.802 181.912C337.53 181.675 336.576 181.257 335.94 180.659C335.304 180.06 334.986 179.237 334.986 178.19C334.986 177.616 335.092 177.099 335.304 176.637C335.528 176.164 335.834 175.771 336.221 175.459C336.62 175.135 337.1 174.886 337.661 174.711C338.222 174.536 338.851 174.449 339.55 174.449C340.535 174.449 341.389 174.624 342.112 174.973C342.835 175.31 343.452 175.802 343.964 176.45L342.486 177.76C342.149 177.323 341.738 176.974 341.252 176.712C340.765 176.45 340.161 176.319 339.437 176.319C338.689 176.319 338.11 176.469 337.698 176.768C337.287 177.068 337.081 177.504 337.081 178.078C337.081 178.626 337.249 179.038 337.586 179.312C337.923 179.574 338.446 179.773 339.157 179.911L340.317 180.154C341.626 180.403 342.58 180.827 343.178 181.425C343.789 182.024 344.095 182.847 344.095 183.894C344.095 184.505 343.989 185.06 343.777 185.559C343.565 186.058 343.253 186.488 342.841 186.849C342.442 187.199 341.95 187.473 341.364 187.672C340.778 187.859 340.111 187.953 339.363 187.953ZM346.632 174.674H351.252C352.087 174.674 352.841 174.811 353.515 175.085C354.2 175.359 354.78 175.771 355.254 176.319C355.74 176.856 356.114 177.535 356.376 178.358C356.638 179.169 356.769 180.116 356.769 181.201C356.769 182.286 356.638 183.24 356.376 184.063C356.114 184.873 355.74 185.553 355.254 186.101C354.78 186.637 354.2 187.043 353.515 187.317C352.841 187.591 352.087 187.729 351.252 187.729H346.632V174.674ZM351.252 185.858C352.224 185.858 353.01 185.553 353.608 184.942C354.207 184.331 354.506 183.433 354.506 182.248V180.154C354.506 178.969 354.207 178.071 353.608 177.46C353.01 176.849 352.224 176.544 351.252 176.544H348.745V185.858H351.252ZM364.299 187.953C362.591 187.953 361.251 187.379 360.278 186.232C359.306 185.073 358.819 183.396 358.819 181.201C358.819 180.104 358.944 179.137 359.193 178.302C359.443 177.467 359.804 176.762 360.278 176.189C360.752 175.615 361.325 175.185 361.999 174.898C362.685 174.599 363.451 174.449 364.299 174.449C365.434 174.449 366.382 174.699 367.142 175.197C367.915 175.696 368.52 176.432 368.956 177.404L367.18 178.377C366.955 177.753 366.606 177.261 366.132 176.899C365.671 176.525 365.06 176.338 364.299 176.338C363.289 176.338 362.498 176.681 361.924 177.367C361.35 178.053 361.064 179 361.064 180.21V182.192C361.064 183.402 361.35 184.349 361.924 185.035C362.498 185.721 363.289 186.064 364.299 186.064C365.085 186.064 365.721 185.864 366.207 185.465C366.706 185.054 367.074 184.53 367.311 183.894L369.013 184.923C368.576 185.871 367.965 186.613 367.18 187.149C366.394 187.685 365.434 187.953 364.299 187.953ZM378.61 187.953C377.687 187.953 376.914 187.791 376.29 187.467C375.667 187.142 375.125 186.694 374.663 186.12L375.972 184.923C376.334 185.359 376.733 185.702 377.169 185.952C377.618 186.189 378.136 186.307 378.722 186.307C379.32 186.307 379.763 186.195 380.05 185.97C380.349 185.733 380.499 185.409 380.499 184.998C380.499 184.686 380.393 184.424 380.181 184.212C379.981 183.988 379.626 183.844 379.115 183.782L378.217 183.67C377.219 183.545 376.434 183.258 375.86 182.81C375.299 182.348 375.019 181.669 375.019 180.771C375.019 180.297 375.106 179.879 375.28 179.518C375.455 179.144 375.698 178.832 376.01 178.583C376.334 178.321 376.714 178.121 377.151 177.984C377.6 177.847 378.092 177.778 378.628 177.778C379.501 177.778 380.212 177.915 380.76 178.19C381.322 178.464 381.82 178.844 382.257 179.331L381.004 180.528C380.754 180.228 380.424 179.973 380.012 179.761C379.613 179.536 379.152 179.424 378.628 179.424C378.067 179.424 377.649 179.536 377.375 179.761C377.113 179.985 376.982 180.278 376.982 180.64C376.982 181.014 377.101 181.295 377.338 181.482C377.575 181.669 377.955 181.806 378.479 181.893L379.376 182.005C380.449 182.167 381.228 182.485 381.714 182.959C382.213 183.421 382.462 184.044 382.462 184.829C382.462 185.303 382.369 185.733 382.182 186.12C382.007 186.494 381.752 186.818 381.415 187.093C381.078 187.367 380.673 187.579 380.199 187.729C379.726 187.878 379.196 187.953 378.61 187.953ZM384.766 178.003H386.804V179.611H386.898C387.11 179.025 387.453 178.576 387.926 178.265C388.413 177.94 388.98 177.778 389.628 177.778C390.863 177.778 391.817 178.227 392.49 179.125C393.163 180.01 393.5 181.257 393.5 182.866C393.5 184.474 393.163 185.727 392.49 186.625C391.817 187.51 390.863 187.953 389.628 187.953C388.98 187.953 388.413 187.791 387.926 187.467C387.453 187.142 387.11 186.694 386.898 186.12H386.804V191.469H384.766V178.003ZM389.011 186.195C389.722 186.195 390.289 185.97 390.713 185.522C391.137 185.06 391.349 184.455 391.349 183.707V182.024C391.349 181.276 391.137 180.677 390.713 180.228C390.289 179.767 389.722 179.536 389.011 179.536C388.388 179.536 387.864 179.692 387.44 180.004C387.016 180.303 386.804 180.702 386.804 181.201V184.53C386.804 185.029 387.016 185.434 387.44 185.746C387.864 186.045 388.388 186.195 389.011 186.195ZM399.65 187.953C398.951 187.953 398.328 187.835 397.779 187.598C397.231 187.361 396.763 187.024 396.377 186.588C395.99 186.139 395.691 185.603 395.479 184.979C395.279 184.343 395.18 183.639 395.18 182.866C395.18 182.093 395.279 181.394 395.479 180.771C395.691 180.135 395.99 179.599 396.377 179.162C396.763 178.714 397.231 178.371 397.779 178.134C398.328 177.897 398.951 177.778 399.65 177.778C400.36 177.778 400.984 177.903 401.52 178.152C402.069 178.402 402.524 178.751 402.885 179.2C403.247 179.636 403.515 180.147 403.69 180.733C403.877 181.32 403.97 181.949 403.97 182.623V183.389H397.293V183.707C397.293 184.455 397.511 185.073 397.948 185.559C398.397 186.033 399.032 186.27 399.855 186.27C400.454 186.27 400.959 186.139 401.37 185.877C401.782 185.615 402.131 185.26 402.418 184.811L403.615 185.989C403.253 186.588 402.729 187.068 402.044 187.429C401.358 187.778 400.56 187.953 399.65 187.953ZM399.65 179.368C399.301 179.368 398.976 179.43 398.677 179.555C398.39 179.68 398.141 179.854 397.929 180.079C397.729 180.303 397.574 180.571 397.461 180.883C397.349 181.195 397.293 181.538 397.293 181.912V182.043H401.819V181.856C401.819 181.108 401.626 180.509 401.239 180.06C400.853 179.599 400.323 179.368 399.65 179.368ZM406.227 187.729V178.003H408.266V179.611H408.359C408.571 179.088 408.889 178.651 409.313 178.302C409.749 177.953 410.342 177.778 411.09 177.778C412.087 177.778 412.86 178.109 413.409 178.77C413.97 179.418 414.251 180.347 414.251 181.556V187.729H412.212V181.818C412.212 180.297 411.601 179.536 410.379 179.536C410.117 179.536 409.855 179.574 409.594 179.649C409.344 179.711 409.12 179.811 408.92 179.948C408.721 180.085 408.559 180.26 408.434 180.472C408.322 180.684 408.266 180.933 408.266 181.22V187.729H406.227ZM423.192 186.12H423.099C422.887 186.694 422.538 187.142 422.051 187.467C421.578 187.791 421.016 187.953 420.368 187.953C419.134 187.953 418.18 187.51 417.506 186.625C416.833 185.727 416.497 184.474 416.497 182.866C416.497 181.257 416.833 180.01 417.506 179.125C418.18 178.227 419.134 177.778 420.368 177.778C421.016 177.778 421.578 177.94 422.051 178.265C422.538 178.576 422.887 179.025 423.099 179.611H423.192V173.888H425.231V187.729H423.192V186.12ZM420.985 186.195C421.609 186.195 422.132 186.045 422.556 185.746C422.98 185.434 423.192 185.029 423.192 184.53V181.201C423.192 180.702 422.98 180.303 422.556 180.004C422.132 179.692 421.609 179.536 420.985 179.536C420.275 179.536 419.707 179.767 419.283 180.228C418.859 180.677 418.647 181.276 418.647 182.024V183.707C418.647 184.455 418.859 185.06 419.283 185.522C419.707 185.97 420.275 186.195 420.985 186.195ZM429.174 176.263C428.75 176.263 428.438 176.164 428.238 175.964C428.051 175.765 427.958 175.509 427.958 175.197V174.879C427.958 174.568 428.051 174.312 428.238 174.112C428.438 173.913 428.75 173.813 429.174 173.813C429.598 173.813 429.903 173.913 430.09 174.112C430.277 174.312 430.371 174.568 430.371 174.879V175.197C430.371 175.509 430.277 175.765 430.09 175.964C429.903 176.164 429.598 176.263 429.174 176.263ZM428.145 178.003H430.184V187.729H428.145V178.003ZM433.095 187.729V178.003H435.133V179.611H435.227C435.439 179.088 435.757 178.651 436.181 178.302C436.617 177.953 437.209 177.778 437.958 177.778C438.955 177.778 439.728 178.109 440.277 178.77C440.838 179.418 441.118 180.347 441.118 181.556V187.729H439.08V181.818C439.08 180.297 438.469 179.536 437.247 179.536C436.985 179.536 436.723 179.574 436.461 179.649C436.212 179.711 435.987 179.811 435.788 179.948C435.588 180.085 435.426 180.26 435.302 180.472C435.189 180.684 435.133 180.933 435.133 181.22V187.729H433.095ZM452.473 188.645C452.473 189.655 452.086 190.416 451.313 190.927C450.54 191.438 449.281 191.694 447.535 191.694C446.737 191.694 446.058 191.638 445.496 191.525C444.948 191.426 444.493 191.276 444.131 191.076C443.782 190.877 443.526 190.634 443.364 190.347C443.202 190.06 443.121 189.73 443.121 189.356C443.121 188.82 443.265 188.402 443.551 188.103C443.851 187.803 444.262 187.598 444.786 187.485V187.28C444.05 187.043 443.682 186.544 443.682 185.783C443.682 185.285 443.851 184.904 444.187 184.642C444.524 184.368 444.929 184.175 445.403 184.063V183.988C444.829 183.714 444.387 183.333 444.075 182.847C443.776 182.348 443.626 181.768 443.626 181.108C443.626 180.11 443.957 179.306 444.617 178.695C445.291 178.084 446.251 177.778 447.498 177.778C448.184 177.778 448.77 177.878 449.256 178.078V177.816C449.256 177.379 449.356 177.043 449.555 176.806C449.767 176.556 450.091 176.432 450.528 176.432H452.024V178.078H450.041V178.47C450.478 178.757 450.814 179.131 451.051 179.593C451.288 180.041 451.407 180.546 451.407 181.108C451.407 182.093 451.07 182.891 450.397 183.502C449.723 184.1 448.763 184.399 447.516 184.399C447.043 184.399 446.619 184.349 446.245 184.25C445.995 184.337 445.777 184.462 445.59 184.624C445.403 184.773 445.309 184.973 445.309 185.222C445.309 185.484 445.428 185.671 445.665 185.783C445.902 185.896 446.238 185.952 446.675 185.952H449.069C450.266 185.952 451.132 186.195 451.669 186.681C452.205 187.155 452.473 187.81 452.473 188.645ZM450.565 188.869C450.565 188.533 450.434 188.265 450.172 188.065C449.923 187.866 449.462 187.766 448.788 187.766H445.496C445.048 188.028 444.823 188.402 444.823 188.888C444.823 189.287 444.979 189.605 445.291 189.842C445.615 190.091 446.157 190.216 446.918 190.216H448.19C449.773 190.216 450.565 189.767 450.565 188.869ZM447.516 182.922C448.115 182.922 448.576 182.791 448.9 182.529C449.237 182.255 449.405 181.837 449.405 181.276V180.902C449.405 180.341 449.237 179.929 448.9 179.667C448.576 179.393 448.115 179.256 447.516 179.256C446.918 179.256 446.45 179.393 446.114 179.667C445.79 179.929 445.627 180.341 445.627 180.902V181.276C445.627 181.837 445.79 182.255 446.114 182.529C446.45 182.791 446.918 182.922 447.516 182.922ZM462.169 187.953C461.471 187.953 460.848 187.835 460.299 187.598C459.75 187.361 459.289 187.024 458.915 186.588C458.541 186.139 458.254 185.603 458.055 184.979C457.855 184.343 457.755 183.639 457.755 182.866C457.755 182.093 457.855 181.394 458.055 180.771C458.254 180.135 458.541 179.599 458.915 179.162C459.289 178.714 459.75 178.371 460.299 178.134C460.848 177.897 461.471 177.778 462.169 177.778C463.142 177.778 463.94 177.997 464.563 178.433C465.187 178.869 465.642 179.449 465.929 180.172L464.245 180.958C464.108 180.509 463.865 180.154 463.516 179.892C463.179 179.618 462.73 179.48 462.169 179.48C461.421 179.48 460.854 179.717 460.467 180.191C460.093 180.652 459.906 181.257 459.906 182.005V183.745C459.906 184.493 460.093 185.104 460.467 185.578C460.854 186.039 461.421 186.27 462.169 186.27C462.768 186.27 463.242 186.126 463.591 185.839C463.952 185.54 464.239 185.147 464.451 184.661L466.004 185.484C465.679 186.282 465.193 186.893 464.545 187.317C463.896 187.741 463.105 187.953 462.169 187.953ZM475.07 187.729C474.534 187.729 474.123 187.579 473.836 187.28C473.549 186.968 473.374 186.575 473.312 186.101H473.219C473.032 186.712 472.689 187.174 472.19 187.485C471.691 187.797 471.086 187.953 470.376 187.953C469.366 187.953 468.586 187.691 468.038 187.167C467.502 186.644 467.234 185.939 467.234 185.054C467.234 184.081 467.583 183.352 468.281 182.866C468.992 182.379 470.027 182.136 471.386 182.136H473.144V181.313C473.144 180.715 472.982 180.253 472.658 179.929C472.333 179.605 471.828 179.443 471.143 179.443C470.569 179.443 470.101 179.568 469.74 179.817C469.378 180.066 469.073 180.384 468.823 180.771L467.608 179.667C467.932 179.119 468.387 178.67 468.973 178.321C469.559 177.959 470.326 177.778 471.273 177.778C472.533 177.778 473.499 178.071 474.172 178.657C474.846 179.243 475.182 180.085 475.182 181.182V186.064H476.211V187.729H475.07ZM470.956 186.401C471.591 186.401 472.115 186.263 472.527 185.989C472.938 185.702 473.144 185.322 473.144 184.848V183.445H471.423C470.014 183.445 469.31 183.882 469.31 184.755V185.091C469.31 185.528 469.453 185.858 469.74 186.083C470.039 186.295 470.444 186.401 470.956 186.401ZM478.209 178.003H480.248V179.611H480.341C480.553 179.025 480.896 178.576 481.37 178.265C481.856 177.94 482.424 177.778 483.072 177.778C484.306 177.778 485.26 178.227 485.934 179.125C486.607 180.01 486.944 181.257 486.944 182.866C486.944 184.474 486.607 185.727 485.934 186.625C485.26 187.51 484.306 187.953 483.072 187.953C482.424 187.953 481.856 187.791 481.37 187.467C480.896 187.142 480.553 186.694 480.341 186.12H480.248V191.469H478.209V178.003ZM482.455 186.195C483.166 186.195 483.733 185.97 484.157 185.522C484.581 185.06 484.793 184.455 484.793 183.707V182.024C484.793 181.276 484.581 180.677 484.157 180.228C483.733 179.767 483.166 179.536 482.455 179.536C481.831 179.536 481.308 179.692 480.884 180.004C480.46 180.303 480.248 180.702 480.248 181.201V184.53C480.248 185.029 480.46 185.434 480.884 185.746C481.308 186.045 481.831 186.195 482.455 186.195Z" fill="#1D1D20"/>
<path d="M248.979 210.512C247.882 210.512 247.028 210.141 246.418 209.398C245.808 208.648 245.503 207.547 245.503 206.095C245.503 204.644 245.808 203.53 246.418 202.755C247.028 201.972 247.882 201.58 248.979 201.58C249.705 201.58 250.311 201.745 250.798 202.075C251.292 202.405 251.676 202.87 251.948 203.473L251.107 203.98C250.934 203.534 250.67 203.18 250.315 202.916C249.96 202.644 249.515 202.508 248.979 202.508C248.608 202.508 248.274 202.578 247.977 202.718C247.688 202.858 247.441 203.06 247.235 203.324C247.037 203.58 246.884 203.889 246.777 204.252C246.67 204.607 246.616 205.007 246.616 205.452V206.739C246.616 207.629 246.822 208.326 247.235 208.829C247.647 209.332 248.228 209.584 248.979 209.584C249.532 209.584 249.993 209.444 250.365 209.163C250.736 208.875 251.008 208.495 251.181 208.025L252.01 208.545C251.738 209.155 251.346 209.638 250.835 209.992C250.323 210.339 249.705 210.512 248.979 210.512ZM255.933 210.512C255.504 210.512 255.112 210.433 254.757 210.277C254.403 210.12 254.098 209.897 253.842 209.609C253.595 209.312 253.401 208.961 253.261 208.557C253.12 208.145 253.05 207.683 253.05 207.172C253.05 206.668 253.12 206.211 253.261 205.798C253.401 205.386 253.595 205.035 253.842 204.747C254.098 204.45 254.403 204.223 254.757 204.066C255.112 203.91 255.504 203.831 255.933 203.831C256.362 203.831 256.749 203.91 257.096 204.066C257.45 204.223 257.755 204.45 258.011 204.747C258.267 205.035 258.465 205.386 258.605 205.798C258.745 206.211 258.815 206.668 258.815 207.172C258.815 207.683 258.745 208.145 258.605 208.557C258.465 208.961 258.267 209.312 258.011 209.609C257.755 209.897 257.45 210.12 257.096 210.277C256.749 210.433 256.362 210.512 255.933 210.512ZM255.933 209.633C256.469 209.633 256.906 209.468 257.244 209.139C257.582 208.809 257.751 208.306 257.751 207.629V206.714C257.751 206.038 257.582 205.534 257.244 205.205C256.906 204.875 256.469 204.71 255.933 204.71C255.397 204.71 254.96 204.875 254.621 205.205C254.283 205.534 254.114 206.038 254.114 206.714V207.629C254.114 208.306 254.283 208.809 254.621 209.139C254.96 209.468 255.397 209.633 255.933 209.633ZM260.443 210.363V203.98H261.433V205.019H261.482C261.639 204.656 261.857 204.367 262.138 204.153C262.426 203.939 262.81 203.831 263.288 203.831C263.948 203.831 264.468 204.046 264.847 204.475C265.235 204.895 265.428 205.493 265.428 206.268V210.363H264.439V206.442C264.439 205.295 263.956 204.722 262.991 204.722C262.793 204.722 262.6 204.747 262.41 204.796C262.228 204.846 262.063 204.92 261.915 205.019C261.767 205.118 261.647 205.246 261.556 205.402C261.474 205.551 261.433 205.728 261.433 205.934V210.363H260.443ZM267.821 204.846H266.781V203.98H267.821V202.693C267.821 202.248 267.936 201.889 268.167 201.617C268.398 201.345 268.748 201.209 269.218 201.209H270.183V202.075H268.81V203.98H272.385V210.363H271.396V204.846H268.81V210.363H267.821V204.846ZM271.891 202.483C271.676 202.483 271.519 202.433 271.421 202.334C271.33 202.227 271.284 202.091 271.284 201.926V201.765C271.284 201.6 271.33 201.468 271.421 201.369C271.519 201.262 271.676 201.209 271.891 201.209C272.105 201.209 272.258 201.262 272.348 201.369C272.447 201.468 272.497 201.6 272.497 201.765V201.926C272.497 202.091 272.447 202.227 272.348 202.334C272.258 202.433 272.105 202.483 271.891 202.483ZM274.493 210.363V203.98H275.483V205.155H275.545C275.66 204.85 275.866 204.578 276.163 204.339C276.46 204.099 276.869 203.98 277.388 203.98H277.772V204.969H277.19C276.654 204.969 276.234 205.073 275.928 205.279C275.631 205.477 275.483 205.728 275.483 206.033V210.363H274.493ZM279.036 210.363V203.98H280.026V205.019H280.075C280.149 204.854 280.232 204.701 280.322 204.561C280.421 204.413 280.537 204.285 280.669 204.178C280.809 204.07 280.97 203.988 281.151 203.93C281.333 203.864 281.547 203.831 281.795 203.831C282.215 203.831 282.603 203.934 282.957 204.141C283.312 204.339 283.576 204.668 283.749 205.13H283.774C283.889 204.784 284.104 204.483 284.417 204.227C284.739 203.963 285.172 203.831 285.716 203.831C286.368 203.831 286.875 204.046 287.238 204.475C287.609 204.895 287.795 205.493 287.795 206.268V210.363H286.805V206.442C286.805 205.873 286.694 205.444 286.471 205.155C286.248 204.866 285.894 204.722 285.407 204.722C285.209 204.722 285.019 204.747 284.838 204.796C284.665 204.846 284.508 204.92 284.368 205.019C284.228 205.118 284.116 205.246 284.034 205.402C283.951 205.551 283.91 205.728 283.91 205.934V210.363H282.92V206.442C282.92 205.873 282.809 205.444 282.586 205.155C282.364 204.866 282.017 204.722 281.547 204.722C281.349 204.722 281.16 204.747 280.978 204.796C280.797 204.846 280.636 204.92 280.496 205.019C280.355 205.118 280.24 205.246 280.149 205.402C280.067 205.551 280.026 205.728 280.026 205.934V210.363H279.036ZM292.236 210.512C291.799 210.512 291.403 210.433 291.049 210.277C290.702 210.12 290.401 209.897 290.146 209.609C289.898 209.312 289.704 208.961 289.564 208.557C289.432 208.145 289.366 207.683 289.366 207.172C289.366 206.668 289.432 206.211 289.564 205.798C289.704 205.386 289.898 205.035 290.146 204.747C290.401 204.45 290.702 204.223 291.049 204.066C291.403 203.91 291.799 203.831 292.236 203.831C292.665 203.831 293.049 203.91 293.387 204.066C293.725 204.223 294.014 204.442 294.253 204.722C294.492 204.994 294.674 205.32 294.797 205.699C294.929 206.079 294.995 206.495 294.995 206.949V207.419H290.405V207.716C290.405 207.988 290.447 208.244 290.529 208.483C290.62 208.714 290.744 208.916 290.9 209.089C291.065 209.262 291.263 209.398 291.494 209.497C291.733 209.596 292.001 209.646 292.298 209.646C292.702 209.646 293.053 209.551 293.35 209.361C293.655 209.172 293.89 208.899 294.055 208.545L294.76 209.052C294.554 209.489 294.232 209.844 293.795 210.116C293.358 210.38 292.838 210.512 292.236 210.512ZM292.236 204.66C291.964 204.66 291.717 204.71 291.494 204.809C291.271 204.899 291.078 205.031 290.913 205.205C290.756 205.378 290.632 205.584 290.542 205.823C290.451 206.054 290.405 206.31 290.405 206.59V206.677H293.931V206.541C293.931 205.972 293.775 205.518 293.461 205.18C293.156 204.833 292.748 204.66 292.236 204.66ZM300.709 209.324H300.659C300.271 210.116 299.649 210.512 298.791 210.512C298.395 210.512 298.036 210.433 297.715 210.277C297.393 210.12 297.117 209.897 296.886 209.609C296.663 209.32 296.49 208.969 296.366 208.557C296.251 208.145 296.193 207.683 296.193 207.172C296.193 206.66 296.251 206.198 296.366 205.786C296.49 205.374 296.663 205.023 296.886 204.734C297.117 204.446 297.393 204.223 297.715 204.066C298.036 203.91 298.395 203.831 298.791 203.831C299.236 203.831 299.616 203.93 299.929 204.128C300.251 204.318 300.494 204.615 300.659 205.019H300.709V201.209H301.698V210.363H300.709V209.324ZM299.063 209.621C299.286 209.621 299.496 209.592 299.694 209.534C299.9 209.477 300.078 209.394 300.226 209.287C300.374 209.172 300.49 209.035 300.572 208.879C300.663 208.714 300.709 208.528 300.709 208.322V205.947C300.709 205.774 300.663 205.613 300.572 205.464C300.49 205.308 300.374 205.176 300.226 205.068C300.078 204.961 299.9 204.879 299.694 204.821C299.496 204.755 299.286 204.722 299.063 204.722C298.502 204.722 298.061 204.899 297.739 205.254C297.418 205.6 297.257 206.058 297.257 206.627V207.716C297.257 208.285 297.418 208.747 297.739 209.101C298.061 209.448 298.502 209.621 299.063 209.621Z" fill="#0B6E40"/>
<rect x="173.867" y="240.977" width="359.849" height="76.1894" rx="17.5822" fill="white"/>
<rect x="194.316" y="259.654" width="38.8159" height="38.8159" rx="19.4079" fill="#4B468D"/>
<path d="M213.723 271.746V281.058" stroke="white" stroke-width="1.33023" stroke-linecap="round" stroke-linejoin="round"/>
<path d="M248.507 274.566H246.394V261.511H252.023C253.195 261.511 254.118 261.867 254.791 262.578C255.465 263.276 255.801 264.23 255.801 265.439C255.801 266.374 255.583 267.154 255.147 267.777C254.723 268.388 254.093 268.818 253.258 269.068L256.082 274.566H253.725L251.107 269.292H248.507V274.566ZM251.874 267.515C252.41 267.515 252.828 267.378 253.127 267.104C253.426 266.817 253.576 266.412 253.576 265.888V264.99C253.576 264.467 253.426 264.068 253.127 263.793C252.828 263.507 252.41 263.363 251.874 263.363H248.507V267.515H251.874ZM262.041 274.791C261.343 274.791 260.72 274.672 260.171 274.435C259.622 274.199 259.155 273.862 258.768 273.426C258.382 272.977 258.082 272.44 257.87 271.817C257.671 271.181 257.571 270.477 257.571 269.704C257.571 268.93 257.671 268.232 257.87 267.609C258.082 266.973 258.382 266.437 258.768 266C259.155 265.551 259.622 265.209 260.171 264.972C260.72 264.735 261.343 264.616 262.041 264.616C262.752 264.616 263.375 264.741 263.912 264.99C264.46 265.24 264.915 265.589 265.277 266.038C265.639 266.474 265.907 266.985 266.081 267.571C266.268 268.157 266.362 268.787 266.362 269.46V270.227H259.685V270.545C259.685 271.293 259.903 271.911 260.339 272.397C260.788 272.871 261.424 273.108 262.247 273.108C262.846 273.108 263.351 272.977 263.762 272.715C264.174 272.453 264.523 272.098 264.809 271.649L266.006 272.827C265.645 273.426 265.121 273.906 264.435 274.267C263.75 274.616 262.952 274.791 262.041 274.791ZM262.041 266.206C261.692 266.206 261.368 266.268 261.069 266.393C260.782 266.518 260.533 266.692 260.321 266.917C260.121 267.141 259.965 267.409 259.853 267.721C259.741 268.033 259.685 268.376 259.685 268.75V268.881H264.211V268.694C264.211 267.945 264.018 267.347 263.631 266.898C263.245 266.437 262.715 266.206 262.041 266.206ZM272.378 274.791C271.68 274.791 271.056 274.672 270.508 274.435C269.959 274.199 269.498 273.862 269.124 273.426C268.75 272.977 268.463 272.44 268.263 271.817C268.064 271.181 267.964 270.477 267.964 269.704C267.964 268.93 268.064 268.232 268.263 267.609C268.463 266.973 268.75 266.437 269.124 266C269.498 265.551 269.959 265.209 270.508 264.972C271.056 264.735 271.68 264.616 272.378 264.616C273.351 264.616 274.149 264.834 274.772 265.271C275.395 265.707 275.851 266.287 276.137 267.01L274.454 267.796C274.317 267.347 274.074 266.992 273.725 266.73C273.388 266.455 272.939 266.318 272.378 266.318C271.63 266.318 271.063 266.555 270.676 267.029C270.302 267.49 270.115 268.095 270.115 268.843V270.583C270.115 271.331 270.302 271.942 270.676 272.416C271.063 272.877 271.63 273.108 272.378 273.108C272.976 273.108 273.45 272.964 273.799 272.677C274.161 272.378 274.448 271.985 274.66 271.499L276.212 272.322C275.888 273.12 275.402 273.731 274.753 274.155C274.105 274.579 273.313 274.791 272.378 274.791ZM281.859 274.791C281.161 274.791 280.537 274.672 279.988 274.435C279.44 274.199 278.972 273.862 278.586 273.426C278.199 272.977 277.9 272.44 277.688 271.817C277.488 271.181 277.389 270.477 277.389 269.704C277.389 268.93 277.488 268.232 277.688 267.609C277.9 266.973 278.199 266.437 278.586 266C278.972 265.551 279.44 265.209 279.988 264.972C280.537 264.735 281.161 264.616 281.859 264.616C282.57 264.616 283.193 264.741 283.729 264.99C284.278 265.24 284.733 265.589 285.094 266.038C285.456 266.474 285.724 266.985 285.899 267.571C286.086 268.157 286.179 268.787 286.179 269.46V270.227H279.502V270.545C279.502 271.293 279.72 271.911 280.157 272.397C280.606 272.871 281.242 273.108 282.065 273.108C282.663 273.108 283.168 272.977 283.58 272.715C283.991 272.453 284.34 272.098 284.627 271.649L285.824 272.827C285.462 273.426 284.939 273.906 284.253 274.267C283.567 274.616 282.769 274.791 281.859 274.791ZM281.859 266.206C281.51 266.206 281.185 266.268 280.886 266.393C280.599 266.518 280.35 266.692 280.138 266.917C279.939 267.141 279.783 267.409 279.671 267.721C279.558 268.033 279.502 268.376 279.502 268.75V268.881H284.028V268.694C284.028 267.945 283.835 267.347 283.449 266.898C283.062 266.437 282.532 266.206 281.859 266.206ZM289.465 263.101C289.041 263.101 288.729 263.002 288.53 262.802C288.343 262.603 288.249 262.347 288.249 262.035V261.717C288.249 261.405 288.343 261.15 288.53 260.95C288.729 260.751 289.041 260.651 289.465 260.651C289.889 260.651 290.194 260.751 290.381 260.95C290.568 261.15 290.662 261.405 290.662 261.717V262.035C290.662 262.347 290.568 262.603 290.381 262.802C290.194 263.002 289.889 263.101 289.465 263.101ZM288.436 264.841H290.475V274.566H288.436V264.841ZM295.499 274.566L292.189 264.841H294.209L295.686 269.273L296.678 272.677H296.79L297.781 269.273L299.296 264.841H301.241L297.893 274.566H295.499ZM306.626 274.791C305.928 274.791 305.304 274.672 304.756 274.435C304.207 274.199 303.74 273.862 303.353 273.426C302.967 272.977 302.667 272.44 302.455 271.817C302.256 271.181 302.156 270.477 302.156 269.704C302.156 268.93 302.256 268.232 302.455 267.609C302.667 266.973 302.967 266.437 303.353 266C303.74 265.551 304.207 265.209 304.756 264.972C305.304 264.735 305.928 264.616 306.626 264.616C307.337 264.616 307.96 264.741 308.496 264.99C309.045 265.24 309.5 265.589 309.862 266.038C310.223 266.474 310.491 266.985 310.666 267.571C310.853 268.157 310.947 268.787 310.947 269.46V270.227H304.27V270.545C304.27 271.293 304.488 271.911 304.924 272.397C305.373 272.871 306.009 273.108 306.832 273.108C307.43 273.108 307.935 272.977 308.347 272.715C308.758 272.453 309.107 272.098 309.394 271.649L310.591 272.827C310.23 273.426 309.706 273.906 309.02 274.267C308.334 274.616 307.536 274.791 306.626 274.791ZM306.626 266.206C306.277 266.206 305.953 266.268 305.654 266.393C305.367 266.518 305.117 266.692 304.905 266.917C304.706 267.141 304.55 267.409 304.438 267.721C304.326 268.033 304.27 268.376 304.27 268.75V268.881H308.796V268.694C308.796 267.945 308.602 267.347 308.216 266.898C307.829 266.437 307.299 266.206 306.626 266.206Z" fill="#1D1D20"/>
<path d="M427.715 270.022V267.996H432.771V270.022H427.715ZM439.384 274.785C438.593 274.785 437.906 274.639 437.322 274.347C436.738 274.043 436.257 273.611 435.88 273.052C435.503 272.492 435.223 271.804 435.041 270.989C434.858 270.174 434.767 269.243 434.767 268.197C434.767 267.163 434.858 266.238 435.041 265.423C435.223 264.595 435.503 263.902 435.88 263.342C436.257 262.782 436.738 262.357 437.322 262.065C437.906 261.76 438.593 261.608 439.384 261.608C440.966 261.608 442.128 262.186 442.87 263.342C443.625 264.498 444.002 266.116 444.002 268.197C444.002 270.277 443.625 271.896 442.87 273.052C442.128 274.207 440.966 274.785 439.384 274.785ZM439.384 273.033C439.822 273.033 440.193 272.948 440.498 272.778C440.814 272.595 441.069 272.34 441.264 272.011C441.459 271.683 441.599 271.293 441.684 270.843C441.769 270.381 441.812 269.87 441.812 269.31V267.084C441.812 266.524 441.769 266.019 441.684 265.569C441.599 265.106 441.459 264.711 441.264 264.382C441.069 264.054 440.814 263.804 440.498 263.634C440.193 263.452 439.822 263.36 439.384 263.36C438.946 263.36 438.569 263.452 438.253 263.634C437.949 263.804 437.699 264.054 437.504 264.382C437.31 264.711 437.17 265.106 437.085 265.569C436.999 266.019 436.957 266.524 436.957 267.084V269.31C436.957 269.87 436.999 270.381 437.085 270.843C437.17 271.293 437.31 271.683 437.504 272.011C437.699 272.34 437.949 272.595 438.253 272.778C438.569 272.948 438.946 273.033 439.384 273.033ZM447.499 274.785C447.049 274.785 446.714 274.67 446.495 274.439C446.276 274.195 446.166 273.897 446.166 273.544V273.271C446.166 272.918 446.276 272.626 446.495 272.395C446.714 272.151 447.049 272.03 447.499 272.03C447.949 272.03 448.284 272.151 448.503 272.395C448.722 272.626 448.831 272.918 448.831 273.271V273.544C448.831 273.897 448.722 274.195 448.503 274.439C448.284 274.67 447.949 274.785 447.499 274.785ZM455.621 274.785C454.83 274.785 454.143 274.639 453.559 274.347C452.975 274.043 452.494 273.611 452.117 273.052C451.74 272.492 451.46 271.804 451.277 270.989C451.095 270.174 451.004 269.243 451.004 268.197C451.004 267.163 451.095 266.238 451.277 265.423C451.46 264.595 451.74 263.902 452.117 263.342C452.494 262.782 452.975 262.357 453.559 262.065C454.143 261.76 454.83 261.608 455.621 261.608C457.203 261.608 458.365 262.186 459.107 263.342C459.861 264.498 460.239 266.116 460.239 268.197C460.239 270.277 459.861 271.896 459.107 273.052C458.365 274.207 457.203 274.785 455.621 274.785ZM455.621 273.033C456.059 273.033 456.43 272.948 456.734 272.778C457.051 272.595 457.306 272.34 457.501 272.011C457.696 271.683 457.836 271.293 457.921 270.843C458.006 270.381 458.048 269.87 458.048 269.31V267.084C458.048 266.524 458.006 266.019 457.921 265.569C457.836 265.106 457.696 264.711 457.501 264.382C457.306 264.054 457.051 263.804 456.734 263.634C456.43 263.452 456.059 263.36 455.621 263.36C455.183 263.36 454.806 263.452 454.49 263.634C454.185 263.804 453.936 264.054 453.741 264.382C453.547 264.711 453.407 265.106 453.322 265.569C453.236 266.019 453.194 266.524 453.194 267.084V269.31C453.194 269.87 453.236 270.381 453.322 270.843C453.407 271.293 453.547 271.683 453.741 272.011C453.936 272.34 454.185 272.595 454.49 272.778C454.806 272.948 455.183 273.033 455.621 273.033ZM470.361 263.616H464.703L464.374 268.124H464.502C464.648 267.868 464.8 267.643 464.958 267.449C465.117 267.242 465.299 267.065 465.506 266.919C465.713 266.773 465.95 266.664 466.218 266.591C466.485 266.506 466.802 266.463 467.167 266.463C467.714 266.463 468.219 266.554 468.682 266.737C469.156 266.919 469.564 267.181 469.904 267.522C470.257 267.862 470.531 268.282 470.726 268.781C470.92 269.268 471.018 269.821 471.018 270.442C471.018 271.074 470.914 271.658 470.707 272.194C470.513 272.729 470.221 273.192 469.831 273.581C469.442 273.958 468.961 274.256 468.39 274.475C467.83 274.682 467.191 274.785 466.473 274.785C465.901 274.785 465.396 274.718 464.958 274.585C464.52 274.463 464.131 274.299 463.79 274.092C463.462 273.873 463.17 273.63 462.914 273.362C462.671 273.082 462.452 272.796 462.257 272.504L463.754 271.318C463.912 271.573 464.076 271.804 464.247 272.011C464.417 272.218 464.612 272.401 464.831 272.559C465.05 272.717 465.293 272.839 465.561 272.924C465.841 273.009 466.157 273.052 466.51 273.052C467.264 273.052 467.842 272.845 468.244 272.431C468.657 272.017 468.864 271.446 468.864 270.715V270.496C468.864 269.766 468.657 269.195 468.244 268.781C467.842 268.367 467.264 268.16 466.51 268.16C465.962 268.16 465.524 268.264 465.196 268.471C464.867 268.677 464.587 268.909 464.356 269.164L462.659 268.927L463.133 261.827H470.361V263.616ZM477.915 274.566V261.827H486.074V263.652H479.978V267.193H485.508V269.018H479.978V272.741H486.074V274.566H477.915ZM493.461 263.652V274.566H491.399V263.652H487.602V261.827H497.257V263.652H493.461ZM507.097 269.018H501.33V274.566H499.267V261.827H501.33V267.193H507.097V261.827H509.159V274.566H507.097V269.018Z" fill="#1D1D20"/>
</g>
<rect x="1" y="0.5" width="718" height="274" rx="17.5" stroke="#9CA1A5"/>
<defs>
<clipPath id="clip0_3939_114042">
<rect x="0.5" width="719" height="275" rx="18" fill="white"/>
</clipPath>
</defs>
</svg>
