<svg width="720" height="275" viewBox="0 0 720 275" fill="none" xmlns="http://www.w3.org/2000/svg">
<g clip-path="url(#clip0_3939_112869)">
<rect x="0.5" width="719" height="275" rx="18" fill="white"/>
<path d="M184.137 69.1119C184.137 44.9006 203.764 25.2734 227.975 25.2734H492.026C516.237 25.2734 535.864 44.9006 535.864 69.1119V474.873H184.137V69.1119Z" fill="#F3F5F7"/>
<path fill-rule="evenodd" clip-rule="evenodd" d="M492.026 30.3709H227.975C206.579 30.3709 189.234 47.7159 189.234 69.1119V469.775H530.767V69.1119C530.767 47.7159 513.422 30.3709 492.026 30.3709ZM227.975 25.2734C203.764 25.2734 184.137 44.9006 184.137 69.1119V474.873H535.864V69.1119C535.864 44.9006 516.237 25.2734 492.026 25.2734H227.975Z" fill="url(#paint0_linear_3939_112869)"/>
<rect x="313.102" y="41.5859" width="92.7745" height="25.4875" rx="12.7437" fill="#FBFBFB"/>
<rect x="202.992" y="81.3477" width="312.986" height="66.2675" rx="15.2925" fill="white"/>
<rect x="220.777" y="97.5977" width="33.761" height="33.761" rx="16.8805" fill="#D6E3FF"/>
<path d="M237.634 125.443V119.941L230.828 115.961L237.634 125.443Z" fill="#F0CDC2" stroke="#1616B4" stroke-width="0.121833" stroke-linejoin="round"/>
<path d="M237.656 125.443V119.941L244.462 115.961L237.656 125.443Z" fill="#C9B3F5" stroke="#1616B4" stroke-width="0.121833" stroke-linejoin="round"/>
<path d="M237.638 118.573V111.551L230.754 114.633L237.638 118.573Z" fill="#88AAF1" stroke="#1616B4" stroke-width="0.121833" stroke-linejoin="round"/>
<path d="M237.656 118.573V111.551L244.541 114.633L237.656 118.573Z" fill="#C9B3F5" stroke="#1616B4" stroke-width="0.121833" stroke-linejoin="round"/>
<path d="M230.754 114.633L237.638 103.512V111.55L230.754 114.633Z" fill="#F0CDC2" stroke="#1616B4" stroke-width="0.121833" stroke-linejoin="round"/>
<path d="M244.54 114.633L237.656 103.512V111.55L244.54 114.633Z" fill="#B8FAF6" stroke="#1616B4" stroke-width="0.121833" stroke-linejoin="round"/>
<path d="M452.178 128.257V127.373C451.632 127.337 451.168 127.204 450.787 126.974C450.413 126.737 450.093 126.442 449.827 126.09L450.464 125.519C450.694 125.828 450.945 126.076 451.218 126.262C451.499 126.442 451.822 126.557 452.189 126.608V123.837C451.448 123.671 450.906 123.43 450.561 123.114C450.223 122.791 450.054 122.349 450.054 121.788C450.054 121.5 450.104 121.245 450.205 121.022C450.313 120.792 450.46 120.595 450.647 120.429C450.834 120.264 451.057 120.135 451.315 120.041C451.574 119.941 451.862 119.876 452.178 119.847V118.963H452.846V119.836C453.335 119.88 453.756 120.005 454.108 120.214C454.467 120.415 454.776 120.695 455.035 121.055L454.377 121.551C454.198 121.299 453.982 121.094 453.731 120.936C453.479 120.771 453.181 120.663 452.836 120.613V123.136L452.933 123.157C453.68 123.323 454.223 123.567 454.561 123.89C454.906 124.207 455.078 124.649 455.078 125.217C455.078 125.835 454.877 126.334 454.474 126.715C454.079 127.089 453.536 127.308 452.846 127.373V128.257H452.178ZM454.226 125.271C454.226 124.904 454.119 124.624 453.903 124.43C453.695 124.235 453.339 124.077 452.836 123.955V126.608C453.267 126.55 453.605 126.406 453.849 126.176C454.101 125.939 454.226 125.637 454.226 125.271ZM450.906 121.723C450.906 122.09 451.01 122.367 451.218 122.553C451.434 122.733 451.757 122.881 452.189 122.996V120.613C451.801 120.663 451.488 120.782 451.251 120.969C451.021 121.155 450.906 121.407 450.906 121.723ZM456.66 127.373V126.575H458.762V120.516H458.687L456.789 122.284L456.261 121.712L458.255 119.847H459.668V126.575H461.608V127.373H456.66ZM463.125 127.373V126.575H465.227V120.516H465.152L463.254 122.284L462.726 121.712L464.72 119.847H466.133V126.575H468.073V127.373H463.125ZM471.875 127.502C471.444 127.502 471.067 127.449 470.743 127.341C470.42 127.226 470.147 127.071 469.924 126.877C469.708 126.683 469.543 126.453 469.428 126.187C469.32 125.921 469.266 125.634 469.266 125.324C469.266 124.807 469.406 124.397 469.687 124.095C469.967 123.793 470.333 123.581 470.786 123.459V123.373C470.391 123.236 470.075 123.017 469.838 122.715C469.607 122.406 469.492 122.036 469.492 121.605C469.492 121.03 469.701 120.573 470.118 120.235C470.535 119.89 471.121 119.718 471.875 119.718C472.63 119.718 473.216 119.89 473.633 120.235C474.05 120.573 474.258 121.03 474.258 121.605C474.258 122.036 474.14 122.406 473.902 122.715C473.672 123.017 473.36 123.236 472.964 123.373V123.459C473.417 123.581 473.784 123.793 474.064 124.095C474.344 124.397 474.485 124.807 474.485 125.324C474.485 125.634 474.427 125.921 474.312 126.187C474.204 126.453 474.039 126.683 473.816 126.877C473.6 127.071 473.331 127.226 473.007 127.341C472.684 127.449 472.307 127.502 471.875 127.502ZM471.875 126.715C472.4 126.715 472.806 126.6 473.094 126.37C473.381 126.133 473.525 125.799 473.525 125.368V125.141C473.525 124.71 473.381 124.379 473.094 124.149C472.806 123.912 472.4 123.793 471.875 123.793C471.351 123.793 470.944 123.912 470.657 124.149C470.369 124.379 470.226 124.71 470.226 125.141V125.368C470.226 125.799 470.369 126.133 470.657 126.37C470.944 126.6 471.351 126.715 471.875 126.715ZM471.875 123.039C472.35 123.039 472.709 122.938 472.954 122.737C473.198 122.536 473.32 122.241 473.32 121.853V121.691C473.32 121.303 473.198 121.008 472.954 120.807C472.709 120.606 472.35 120.505 471.875 120.505C471.401 120.505 471.041 120.606 470.797 120.807C470.553 121.008 470.431 121.303 470.431 121.691V121.853C470.431 122.241 470.553 122.536 470.797 122.737C471.041 122.938 471.401 123.039 471.875 123.039ZM480.475 120.645H477.176L476.96 123.513H477.036C477.215 123.262 477.417 123.06 477.639 122.909C477.869 122.758 478.182 122.683 478.577 122.683C478.901 122.683 479.199 122.737 479.472 122.845C479.746 122.952 479.983 123.107 480.184 123.308C480.385 123.502 480.54 123.743 480.648 124.031C480.763 124.318 480.82 124.645 480.82 125.012C480.82 125.378 480.763 125.716 480.648 126.025C480.533 126.327 480.364 126.59 480.141 126.812C479.925 127.028 479.659 127.197 479.343 127.319C479.034 127.441 478.682 127.502 478.286 127.502C477.97 127.502 477.69 127.466 477.445 127.395C477.208 127.323 476.996 127.226 476.809 127.103C476.622 126.981 476.457 126.845 476.313 126.694C476.177 126.543 476.051 126.385 475.936 126.219L476.615 125.702C476.709 125.853 476.806 125.989 476.906 126.112C477.014 126.234 477.129 126.338 477.251 126.424C477.381 126.51 477.528 126.579 477.693 126.629C477.859 126.672 478.056 126.694 478.286 126.694C478.804 126.694 479.196 126.557 479.462 126.284C479.728 126.011 479.861 125.626 479.861 125.13V125.023C479.861 124.527 479.728 124.142 479.462 123.869C479.196 123.596 478.804 123.459 478.286 123.459C477.941 123.459 477.668 123.524 477.467 123.653C477.273 123.775 477.097 123.923 476.939 124.095L476.173 123.987L476.443 119.847H480.475V120.645ZM483.037 127.502C482.807 127.502 482.638 127.445 482.53 127.33C482.43 127.215 482.379 127.064 482.379 126.877V126.737C482.379 126.55 482.43 126.399 482.53 126.284C482.638 126.169 482.807 126.112 483.037 126.112C483.267 126.112 483.432 126.169 483.533 126.284C483.641 126.399 483.695 126.55 483.695 126.737V126.877C483.695 127.064 483.641 127.215 483.533 127.33C483.432 127.445 483.267 127.502 483.037 127.502ZM486.395 127.373L489.274 120.624H486.061V122.025H485.252V119.847H490.19V120.645L487.366 127.373H486.395ZM494.208 127.502C493.777 127.502 493.399 127.449 493.076 127.341C492.752 127.226 492.479 127.071 492.256 126.877C492.041 126.683 491.875 126.453 491.76 126.187C491.653 125.921 491.599 125.634 491.599 125.324C491.599 124.807 491.739 124.397 492.019 124.095C492.3 123.793 492.666 123.581 493.119 123.459V123.373C492.724 123.236 492.407 123.017 492.17 122.715C491.94 122.406 491.825 122.036 491.825 121.605C491.825 121.03 492.034 120.573 492.45 120.235C492.867 119.89 493.453 119.718 494.208 119.718C494.963 119.718 495.549 119.89 495.965 120.235C496.382 120.573 496.591 121.03 496.591 121.605C496.591 122.036 496.472 122.406 496.235 122.715C496.005 123.017 495.692 123.236 495.297 123.373V123.459C495.75 123.581 496.116 123.793 496.397 124.095C496.677 124.397 496.817 124.807 496.817 125.324C496.817 125.634 496.76 125.921 496.645 126.187C496.537 126.453 496.372 126.683 496.149 126.877C495.933 127.071 495.664 127.226 495.34 127.341C495.017 127.449 494.639 127.502 494.208 127.502ZM494.208 126.715C494.733 126.715 495.139 126.6 495.426 126.37C495.714 126.133 495.858 125.799 495.858 125.368V125.141C495.858 124.71 495.714 124.379 495.426 124.149C495.139 123.912 494.733 123.793 494.208 123.793C493.683 123.793 493.277 123.912 492.99 124.149C492.702 124.379 492.558 124.71 492.558 125.141V125.368C492.558 125.799 492.702 126.133 492.99 126.37C493.277 126.6 493.683 126.715 494.208 126.715ZM494.208 123.039C494.682 123.039 495.042 122.938 495.286 122.737C495.531 122.536 495.653 122.241 495.653 121.853V121.691C495.653 121.303 495.531 121.008 495.286 120.807C495.042 120.606 494.682 120.505 494.208 120.505C493.734 120.505 493.374 120.606 493.13 120.807C492.885 121.008 492.763 121.303 492.763 121.691V121.853C492.763 122.241 492.885 122.536 493.13 122.737C493.374 122.938 493.734 123.039 494.208 123.039Z" fill="#606367"/>
<path d="M437.246 101.249H432.325L432.04 105.17H432.151C432.278 104.948 432.41 104.752 432.548 104.583C432.685 104.403 432.844 104.249 433.024 104.122C433.204 103.995 433.41 103.9 433.643 103.836C433.876 103.762 434.151 103.725 434.468 103.725C434.945 103.725 435.384 103.805 435.786 103.963C436.199 104.122 436.553 104.35 436.849 104.646C437.156 104.942 437.394 105.307 437.564 105.741C437.733 106.165 437.818 106.646 437.818 107.186C437.818 107.736 437.728 108.244 437.548 108.71C437.379 109.175 437.125 109.578 436.786 109.916C436.447 110.244 436.029 110.504 435.532 110.694C435.045 110.874 434.49 110.964 433.865 110.964C433.368 110.964 432.929 110.906 432.548 110.789C432.167 110.683 431.828 110.541 431.532 110.361C431.246 110.17 430.992 109.959 430.77 109.726C430.558 109.482 430.368 109.234 430.198 108.98L431.5 107.948C431.637 108.17 431.78 108.371 431.929 108.551C432.077 108.731 432.246 108.89 432.436 109.027C432.627 109.165 432.839 109.271 433.071 109.345C433.315 109.419 433.59 109.456 433.897 109.456C434.553 109.456 435.056 109.276 435.405 108.916C435.765 108.556 435.945 108.059 435.945 107.424V107.234C435.945 106.599 435.765 106.101 435.405 105.741C435.056 105.382 434.553 105.202 433.897 105.202C433.421 105.202 433.04 105.292 432.754 105.471C432.468 105.651 432.225 105.852 432.024 106.075L430.547 105.868L430.96 99.6933H437.246V101.249ZM441.002 110.964C440.611 110.964 440.32 110.863 440.129 110.662C439.939 110.451 439.843 110.191 439.843 109.884V109.646C439.843 109.339 439.939 109.085 440.129 108.884C440.32 108.673 440.611 108.567 441.002 108.567C441.394 108.567 441.685 108.673 441.875 108.884C442.066 109.085 442.161 109.339 442.161 109.646V109.884C442.161 110.191 442.066 110.451 441.875 110.662C441.685 110.863 441.394 110.964 441.002 110.964ZM451.893 110.773H444.368V109.059L447.908 105.9C448.469 105.392 448.898 104.911 449.194 104.456C449.501 103.99 449.654 103.503 449.654 102.995V102.789C449.654 102.249 449.49 101.826 449.162 101.519C448.845 101.212 448.411 101.058 447.861 101.058C447.554 101.058 447.284 101.106 447.051 101.201C446.829 101.286 446.633 101.408 446.464 101.566C446.294 101.725 446.151 101.91 446.035 102.122C445.929 102.334 445.845 102.561 445.781 102.805L444.209 102.201C444.326 101.852 444.485 101.519 444.686 101.201C444.887 100.873 445.141 100.582 445.448 100.328C445.755 100.074 446.114 99.8732 446.527 99.7251C446.95 99.5769 447.443 99.5028 448.003 99.5028C448.564 99.5028 449.067 99.5875 449.511 99.7568C449.956 99.9156 450.326 100.143 450.623 100.439C450.93 100.725 451.162 101.069 451.321 101.471C451.48 101.873 451.559 102.313 451.559 102.789C451.559 103.233 451.49 103.646 451.353 104.027C451.215 104.408 451.025 104.768 450.781 105.106C450.538 105.445 450.252 105.768 449.924 106.075C449.607 106.382 449.268 106.694 448.908 107.011L446.305 109.25H451.893V110.773ZM456.982 104.249C457.67 104.249 458.178 104.106 458.506 103.821C458.834 103.524 458.998 103.149 458.998 102.694V102.582C458.998 102.074 458.839 101.688 458.522 101.424C458.204 101.148 457.776 101.011 457.236 101.011C456.707 101.011 456.257 101.133 455.887 101.376C455.516 101.609 455.204 101.937 454.95 102.36L453.759 101.328C453.929 101.085 454.119 100.852 454.331 100.63C454.543 100.408 454.791 100.217 455.077 100.058C455.363 99.8891 455.686 99.7568 456.045 99.6616C456.405 99.5557 456.818 99.5028 457.284 99.5028C457.802 99.5028 458.284 99.5663 458.728 99.6933C459.173 99.8203 459.554 100.011 459.871 100.265C460.188 100.508 460.437 100.81 460.617 101.17C460.797 101.519 460.887 101.916 460.887 102.36C460.887 102.709 460.829 103.027 460.712 103.313C460.607 103.598 460.453 103.852 460.252 104.075C460.061 104.286 459.834 104.461 459.569 104.598C459.315 104.736 459.046 104.837 458.76 104.9V104.979C459.077 105.043 459.374 105.149 459.649 105.297C459.935 105.434 460.183 105.62 460.395 105.852C460.607 106.075 460.771 106.345 460.887 106.662C461.014 106.969 461.077 107.323 461.077 107.726C461.077 108.212 460.982 108.657 460.792 109.059C460.601 109.451 460.331 109.789 459.982 110.075C459.643 110.361 459.231 110.583 458.744 110.742C458.257 110.89 457.717 110.964 457.125 110.964C456.606 110.964 456.151 110.906 455.76 110.789C455.368 110.683 455.019 110.541 454.712 110.361C454.416 110.17 454.151 109.959 453.918 109.726C453.696 109.482 453.5 109.234 453.331 108.98L454.648 107.948C454.786 108.17 454.929 108.376 455.077 108.567C455.236 108.747 455.41 108.906 455.601 109.043C455.802 109.17 456.024 109.271 456.268 109.345C456.522 109.419 456.807 109.456 457.125 109.456C457.802 109.456 458.321 109.297 458.68 108.98C459.04 108.652 459.22 108.202 459.22 107.63V107.519C459.22 106.948 459.03 106.514 458.649 106.218C458.268 105.921 457.728 105.773 457.03 105.773H455.855V104.249H456.982ZM467.458 110.773V99.6933H474.554V101.281H469.252V104.36H474.061V105.948H469.252V109.186H474.554V110.773H467.458ZM480.979 101.281V110.773H479.185V101.281H475.883V99.6933H484.281V101.281H480.979ZM492.839 105.948H487.823V110.773H486.029V99.6933H487.823V104.36H492.839V99.6933H494.633V110.773H492.839V105.948Z" fill="#1D1D20"/>
<path d="M266.306 121.49V108.223H274.803V110.124H268.454V113.811H274.213V115.712H268.454V119.59H274.803V121.49H266.306ZM280.158 121.49C279.436 121.49 278.891 121.307 278.524 120.939C278.156 120.559 277.972 120.027 277.972 119.342V113.298H276.433V111.607H277.269C277.611 111.607 277.846 111.531 277.972 111.379C278.112 111.226 278.181 110.979 278.181 110.637V108.908H280.044V111.607H282.116V113.298H280.044V119.799H281.964V121.49H280.158ZM284.363 107.425H286.435V113.241H286.53C286.745 112.709 287.069 112.266 287.499 111.911C287.943 111.556 288.545 111.379 289.305 111.379C290.319 111.379 291.104 111.714 291.662 112.386C292.232 113.045 292.517 113.989 292.517 115.218V121.49H290.445V115.465C290.445 113.932 289.825 113.165 288.583 113.165C288.317 113.165 288.051 113.203 287.784 113.279C287.531 113.343 287.303 113.444 287.1 113.583C286.897 113.723 286.733 113.9 286.606 114.116C286.492 114.331 286.435 114.578 286.435 114.857V121.49H284.363V107.425ZM299.266 121.718C298.557 121.718 297.923 121.598 297.365 121.357C296.808 121.116 296.333 120.774 295.94 120.331C295.547 119.875 295.243 119.33 295.028 118.696C294.825 118.05 294.723 117.334 294.723 116.548C294.723 115.763 294.825 115.053 295.028 114.42C295.243 113.773 295.547 113.229 295.94 112.785C296.333 112.329 296.808 111.98 297.365 111.74C297.923 111.499 298.557 111.379 299.266 111.379C299.988 111.379 300.622 111.505 301.167 111.759C301.724 112.012 302.187 112.367 302.554 112.823C302.922 113.267 303.194 113.786 303.372 114.382C303.562 114.977 303.657 115.617 303.657 116.301V117.081H296.871V117.404C296.871 118.164 297.093 118.791 297.536 119.285C297.993 119.767 298.639 120.008 299.475 120.008C300.083 120.008 300.597 119.875 301.015 119.609C301.433 119.342 301.788 118.981 302.079 118.525L303.296 119.723C302.928 120.331 302.396 120.819 301.699 121.186C301.002 121.541 300.191 121.718 299.266 121.718ZM299.266 112.994C298.911 112.994 298.582 113.057 298.278 113.184C297.986 113.311 297.733 113.488 297.517 113.716C297.315 113.944 297.156 114.217 297.042 114.534C296.928 114.85 296.871 115.199 296.871 115.579V115.712H301.471V115.522C301.471 114.762 301.275 114.154 300.882 113.697C300.489 113.229 299.95 112.994 299.266 112.994ZM305.95 121.49V111.607H308.022V113.507H308.117C308.256 113 308.548 112.557 308.991 112.177C309.435 111.797 310.049 111.607 310.835 111.607H311.386V113.602H310.569C309.745 113.602 309.112 113.735 308.668 114.002C308.237 114.268 308.022 114.66 308.022 115.18V121.49H305.95ZM317.011 121.718C316.301 121.718 315.668 121.598 315.11 121.357C314.553 121.116 314.077 120.774 313.685 120.331C313.292 119.875 312.988 119.33 312.772 118.696C312.57 118.05 312.468 117.334 312.468 116.548C312.468 115.763 312.57 115.053 312.772 114.42C312.988 113.773 313.292 113.229 313.685 112.785C314.077 112.329 314.553 111.98 315.11 111.74C315.668 111.499 316.301 111.379 317.011 111.379C317.733 111.379 318.367 111.505 318.912 111.759C319.469 112.012 319.932 112.367 320.299 112.823C320.667 113.267 320.939 113.786 321.116 114.382C321.306 114.977 321.401 115.617 321.401 116.301V117.081H314.616V117.404C314.616 118.164 314.838 118.791 315.281 119.285C315.737 119.767 316.384 120.008 317.22 120.008C317.828 120.008 318.341 119.875 318.76 119.609C319.178 119.342 319.532 118.981 319.824 118.525L321.04 119.723C320.673 120.331 320.141 120.819 319.444 121.186C318.747 121.541 317.936 121.718 317.011 121.718ZM317.011 112.994C316.656 112.994 316.327 113.057 316.023 113.184C315.731 113.311 315.478 113.488 315.262 113.716C315.059 113.944 314.901 114.217 314.787 114.534C314.673 114.85 314.616 115.199 314.616 115.579V115.712H319.216V115.522C319.216 114.762 319.019 114.154 318.626 113.697C318.234 113.229 317.695 112.994 317.011 112.994ZM329.682 119.856H329.606C329.517 120.096 329.397 120.331 329.245 120.559C329.106 120.787 328.922 120.99 328.694 121.167C328.478 121.332 328.212 121.465 327.895 121.566C327.591 121.668 327.237 121.718 326.831 121.718C325.805 121.718 325.006 121.389 324.436 120.73C323.879 120.071 323.6 119.127 323.6 117.898V111.607H325.672V117.632C325.672 119.165 326.305 119.932 327.572 119.932C327.838 119.932 328.098 119.9 328.352 119.837C328.605 119.761 328.827 119.653 329.017 119.514C329.22 119.374 329.378 119.197 329.492 118.981C329.619 118.766 329.682 118.512 329.682 118.221V111.607H331.754V121.49H329.682V119.856ZM334.72 121.49V111.607H336.792V113.241H336.887C336.989 112.988 337.109 112.747 337.248 112.519C337.4 112.291 337.578 112.094 337.781 111.93C337.996 111.752 338.243 111.619 338.522 111.531C338.813 111.429 339.149 111.379 339.529 111.379C340.201 111.379 340.796 111.543 341.316 111.873C341.835 112.202 342.215 112.709 342.456 113.393H342.513C342.691 112.836 343.033 112.361 343.54 111.968C344.046 111.575 344.699 111.379 345.497 111.379C346.486 111.379 347.252 111.714 347.797 112.386C348.342 113.045 348.614 113.989 348.614 115.218V121.49H346.543V115.465C346.543 114.705 346.397 114.135 346.106 113.754C345.814 113.362 345.352 113.165 344.718 113.165C344.452 113.165 344.199 113.203 343.958 113.279C343.717 113.343 343.502 113.444 343.312 113.583C343.134 113.723 342.988 113.9 342.874 114.116C342.76 114.331 342.703 114.578 342.703 114.857V121.49H340.632V115.465C340.632 113.932 340.03 113.165 338.826 113.165C338.572 113.165 338.319 113.203 338.066 113.279C337.825 113.343 337.609 113.444 337.419 113.583C337.229 113.723 337.077 113.9 336.963 114.116C336.849 114.331 336.792 114.578 336.792 114.857V121.49H334.72Z" fill="#1D1D20"/>
<rect x="202.992" y="156.871" width="312.986" height="66.2675" rx="15.2925" fill="white"/>
<rect x="220.777" y="173.117" width="33.761" height="33.761" rx="16.8805" fill="#004DE5"/>
<path d="M242.997 181.305C243.388 181.305 243.763 181.459 244.039 181.734C244.315 182.01 244.471 182.382 244.471 182.771V194.541C244.471 194.761 244.421 194.979 244.325 195.177C244.23 195.375 244.09 195.549 243.918 195.687L238.348 200.14C238.152 200.296 237.908 200.382 237.657 200.382C237.406 200.382 237.163 200.296 236.967 200.14L231.396 195.687C231.224 195.549 231.085 195.375 230.989 195.177C230.894 194.979 230.844 194.761 230.844 194.541V182.771C230.844 182.382 230.999 182.01 231.275 181.734C231.552 181.459 231.927 181.305 232.317 181.305H242.997ZM234.953 184.259C234.616 184.259 234.293 184.393 234.055 184.634C233.816 184.874 233.682 185.201 233.682 185.541V192.984C233.682 193.176 233.725 193.366 233.808 193.539C233.89 193.712 234.011 193.864 234.159 193.984L236.126 195.578C236.149 195.597 236.178 195.609 236.208 195.612C236.238 195.616 236.268 195.611 236.295 195.598C236.322 195.585 236.345 195.565 236.361 195.539C236.377 195.513 236.386 195.483 236.386 195.453V190.19C236.386 190.148 236.402 190.107 236.432 190.077C236.461 190.047 236.502 190.03 236.544 190.03H237.975C238.228 190.03 238.471 190.131 238.649 190.312C238.828 190.492 238.929 190.737 238.929 190.992V195.453C238.929 195.483 238.937 195.513 238.953 195.538C238.969 195.564 238.992 195.585 239.019 195.598C239.045 195.611 239.076 195.616 239.105 195.612C239.135 195.609 239.163 195.597 239.187 195.578L241.154 193.984C241.303 193.864 241.422 193.712 241.505 193.539C241.587 193.366 241.631 193.176 241.631 192.984V190.671C241.631 190.331 241.497 190.005 241.259 189.765C241.02 189.524 240.697 189.389 240.359 189.389C240.696 189.388 241.019 189.252 241.257 189.012C241.495 188.771 241.629 188.446 241.629 188.106V185.541C241.629 185.201 241.494 184.874 241.256 184.634C241.017 184.393 240.694 184.259 240.357 184.259H234.953ZM238.768 185.541C238.81 185.541 238.85 185.558 238.88 185.588C238.91 185.618 238.927 185.659 238.927 185.701V187.785C238.927 188.04 238.826 188.285 238.647 188.466C238.469 188.646 238.226 188.747 237.973 188.747H236.543C236.501 188.747 236.46 188.73 236.431 188.7C236.401 188.67 236.384 188.629 236.384 188.587V185.701C236.384 185.659 236.401 185.618 236.431 185.588C236.46 185.558 236.501 185.541 236.543 185.541H238.768Z" fill="#FDFEFF"/>
<path d="M458.643 203.777V202.893C458.097 202.857 457.633 202.724 457.252 202.494C456.878 202.256 456.558 201.962 456.292 201.61L456.929 201.038C457.159 201.347 457.41 201.595 457.683 201.782C457.964 201.962 458.287 202.077 458.654 202.127V199.356C457.913 199.191 457.371 198.95 457.026 198.634C456.688 198.31 456.519 197.868 456.519 197.307C456.519 197.02 456.569 196.765 456.67 196.542C456.778 196.312 456.925 196.114 457.112 195.949C457.299 195.784 457.522 195.654 457.78 195.561C458.039 195.46 458.327 195.395 458.643 195.367V194.483H459.311V195.356C459.8 195.399 460.221 195.525 460.573 195.733C460.932 195.935 461.241 196.215 461.5 196.574L460.842 197.07C460.663 196.819 460.447 196.614 460.196 196.456C459.944 196.29 459.646 196.183 459.301 196.132V198.655L459.398 198.677C460.145 198.842 460.688 199.087 461.026 199.41C461.371 199.726 461.543 200.168 461.543 200.736C461.543 201.354 461.342 201.854 460.939 202.235C460.544 202.609 460.001 202.828 459.311 202.893V203.777H458.643ZM460.691 200.79C460.691 200.423 460.584 200.143 460.368 199.949C460.16 199.755 459.804 199.597 459.301 199.475V202.127C459.732 202.07 460.07 201.926 460.314 201.696C460.566 201.459 460.691 201.157 460.691 200.79ZM457.371 197.243C457.371 197.609 457.475 197.886 457.683 198.073C457.899 198.253 458.222 198.4 458.654 198.515V196.132C458.266 196.183 457.953 196.301 457.716 196.488C457.486 196.675 457.371 196.927 457.371 197.243ZM467.923 202.893H462.984V201.965L465.443 199.701C465.795 199.378 466.09 199.036 466.327 198.677C466.564 198.31 466.683 197.944 466.683 197.577V197.448C466.683 197.031 466.568 196.693 466.338 196.434C466.108 196.175 465.759 196.046 465.292 196.046C465.062 196.046 464.86 196.078 464.688 196.143C464.515 196.208 464.364 196.298 464.235 196.413C464.113 196.528 464.009 196.664 463.922 196.822C463.843 196.973 463.779 197.139 463.728 197.318L462.92 197.006C462.992 196.783 463.089 196.567 463.211 196.359C463.34 196.143 463.498 195.953 463.685 195.787C463.879 195.622 464.109 195.489 464.375 195.388C464.648 195.288 464.968 195.237 465.335 195.237C465.701 195.237 466.028 195.291 466.316 195.399C466.604 195.507 466.844 195.658 467.038 195.852C467.232 196.046 467.38 196.276 467.48 196.542C467.588 196.808 467.642 197.103 467.642 197.426C467.642 197.721 467.599 197.994 467.513 198.246C467.434 198.497 467.322 198.738 467.179 198.968C467.035 199.191 466.859 199.41 466.65 199.626C466.449 199.841 466.23 200.057 465.993 200.273L463.966 202.095H467.923V202.893ZM474.388 202.893H469.449V201.965L471.908 199.701C472.26 199.378 472.555 199.036 472.792 198.677C473.029 198.31 473.148 197.944 473.148 197.577V197.448C473.148 197.031 473.033 196.693 472.803 196.434C472.573 196.175 472.224 196.046 471.757 196.046C471.527 196.046 471.325 196.078 471.153 196.143C470.98 196.208 470.829 196.298 470.7 196.413C470.578 196.528 470.474 196.664 470.387 196.822C470.308 196.973 470.244 197.139 470.193 197.318L469.385 197.006C469.457 196.783 469.554 196.567 469.676 196.359C469.805 196.143 469.963 195.953 470.15 195.787C470.344 195.622 470.574 195.489 470.84 195.388C471.113 195.288 471.433 195.237 471.8 195.237C472.166 195.237 472.493 195.291 472.781 195.399C473.069 195.507 473.309 195.658 473.503 195.852C473.697 196.046 473.845 196.276 473.945 196.542C474.053 196.808 474.107 197.103 474.107 197.426C474.107 197.721 474.064 197.994 473.978 198.246C473.899 198.497 473.787 198.738 473.644 198.968C473.5 199.191 473.324 199.41 473.115 199.626C472.914 199.841 472.695 200.057 472.458 200.273L470.431 202.095H474.388V202.893ZM476.055 202.893V202.095H478.157V196.035H478.082L476.184 197.803L475.656 197.232L477.65 195.367H479.063V202.095H481.003V202.893H476.055ZM483.037 203.022C482.807 203.022 482.638 202.964 482.53 202.849C482.43 202.734 482.379 202.583 482.379 202.397V202.256C482.379 202.07 482.43 201.919 482.53 201.804C482.638 201.689 482.807 201.631 483.037 201.631C483.267 201.631 483.432 201.689 483.533 201.804C483.641 201.919 483.695 202.07 483.695 202.256V202.397C483.695 202.583 483.641 202.734 483.533 202.849C483.432 202.964 483.267 203.022 483.037 203.022ZM488.552 202.893V201.415H484.918V200.618L488.066 195.367H489.414V200.661H490.503V201.415H489.414V202.893H488.552ZM485.77 200.661H488.552V196.068H488.498L485.77 200.661ZM492.86 202.893L495.739 196.143H492.526V197.545H491.717V195.367H496.655V196.165L493.831 202.893H492.86Z" fill="#606367"/>
<path d="M433.379 186.297V184.805H436.49V176.518H436.363L433.792 179.265L432.696 178.28L435.522 175.217H438.252V184.805H440.951V186.297H433.379ZM449.564 176.772H444.643L444.357 180.693H444.469C444.596 180.471 444.728 180.275 444.865 180.106C445.003 179.926 445.162 179.773 445.342 179.646C445.522 179.519 445.728 179.423 445.961 179.36C446.194 179.286 446.469 179.249 446.786 179.249C447.262 179.249 447.702 179.328 448.104 179.487C448.516 179.646 448.871 179.873 449.167 180.169C449.474 180.466 449.712 180.831 449.882 181.265C450.051 181.688 450.136 182.17 450.136 182.709C450.136 183.26 450.046 183.768 449.866 184.233C449.696 184.699 449.442 185.101 449.104 185.44C448.765 185.768 448.347 186.027 447.85 186.218C447.363 186.397 446.807 186.487 446.183 186.487C445.686 186.487 445.246 186.429 444.865 186.313C444.484 186.207 444.146 186.064 443.85 185.884C443.564 185.694 443.31 185.482 443.088 185.249C442.876 185.006 442.685 184.757 442.516 184.503L443.818 183.471C443.955 183.694 444.098 183.895 444.246 184.075C444.395 184.254 444.564 184.413 444.754 184.551C444.945 184.688 445.156 184.794 445.389 184.868C445.633 184.942 445.908 184.979 446.215 184.979C446.871 184.979 447.374 184.799 447.723 184.44C448.083 184.08 448.263 183.582 448.263 182.947V182.757C448.263 182.122 448.083 181.625 447.723 181.265C447.374 180.905 446.871 180.725 446.215 180.725C445.739 180.725 445.358 180.815 445.072 180.995C444.786 181.175 444.543 181.376 444.342 181.598L442.865 181.392L443.278 175.217H449.564V176.772ZM455.781 186.487C455.093 186.487 454.495 186.36 453.987 186.106C453.479 185.842 453.061 185.466 452.733 184.979C452.405 184.493 452.161 183.895 452.003 183.186C451.844 182.477 451.764 181.667 451.764 180.757C451.764 179.857 451.844 179.053 452.003 178.344C452.161 177.624 452.405 177.021 452.733 176.534C453.061 176.048 453.479 175.677 453.987 175.423C454.495 175.159 455.093 175.026 455.781 175.026C457.156 175.026 458.167 175.529 458.813 176.534C459.469 177.54 459.797 178.947 459.797 180.757C459.797 182.566 459.469 183.974 458.813 184.979C458.167 185.985 457.156 186.487 455.781 186.487ZM455.781 184.963C456.162 184.963 456.484 184.889 456.749 184.741C457.024 184.582 457.246 184.36 457.416 184.075C457.585 183.789 457.707 183.45 457.781 183.059C457.855 182.656 457.892 182.212 457.892 181.725V179.788C457.892 179.302 457.855 178.863 457.781 178.471C457.707 178.069 457.585 177.725 457.416 177.439C457.246 177.153 457.024 176.936 456.749 176.788C456.484 176.63 456.162 176.55 455.781 176.55C455.4 176.55 455.072 176.63 454.796 176.788C454.532 176.936 454.315 177.153 454.146 177.439C453.976 177.725 453.855 178.069 453.78 178.471C453.706 178.863 453.669 179.302 453.669 179.788V181.725C453.669 182.212 453.706 182.656 453.78 183.059C453.855 183.45 453.976 183.789 454.146 184.075C454.315 184.36 454.532 184.582 454.796 184.741C455.072 184.889 455.4 184.963 455.781 184.963ZM467.447 186.297H465.653V175.217H470.431C471.426 175.217 472.209 175.518 472.781 176.122C473.352 176.714 473.638 177.524 473.638 178.55C473.638 179.344 473.453 180.005 473.082 180.535C472.723 181.053 472.188 181.418 471.479 181.63L473.876 186.297H471.876L469.654 181.82H467.447V186.297ZM470.304 180.312C470.759 180.312 471.114 180.196 471.368 179.963C471.622 179.72 471.749 179.376 471.749 178.931V178.169C471.749 177.725 471.622 177.386 471.368 177.153C471.114 176.91 470.759 176.788 470.304 176.788H467.447V180.312H470.304ZM480.186 186.487C479.467 186.487 478.81 186.366 478.218 186.122C477.636 185.868 477.133 185.503 476.71 185.027C476.297 184.54 475.974 183.942 475.741 183.233C475.519 182.514 475.408 181.688 475.408 180.757C475.408 179.826 475.519 179.005 475.741 178.296C475.974 177.577 476.297 176.979 476.71 176.503C477.133 176.016 477.636 175.651 478.218 175.407C478.81 175.153 479.467 175.026 480.186 175.026C480.906 175.026 481.557 175.153 482.139 175.407C482.731 175.651 483.234 176.016 483.647 176.503C484.07 176.979 484.393 177.577 484.615 178.296C484.848 179.005 484.964 179.826 484.964 180.757C484.964 181.688 484.848 182.514 484.615 183.233C484.393 183.942 484.07 184.54 483.647 185.027C483.234 185.503 482.731 185.868 482.139 186.122C481.557 186.366 480.906 186.487 480.186 186.487ZM480.186 184.884C480.609 184.884 480.996 184.81 481.345 184.662C481.705 184.514 482.006 184.302 482.25 184.027C482.504 183.741 482.7 183.397 482.837 182.995C482.975 182.593 483.044 182.138 483.044 181.63V179.884C483.044 179.376 482.975 178.921 482.837 178.519C482.7 178.116 482.504 177.778 482.25 177.503C482.006 177.217 481.705 177 481.345 176.852C480.996 176.704 480.609 176.63 480.186 176.63C479.752 176.63 479.361 176.704 479.011 176.852C478.662 177 478.361 177.217 478.107 177.503C477.863 177.778 477.673 178.116 477.535 178.519C477.398 178.921 477.329 179.376 477.329 179.884V181.63C477.329 182.138 477.398 182.593 477.535 182.995C477.673 183.397 477.863 183.741 478.107 184.027C478.361 184.302 478.662 184.514 479.011 184.662C479.361 184.81 479.752 184.884 480.186 184.884ZM490.185 180.169L488.963 177.82H488.916V186.297H487.201V175.217H489.201L492.821 181.344L494.043 183.694H494.091V175.217H495.805V186.297H493.805L490.185 180.169Z" fill="#1D1D20"/>
<path d="M268.454 197.014H266.306V183.747H272.028C273.219 183.747 274.156 184.108 274.841 184.83C275.525 185.54 275.867 186.509 275.867 187.738C275.867 188.689 275.645 189.481 275.202 190.114C274.771 190.735 274.131 191.172 273.282 191.426L276.152 197.014H273.757L271.096 191.654H268.454V197.014ZM271.876 189.848C272.42 189.848 272.845 189.709 273.149 189.43C273.453 189.138 273.605 188.727 273.605 188.194V187.282C273.605 186.75 273.453 186.344 273.149 186.066C272.845 185.774 272.42 185.629 271.876 185.629H268.454V189.848H271.876ZM282.208 197.242C281.524 197.242 280.897 197.121 280.326 196.881C279.769 196.64 279.294 196.298 278.901 195.854C278.508 195.398 278.204 194.853 277.989 194.22C277.773 193.573 277.665 192.857 277.665 192.072C277.665 191.286 277.773 190.577 277.989 189.943C278.204 189.297 278.508 188.752 278.901 188.308C279.294 187.852 279.769 187.504 280.326 187.263C280.897 187.022 281.524 186.902 282.208 186.902C282.892 186.902 283.513 187.022 284.071 187.263C284.641 187.504 285.123 187.852 285.515 188.308C285.908 188.752 286.212 189.297 286.428 189.943C286.643 190.577 286.751 191.286 286.751 192.072C286.751 192.857 286.643 193.573 286.428 194.22C286.212 194.853 285.908 195.398 285.515 195.854C285.123 196.298 284.641 196.64 284.071 196.881C283.513 197.121 282.892 197.242 282.208 197.242ZM282.208 195.531C282.918 195.531 283.488 195.316 283.919 194.885C284.35 194.441 284.565 193.782 284.565 192.908V191.236C284.565 190.361 284.35 189.709 283.919 189.278C283.488 188.834 282.918 188.613 282.208 188.613C281.499 188.613 280.928 188.834 280.498 189.278C280.067 189.709 279.851 190.361 279.851 191.236V192.908C279.851 193.782 280.067 194.441 280.498 194.885C280.928 195.316 281.499 195.531 282.208 195.531ZM289.059 197.014V187.13H291.131V188.765H291.226C291.441 188.232 291.765 187.789 292.195 187.434C292.639 187.079 293.241 186.902 294.001 186.902C295.015 186.902 295.8 187.238 296.358 187.909C296.928 188.568 297.213 189.512 297.213 190.741V197.014H295.141V191.007C295.141 189.462 294.521 188.689 293.279 188.689C293.013 188.689 292.747 188.727 292.48 188.803C292.227 188.866 291.999 188.967 291.796 189.107C291.594 189.246 291.429 189.424 291.302 189.639C291.188 189.854 291.131 190.108 291.131 190.399V197.014H289.059ZM301.13 185.362C300.699 185.362 300.383 185.261 300.18 185.058C299.99 184.856 299.895 184.596 299.895 184.279V183.956C299.895 183.639 299.99 183.379 300.18 183.177C300.383 182.974 300.699 182.873 301.13 182.873C301.561 182.873 301.871 182.974 302.061 183.177C302.252 183.379 302.347 183.639 302.347 183.956V184.279C302.347 184.596 302.252 184.856 302.061 185.058C301.871 185.261 301.561 185.362 301.13 185.362ZM300.085 187.13H302.157V197.014H300.085V187.13ZM305.115 197.014V187.13H307.187V188.765H307.282C307.497 188.232 307.82 187.789 308.251 187.434C308.695 187.079 309.296 186.902 310.057 186.902C311.07 186.902 311.856 187.238 312.414 187.909C312.984 188.568 313.269 189.512 313.269 190.741V197.014H311.197V191.007C311.197 189.462 310.576 188.689 309.334 188.689C309.068 188.689 308.802 188.727 308.536 188.803C308.283 188.866 308.055 188.967 307.852 189.107C307.649 189.246 307.484 189.424 307.358 189.639C307.244 189.854 307.187 190.108 307.187 190.399V197.014H305.115Z" fill="#1D1D20"/>
<rect x="202.992" y="232.395" width="312.986" height="66.2675" rx="15.2925" fill="white"/>
<rect x="220.777" y="248.645" width="33.761" height="33.761" rx="16.8805" fill="#8A46FF"/>
<path d="M242.396 269.059L247.031 266.386C247.277 266.244 247.429 265.981 247.429 265.698V260.352C247.429 260.069 247.277 259.806 247.031 259.664L242.396 256.991C242.15 256.849 241.845 256.85 241.601 256.991L236.965 259.664C236.72 259.806 236.568 260.069 236.568 260.352V269.906L233.317 271.779L230.066 269.906V266.157L233.317 264.284L235.461 265.52V263.006L233.715 261.998C233.595 261.929 233.457 261.892 233.317 261.892C233.178 261.892 233.04 261.929 232.92 261.998L228.284 264.671C228.039 264.813 227.887 265.076 227.887 265.359V270.705C227.887 270.988 228.039 271.251 228.284 271.393L232.92 274.066C233.165 274.207 233.469 274.207 233.715 274.066L238.35 271.393C238.596 271.251 238.747 270.988 238.747 270.705V261.15L238.805 261.117L241.997 259.276L245.248 261.15V264.899L241.997 266.772L239.856 265.538V268.053L241.599 269.058C241.845 269.198 242.15 269.198 242.394 269.058L242.396 269.059Z" fill="white"/>
<path d="M465.108 279.312V278.428C464.562 278.392 464.098 278.259 463.717 278.029C463.343 277.792 463.023 277.497 462.757 277.145L463.394 276.573C463.624 276.882 463.875 277.13 464.148 277.317C464.429 277.497 464.752 277.612 465.119 277.662V274.891C464.378 274.726 463.836 274.485 463.491 274.169C463.153 273.845 462.984 273.403 462.984 272.843C462.984 272.555 463.034 272.3 463.135 272.077C463.243 271.847 463.39 271.649 463.577 271.484C463.764 271.319 463.987 271.189 464.245 271.096C464.504 270.995 464.792 270.931 465.108 270.902V270.018H465.776V270.891C466.265 270.934 466.686 271.06 467.038 271.268C467.397 271.47 467.706 271.75 467.965 272.109L467.307 272.605C467.128 272.354 466.912 272.149 466.661 271.991C466.409 271.826 466.111 271.718 465.766 271.667V274.19L465.863 274.212C466.61 274.377 467.153 274.622 467.491 274.945C467.836 275.261 468.008 275.703 468.008 276.271C468.008 276.89 467.807 277.389 467.404 277.77C467.009 278.144 466.466 278.363 465.776 278.428V279.312H465.108ZM467.156 276.325C467.156 275.959 467.049 275.678 466.833 275.484C466.625 275.29 466.269 275.132 465.766 275.01V277.662C466.197 277.605 466.535 277.461 466.779 277.231C467.031 276.994 467.156 276.692 467.156 276.325ZM463.836 272.778C463.836 273.145 463.94 273.421 464.148 273.608C464.364 273.788 464.687 273.935 465.119 274.05V271.667C464.731 271.718 464.418 271.836 464.181 272.023C463.951 272.21 463.836 272.462 463.836 272.778ZM471.455 274.093C471.965 274.093 472.346 273.978 472.598 273.748C472.856 273.511 472.986 273.209 472.986 272.843V272.767C472.986 272.372 472.86 272.077 472.608 271.883C472.364 271.682 472.041 271.581 471.638 271.581C471.25 271.581 470.934 271.667 470.689 271.84C470.445 272.005 470.244 272.232 470.085 272.519L469.417 272.002C469.51 271.851 469.622 271.703 469.751 271.56C469.888 271.409 470.046 271.276 470.226 271.161C470.405 271.046 470.614 270.952 470.851 270.88C471.088 270.808 471.358 270.773 471.66 270.773C471.976 270.773 472.274 270.816 472.555 270.902C472.835 270.981 473.076 271.103 473.277 271.268C473.485 271.427 473.647 271.624 473.762 271.861C473.884 272.099 473.945 272.368 473.945 272.67C473.945 272.915 473.906 273.134 473.827 273.328C473.755 273.522 473.654 273.691 473.525 273.835C473.396 273.978 473.241 274.101 473.061 274.201C472.889 274.302 472.702 274.377 472.501 274.428V274.471C472.702 274.514 472.896 274.586 473.083 274.686C473.277 274.78 473.446 274.906 473.59 275.064C473.741 275.215 473.859 275.402 473.945 275.624C474.039 275.84 474.086 276.088 474.086 276.368C474.086 276.692 474.025 276.99 473.902 277.263C473.78 277.529 473.608 277.759 473.385 277.953C473.162 278.14 472.892 278.288 472.576 278.395C472.26 278.503 471.911 278.557 471.53 278.557C471.207 278.557 470.919 278.521 470.668 278.449C470.416 278.377 470.193 278.28 469.999 278.158C469.805 278.036 469.633 277.899 469.482 277.748C469.338 277.598 469.209 277.439 469.094 277.274L469.773 276.757C469.866 276.907 469.967 277.044 470.075 277.166C470.19 277.288 470.316 277.393 470.452 277.479C470.589 277.565 470.743 277.633 470.916 277.684C471.088 277.727 471.289 277.748 471.519 277.748C472.051 277.748 472.454 277.63 472.727 277.393C473 277.148 473.137 276.803 473.137 276.358V276.271C473.137 275.826 473 275.484 472.727 275.247C472.454 275.003 472.051 274.88 471.519 274.88H470.635V274.093H471.455ZM480.853 273.662C480.853 274.223 480.77 274.751 480.605 275.247C480.439 275.736 480.224 276.185 479.958 276.595C479.699 276.997 479.411 277.357 479.095 277.673C478.779 277.982 478.47 278.234 478.168 278.428H477.003C477.406 278.133 477.765 277.846 478.082 277.565C478.398 277.285 478.675 276.994 478.912 276.692C479.149 276.383 479.35 276.056 479.516 275.711C479.681 275.358 479.814 274.963 479.914 274.525L479.861 274.503C479.681 274.812 479.447 275.071 479.16 275.279C478.879 275.481 478.509 275.581 478.049 275.581C477.726 275.581 477.427 275.527 477.154 275.42C476.881 275.312 476.648 275.157 476.453 274.956C476.259 274.755 476.105 274.514 475.99 274.234C475.882 273.946 475.828 273.623 475.828 273.263C475.828 272.897 475.886 272.562 476.001 272.26C476.123 271.951 476.292 271.689 476.507 271.473C476.73 271.251 476.993 271.078 477.294 270.956C477.604 270.834 477.949 270.773 478.33 270.773C478.718 270.773 479.066 270.841 479.375 270.977C479.692 271.107 479.958 271.297 480.173 271.549C480.396 271.793 480.565 272.095 480.68 272.455C480.795 272.814 480.853 273.216 480.853 273.662ZM478.34 274.816C478.836 274.816 479.221 274.679 479.494 274.406C479.774 274.133 479.914 273.741 479.914 273.231V273.145C479.914 272.634 479.774 272.242 479.494 271.969C479.221 271.696 478.836 271.56 478.34 271.56C477.844 271.56 477.456 271.696 477.176 271.969C476.903 272.242 476.766 272.634 476.766 273.145V273.231C476.766 273.741 476.903 274.133 477.176 274.406C477.456 274.679 477.844 274.816 478.34 274.816ZM483.037 278.557C482.807 278.557 482.638 278.5 482.53 278.385C482.43 278.27 482.379 278.119 482.379 277.932V277.792C482.379 277.605 482.43 277.454 482.53 277.339C482.638 277.224 482.807 277.166 483.037 277.166C483.267 277.166 483.432 277.224 483.533 277.339C483.641 277.454 483.695 277.605 483.695 277.792V277.932C483.695 278.119 483.641 278.27 483.533 278.385C483.432 278.5 483.267 278.557 483.037 278.557ZM489.878 271.7H486.579L486.363 274.568H486.438C486.618 274.316 486.819 274.115 487.042 273.964C487.272 273.813 487.585 273.738 487.98 273.738C488.304 273.738 488.602 273.791 488.875 273.899C489.148 274.007 489.385 274.162 489.587 274.363C489.788 274.557 489.942 274.798 490.05 275.085C490.165 275.373 490.223 275.7 490.223 276.066C490.223 276.433 490.165 276.771 490.05 277.08C489.935 277.382 489.766 277.644 489.544 277.867C489.328 278.083 489.062 278.252 488.746 278.374C488.437 278.496 488.084 278.557 487.689 278.557C487.373 278.557 487.092 278.521 486.848 278.449C486.611 278.377 486.399 278.28 486.212 278.158C486.025 278.036 485.86 277.899 485.716 277.748C485.579 277.598 485.454 277.439 485.339 277.274L486.018 276.757C486.111 276.907 486.208 277.044 486.309 277.166C486.417 277.288 486.532 277.393 486.654 277.479C486.783 277.565 486.931 277.633 487.096 277.684C487.261 277.727 487.459 277.748 487.689 277.748C488.207 277.748 488.598 277.612 488.864 277.339C489.13 277.066 489.263 276.681 489.263 276.185V276.077C489.263 275.581 489.13 275.197 488.864 274.924C488.598 274.65 488.207 274.514 487.689 274.514C487.344 274.514 487.071 274.579 486.87 274.708C486.676 274.83 486.499 274.977 486.341 275.15L485.576 275.042L485.845 270.902H489.878V271.7ZM496.343 271.7H493.044L492.828 274.568H492.903C493.083 274.316 493.284 274.115 493.507 273.964C493.737 273.813 494.05 273.738 494.445 273.738C494.769 273.738 495.067 273.791 495.34 273.899C495.613 274.007 495.85 274.162 496.052 274.363C496.253 274.557 496.407 274.798 496.515 275.085C496.63 275.373 496.688 275.7 496.688 276.066C496.688 276.433 496.63 276.771 496.515 277.08C496.4 277.382 496.231 277.644 496.009 277.867C495.793 278.083 495.527 278.252 495.211 278.374C494.902 278.496 494.549 278.557 494.154 278.557C493.838 278.557 493.557 278.521 493.313 278.449C493.076 278.377 492.864 278.28 492.677 278.158C492.49 278.036 492.325 277.899 492.181 277.748C492.044 277.598 491.919 277.439 491.804 277.274L492.483 276.757C492.576 276.907 492.673 277.044 492.774 277.166C492.882 277.288 492.997 277.393 493.119 277.479C493.248 277.565 493.396 277.633 493.561 277.684C493.726 277.727 493.924 277.748 494.154 277.748C494.672 277.748 495.063 277.612 495.329 277.339C495.595 277.066 495.728 276.681 495.728 276.185V276.077C495.728 275.581 495.595 275.197 495.329 274.924C495.063 274.65 494.672 274.514 494.154 274.514C493.809 274.514 493.536 274.579 493.335 274.708C493.141 274.83 492.964 274.977 492.806 275.15L492.041 275.042L492.31 270.902H496.343V271.7Z" fill="#606367"/>
<path d="M417.836 261.83V260.338H420.947V252.052H420.82L418.248 254.798L417.153 253.814L419.979 250.75H422.709V260.338H425.408V261.83H417.836ZM430.719 262.021C430.031 262.021 429.433 261.894 428.926 261.64C428.418 261.375 428 260.999 427.671 260.513C427.343 260.026 427.1 259.428 426.941 258.719C426.783 258.01 426.703 257.2 426.703 256.29C426.703 255.39 426.783 254.586 426.941 253.877C427.1 253.158 427.343 252.554 427.671 252.068C428 251.581 428.418 251.21 428.926 250.956C429.433 250.692 430.031 250.559 430.719 250.559C432.095 250.559 433.106 251.062 433.751 252.068C434.407 253.073 434.735 254.48 434.735 256.29C434.735 258.1 434.407 259.507 433.751 260.513C433.106 261.518 432.095 262.021 430.719 262.021ZM430.719 260.497C431.1 260.497 431.423 260.423 431.688 260.274C431.963 260.116 432.185 259.893 432.354 259.608C432.524 259.322 432.645 258.983 432.719 258.592C432.794 258.19 432.831 257.745 432.831 257.258V255.322C432.831 254.835 432.794 254.396 432.719 254.004C432.645 253.602 432.524 253.258 432.354 252.972C432.185 252.687 431.963 252.47 431.688 252.321C431.423 252.163 431.1 252.083 430.719 252.083C430.338 252.083 430.01 252.163 429.735 252.321C429.471 252.47 429.254 252.687 429.084 252.972C428.915 253.258 428.793 253.602 428.719 254.004C428.645 254.396 428.608 254.835 428.608 255.322V257.258C428.608 257.745 428.645 258.19 428.719 258.592C428.793 258.983 428.915 259.322 429.084 259.608C429.254 259.893 429.471 260.116 429.735 260.274C430.01 260.423 430.338 260.497 430.719 260.497ZM440.238 262.021C439.55 262.021 438.952 261.894 438.444 261.64C437.936 261.375 437.518 260.999 437.19 260.513C436.862 260.026 436.618 259.428 436.46 258.719C436.301 258.01 436.221 257.2 436.221 256.29C436.221 255.39 436.301 254.586 436.46 253.877C436.618 253.158 436.862 252.554 437.19 252.068C437.518 251.581 437.936 251.21 438.444 250.956C438.952 250.692 439.55 250.559 440.238 250.559C441.613 250.559 442.624 251.062 443.269 252.068C443.926 253.073 444.254 254.48 444.254 256.29C444.254 258.1 443.926 259.507 443.269 260.513C442.624 261.518 441.613 262.021 440.238 262.021ZM440.238 260.497C440.619 260.497 440.941 260.423 441.206 260.274C441.481 260.116 441.703 259.893 441.873 259.608C442.042 259.322 442.164 258.983 442.238 258.592C442.312 258.19 442.349 257.745 442.349 257.258V255.322C442.349 254.835 442.312 254.396 442.238 254.004C442.164 253.602 442.042 253.258 441.873 252.972C441.703 252.687 441.481 252.47 441.206 252.321C440.941 252.163 440.619 252.083 440.238 252.083C439.857 252.083 439.529 252.163 439.253 252.321C438.989 252.47 438.772 252.687 438.603 252.972C438.433 253.258 438.311 253.602 438.237 254.004C438.163 254.396 438.126 254.835 438.126 255.322V257.258C438.126 257.745 438.163 258.19 438.237 258.592C438.311 258.983 438.433 259.322 438.603 259.608C438.772 259.893 438.989 260.116 439.253 260.274C439.529 260.423 439.857 260.497 440.238 260.497ZM458.587 253.353H458.508L457.635 255.147L455.206 259.576L452.777 255.147L451.904 253.353H451.825V261.83H450.11V250.75H452.237L455.206 256.385H455.301L458.27 250.75H460.301V261.83H458.587V253.353ZM469.96 261.83L468.96 258.83H464.817L463.849 261.83H462.023L465.801 250.75H468.055L471.833 261.83H469.96ZM466.928 252.401H466.849L465.245 257.29H468.516L466.928 252.401ZM476.622 252.337V261.83H474.828V252.337H471.526V250.75H479.924V252.337H476.622ZM481.103 261.83V260.37H482.611V252.21H481.103V250.75H485.929V252.21H484.405V260.37H485.929V261.83H481.103ZM492.342 262.021C490.892 262.021 489.755 261.534 488.929 260.56C488.104 259.576 487.691 258.153 487.691 256.29C487.691 255.359 487.797 254.539 488.009 253.83C488.22 253.12 488.527 252.523 488.929 252.036C489.331 251.549 489.818 251.184 490.39 250.94C490.972 250.686 491.623 250.559 492.342 250.559C493.305 250.559 494.11 250.771 494.755 251.194C495.411 251.618 495.925 252.242 496.295 253.068L494.787 253.893C494.596 253.364 494.3 252.946 493.898 252.639C493.506 252.321 492.988 252.163 492.342 252.163C491.485 252.163 490.813 252.454 490.326 253.036C489.839 253.618 489.596 254.422 489.596 255.449V257.131C489.596 258.158 489.839 258.962 490.326 259.544C490.813 260.126 491.485 260.417 492.342 260.417C493.009 260.417 493.549 260.248 493.961 259.909C494.385 259.56 494.697 259.116 494.898 258.576L496.343 259.449C495.972 260.253 495.454 260.883 494.787 261.338C494.12 261.793 493.305 262.021 492.342 262.021Z" fill="#1D1D20"/>
<path d="M266.306 272.549V259.282H272.009C273.238 259.282 274.188 259.643 274.86 260.365C275.531 261.088 275.867 262.057 275.867 263.273C275.867 264.49 275.531 265.459 274.86 266.182C274.188 266.904 273.238 267.265 272.009 267.265H268.454V272.549H266.306ZM268.454 265.383H271.876C272.42 265.383 272.845 265.244 273.149 264.965C273.453 264.674 273.605 264.262 273.605 263.73V262.817C273.605 262.285 273.453 261.88 273.149 261.601C272.845 261.309 272.42 261.164 271.876 261.164H268.454V265.383ZM281.577 272.777C280.893 272.777 280.266 272.657 279.695 272.416C279.138 272.175 278.663 271.833 278.27 271.389C277.877 270.933 277.573 270.388 277.358 269.755C277.142 269.109 277.034 268.393 277.034 267.607C277.034 266.821 277.142 266.112 277.358 265.478C277.573 264.832 277.877 264.287 278.27 263.844C278.663 263.387 279.138 263.039 279.695 262.798C280.266 262.558 280.893 262.437 281.577 262.437C282.261 262.437 282.882 262.558 283.44 262.798C284.01 263.039 284.491 263.387 284.884 263.844C285.277 264.287 285.581 264.832 285.797 265.478C286.012 266.112 286.12 266.821 286.12 267.607C286.12 268.393 286.012 269.109 285.797 269.755C285.581 270.388 285.277 270.933 284.884 271.389C284.491 271.833 284.01 272.175 283.44 272.416C282.882 272.657 282.261 272.777 281.577 272.777ZM281.577 271.066C282.287 271.066 282.857 270.851 283.288 270.42C283.718 269.977 283.934 269.318 283.934 268.443V266.771C283.934 265.896 283.718 265.244 283.288 264.813C282.857 264.37 282.287 264.148 281.577 264.148C280.867 264.148 280.297 264.37 279.866 264.813C279.436 265.244 279.22 265.896 279.22 266.771V268.443C279.22 269.318 279.436 269.977 279.866 270.42C280.297 270.851 280.867 271.066 281.577 271.066ZM290.538 272.549C289.828 272.549 289.296 272.371 288.941 272.017C288.599 271.649 288.428 271.142 288.428 270.496V258.484H290.5V270.857H291.868V272.549H290.538ZM299.763 262.665H301.759L297.596 274.507C297.482 274.836 297.349 275.115 297.197 275.343C297.058 275.584 296.886 275.774 296.684 275.913C296.494 276.065 296.259 276.173 295.98 276.236C295.702 276.312 295.372 276.35 294.992 276.35H293.795V274.659H295.467L296.037 272.986L292.445 262.665H294.517L296.494 268.481L297.064 270.629H297.159L297.786 268.481L299.763 262.665ZM311.629 273.48C311.629 274.507 311.236 275.279 310.451 275.799C309.665 276.319 308.385 276.578 306.611 276.578C305.8 276.578 305.11 276.521 304.539 276.407C303.982 276.306 303.519 276.154 303.152 275.951C302.797 275.748 302.537 275.501 302.373 275.21C302.208 274.918 302.125 274.583 302.125 274.202C302.125 273.658 302.271 273.233 302.563 272.929C302.867 272.625 303.285 272.416 303.817 272.302V272.093C303.069 271.852 302.696 271.345 302.696 270.572C302.696 270.065 302.867 269.679 303.209 269.413C303.551 269.134 303.963 268.938 304.444 268.823V268.747C303.861 268.469 303.412 268.082 303.095 267.588C302.791 267.081 302.639 266.492 302.639 265.82C302.639 264.807 302.974 263.989 303.646 263.368C304.33 262.748 305.306 262.437 306.573 262.437C307.27 262.437 307.866 262.539 308.36 262.741V262.475C308.36 262.032 308.461 261.69 308.664 261.449C308.879 261.195 309.209 261.069 309.652 261.069H311.173V262.741H309.158V263.14C309.602 263.432 309.944 263.812 310.184 264.281C310.425 264.737 310.546 265.25 310.546 265.82C310.546 266.821 310.203 267.632 309.519 268.253C308.835 268.861 307.859 269.166 306.592 269.166C306.111 269.166 305.68 269.115 305.3 269.014C305.046 269.102 304.824 269.229 304.634 269.394C304.444 269.546 304.349 269.748 304.349 270.002C304.349 270.268 304.47 270.458 304.71 270.572C304.951 270.686 305.293 270.743 305.737 270.743H308.17C309.386 270.743 310.267 270.99 310.812 271.484C311.357 271.966 311.629 272.631 311.629 273.48ZM309.69 273.708C309.69 273.366 309.557 273.094 309.291 272.891C309.038 272.688 308.569 272.587 307.885 272.587H304.539C304.083 272.853 303.855 273.233 303.855 273.727C303.855 274.133 304.013 274.456 304.33 274.697C304.66 274.95 305.211 275.077 305.984 275.077H307.276C308.886 275.077 309.69 274.621 309.69 273.708ZM306.592 267.664C307.2 267.664 307.669 267.531 307.999 267.265C308.341 266.986 308.512 266.562 308.512 265.991V265.611C308.512 265.041 308.341 264.623 307.999 264.357C307.669 264.078 307.2 263.939 306.592 263.939C305.984 263.939 305.509 264.078 305.167 264.357C304.837 264.623 304.672 265.041 304.672 265.611V265.991C304.672 266.562 304.837 266.986 305.167 267.265C305.509 267.531 305.984 267.664 306.592 267.664ZM316.937 272.777C316.252 272.777 315.625 272.657 315.055 272.416C314.497 272.175 314.022 271.833 313.629 271.389C313.237 270.933 312.932 270.388 312.717 269.755C312.502 269.109 312.394 268.393 312.394 267.607C312.394 266.821 312.502 266.112 312.717 265.478C312.932 264.832 313.237 264.287 313.629 263.844C314.022 263.387 314.497 263.039 315.055 262.798C315.625 262.558 316.252 262.437 316.937 262.437C317.621 262.437 318.242 262.558 318.799 262.798C319.37 263.039 319.851 263.387 320.244 263.844C320.637 264.287 320.941 264.832 321.156 265.478C321.372 266.112 321.479 266.821 321.479 267.607C321.479 268.393 321.372 269.109 321.156 269.755C320.941 270.388 320.637 270.933 320.244 271.389C319.851 271.833 319.37 272.175 318.799 272.416C318.242 272.657 317.621 272.777 316.937 272.777ZM316.937 271.066C317.646 271.066 318.216 270.851 318.647 270.42C319.078 269.977 319.293 269.318 319.293 268.443V266.771C319.293 265.896 319.078 265.244 318.647 264.813C318.216 264.37 317.646 264.148 316.937 264.148C316.227 264.148 315.657 264.37 315.226 264.813C314.795 265.244 314.58 265.896 314.58 266.771V268.443C314.58 269.318 314.795 269.977 315.226 270.42C315.657 270.851 316.227 271.066 316.937 271.066ZM323.788 272.549V262.665H325.859V264.3H325.955C326.17 263.768 326.493 263.324 326.924 262.969C327.367 262.615 327.969 262.437 328.73 262.437C329.743 262.437 330.529 262.773 331.086 263.445C331.657 264.103 331.942 265.047 331.942 266.277V272.549H329.87V266.543C329.87 264.997 329.249 264.224 328.007 264.224C327.741 264.224 327.475 264.262 327.209 264.338C326.956 264.401 326.727 264.503 326.525 264.642C326.322 264.781 326.157 264.959 326.031 265.174C325.916 265.39 325.859 265.643 325.859 265.934V272.549H323.788Z" fill="#1D1D20"/>
</g>
<rect x="1" y="0.5" width="718" height="274" rx="17.5" stroke="#9CA1A5"/>
<defs>
<linearGradient id="paint0_linear_3939_112869" x1="360" y1="150.162" x2="360" y2="345.25" gradientUnits="userSpaceOnUse">
<stop stop-color="#E9EBEE"/>
<stop offset="0.331731" stop-color="#E9EBEE"/>
</linearGradient>
<clipPath id="clip0_3939_112869">
<rect x="0.5" width="719" height="275" rx="18" fill="white"/>
</clipPath>
</defs>
</svg>
