<svg width="560" height="257" viewBox="0 0 560 257" fill="none" xmlns="http://www.w3.org/2000/svg">
<g clip-path="url(#clip0_3227_51969)">
<path d="M0 8C0 3.58172 3.58172 0 8 0H552C556.418 0 560 3.58172 560 8V249C560 253.418 556.418 257 552 257H7.99998C3.5817 257 0 253.418 0 249V8Z" fill="#090722"/>
<path d="M-12.597 88.4578C-18.2452 88.4578 -23.8949 88.4578 -29.543 88.4578C-29.7191 88.4578 -29.8967 88.4736 -30.0728 88.4641C-30.1562 88.4594 -30.2365 88.4152 -30.3184 88.3883C-30.2566 88.2951 -30.2149 88.1767 -30.1315 88.1135C-28.2936 86.7109 -26.4402 85.3288 -24.6162 83.9073C-23.9829 83.4145 -23.3173 83.266 -22.5311 83.2676C-13.3075 83.2897 -4.0839 83.2818 5.13971 83.2834C6.67698 83.2834 8.04332 83.7388 9.23874 84.6497C9.94611 85.1883 10.6427 85.7427 11.3624 86.2623C11.7501 86.5403 11.8412 86.8594 11.6976 87.308C11.0643 89.276 10.4311 91.2441 9.8241 93.2216C9.64649 93.8029 9.24029 94.0793 8.74915 94.3241C7.00698 95.196 5.27099 96.0805 3.54117 96.9776C2.71179 97.4073 2.7087 97.4799 3.40835 98.0138C4.50338 98.8494 5.59687 99.6896 6.71662 100.489C7.18768 100.825 7.30352 101.135 7.10582 101.726C6.40463 103.812 5.79765 105.932 5.10419 108.022C4.99144 108.361 4.67173 108.715 4.35666 108.882C2.48012 109.879 0.583505 110.842 -1.32547 111.771C-1.70386 111.956 -2.17338 112.013 -2.6012 112.013C-10.7221 112.027 -18.8414 112.024 -26.9622 112.026C-27.0502 112.026 -27.1383 112.03 -27.2263 112.026C-27.909 111.988 -27.9229 111.983 -27.7375 111.331C-27.4935 110.467 -27.2325 109.607 -26.9653 108.75C-25.1073 102.787 -23.2462 96.826 -21.382 90.865C-21.0191 89.7056 -21.0144 89.7104 -20.0769 90.429C-19.124 91.1604 -18.1649 91.8806 -17.2104 92.6103C-16.4876 93.1632 -16.486 93.1679 -16.764 94.0556C-17.9239 97.7437 -19.0854 101.432 -20.2484 105.12C-20.3163 105.335 -20.4059 105.542 -20.4631 105.758C-20.6499 106.464 -20.5326 106.633 -19.7928 106.663C-19.2645 106.685 -18.7332 106.668 -18.205 106.668C-12.6001 106.668 -6.99524 106.668 -1.39033 106.668C-1.08144 106.668 -0.772544 106.66 -0.463649 106.663C-0.0991531 106.666 0.0815507 106.477 0.18812 106.126C0.83371 104.021 1.49011 101.918 2.15424 99.8192C2.28088 99.418 2.17586 99.2142 1.76348 99.1984C1.41134 99.1858 1.05766 99.1795 0.705517 99.1795C-3.17884 99.1795 -7.06165 99.1826 -10.946 99.1842C-11.2101 99.1842 -11.4758 99.1763 -11.7399 99.1795C-12.1847 99.1858 -12.2465 98.9899 -12.1059 98.5856C-11.7816 97.6521 -11.5066 96.7012 -11.1916 95.763C-10.9089 94.9227 -10.8966 94.9117 -9.956 94.9101C-6.0284 94.9038 -2.10079 94.9069 1.82681 94.9069C2.1357 94.9069 2.4446 94.9148 2.75349 94.9069C3.66628 94.8801 3.68172 94.8832 3.97054 94.0192C4.4833 92.484 4.9868 90.9455 5.47022 89.4008C5.71734 88.6126 5.60768 88.4626 4.74741 88.4594C0.245263 88.4452 -4.25534 88.4483 -8.75748 88.4452C-10.0379 88.4452 -11.3167 88.4452 -12.597 88.4452V88.4594V88.4578Z" fill="white"/>
<path d="M563.753 181.077L574.801 174.706C575.386 174.368 575.748 173.74 575.748 173.066V160.324C575.748 159.65 575.386 159.023 574.801 158.684L563.753 152.313C563.167 151.975 562.44 151.978 561.858 152.313L550.81 158.684C550.224 159.023 549.863 159.65 549.863 160.324V183.095L542.115 187.56L534.367 183.095V174.161L542.115 169.695L547.224 172.642V166.649L543.062 164.247C542.776 164.083 542.447 163.994 542.115 163.994C541.782 163.994 541.453 164.083 541.167 164.247L530.119 170.618C529.534 170.957 529.172 171.585 529.172 172.258V185.001C529.172 185.674 529.534 186.302 530.119 186.64L541.167 193.011C541.753 193.346 542.477 193.346 543.062 193.011L554.11 186.64C554.696 186.302 555.057 185.674 555.057 185.001V162.226L555.196 162.148L562.802 157.761L570.55 162.226V171.161L562.802 175.626L557.699 172.685V178.679L561.855 181.074C562.44 181.409 563.167 181.409 563.75 181.074L563.753 181.077Z" fill="white"/>
<path d="M434.643 244.567L416.217 244.553C411.194 244.553 407.016 248.525 406.885 253.632C406.881 253.768 406.994 253.881 407.13 253.881L425.556 253.892V253.895C430.58 253.895 434.758 249.923 434.889 244.816C434.893 244.679 434.78 244.567 434.643 244.567Z" fill="white"/>
<path d="M443.981 230.578L416.217 230.564C411.194 230.564 407.016 234.536 406.885 239.643C406.881 239.78 406.994 239.893 407.13 239.893L434.894 239.904V239.906C439.917 239.906 444.095 235.935 444.226 230.828C444.231 230.691 444.118 230.578 443.981 230.578Z" fill="white"/>
<path d="M353.649 230.779C353.448 233.665 354.5 237.157 351.822 239.149C351.383 239.476 350.064 240.157 349.574 240.157H328.664V265.045H323.142C321.583 265.045 319.524 262.74 319.25 261.257V230.779H353.651H353.649Z" fill="white"/>
<path d="M349.485 242.32V245.837C349.485 246.358 348.017 247.911 347.402 247.911H336.449V265.043H333.098C332.52 265.043 330.836 263.241 330.836 262.608V242.32H349.485Z" fill="white"/>
<g clip-path="url(#clip1_3227_51969)">
<path d="M250.321 233.611C258.256 233.611 264.69 240.013 264.69 247.908C264.69 255.804 258.256 262.205 250.321 262.205C242.386 262.205 235.952 255.804 235.952 247.908C235.952 240.013 242.386 233.611 250.321 233.611ZM250.321 207.877C244.9 207.877 239.631 208.938 234.652 211.033C229.856 213.049 225.556 215.933 221.87 219.6C218.185 223.268 215.286 227.546 213.26 232.317C211.155 237.268 210.088 242.515 210.088 247.908C210.088 253.302 211.155 258.545 213.26 263.499C215.286 268.271 218.185 272.549 221.87 276.216C225.556 279.883 229.856 282.768 234.652 284.784C239.627 286.878 244.9 287.94 250.321 287.94C255.742 287.94 261.012 286.878 265.99 284.784C270.786 282.768 275.086 279.883 278.772 276.216C282.457 272.549 285.357 268.271 287.382 263.499C289.487 258.549 290.554 253.302 290.554 247.908C290.554 242.515 289.487 237.271 287.382 232.317C285.357 227.546 282.457 223.268 278.772 219.6C275.086 215.933 270.786 213.049 265.99 211.033C261.015 208.938 255.742 207.877 250.321 207.877Z" fill="#090722"/>
<path d="M250.325 233.613C258.26 233.613 264.694 240.015 264.694 247.91C264.694 255.806 258.26 262.207 250.325 262.207C242.389 262.207 235.956 255.806 235.956 247.91C235.956 240.015 242.389 233.613 250.325 233.613ZM250.325 216.457C232.895 216.457 218.713 230.568 218.713 247.91C218.713 265.252 232.895 279.364 250.325 279.364C267.754 279.364 281.937 265.252 281.937 247.91C281.937 230.568 267.754 216.457 250.325 216.457Z" fill="white"/>
<path d="M250.322 233.617C258.258 233.617 264.691 240.018 264.691 247.914C264.691 255.81 258.258 262.211 250.322 262.211C242.387 262.211 235.953 255.81 235.953 247.914C235.953 240.018 242.387 233.617 250.322 233.617ZM250.322 225.039C237.645 225.039 227.332 235.301 227.332 247.914C227.332 260.527 237.645 270.789 250.322 270.789C262.999 270.789 273.313 260.527 273.313 247.914C273.313 235.301 262.999 225.039 250.322 225.039Z" fill="#090722"/>
<path d="M250.32 233.613C258.256 233.613 264.689 240.015 264.689 247.91C264.689 255.806 258.256 262.207 250.32 262.207C242.385 262.207 235.951 255.806 235.951 247.91C235.951 240.015 242.385 233.613 250.32 233.613Z" fill="white"/>
</g>
<path d="M79.829 254.572H61.5781V227.912H79.829C86.0941 227.912 91.1705 232.989 91.1705 239.25V243.23C91.1705 249.495 86.0941 254.572 79.829 254.572Z" fill="white"/>
<path d="M84.5315 267.906H61.5781V254.576C61.5781 247.215 67.547 241.246 74.9117 241.246H84.5315C91.8963 241.246 97.8651 247.215 97.8651 254.576C97.8651 261.937 91.8963 267.906 84.5315 267.906Z" fill="white"/>
<path d="M91.1705 243.016V243.238C91.1705 249.503 86.0941 254.576 79.8253 254.576H61.5781C61.5781 250.895 63.074 247.563 65.4808 245.149C67.895 242.735 71.2275 241.246 74.9155 241.246H84.5315C86.9494 241.25 89.2155 241.894 91.1705 243.016Z" fill="#090722"/>
<path d="M162.558 241.424C158.573 241.424 154.587 241.424 150.602 241.424C150.477 241.424 150.352 241.435 150.228 241.428C150.169 241.425 150.112 241.394 150.055 241.375C150.098 241.309 150.128 241.225 150.187 241.181C151.483 240.191 152.791 239.216 154.078 238.213C154.525 237.865 154.994 237.761 155.549 237.762C162.057 237.777 168.564 237.772 175.072 237.773C176.157 237.773 177.121 238.094 177.964 238.737C178.463 239.117 178.955 239.508 179.463 239.875C179.736 240.071 179.8 240.296 179.699 240.612C179.252 242.001 178.805 243.39 178.377 244.785C178.252 245.195 177.965 245.39 177.619 245.563C176.39 246.178 175.165 246.802 173.944 247.435C173.359 247.738 173.357 247.789 173.851 248.166C174.623 248.755 175.395 249.348 176.185 249.912C176.517 250.15 176.599 250.368 176.459 250.785C175.965 252.257 175.536 253.752 175.047 255.227C174.967 255.466 174.742 255.716 174.52 255.834C173.196 256.537 171.857 257.217 170.511 257.872C170.244 258.003 169.912 258.043 169.611 258.043C163.881 258.053 158.152 258.051 152.423 258.052C152.36 258.052 152.298 258.055 152.236 258.052C151.755 258.025 151.745 258.022 151.876 257.562C152.048 256.952 152.232 256.346 152.42 255.741C153.731 251.534 155.044 247.328 156.36 243.122C156.616 242.304 156.619 242.307 157.281 242.814C157.953 243.33 158.63 243.839 159.303 244.353C159.813 244.744 159.814 244.747 159.618 245.373C158.8 247.975 157.98 250.577 157.16 253.18C157.112 253.331 157.048 253.477 157.008 253.63C156.876 254.128 156.959 254.247 157.481 254.268C157.854 254.284 158.229 254.272 158.601 254.272C162.556 254.272 166.51 254.272 170.465 254.272C170.683 254.272 170.901 254.266 171.119 254.268C171.376 254.271 171.503 254.137 171.579 253.89C172.034 252.404 172.497 250.921 172.966 249.44C173.055 249.157 172.981 249.013 172.69 249.002C172.442 248.993 172.192 248.988 171.944 248.988C169.203 248.988 166.463 248.991 163.723 248.992C163.536 248.992 163.349 248.986 163.163 248.988C162.849 248.993 162.805 248.855 162.904 248.569C163.133 247.911 163.327 247.24 163.55 246.578C163.749 245.985 163.758 245.977 164.421 245.976C167.192 245.972 169.964 245.974 172.735 245.974C172.953 245.974 173.171 245.979 173.389 245.974C174.033 245.955 174.043 245.957 174.247 245.348C174.609 244.264 174.964 243.179 175.305 242.089C175.48 241.533 175.402 241.427 174.795 241.425C171.619 241.415 168.443 241.417 165.267 241.415C164.364 241.415 163.461 241.415 162.558 241.415V241.425V241.424Z" fill="#090722"/>
<path d="M149.013 252.326L149.194 255.619C149.206 255.843 149.29 256.054 149.432 256.227C150.425 257.427 154.874 261.615 164.902 261.615C174.929 261.615 179.325 257.481 180.354 256.249C180.509 256.063 180.599 255.832 180.613 255.59L180.793 252.328C181.986 251.674 183.219 250.935 183.219 250.935C185.156 249.886 187.319 251.392 187.323 253.602C187.329 257.177 184.533 260.85 180.762 263.165C176.509 265.776 170.161 266.859 164.905 266.859C159.648 266.859 153.3 265.776 149.047 263.165C145.276 260.85 142.48 257.178 142.486 253.602C142.49 251.392 144.653 249.886 146.59 250.935C146.59 250.935 147.821 251.672 149.013 252.326Z" fill="white"/>
<path d="M164.899 228.961C173.098 228.961 175.321 229.152 178.654 229.535H178.653C180.19 229.711 181.422 230.854 181.307 232.401L180.079 249.112C179.695 249.223 179.276 249.363 178.806 249.521C176.343 250.347 172.482 251.641 164.899 251.641C157.316 251.641 153.455 250.347 150.992 249.521C150.522 249.363 150.102 249.223 149.718 249.111L148.49 232.401C148.377 230.854 149.604 229.684 151.144 229.535C154.437 229.216 157.865 228.961 164.899 228.961ZM150.306 257.119L150.31 257.177L150.395 257.197C150.365 257.17 150.335 257.144 150.306 257.119ZM179.41 257.195L179.487 257.177L179.49 257.124C179.464 257.147 179.437 257.171 179.41 257.195Z" fill="white"/>
<path d="M131.544 20.4749L113.118 20.4609C108.094 20.4609 103.916 24.4328 103.785 29.5397C103.781 29.6762 103.894 29.789 104.03 29.789L122.457 29.8001V29.8029C127.48 29.8029 131.658 25.8311 131.789 20.7241C131.793 20.5877 131.68 20.4749 131.544 20.4749Z" fill="white"/>
<path d="M140.882 6.48658L113.118 6.47266C108.094 6.47266 103.916 10.4445 103.785 15.5514C103.781 15.6879 103.894 15.8007 104.03 15.8007L131.795 15.8119V15.8147C136.818 15.8147 140.996 11.8428 141.127 6.73587C141.131 6.59939 141.018 6.48658 140.882 6.48658Z" fill="white"/>
<path d="M108.455 43.724C111.034 43.724 113.124 41.6333 113.124 39.0544C113.124 36.4754 111.034 34.3848 108.455 34.3848C105.876 34.3848 103.785 36.4754 103.785 39.0544C103.785 41.6333 105.876 43.724 108.455 43.724Z" fill="white"/>
<path fill-rule="evenodd" clip-rule="evenodd" d="M536.578 246.063C536.578 230.706 524.128 218.256 508.77 218.256C493.413 218.256 480.963 230.706 480.963 246.063C480.963 261.421 493.413 273.871 508.77 273.871C524.128 273.871 536.578 261.421 536.578 246.063ZM512.739 266.875C512.739 268.761 511.191 270.295 508.993 270.339C508.932 270.339 508.871 270.339 508.81 270.34H508.73C495.341 270.318 484.494 259.457 484.494 246.063C484.494 232.656 495.363 221.787 508.77 221.787C508.843 221.787 508.915 221.787 508.987 221.788C511.467 221.832 512.739 223.365 512.739 225.252C512.739 227.172 511.042 228.584 509.244 228.584C507.446 228.584 507.358 228.584 505.637 228.722C503.916 228.86 502.136 230.273 502.136 232.187C502.136 234.113 503.7 235.663 505.637 235.663H520.9C522.831 235.663 524.395 237.214 524.395 239.128C524.395 241.042 522.831 242.593 520.9 242.593H497.39C495.454 242.593 493.89 244.149 493.89 246.069C493.89 247.983 495.454 249.534 497.39 249.534H509.244C511.175 249.534 512.739 251.084 512.739 253.004C512.739 254.918 511.175 256.469 509.244 256.469H505.637C503.7 256.469 502.136 258.02 502.136 259.934C502.136 261.854 503.739 263.255 505.637 263.399C505.786 263.41 505.923 263.42 506.049 263.43C506.717 263.481 507.082 263.509 507.447 263.524C507.887 263.542 508.328 263.542 509.3 263.542C511.231 263.542 512.739 264.961 512.739 266.875Z" fill="white"/>
<path d="M-4.78623 254.574H-23.0371V227.914H-4.78623C1.47884 227.914 6.55531 232.991 6.55531 239.252V243.232C6.55531 249.497 1.47884 254.574 -4.78623 254.574Z" fill="white"/>
<path d="M-0.0837262 267.908H-23.0371V254.578C-23.0371 247.217 -17.0683 241.248 -9.70349 241.248H-0.0837262C7.28105 241.248 13.2499 247.217 13.2499 254.578C13.2499 261.939 7.28105 267.908 -0.0837262 267.908Z" fill="white"/>
<path d="M6.55531 243.018V243.24C6.55531 249.505 1.47884 254.578 -4.78993 254.578H-23.0371C-23.0371 250.897 -21.5412 247.565 -19.1344 245.151C-16.7202 242.737 -13.3877 241.248 -9.69978 241.248H-0.0837262C2.33417 241.252 4.60026 241.896 6.55531 243.018Z" fill="#090722"/>
<g clip-path="url(#clip2_3227_51969)">
<path d="M37.2049 174.618L34.7837 181.247C34.7127 181.43 34.7127 181.635 34.7837 181.819L38.9409 193.229L43.7524 190.45L37.9812 174.618C37.8486 174.25 37.3374 174.25 37.2049 174.618Z" fill="white"/>
<path d="M42.0495 163.465C41.917 163.097 41.4058 163.097 41.2732 163.465L38.8521 170.095C38.7811 170.278 38.7811 170.483 38.8521 170.666L45.6647 189.349L50.4763 186.571L42.0495 163.465Z" fill="white"/>
<path d="M33.4965 148.946C33.6195 148.946 33.7319 148.977 33.8432 149.038L52.1889 159.631C52.4031 159.754 52.5356 159.977 52.5356 160.224V181.408C52.5356 181.653 52.4031 181.878 52.1889 182.001L33.8432 192.604C33.7414 192.665 33.6183 192.696 33.4965 192.696C33.3746 192.696 33.261 192.665 33.1497 192.604L14.8135 182.012C14.5993 181.889 14.4668 181.665 14.4668 181.419V160.224C14.4668 159.979 14.5993 159.754 14.8135 159.631L33.1592 149.038C33.261 148.977 33.384 148.946 33.4965 148.946ZM33.4965 145.852C32.8432 145.852 32.1888 146.026 31.6066 146.363L13.2609 156.955C12.0965 157.628 11.3711 158.876 11.3711 160.224V181.408C11.3711 182.756 12.0965 184.013 13.2609 184.687L31.6066 195.279C32.1888 195.617 32.8421 195.791 33.4965 195.791C34.1509 195.791 34.8041 195.617 35.3863 195.279L53.732 184.687C54.9071 184.013 55.6218 182.767 55.6218 181.408V160.224C55.6218 158.876 54.8964 157.619 53.732 156.944L35.3958 146.363C34.8029 146.026 34.1497 145.852 33.4953 145.852H33.4965Z" fill="white"/>
<path d="M31.9498 158.713H27.3028C26.956 158.713 26.6389 158.927 26.5265 159.254L16.5566 186.588L21.3682 189.367L32.3486 159.264C32.4409 158.999 32.2469 158.713 31.9498 158.713Z" fill="white"/>
<path d="M40.0894 158.713H35.4423C35.0956 158.713 34.7785 158.927 34.666 159.254L23.2773 190.47L28.0889 193.248L40.4775 159.275C40.5793 158.999 40.3758 158.713 40.0894 158.713Z" fill="white"/>
</g>
<path d="M486.834 91.1895H499.574V103.929H486.834V91.1895Z" fill="white"/>
<path d="M534.382 91.1895H521.643V103.929H534.382V91.1895Z" fill="white"/>
<path d="M493.203 80.157L504.236 73.7871L510.606 84.8202L499.573 91.19L493.203 80.157Z" fill="white"/>
<path d="M528.012 80.1571L516.979 73.7871L510.609 84.8202L521.642 91.1901L528.012 80.1571Z" fill="white"/>
<path d="M499.573 103.932L510.606 110.302L504.236 121.335L493.203 114.965L499.573 103.932Z" fill="white"/>
<path d="M521.642 103.932L510.609 110.302L516.979 121.335L528.012 114.965L521.642 103.932Z" fill="white"/>
<path fill-rule="evenodd" clip-rule="evenodd" d="M579.093 21.9714C579.093 6.61387 566.643 -5.83594 551.286 -5.83594C535.928 -5.83594 523.479 6.61387 523.479 21.9714C523.479 37.329 535.928 49.7788 551.286 49.7788C566.643 49.7788 579.093 37.329 579.093 21.9714ZM555.255 42.7829C555.255 44.6694 553.706 46.2028 551.509 46.2468C551.448 46.2473 551.387 46.2476 551.326 46.2477H551.246C537.857 46.2261 527.01 35.3655 527.01 21.9715C527.01 8.56406 537.878 -2.30479 551.286 -2.3048C551.358 -2.3048 551.43 -2.30448 551.503 -2.30385C553.983 -2.25968 555.255 -0.726365 555.255 1.15995C555.255 3.07983 553.558 4.4925 551.76 4.4925C549.962 4.49256 549.873 4.49256 548.152 4.63043C546.431 4.76835 544.652 6.18108 544.652 8.09523C544.652 10.0208 546.216 11.5714 548.152 11.5714H563.416C565.347 11.5714 566.911 13.122 566.911 15.0362C566.911 16.9503 565.347 18.501 563.416 18.501H539.906C537.969 18.501 536.405 20.0573 536.405 21.9771C536.405 23.8913 537.969 25.4419 539.906 25.4419H551.76C553.691 25.4419 555.255 26.9926 555.255 28.9124C555.255 30.8265 553.691 32.3772 551.76 32.3772H548.152C546.216 32.3772 544.652 33.9278 544.652 35.842C544.652 37.7618 546.255 39.1632 548.152 39.3068C548.302 39.3181 548.439 39.3285 548.565 39.3382C549.233 39.389 549.598 39.4168 549.963 39.4321C550.403 39.4504 550.844 39.4504 551.816 39.4504C553.746 39.4504 555.255 40.8688 555.255 42.7829Z" fill="white"/>
<path d="M100.938 97.5565C100.938 84.7738 90.5624 74.4323 77.8136 74.3984C65.0309 74.3984 54.6895 84.7738 54.6895 97.5565C54.6895 110.339 65.0648 120.681 77.8136 120.715C90.5963 120.715 100.938 110.339 100.938 97.5565ZM77.7797 109.119V119.731C68.4555 119.731 60.8943 112.17 60.8943 102.846C60.8943 93.5217 68.4555 85.9605 77.7797 85.9605V75.3478C87.104 75.3478 94.6651 82.9089 94.6651 92.2332C94.6651 101.557 87.104 109.119 77.7797 109.119Z" fill="white"/>
<path d="M77.8464 89.584H77.7107C75.9476 93.1103 73.3368 95.721 69.8105 97.4842V97.6198C73.3368 99.3829 75.9476 101.994 77.7107 105.52H77.8464C79.6095 101.994 82.2203 99.3829 85.7466 97.6198V97.4842C82.2203 95.721 79.6095 93.1103 77.8464 89.584Z" fill="white"/>
<path d="M141.713 182.958L134.949 190.025C134.802 190.179 134.624 190.301 134.426 190.385C134.229 190.469 134.015 190.512 133.8 190.512H101.734C101.581 190.512 101.432 190.468 101.304 190.386C101.176 190.305 101.075 190.188 101.014 190.051C100.953 189.915 100.935 189.764 100.961 189.617C100.987 189.47 101.056 189.334 101.16 189.225L107.93 182.158C108.076 182.004 108.254 181.882 108.451 181.799C108.648 181.715 108.86 181.672 109.075 181.671H141.139C141.292 181.671 141.442 181.715 141.57 181.797C141.697 181.878 141.798 181.995 141.859 182.131C141.92 182.268 141.939 182.419 141.913 182.566C141.887 182.713 141.818 182.849 141.713 182.958ZM134.949 168.727C134.802 168.574 134.624 168.451 134.426 168.368C134.229 168.284 134.015 168.241 133.8 168.241H101.734C101.581 168.241 101.432 168.284 101.304 168.366C101.176 168.448 101.075 168.564 101.014 168.701C100.953 168.838 100.935 168.989 100.961 169.136C100.987 169.283 101.056 169.419 101.16 169.528L107.93 176.595C108.076 176.748 108.254 176.87 108.451 176.954C108.648 177.037 108.86 177.081 109.075 177.081H141.139C141.292 177.081 141.442 177.038 141.57 176.956C141.697 176.874 141.798 176.758 141.859 176.621C141.92 176.484 141.939 176.333 141.913 176.186C141.887 176.04 141.818 175.903 141.713 175.794L134.949 168.727ZM101.734 163.651H133.8C134.015 163.651 134.229 163.608 134.426 163.524C134.624 163.441 134.802 163.318 134.949 163.165L141.713 156.097C141.818 155.989 141.887 155.852 141.913 155.705C141.939 155.558 141.92 155.407 141.859 155.271C141.798 155.134 141.697 155.018 141.57 154.936C141.442 154.854 141.292 154.811 141.139 154.811H109.075C108.86 154.811 108.648 154.854 108.451 154.938C108.254 155.022 108.076 155.144 107.93 155.297L101.162 162.364C101.058 162.473 100.988 162.609 100.962 162.756C100.936 162.902 100.955 163.053 101.016 163.19C101.076 163.327 101.177 163.443 101.305 163.525C101.432 163.607 101.582 163.65 101.734 163.651Z" fill="white"/>
<path d="M207.747 197.989V184.875L191.525 175.389L207.747 197.989Z" fill="white" stroke="white" stroke-width="0.290378" stroke-linejoin="round"/>
<path d="M207.809 197.989V184.875L224.03 175.389L207.809 197.989Z" fill="white" stroke="white" stroke-width="0.290378" stroke-linejoin="round"/>
<path d="M207.752 181.621V164.885L191.344 172.232L207.752 181.621Z" fill="white" stroke="white" stroke-width="0.290378" stroke-linejoin="round"/>
<path d="M207.801 181.621V164.885L224.209 172.232L207.801 181.621Z" fill="white" stroke="white" stroke-width="0.290378" stroke-linejoin="round"/>
<path d="M191.344 172.229L207.752 145.723V164.881L191.344 172.229Z" fill="white" stroke="white" stroke-width="0.290378" stroke-linejoin="round"/>
<path d="M224.217 172.229L207.809 145.723V164.881L224.217 172.229Z" fill="white" stroke="white" stroke-width="0.290378" stroke-linejoin="round"/>
<path fill-rule="evenodd" clip-rule="evenodd" d="M190.888 97.3731L175.99 82.5195V93.395L161.199 104.283L175.99 104.296V112.221L190.888 97.3731Z" fill="white"/>
<path fill-rule="evenodd" clip-rule="evenodd" d="M138.367 97.3668L153.265 112.214V101.427L168.056 90.4507L153.265 90.4381V82.5195L138.367 97.3668Z" fill="white"/>
<path fill-rule="evenodd" clip-rule="evenodd" d="M61.7724 23.6231L46.8746 8.76953V19.645L32.084 30.5331L46.8746 30.5456V38.4706L61.7724 23.6231Z" fill="white"/>
<path fill-rule="evenodd" clip-rule="evenodd" d="M9.25195 23.6168L24.1497 38.4643V27.677L38.9403 16.7007L24.1497 16.6881V8.76953L9.25195 23.6168Z" fill="white"/>
<path d="M247.692 88.4578C242.044 88.4578 236.394 88.4578 230.746 88.4578C230.57 88.4578 230.392 88.4736 230.216 88.4641C230.133 88.4594 230.053 88.4152 229.971 88.3883C230.032 88.2951 230.074 88.1767 230.158 88.1135C231.996 86.7109 233.849 85.3288 235.673 83.9073C236.306 83.4145 236.972 83.266 237.758 83.2676C246.982 83.2897 256.205 83.2818 265.429 83.2834C266.966 83.2834 268.332 83.7388 269.528 84.6497C270.235 85.1883 270.932 85.7427 271.651 86.2623C272.039 86.5403 272.13 86.8594 271.987 87.308C271.353 89.276 270.72 91.2441 270.113 93.2216C269.936 93.8029 269.529 94.0793 269.038 94.3241C267.296 95.196 265.56 96.0805 263.83 96.9776C263.001 97.4073 262.998 97.4799 263.697 98.0138C264.792 98.8494 265.886 99.6896 267.006 100.489C267.477 100.825 267.593 101.135 267.395 101.726C266.694 103.812 266.087 105.932 265.393 108.022C265.281 108.361 264.961 108.715 264.646 108.882C262.769 109.879 260.873 110.842 258.964 111.771C258.585 111.956 258.116 112.013 257.688 112.013C249.567 112.027 241.448 112.024 233.327 112.026C233.239 112.026 233.151 112.03 233.063 112.026C232.38 111.988 232.366 111.983 232.552 111.331C232.796 110.467 233.057 109.607 233.324 108.75C235.182 102.787 237.043 96.826 238.907 90.865C239.27 89.7056 239.275 89.7104 240.212 90.429C241.165 91.1604 242.124 91.8806 243.079 92.6103C243.801 93.1632 243.803 93.1679 243.525 94.0556C242.365 97.7437 241.204 101.432 240.041 105.12C239.973 105.335 239.883 105.542 239.826 105.758C239.639 106.464 239.756 106.633 240.496 106.663C241.025 106.685 241.556 106.668 242.084 106.668C247.689 106.668 253.294 106.668 258.899 106.668C259.208 106.668 259.517 106.66 259.825 106.663C260.19 106.666 260.371 106.477 260.477 106.126C261.123 104.021 261.779 101.918 262.443 99.8192C262.57 99.418 262.465 99.2142 262.053 99.1984C261.7 99.1858 261.347 99.1795 260.995 99.1795C257.11 99.1795 253.227 99.1826 249.343 99.1842C249.079 99.1842 248.813 99.1763 248.549 99.1795C248.104 99.1858 248.043 98.9899 248.183 98.5856C248.507 97.6521 248.782 96.7012 249.097 95.763C249.38 94.9227 249.392 94.9117 250.333 94.9101C254.261 94.9038 258.188 94.9069 262.116 94.9069C262.425 94.9069 262.734 94.9148 263.043 94.9069C263.955 94.8801 263.971 94.8832 264.26 94.0192C264.772 92.484 265.276 90.9455 265.759 89.4008C266.006 88.6126 265.897 88.4626 265.036 88.4594C260.534 88.4452 256.034 88.4483 251.532 88.4452C250.251 88.4452 248.972 88.4452 247.692 88.4452V88.4594V88.4578Z" fill="white"/>
<path d="M292.433 145.867H280.091C279.667 145.867 279.322 146.212 279.322 146.636V158.978C279.322 159.402 279.667 159.747 280.091 159.747H292.433C292.857 159.747 293.202 159.402 293.202 158.978V146.636C293.202 146.212 292.857 145.867 292.433 145.867Z" fill="white"/>
<path d="M279.322 181.332V193.673C279.322 194.098 279.666 194.442 280.091 194.442H292.433C292.857 194.442 293.202 194.098 293.202 193.673V181.332C293.202 180.907 292.857 180.562 292.433 180.562H280.091C279.666 180.562 279.322 180.907 279.322 181.332Z" fill="white"/>
<path d="M279.322 163.982V176.323C279.322 176.748 279.667 177.092 280.091 177.092H292.433C292.857 177.092 293.202 176.748 293.202 176.323V163.982C293.202 163.557 292.857 163.213 292.433 163.213H280.091C279.667 163.213 279.322 163.557 279.322 163.982Z" fill="white"/>
<path d="M296.666 181.332V193.673C296.666 194.098 297.01 194.442 297.435 194.442H309.776C310.201 194.442 310.545 194.098 310.545 193.673V181.332C310.545 180.907 310.201 180.562 309.776 180.562H297.435C297.01 180.562 296.666 180.907 296.666 181.332Z" fill="white"/>
<path d="M296.666 163.974V176.315C296.666 176.74 297.01 177.085 297.435 177.085H309.776C310.201 177.085 310.545 176.74 310.545 176.315V163.974C310.545 163.549 310.201 163.205 309.776 163.205H297.435C297.01 163.205 296.666 163.549 296.666 163.974Z" fill="white"/>
<path d="M359.969 151.916H400.946V166.637H394.263C391.918 161.236 386.642 157.437 380.486 157.437C372.162 157.437 365.42 164.262 365.42 172.632C365.42 181.002 372.162 187.887 380.486 187.887C386.524 187.887 391.801 184.207 394.145 178.923H400.946V193.406H359.969V151.916Z" fill="white"/>
<path d="M409.234 95.3261V89.1804C409.457 89.0054 414.048 86.3788 414.68 86.0645C415.454 86.4868 416.232 86.9372 417.016 87.3767C417.791 87.8121 418.564 88.2515 419.339 88.6883C420.123 89.1312 420.908 89.5741 421.693 90.0163C422.467 90.453 423.24 90.8897 423.994 91.3142C424.034 91.3142 424.046 91.3148 424.058 91.3142C424.069 91.3128 424.081 91.3114 424.091 91.3066C424.133 91.2875 424.175 91.2684 424.215 91.2458C427.264 89.5283 430.313 87.81 433.361 86.0918C433.371 86.0863 433.383 86.0836 433.394 86.0802C433.405 86.0795 433.416 86.0774 433.427 86.0781C433.438 86.0788 433.451 86.0802 433.461 86.085C433.513 86.1109 433.564 86.1369 433.615 86.1649C435.332 87.1409 437.049 88.1162 438.765 89.0929C438.794 89.11 438.818 89.1366 438.854 89.1667V95.3288C438.743 95.3945 438.627 95.4669 438.507 95.5346C435.611 97.1701 432.714 98.805 429.818 100.44C429.708 100.501 429.601 100.568 429.481 100.639C429.481 104.166 429.481 107.683 429.481 111.209C427.667 112.24 425.871 113.26 424.099 114.268C424.058 114.268 424.046 114.269 424.034 114.268C424.023 114.268 424.009 114.268 424 114.262C422.282 113.289 420.564 112.316 418.846 111.342C418.776 111.302 418.709 111.258 418.635 111.213C418.587 111.08 418.607 110.943 418.607 110.808C418.605 108.462 418.606 106.116 418.606 103.77V100.665C418.497 100.538 418.354 100.484 418.226 100.412C415.833 99.0592 413.438 97.7094 411.044 96.3588C410.541 96.0752 410.038 95.7916 409.535 95.5066C409.436 95.4505 409.34 95.389 409.234 95.3254V95.3261Z" fill="white"/>
<path d="M414.681 81.6265C414.241 81.4222 409.495 78.7129 409.285 78.5475C409.314 78.5256 409.34 78.5017 409.369 78.4846C414.254 75.7207 419.138 72.9568 423.993 70.2085C424.041 70.2065 424.053 70.2038 424.064 70.2058C424.076 70.2072 424.087 70.2106 424.097 70.2161C428.922 72.9438 433.748 75.6722 438.573 78.4006C438.623 78.4293 438.673 78.458 438.723 78.4867C438.733 78.4922 438.741 78.501 438.749 78.5092C438.757 78.5174 438.764 78.5263 438.771 78.5359C438.776 78.5448 438.779 78.555 438.783 78.5653C438.575 78.7245 433.741 81.4769 433.402 81.6245C433.299 81.5691 433.177 81.5069 433.058 81.44C430.181 79.8181 427.304 78.1955 424.427 76.573C424.308 76.5053 424.186 76.4404 424.078 76.3809C423.901 76.4069 423.782 76.5046 423.653 76.5778C421.43 77.8306 419.207 79.0847 416.984 80.3389C416.321 80.7134 415.657 81.0887 414.993 81.4625C414.893 81.5186 414.79 81.5705 414.682 81.6272L414.681 81.6265Z" fill="white"/>
<path d="M442.755 108.104V97.568C442.98 97.3889 447.821 94.6291 448.124 94.502C448.194 94.5286 448.186 94.5894 448.186 94.6441C448.189 94.735 448.188 94.8266 448.188 94.9175C448.188 100.19 448.188 105.463 448.188 110.736V111.131C448.119 111.27 447.989 111.308 447.881 111.369C446.455 112.178 445.028 112.985 443.6 113.793C440.324 115.647 437.047 117.501 433.77 119.355C433.662 119.416 433.551 119.472 433.431 119.537C433.355 119.438 433.379 119.345 433.378 119.261C433.376 118.395 433.377 117.529 433.377 116.664C433.377 115.707 433.377 114.751 433.377 113.794C433.377 113.669 433.377 113.545 433.377 113.402C436.497 111.64 439.612 109.881 442.755 108.106V108.104Z" fill="white"/>
<path d="M399.927 94.4961C400.264 94.628 405.117 97.3906 405.349 97.5772V108.051C405.438 108.195 405.565 108.234 405.672 108.295C407.512 109.336 409.353 110.374 411.193 111.413C412.259 112.014 413.325 112.616 414.39 113.218C414.49 113.275 414.588 113.335 414.679 113.389C414.725 113.687 414.726 119.214 414.681 119.502C414.659 119.506 414.631 119.519 414.617 119.51C409.73 116.752 404.844 113.992 399.952 111.229C399.94 111.143 399.926 111.066 399.921 110.989C399.915 110.91 399.919 110.83 399.919 110.75C399.919 105.477 399.919 100.205 399.919 94.9328C399.919 94.7982 399.924 94.6629 399.928 94.4961H399.927Z" fill="white"/>
<path d="M399.931 83.8402C401.739 82.8115 403.535 81.7904 405.346 80.7598C406.259 81.2642 407.157 81.785 408.06 82.2969C408.948 82.802 409.839 83.3036 410.762 83.8374C410.376 84.0971 410.006 84.2824 409.65 84.4894C409.3 84.6924 408.948 84.8893 408.596 85.0888C408.234 85.2946 407.873 85.4996 407.511 85.7053C407.16 85.9049 406.809 86.1052 406.457 86.3054C406.097 86.5105 405.736 86.7162 405.383 86.9171C405.328 87.0675 405.348 87.2055 405.348 87.3395C405.346 89.1165 405.347 90.8928 405.346 92.6699C405.346 92.7929 405.344 92.9159 405.343 93.0184C405.259 93.0861 405.209 93.0485 405.16 93.0212C403.443 92.0452 401.727 91.0692 400.011 90.0925C399.991 90.0809 399.974 90.0645 399.94 90.0371C399.931 89.9743 399.913 89.897 399.913 89.8198C399.912 87.8952 399.912 85.9705 399.913 84.0459C399.913 83.9891 399.923 83.9331 399.931 83.8402Z" fill="white"/>
<path d="M442.754 86.9664C442.398 86.7293 442.028 86.5413 441.669 86.3335C441.311 86.1244 440.948 85.9221 440.586 85.7164C440.235 85.5168 439.884 85.3172 439.532 85.1177C439.171 84.9126 438.81 84.7069 438.449 84.5012C438.09 84.2961 437.732 84.0911 437.386 83.8936C437.374 83.7876 437.445 83.774 437.488 83.7493C439.192 82.7781 440.898 81.809 442.604 80.8398C442.644 80.8173 442.687 80.8009 442.751 80.7715C444.501 81.7598 446.252 82.7624 448.007 83.7589C448.066 83.7924 448.118 83.8382 448.165 83.8731C448.198 84.2667 448.192 89.7639 448.159 90.0256C447.9 90.2211 443.072 92.9591 442.808 93.0595C442.742 93.0281 442.758 92.9652 442.755 92.9126C442.751 92.8101 442.753 92.7076 442.753 92.6057C442.753 90.8642 442.753 89.1235 442.753 87.382V86.9657L442.754 86.9664Z" fill="white"/>
<path d="M424.059 118.739C424.979 118.217 425.872 117.71 426.765 117.203C427.646 116.703 428.525 116.198 429.391 115.713C429.496 115.75 429.479 115.815 429.482 115.867C429.488 115.934 429.485 116.003 429.485 116.072C429.485 117.871 429.485 119.669 429.485 121.468C429.485 121.581 429.485 121.694 429.485 121.773C429.46 121.817 429.455 121.827 429.448 121.836C429.441 121.845 429.433 121.854 429.423 121.859C427.729 122.826 426.035 123.793 424.34 124.759C424.25 124.81 424.158 124.858 424.045 124.919C422.244 123.901 420.44 122.872 418.647 121.852C418.599 121.572 418.593 116.068 418.637 115.735C418.742 115.692 418.813 115.772 418.887 115.814C419.641 116.239 420.393 116.668 421.146 117.096C422.009 117.586 422.872 118.078 423.735 118.568C423.835 118.624 423.937 118.675 424.059 118.74V118.739Z" fill="white"/>
<path d="M424.046 80.7598C425.811 81.7638 427.557 82.7569 429.301 83.7506C429.338 83.7718 429.368 83.8053 429.399 83.8306C429.384 83.8627 429.38 83.8921 429.364 83.901C427.601 84.9098 425.837 85.9172 424.059 86.9335C423.686 86.7435 423.332 86.5275 422.971 86.3246C422.609 86.1209 422.248 85.9145 421.887 85.7094C421.535 85.5099 421.184 85.3103 420.833 85.1107C420.471 84.9057 420.108 84.7027 419.749 84.4942C419.393 84.2878 419.022 84.1026 418.652 83.8538C419.015 83.5962 419.386 83.4157 419.74 83.2086C420.088 83.0043 420.442 82.8088 420.793 82.6092C421.154 82.4035 421.515 82.1985 421.877 81.9927C422.228 81.7932 422.579 81.5929 422.931 81.3933C423.292 81.1883 423.652 80.9839 424.045 80.7611L424.046 80.7598Z" fill="white"/>
<path d="M414.624 108.941C414.556 108.916 414.513 108.905 414.474 108.886C413.86 108.571 409.46 106.046 409.251 105.89C409.214 105.614 409.212 100.124 409.249 99.8206C409.338 99.7557 409.403 99.8302 409.467 99.8657C410.05 100.194 410.631 100.527 411.213 100.857C412.256 101.451 413.3 102.044 414.343 102.637C414.442 102.694 414.539 102.754 414.625 102.805C414.669 103.108 414.671 108.596 414.625 108.94L414.624 108.941Z" fill="white"/>
<path d="M433.455 102.81C435.208 101.817 436.964 100.821 438.722 99.8258C438.749 99.8107 438.786 99.8114 438.808 99.8066C438.83 99.8169 438.843 99.8196 438.849 99.8278C438.855 99.836 438.858 99.849 438.858 99.8606C438.86 101.807 438.864 103.754 438.865 105.701C438.865 105.769 438.857 105.836 438.851 105.923C437.097 106.918 435.341 107.915 433.584 108.911C433.557 108.926 433.52 108.925 433.497 108.93C433.477 108.918 433.464 108.915 433.458 108.907C433.451 108.899 433.447 108.886 433.447 108.875C433.444 106.928 433.44 104.981 433.438 103.035C433.438 102.967 433.447 102.899 433.454 102.811L433.455 102.81Z" fill="white"/>
<path d="M364.333 15.3199L355.707 10.9277C355.032 12.2534 354.457 13.6434 354 15.0592L363.211 18.0376C363.512 17.1065 363.889 16.192 364.333 15.3199Z" fill="white"/>
<path d="M371.663 7.57713L376.441 15.8098C377.139 15.4052 377.885 15.094 378.662 14.8851L376.189 5.69252C376.819 5.52329 377.458 5.38358 378.101 5.28204L376.582 -4.2793C375.112 -4.04598 373.652 -3.69382 372.24 -3.23365L375.195 5.82214C374.255 6.12893 373.34 6.50988 372.458 6.9607L368.115 -1.51683C366.794 -0.839902 365.517 -0.0535067 364.316 0.822919L370.023 8.64229C370.549 8.25912 371.099 7.90481 371.663 7.57713Z" fill="white"/>
<path d="M397.294 14.3986L389.064 19.1811C389.47 19.8781 389.781 20.6256 389.991 21.4013L399.182 18.9239C399.352 19.5533 399.491 20.1921 399.594 20.8345L409.154 19.3121C408.92 17.8431 408.567 16.3819 408.105 14.9697L399.051 17.9302C398.743 16.9904 398.362 16.0758 397.911 15.1944L406.385 10.8455C405.708 9.52618 404.921 8.24862 404.044 7.04883L396.227 12.7596C396.611 13.2853 396.967 13.8347 397.294 14.3986Z" fill="white"/>
<path d="M393.945 -1.55518C392.618 -2.22923 391.228 -2.8032 389.813 -3.25977L386.84 5.95304C387.77 6.25333 388.685 6.63068 389.558 7.07429L393.945 -1.55518Z" fill="white"/>
<path d="M390.503 7.41152L385.67 15.799C386.37 16.2023 387.015 16.6964 387.589 17.268L401.144 3.66748C400.092 2.61967 398.95 1.64677 397.749 0.775391L392.158 8.48525C391.625 8.09925 391.073 7.74063 390.503 7.41152Z" fill="white"/>
<path d="M364.667 14.3661L373.052 19.204C373.456 18.5048 373.951 17.8589 374.524 17.2841L360.929 3.72461C359.88 4.77602 358.907 5.91744 358.035 7.11791L365.742 12.712C365.356 13.2441 364.996 13.7958 364.667 14.3661Z" fill="white"/>
<path d="M384 5.11917L385.462 -4.29239C384.017 -4.51708 382.538 -4.63086 381.065 -4.63086H381.043V14.571H381.065C381.875 14.571 382.676 14.6748 383.446 14.8793L385.929 5.52244C385.294 5.35393 384.65 5.22071 384 5.11917Z" fill="white"/>
<path d="M372.134 21.427L362.779 18.9375C362.609 19.5727 362.475 20.2165 362.374 20.8668L352.964 19.3998C352.738 20.8503 352.623 22.3351 352.623 23.8122H371.825C371.825 23.0013 371.929 22.1984 372.134 21.427Z" fill="white"/>
<path d="M397.804 32.3097L406.43 36.7019C407.105 35.376 407.679 33.9862 408.137 32.5704L398.925 29.5918C398.624 30.5229 398.248 31.4376 397.804 32.3097Z" fill="white"/>
<path d="M390.476 40.051L385.698 31.8184C385 32.223 384.254 32.5341 383.477 32.743L385.95 41.9356C385.319 42.1049 384.681 42.2446 384.038 42.3462L385.556 51.9067C387.026 51.6733 388.487 51.3212 389.898 50.861L386.943 41.8052C387.884 41.4985 388.798 41.1175 389.68 40.6667L394.023 49.1442C395.344 48.4673 396.621 47.6808 397.822 46.8045L392.115 38.9851C391.589 39.3683 391.04 39.7233 390.476 40.051Z" fill="white"/>
<path d="M364.84 33.2311L373.07 28.4487C372.665 27.7516 372.354 27.0041 372.144 26.2285L362.952 28.7058C362.783 28.0763 362.643 27.4375 362.541 26.7952L352.98 28.3176C353.215 29.7867 353.567 31.2479 354.029 32.6601L363.083 29.6995C363.391 30.6394 363.772 31.554 364.223 32.4355L355.749 36.7843C356.426 38.1036 357.213 39.3812 358.09 40.5809L365.907 34.8702C365.523 34.3445 365.167 33.795 364.84 33.2311Z" fill="white"/>
<path d="M368.195 49.1862C369.522 49.8603 370.912 50.4341 372.327 50.8908L375.3 41.678C374.37 41.3777 373.455 41.0003 372.582 40.5566L368.195 49.1862Z" fill="white"/>
<path d="M371.631 40.2217L376.464 31.8342C375.764 31.431 375.119 30.9369 374.545 30.3652L360.99 43.9657C362.042 45.0136 363.184 45.9864 364.385 46.8579L369.975 39.148C370.508 39.534 371.061 39.8926 371.631 40.2217Z" fill="white"/>
<path d="M397.47 33.2675L389.084 28.4297C388.681 29.1289 388.186 29.7748 387.613 30.3495L401.207 43.9098C402.256 42.8584 403.23 41.717 404.101 40.5165L396.394 34.9225C396.78 34.3902 397.141 33.8379 397.47 33.2675Z" fill="white"/>
<path d="M378.692 32.748L376.209 42.105C376.844 42.2734 377.488 42.4067 378.138 42.5082L376.676 51.9197C378.122 52.1445 379.601 52.2582 381.074 52.2582H381.096V33.0563H381.074C380.264 33.0563 379.463 32.9526 378.692 32.748Z" fill="white"/>
<path d="M390.312 23.8145C390.312 24.6253 390.207 25.4275 390.002 26.1995L399.357 28.689C399.527 28.0538 399.661 27.4101 399.762 26.7598L409.173 28.2275C409.399 26.777 409.513 25.2922 409.513 23.8151L390.312 23.8145Z" fill="white"/>
<path d="M299.763 29.091L309.161 38.2647L304.752 42.5689L295.352 33.397C294.545 32.6091 293.485 32.1809 292.341 32.1809C291.197 32.1809 290.133 32.6091 289.328 33.397L279.929 42.5689L275.518 38.2647L284.918 29.091H299.763Z" fill="white"/>
<path d="M314.165 29.7984L301.33 26.4465L293.901 13.8986L297.337 1.37305L303.366 2.94538L299.93 15.4727C299.783 15.9996 299.745 16.5509 299.818 17.0931C299.891 17.6352 300.074 18.1568 300.355 18.6259C300.638 19.1028 301.012 19.5192 301.455 19.8513C301.899 20.1835 302.404 20.4248 302.941 20.5614L315.777 23.915L314.165 29.7984Z" fill="white"/>
<path d="M283.357 26.4465L270.522 29.7984L268.91 23.915L281.746 20.5614C282.283 20.4245 282.788 20.183 283.232 19.8506C283.676 19.5182 284.05 19.1014 284.332 18.6242C284.613 18.1551 284.796 17.6335 284.869 17.0913C284.942 16.5492 284.904 15.9979 284.757 15.471L281.323 2.94538L287.352 1.37305L290.788 13.8986L283.357 26.4465Z" fill="white"/>
<g clip-path="url(#clip3_3227_51969)">
<path d="M214.898 36.4262H194.83V14.7695H199.422V32.229H214.898V36.4239V36.4262Z" fill="#090722"/>
<path d="M214.898 18.9659C217.161 18.9659 218.994 17.0878 218.994 14.771C218.994 12.4543 217.161 10.5762 214.898 10.5762C212.636 10.5762 210.803 12.4543 210.803 14.771C210.803 17.0878 212.636 18.9659 214.898 18.9659Z" fill="#090722"/>
</g>
<path d="M218.566 40.916H190.107V10.6016H196.619V35.0409H218.566V40.9128V40.916Z" fill="white"/>
<path d="M218.572 16.4742C221.78 16.4742 224.38 13.8452 224.38 10.6023C224.38 7.35938 221.78 4.73047 218.572 4.73047C215.364 4.73047 212.764 7.35938 212.764 10.6023C212.764 13.8452 215.364 16.4742 218.572 16.4742Z" fill="white"/>
<path fill-rule="evenodd" clip-rule="evenodd" d="M365.833 97.3601C365.833 113.044 353.101 125.753 337.391 125.753C321.681 125.753 310.26 114.313 309.047 99.7451H346.645V94.9699H309.047C310.26 80.4067 322.486 68.9668 337.391 68.9668C353.101 68.9668 365.833 81.6767 365.833 97.3601Z" fill="white"/>
<path d="M468.458 50.8835H462.298C460.332 50.3832 458.341 50.1038 456.395 49.4963C447.191 46.6275 439.764 38.6547 437.356 29.3727C436.957 27.8262 436.859 26.218 436.359 24.7105C436.482 22.9334 436.19 20.9678 436.359 19.2166C438.786 -6.15069 471.102 -16.2547 487.753 3.3848C502.526 20.8086 491.284 48.7848 468.458 50.8835ZM484.956 20.227C483.806 19.6455 481.509 18.3947 481.024 17.1991C480.495 15.893 480.982 14.47 480.625 13.073C480.505 12.5954 478.312 8.3296 477.928 7.68307C476.869 5.90593 475.28 5.2724 473.334 4.83055C471.21 4.34647 465.485 3.531 463.464 3.74867C461.135 4.00208 456.908 6.49398 455.043 7.95598C454.211 8.60901 454.247 9.55119 453.688 10.1587C452.964 10.9515 450.586 12.6051 449.296 13.8592C448.821 14.3206 447.957 14.5642 447.535 15.0126C446.018 16.624 447.353 17.8131 447.392 19.3986C447.431 20.984 446.508 22.1049 447.421 23.8658C447.993 24.9704 449.397 25.1329 449.676 25.5747C450.02 26.1173 450.066 27.3161 450.553 28.1738C451.04 29.0315 451.875 29.4831 452.386 30.2271C453.039 31.1758 453.305 32.5046 454.172 33.2941C454.614 33.6937 458.445 35.4708 458.857 35.4026L460.293 32.3551C458.347 30.5228 456.463 25.4577 457.912 23.0926C458.253 22.5337 458.425 22.9853 458.734 23.2517C459.338 23.7781 459.754 24.678 460.199 25.3473L461.642 30.2044L463.523 26.4357C462.197 23.9405 461.564 18.9242 463.428 16.637C464.208 15.6818 464.819 18.7455 465.066 19.2069L465.534 23.4207C466.729 21.8905 466.749 20.3635 467.428 18.6838C468.49 16.0522 471.018 13.2159 473.968 12.7643C473.974 15.5811 472.181 18.5474 470.05 20.3277C469.263 20.9873 468.045 21.4551 467.321 22.1341C467.054 22.381 465.352 24.6065 466.021 24.3921C468.058 22.9431 470.037 22.5955 472.512 22.7807C472.993 22.8164 473.451 22.5272 473.315 23.2615C471.885 24.9249 469.835 26.3122 467.616 26.6306C466.658 26.767 464.936 26.4032 464.241 26.8223C463.727 27.1309 461.934 30.5098 462.129 31.179C464.15 29.4961 467.083 28.8561 469.637 29.5221C469.955 29.6033 470.67 29.3986 470.394 30.0452C469.445 32.2707 463.117 33.1544 460.989 32.9529L458.221 40.2239C459.283 42.3487 470.173 42.5566 472.009 41.0264C473.656 39.6554 474.494 32.5241 475.583 31.988C477.067 31.2538 481.502 31.8873 482.425 30.7307C483 30.0094 482.59 28.7164 482.727 27.8034C482.834 27.0919 483.568 24.9444 483.575 24.2329C483.578 23.8333 482.925 23.268 483.01 22.6605C483.036 22.4785 485.57 21.2959 484.943 20.2335L484.956 20.227Z" fill="white"/>
<path d="M445.752 151.211C456.581 151.211 465.359 159.989 465.359 170.818C465.359 168.218 466.392 165.724 468.23 163.886C470.069 162.047 472.562 161.014 475.162 161.014C475.162 163.614 474.13 166.108 472.291 167.947C470.453 169.785 467.959 170.818 465.359 170.818C476.188 170.818 484.966 179.596 484.966 190.425C474.137 190.425 465.359 181.647 465.359 170.818C465.359 173.418 464.326 175.911 462.488 177.75C460.649 179.589 458.155 180.621 455.555 180.621C455.555 178.021 456.588 175.528 458.427 173.689C460.265 171.851 462.759 170.818 465.359 170.818C454.53 170.818 445.752 162.04 445.752 151.211Z" fill="white"/>
</g>
<defs>
<clipPath id="clip0_3227_51969">
<path d="M0 8C0 3.58172 3.58172 0 8 0H552C556.418 0 560 3.58172 560 8V249C560 253.418 556.418 257 552 257H7.99998C3.5817 257 0 253.418 0 249V8Z" fill="white"/>
</clipPath>
<clipPath id="clip1_3227_51969">
<rect x="210.088" y="207.676" width="80.4662" height="80.4662" rx="40.2331" fill="white"/>
</clipPath>
<clipPath id="clip2_3227_51969">
<rect width="44.2495" height="49.9391" fill="white" transform="translate(11.3711 145.852)"/>
</clipPath>
<clipPath id="clip3_3227_51969">
<rect width="24.9445" height="26.9562" fill="white" transform="translate(194.83 10.1367)"/>
</clipPath>
</defs>
</svg>
