<svg width="360" height="257" viewBox="0 0 360 257" fill="none" xmlns="http://www.w3.org/2000/svg">
<g clip-path="url(#clip0_3161_51763)">
<g clip-path="url(#clip1_3161_51763)">
<rect width="360" height="257" fill="white"/>
<path d="M27.7734 67.591C27.7734 46.665 44.7373 29.7012 65.6633 29.7012H293.884C314.81 29.7012 331.773 46.665 331.773 67.591V418.292H27.7734V67.591Z" fill="#F3F5F7"/>
<path fill-rule="evenodd" clip-rule="evenodd" d="M293.884 34.107H65.6633C47.1706 34.107 32.1792 49.0983 32.1792 67.591V413.887H327.368V67.591C327.368 49.0983 312.376 34.107 293.884 34.107ZM65.6633 29.7012C44.7373 29.7012 27.7734 46.665 27.7734 67.591V418.292H331.773V67.591C331.773 46.665 314.81 29.7012 293.884 29.7012H65.6633Z" fill="url(#paint0_linear_3161_51763)"/>
<rect x="139.238" y="43.7988" width="80.1855" height="22.029" rx="11.0145" fill="#FBFBFB"/>
<rect x="44.0703" y="78.1641" width="270.516" height="57.2754" rx="13.2174" fill="white"/>
<rect x="59.4414" y="92.2109" width="29.1798" height="29.1798" rx="14.5899" fill="#D6E3FF"/>
<path d="M74.0115 116.278V111.522L68.1289 108.082L74.0115 116.278Z" fill="#F0CDC2" stroke="#1616B4" stroke-width="0.105301" stroke-linejoin="round"/>
<path d="M74.0312 116.278V111.522L79.9138 108.082L74.0312 116.278Z" fill="#C9B3F5" stroke="#1616B4" stroke-width="0.105301" stroke-linejoin="round"/>
<path d="M74.0136 110.342V104.273L68.0635 106.937L74.0136 110.342Z" fill="#88AAF1" stroke="#1616B4" stroke-width="0.105301" stroke-linejoin="round"/>
<path d="M74.0312 110.342V104.273L79.9814 106.937L74.0312 110.342Z" fill="#C9B3F5" stroke="#1616B4" stroke-width="0.105301" stroke-linejoin="round"/>
<path d="M68.0635 106.936L74.0135 97.3242V104.272L68.0635 106.936Z" fill="#F0CDC2" stroke="#1616B4" stroke-width="0.105301" stroke-linejoin="round"/>
<path d="M79.9813 106.936L74.0312 97.3242V104.272L79.9813 106.936Z" fill="#B8FAF6" stroke="#1616B4" stroke-width="0.105301" stroke-linejoin="round"/>
<path d="M259.443 119.204V118.439C258.971 118.408 258.57 118.293 258.241 118.095C257.918 117.89 257.641 117.635 257.411 117.33L257.961 116.837C258.16 117.104 258.377 117.318 258.614 117.48C258.856 117.635 259.135 117.734 259.452 117.778V115.383C258.812 115.24 258.343 115.032 258.045 114.758C257.753 114.479 257.607 114.097 257.607 113.612C257.607 113.364 257.651 113.143 257.738 112.951C257.831 112.752 257.958 112.581 258.12 112.438C258.281 112.295 258.474 112.183 258.697 112.103C258.921 112.016 259.17 111.96 259.443 111.935V111.171H260.021V111.926C260.443 111.963 260.807 112.072 261.111 112.252C261.422 112.426 261.689 112.668 261.912 112.979L261.344 113.407C261.189 113.19 261.002 113.013 260.785 112.876C260.567 112.733 260.31 112.64 260.011 112.596V114.777L260.095 114.796C260.741 114.939 261.21 115.15 261.502 115.429C261.801 115.703 261.95 116.085 261.95 116.576C261.95 117.11 261.776 117.542 261.428 117.871C261.086 118.194 260.617 118.384 260.021 118.439V119.204H259.443ZM261.214 116.622C261.214 116.305 261.12 116.063 260.934 115.895C260.754 115.728 260.446 115.591 260.011 115.485V117.778C260.384 117.728 260.676 117.604 260.887 117.405C261.105 117.2 261.214 116.939 261.214 116.622ZM258.343 113.556C258.343 113.873 258.433 114.112 258.614 114.274C258.8 114.429 259.079 114.557 259.452 114.656V112.596C259.117 112.64 258.847 112.742 258.641 112.904C258.443 113.066 258.343 113.283 258.343 113.556ZM263.316 118.439V117.75H265.134V112.513H265.068L263.428 114.041L262.972 113.547L264.696 111.935H265.916V117.75H267.594V118.439H263.316ZM268.904 118.439V117.75H270.721V112.513H270.656L269.016 114.041L268.559 113.547L270.283 111.935H271.504V117.75H273.182V118.439H268.904ZM276.467 118.551C276.095 118.551 275.769 118.505 275.489 118.411C275.209 118.312 274.973 118.179 274.781 118.011C274.594 117.843 274.451 117.644 274.352 117.414C274.259 117.185 274.212 116.936 274.212 116.669C274.212 116.222 274.333 115.867 274.576 115.606C274.818 115.346 275.135 115.162 275.526 115.057V114.982C275.185 114.864 274.911 114.675 274.706 114.414C274.507 114.147 274.408 113.827 274.408 113.454C274.408 112.957 274.588 112.562 274.948 112.27C275.309 111.972 275.815 111.823 276.467 111.823C277.12 111.823 277.626 111.972 277.986 112.27C278.347 112.562 278.527 112.957 278.527 113.454C278.527 113.827 278.424 114.147 278.219 114.414C278.021 114.675 277.75 114.864 277.409 114.982V115.057C277.8 115.162 278.117 115.346 278.359 115.606C278.602 115.867 278.723 116.222 278.723 116.669C278.723 116.936 278.673 117.185 278.574 117.414C278.48 117.644 278.337 117.843 278.145 118.011C277.959 118.179 277.726 118.312 277.446 118.411C277.166 118.505 276.84 118.551 276.467 118.551ZM276.467 117.871C276.921 117.871 277.272 117.772 277.521 117.573C277.769 117.368 277.893 117.079 277.893 116.706V116.51C277.893 116.138 277.769 115.852 277.521 115.653C277.272 115.448 276.921 115.346 276.467 115.346C276.014 115.346 275.663 115.448 275.414 115.653C275.166 115.852 275.042 116.138 275.042 116.51V116.706C275.042 117.079 275.166 117.368 275.414 117.573C275.663 117.772 276.014 117.871 276.467 117.871ZM276.467 114.693C276.878 114.693 277.188 114.606 277.399 114.432C277.611 114.258 277.716 114.004 277.716 113.668V113.528C277.716 113.193 277.611 112.938 277.399 112.764C277.188 112.59 276.878 112.503 276.467 112.503C276.057 112.503 275.747 112.59 275.536 112.764C275.324 112.938 275.219 113.193 275.219 113.528V113.668C275.219 114.004 275.324 114.258 275.536 114.432C275.747 114.606 276.057 114.693 276.467 114.693ZM283.9 112.624H281.049L280.862 115.103H280.928C281.083 114.886 281.257 114.712 281.449 114.581C281.648 114.451 281.919 114.386 282.26 114.386C282.54 114.386 282.798 114.432 283.034 114.525C283.27 114.619 283.475 114.752 283.649 114.926C283.823 115.094 283.956 115.302 284.049 115.551C284.149 115.799 284.199 116.082 284.199 116.399C284.199 116.715 284.149 117.007 284.049 117.275C283.95 117.536 283.804 117.762 283.611 117.955C283.425 118.141 283.195 118.287 282.922 118.393C282.655 118.498 282.35 118.551 282.009 118.551C281.735 118.551 281.493 118.52 281.282 118.458C281.077 118.396 280.893 118.312 280.732 118.206C280.57 118.101 280.428 117.983 280.303 117.852C280.185 117.722 280.076 117.585 279.977 117.442L280.564 116.995C280.645 117.125 280.729 117.244 280.816 117.349C280.909 117.455 281.008 117.545 281.114 117.619C281.226 117.694 281.353 117.753 281.496 117.796C281.639 117.834 281.81 117.852 282.009 117.852C282.456 117.852 282.795 117.734 283.024 117.498C283.254 117.262 283.369 116.93 283.369 116.501V116.408C283.369 115.979 283.254 115.647 283.024 115.411C282.795 115.175 282.456 115.057 282.009 115.057C281.71 115.057 281.474 115.113 281.3 115.224C281.133 115.33 280.98 115.457 280.844 115.606L280.182 115.513L280.415 111.935H283.9V112.624ZM286.115 118.551C285.916 118.551 285.77 118.502 285.677 118.402C285.59 118.303 285.546 118.172 285.546 118.011V117.89C285.546 117.728 285.59 117.598 285.677 117.498C285.77 117.399 285.916 117.349 286.115 117.349C286.313 117.349 286.456 117.399 286.543 117.498C286.636 117.598 286.683 117.728 286.683 117.89V118.011C286.683 118.172 286.636 118.303 286.543 118.402C286.456 118.502 286.313 118.551 286.115 118.551ZM289.017 118.439L291.505 112.606H288.728V113.817H288.029V111.935H292.297V112.624L289.856 118.439H289.017ZM295.77 118.551C295.397 118.551 295.071 118.505 294.791 118.411C294.512 118.312 294.276 118.179 294.083 118.011C293.897 117.843 293.754 117.644 293.654 117.414C293.561 117.185 293.515 116.936 293.515 116.669C293.515 116.222 293.636 115.867 293.878 115.606C294.12 115.346 294.437 115.162 294.829 115.057V114.982C294.487 114.864 294.213 114.675 294.008 114.414C293.81 114.147 293.71 113.827 293.71 113.454C293.71 112.957 293.89 112.562 294.251 112.27C294.611 111.972 295.117 111.823 295.77 111.823C296.422 111.823 296.928 111.972 297.289 112.27C297.649 112.562 297.829 112.957 297.829 113.454C297.829 113.827 297.727 114.147 297.522 114.414C297.323 114.675 297.053 114.864 296.711 114.982V115.057C297.102 115.162 297.419 115.346 297.661 115.606C297.904 115.867 298.025 116.222 298.025 116.669C298.025 116.936 297.975 117.185 297.876 117.414C297.783 117.644 297.64 117.843 297.447 118.011C297.261 118.179 297.028 118.312 296.748 118.411C296.469 118.505 296.142 118.551 295.77 118.551ZM295.77 117.871C296.223 117.871 296.574 117.772 296.823 117.573C297.071 117.368 297.196 117.079 297.196 116.706V116.51C297.196 116.138 297.071 115.852 296.823 115.653C296.574 115.448 296.223 115.346 295.77 115.346C295.316 115.346 294.965 115.448 294.717 115.653C294.468 115.852 294.344 116.138 294.344 116.51V116.706C294.344 117.079 294.468 117.368 294.717 117.573C294.965 117.772 295.316 117.871 295.77 117.871ZM295.77 114.693C296.18 114.693 296.49 114.606 296.702 114.432C296.913 114.258 297.018 114.004 297.018 113.668V113.528C297.018 113.193 296.913 112.938 296.702 112.764C296.49 112.59 296.18 112.503 295.77 112.503C295.36 112.503 295.049 112.59 294.838 112.764C294.627 112.938 294.521 113.193 294.521 113.528V113.668C294.521 114.004 294.627 114.258 294.838 114.432C295.049 114.606 295.36 114.693 295.77 114.693Z" fill="#606367"/>
<path d="M246.628 95.4027H242.375L242.128 98.7916H242.224C242.334 98.5995 242.448 98.4303 242.567 98.2839C242.686 98.1284 242.823 97.9958 242.979 97.8861C243.134 97.7763 243.313 97.694 243.514 97.6391C243.715 97.5751 243.953 97.5431 244.227 97.5431C244.639 97.5431 245.019 97.6117 245.366 97.7489C245.723 97.8861 246.029 98.0827 246.285 98.3388C246.551 98.5949 246.757 98.9105 246.903 99.2855C247.049 99.6514 247.122 100.068 247.122 100.534C247.122 101.01 247.045 101.449 246.889 101.851C246.743 102.254 246.523 102.601 246.231 102.894C245.938 103.177 245.577 103.402 245.147 103.566C244.726 103.722 244.246 103.799 243.706 103.799C243.276 103.799 242.897 103.749 242.567 103.648C242.238 103.557 241.945 103.434 241.689 103.278C241.442 103.113 241.223 102.93 241.031 102.729C240.848 102.519 240.683 102.304 240.537 102.084L241.662 101.193C241.781 101.385 241.904 101.558 242.032 101.714C242.16 101.869 242.307 102.007 242.471 102.126C242.636 102.244 242.819 102.336 243.02 102.4C243.23 102.464 243.468 102.496 243.734 102.496C244.301 102.496 244.735 102.341 245.037 102.03C245.348 101.719 245.503 101.289 245.503 100.74V100.575C245.503 100.026 245.348 99.5965 245.037 99.2855C244.735 98.9745 244.301 98.819 243.734 98.819C243.322 98.819 242.993 98.8968 242.746 99.0523C242.499 99.2078 242.288 99.3815 242.115 99.5736L240.839 99.3953L241.195 94.0582H246.628V95.4027ZM249.875 103.799C249.536 103.799 249.285 103.713 249.12 103.539C248.956 103.356 248.873 103.132 248.873 102.866V102.661C248.873 102.395 248.956 102.176 249.12 102.002C249.285 101.819 249.536 101.728 249.875 101.728C250.213 101.728 250.465 101.819 250.629 102.002C250.794 102.176 250.876 102.395 250.876 102.661V102.866C250.876 103.132 250.794 103.356 250.629 103.539C250.465 103.713 250.213 103.799 249.875 103.799ZM259.287 103.635H252.784V102.153L255.844 99.4227C256.328 98.9837 256.699 98.5675 256.955 98.1742C257.22 97.7717 257.353 97.351 257.353 96.9119V96.7336C257.353 96.2671 257.211 95.9012 256.927 95.636C256.653 95.3707 256.278 95.2381 255.802 95.2381C255.537 95.2381 255.304 95.2792 255.103 95.3616C254.911 95.4347 254.741 95.5399 254.595 95.6771C254.449 95.8143 254.325 95.9744 254.225 96.1573C254.133 96.3403 254.06 96.5369 254.005 96.7473L252.647 96.2259C252.747 95.9241 252.885 95.636 253.058 95.3616C253.232 95.078 253.452 94.8265 253.717 94.607C253.982 94.3874 254.293 94.2137 254.65 94.0856C255.016 93.9575 255.441 93.8935 255.926 93.8935C256.411 93.8935 256.845 93.9667 257.229 94.113C257.613 94.2502 257.934 94.4469 258.19 94.703C258.455 94.95 258.656 95.2472 258.793 95.5948C258.931 95.9424 258.999 96.322 258.999 96.7336C258.999 97.1177 258.94 97.4745 258.821 97.8037C258.702 98.133 258.537 98.444 258.327 98.7367C258.117 99.0294 257.87 99.3084 257.586 99.5736C257.312 99.8389 257.019 100.109 256.708 100.383L254.458 102.318H259.287V103.635ZM263.686 97.9958C264.281 97.9958 264.72 97.8723 265.003 97.6254C265.287 97.3693 265.429 97.0446 265.429 96.6513V96.5552C265.429 96.1162 265.291 95.7823 265.017 95.5536C264.743 95.3158 264.372 95.1969 263.906 95.1969C263.448 95.1969 263.06 95.3021 262.739 95.5125C262.419 95.7137 262.149 95.9973 261.93 96.3631L260.901 95.4713C261.047 95.2609 261.212 95.0597 261.395 94.8676C261.578 94.6756 261.793 94.5109 262.04 94.3737C262.287 94.2274 262.566 94.113 262.877 94.0307C263.188 93.9392 263.544 93.8935 263.947 93.8935C264.395 93.8935 264.811 93.9484 265.195 94.0582C265.579 94.1679 265.909 94.3326 266.183 94.5521C266.458 94.7625 266.672 95.0231 266.828 95.3341C266.983 95.636 267.061 95.979 267.061 96.3631C267.061 96.665 267.011 96.9394 266.91 97.1863C266.819 97.4333 266.686 97.6528 266.512 97.8449C266.348 98.0278 266.151 98.1788 265.922 98.2977C265.703 98.4166 265.47 98.5035 265.223 98.5583V98.6269C265.497 98.6818 265.753 98.7733 265.991 98.9013C266.238 99.0202 266.453 99.1803 266.636 99.3815C266.819 99.5736 266.961 99.8069 267.061 100.081C267.171 100.347 267.226 100.653 267.226 101.001C267.226 101.421 267.144 101.805 266.979 102.153C266.814 102.491 266.581 102.784 266.279 103.031C265.986 103.278 265.63 103.47 265.209 103.607C264.788 103.735 264.322 103.799 263.81 103.799C263.361 103.799 262.968 103.749 262.63 103.648C262.291 103.557 261.989 103.434 261.724 103.278C261.468 103.113 261.239 102.93 261.038 102.729C260.846 102.519 260.677 102.304 260.53 102.084L261.669 101.193C261.788 101.385 261.912 101.563 262.04 101.728C262.177 101.883 262.328 102.02 262.492 102.139C262.666 102.249 262.858 102.336 263.069 102.4C263.288 102.464 263.535 102.496 263.81 102.496C264.395 102.496 264.843 102.359 265.154 102.084C265.465 101.801 265.621 101.412 265.621 100.918V100.822C265.621 100.328 265.456 99.9532 265.127 99.6971C264.797 99.441 264.331 99.3129 263.727 99.3129H262.712V97.9958H263.686ZM272.74 103.635V94.0582H278.873V95.4302H274.291V98.0919H278.448V99.4639H274.291V102.263H278.873V103.635H272.74ZM284.427 95.4302V103.635H282.876V95.4302H280.023V94.0582H287.281V95.4302H284.427ZM294.678 99.4639H290.342V103.635H288.792V94.0582H290.342V98.0919H294.678V94.0582H296.228V103.635H294.678V99.4639Z" fill="#1D1D20"/>
<path d="M98.7917 112.307V100.84H106.135V102.483H100.648V105.67H105.626V107.313H100.648V110.664H106.135V112.307H98.7917ZM110.764 112.307C110.14 112.307 109.669 112.148 109.351 111.83C109.033 111.502 108.875 111.042 108.875 110.45V105.226H107.544V103.764H108.267C108.563 103.764 108.765 103.698 108.875 103.567C108.995 103.436 109.055 103.222 109.055 102.926V101.431H110.665V103.764H112.456V105.226H110.665V110.845H112.324V112.307H110.764ZM114.398 100.15H116.189V105.177H116.271C116.457 104.717 116.736 104.334 117.109 104.027C117.492 103.72 118.012 103.567 118.669 103.567C119.546 103.567 120.225 103.857 120.707 104.438C121.199 105.007 121.446 105.823 121.446 106.885V112.307H119.655V107.099C119.655 105.774 119.118 105.111 118.045 105.111C117.815 105.111 117.585 105.144 117.355 105.21C117.136 105.265 116.939 105.352 116.764 105.473C116.589 105.593 116.446 105.746 116.337 105.933C116.238 106.119 116.189 106.332 116.189 106.573V112.307H114.398V100.15ZM127.279 112.504C126.666 112.504 126.118 112.4 125.636 112.192C125.154 111.984 124.744 111.688 124.404 111.305C124.065 110.91 123.802 110.439 123.616 109.892C123.44 109.333 123.353 108.714 123.353 108.035C123.353 107.356 123.44 106.743 123.616 106.195C123.802 105.637 124.065 105.166 124.404 104.783C124.744 104.388 125.154 104.087 125.636 103.879C126.118 103.671 126.666 103.567 127.279 103.567C127.903 103.567 128.451 103.677 128.922 103.896C129.404 104.115 129.803 104.421 130.121 104.816C130.439 105.199 130.674 105.648 130.827 106.163C130.992 106.677 131.074 107.23 131.074 107.822V108.495H125.209V108.775C125.209 109.432 125.401 109.974 125.784 110.401C126.178 110.817 126.737 111.025 127.46 111.025C127.985 111.025 128.429 110.91 128.79 110.68C129.152 110.45 129.458 110.138 129.71 109.744L130.762 110.779C130.444 111.305 129.984 111.726 129.382 112.044C128.779 112.35 128.078 112.504 127.279 112.504ZM127.279 104.963C126.972 104.963 126.688 105.018 126.425 105.128C126.173 105.237 125.954 105.391 125.768 105.588C125.592 105.785 125.455 106.02 125.357 106.294C125.258 106.568 125.209 106.869 125.209 107.198V107.313H129.185V107.148C129.185 106.491 129.015 105.966 128.675 105.571C128.336 105.166 127.87 104.963 127.279 104.963ZM133.056 112.307V103.764H134.847V105.407H134.929C135.049 104.969 135.301 104.586 135.684 104.257C136.068 103.928 136.599 103.764 137.278 103.764H137.754V105.489H137.048C136.336 105.489 135.788 105.604 135.405 105.834C135.033 106.064 134.847 106.404 134.847 106.853V112.307H133.056ZM142.616 112.504C142.002 112.504 141.455 112.4 140.973 112.192C140.491 111.984 140.08 111.688 139.741 111.305C139.401 110.91 139.139 110.439 138.952 109.892C138.777 109.333 138.69 108.714 138.69 108.035C138.69 107.356 138.777 106.743 138.952 106.195C139.139 105.637 139.401 105.166 139.741 104.783C140.08 104.388 140.491 104.087 140.973 103.879C141.455 103.671 142.002 103.567 142.616 103.567C143.24 103.567 143.788 103.677 144.259 103.896C144.74 104.115 145.14 104.421 145.458 104.816C145.775 105.199 146.011 105.648 146.164 106.163C146.328 106.677 146.411 107.23 146.411 107.822V108.495H140.546V108.775C140.546 109.432 140.738 109.974 141.121 110.401C141.515 110.817 142.074 111.025 142.797 111.025C143.322 111.025 143.766 110.91 144.127 110.68C144.489 110.45 144.795 110.138 145.047 109.744L146.098 110.779C145.781 111.305 145.321 111.726 144.719 112.044C144.116 112.35 143.415 112.504 142.616 112.504ZM142.616 104.963C142.309 104.963 142.024 105.018 141.762 105.128C141.51 105.237 141.291 105.391 141.104 105.588C140.929 105.785 140.792 106.02 140.694 106.294C140.595 106.568 140.546 106.869 140.546 107.198V107.313H144.521V107.148C144.521 106.491 144.352 105.966 144.012 105.571C143.673 105.166 143.207 104.963 142.616 104.963ZM153.568 110.894H153.502C153.425 111.102 153.321 111.305 153.19 111.502C153.069 111.699 152.911 111.874 152.713 112.027C152.527 112.17 152.297 112.285 152.023 112.372C151.761 112.46 151.454 112.504 151.103 112.504C150.216 112.504 149.526 112.219 149.034 111.65C148.552 111.08 148.311 110.264 148.311 109.202V103.764H150.101V108.972C150.101 110.297 150.649 110.96 151.744 110.96C151.974 110.96 152.199 110.932 152.418 110.877C152.637 110.812 152.828 110.719 152.993 110.598C153.168 110.478 153.305 110.324 153.403 110.138C153.513 109.952 153.568 109.733 153.568 109.481V103.764H155.358V112.307H153.568V110.894ZM157.922 112.307V103.764H159.713V105.177H159.795C159.883 104.958 159.987 104.75 160.107 104.553C160.239 104.356 160.392 104.186 160.567 104.043C160.753 103.89 160.967 103.775 161.208 103.698C161.46 103.611 161.75 103.567 162.079 103.567C162.659 103.567 163.174 103.709 163.623 103.994C164.072 104.279 164.4 104.717 164.608 105.308H164.658C164.811 104.827 165.107 104.416 165.545 104.076C165.983 103.737 166.547 103.567 167.237 103.567C168.091 103.567 168.754 103.857 169.225 104.438C169.696 105.007 169.931 105.823 169.931 106.885V112.307H168.14V107.099C168.14 106.442 168.014 105.949 167.763 105.621C167.511 105.281 167.111 105.111 166.563 105.111C166.333 105.111 166.114 105.144 165.906 105.21C165.698 105.265 165.512 105.352 165.348 105.473C165.194 105.593 165.068 105.746 164.97 105.933C164.871 106.119 164.822 106.332 164.822 106.573V112.307H163.031V107.099C163.031 105.774 162.511 105.111 161.471 105.111C161.252 105.111 161.033 105.144 160.814 105.21C160.605 105.265 160.419 105.352 160.255 105.473C160.091 105.593 159.959 105.746 159.861 105.933C159.762 106.119 159.713 106.332 159.713 106.573V112.307H157.922Z" fill="#1D1D20"/>
<rect x="44.0703" y="143.439" width="270.516" height="57.2754" rx="13.2174" fill="white"/>
<rect x="59.4414" y="157.486" width="29.1798" height="29.1798" rx="14.5899" fill="#004DE5"/>
<path d="M78.6484 164.565C78.986 164.565 79.3101 164.7 79.5488 164.937C79.7874 165.175 79.9218 165.498 79.9219 165.834V176.007C79.9217 176.197 79.8785 176.384 79.7959 176.556C79.7133 176.727 79.5931 176.877 79.4443 176.996L74.6299 180.846C74.4605 180.981 74.2492 181.055 74.0322 181.055C73.8154 181.054 73.6048 180.981 73.4355 180.846L68.6211 176.996C68.4723 176.877 68.3521 176.727 68.2695 176.556C68.1869 176.384 68.1437 176.197 68.1436 176.007V165.834C68.1436 165.498 68.278 165.175 68.5166 164.937C68.7553 164.7 69.0794 164.565 69.417 164.565H78.6484ZM71.6953 167.119C71.4041 167.119 71.1249 167.236 70.9189 167.443C70.7129 167.651 70.5967 167.933 70.5967 168.227V174.66C70.5968 174.826 70.6337 174.991 70.7051 175.141C70.7764 175.29 70.8804 175.422 71.0088 175.525L72.71 176.902C72.7301 176.919 72.7545 176.929 72.7803 176.932C72.806 176.936 72.8321 176.931 72.8555 176.92C72.8787 176.909 72.8983 176.891 72.9121 176.869C72.9259 176.847 72.9336 176.821 72.9336 176.795V172.246C72.9336 172.209 72.948 172.174 72.9736 172.148C72.9993 172.122 73.034 172.107 73.0703 172.107H74.3066C74.5251 172.107 74.7351 172.195 74.8896 172.35C75.0441 172.506 75.1308 172.718 75.1309 172.938V176.795C75.131 176.821 75.1386 176.846 75.1523 176.868C75.166 176.89 75.1858 176.908 75.209 176.919C75.2323 176.93 75.2585 176.935 75.2842 176.932C75.3099 176.929 75.3343 176.919 75.3545 176.902L77.0547 175.525C77.1831 175.422 77.2871 175.29 77.3584 175.141C77.4298 174.991 77.4667 174.826 77.4668 174.66V172.662C77.4668 172.368 77.3515 172.086 77.1455 171.878C76.9394 171.67 76.6596 171.553 76.3682 171.553C76.6593 171.552 76.9379 171.435 77.1436 171.227C77.3492 171.02 77.4648 170.738 77.4648 170.444V168.227C77.4648 167.933 77.3496 167.651 77.1436 167.443C76.9375 167.235 76.6576 167.119 76.3662 167.119H71.6953ZM74.9922 168.227C75.0285 168.227 75.0641 168.242 75.0898 168.267C75.1156 168.293 75.1299 168.329 75.1299 168.366V170.167C75.1299 170.387 75.0431 170.599 74.8887 170.755C74.7341 170.911 74.5242 170.999 74.3057 170.999H73.0693C73.0329 170.999 72.9984 170.984 72.9727 170.958C72.9469 170.932 72.9317 170.897 72.9316 170.86V168.366C72.9316 168.329 72.9469 168.293 72.9727 168.267C72.9984 168.242 73.0331 168.227 73.0693 168.227H74.9922Z" fill="#FDFEFF"/>
<path d="M265.031 184.479V183.715C264.558 183.684 264.158 183.569 263.829 183.37C263.505 183.165 263.229 182.91 262.999 182.606L263.549 182.112C263.748 182.379 263.965 182.593 264.201 182.755C264.444 182.91 264.723 183.01 265.04 183.053V180.658C264.4 180.515 263.931 180.307 263.633 180.034C263.341 179.754 263.195 179.372 263.195 178.888C263.195 178.639 263.238 178.419 263.325 178.226C263.418 178.027 263.546 177.856 263.707 177.713C263.869 177.571 264.061 177.459 264.285 177.378C264.509 177.291 264.757 177.235 265.031 177.21V176.446H265.608V177.201C266.031 177.238 266.394 177.347 266.699 177.527C267.009 177.701 267.277 177.943 267.5 178.254L266.932 178.683C266.776 178.465 266.59 178.288 266.373 178.151C266.155 178.009 265.897 177.915 265.599 177.872V180.052L265.683 180.071C266.329 180.214 266.798 180.425 267.09 180.705C267.388 180.978 267.537 181.36 267.537 181.851C267.537 182.385 267.363 182.817 267.016 183.146C266.674 183.469 266.205 183.659 265.608 183.715V184.479H265.031ZM266.801 181.898C266.801 181.581 266.708 181.339 266.522 181.171C266.342 181.003 266.034 180.866 265.599 180.761V183.053C265.972 183.003 266.264 182.879 266.475 182.68C266.693 182.475 266.801 182.214 266.801 181.898ZM263.931 178.832C263.931 179.149 264.021 179.388 264.201 179.549C264.388 179.705 264.667 179.832 265.04 179.931V177.872C264.704 177.915 264.434 178.018 264.229 178.179C264.03 178.341 263.931 178.558 263.931 178.832ZM273.051 183.715H268.783V182.913L270.908 180.956C271.212 180.677 271.467 180.382 271.672 180.071C271.877 179.754 271.979 179.437 271.979 179.121V179.009C271.979 178.648 271.88 178.356 271.681 178.133C271.482 177.909 271.181 177.797 270.777 177.797C270.578 177.797 270.404 177.825 270.255 177.881C270.106 177.937 269.976 178.015 269.864 178.114C269.758 178.214 269.668 178.332 269.594 178.468C269.525 178.599 269.469 178.742 269.426 178.897L268.727 178.627C268.789 178.434 268.873 178.248 268.979 178.068C269.091 177.881 269.227 177.717 269.389 177.574C269.556 177.431 269.755 177.316 269.985 177.229C270.221 177.142 270.498 177.098 270.815 177.098C271.131 177.098 271.414 177.145 271.663 177.238C271.911 177.331 272.119 177.462 272.287 177.63C272.455 177.797 272.582 177.996 272.669 178.226C272.762 178.456 272.809 178.711 272.809 178.99C272.809 179.245 272.771 179.481 272.697 179.698C272.629 179.916 272.532 180.124 272.408 180.323C272.284 180.515 272.132 180.705 271.951 180.891C271.777 181.078 271.588 181.264 271.383 181.45L269.631 183.025H273.051V183.715ZM278.639 183.715H274.371V182.913L276.495 180.956C276.8 180.677 277.055 180.382 277.26 180.071C277.465 179.754 277.567 179.437 277.567 179.121V179.009C277.567 178.648 277.468 178.356 277.269 178.133C277.07 177.909 276.769 177.797 276.365 177.797C276.166 177.797 275.992 177.825 275.843 177.881C275.694 177.937 275.564 178.015 275.452 178.114C275.346 178.214 275.256 178.332 275.181 178.468C275.113 178.599 275.057 178.742 275.014 178.897L274.315 178.627C274.377 178.434 274.461 178.248 274.566 178.068C274.678 177.881 274.815 177.717 274.976 177.574C275.144 177.431 275.343 177.316 275.573 177.229C275.809 177.142 276.085 177.098 276.402 177.098C276.719 177.098 277.002 177.145 277.25 177.238C277.499 177.331 277.707 177.462 277.875 177.63C278.042 177.797 278.17 177.996 278.257 178.226C278.35 178.456 278.397 178.711 278.397 178.99C278.397 179.245 278.359 179.481 278.285 179.698C278.216 179.916 278.12 180.124 277.996 180.323C277.872 180.515 277.719 180.705 277.539 180.891C277.365 181.078 277.176 181.264 276.971 181.45L275.219 183.025H278.639V183.715ZM280.08 183.715V183.025H281.897V177.788H281.832L280.191 179.316L279.735 178.822L281.459 177.21H282.68V183.025H284.357V183.715H280.08ZM286.115 183.827C285.916 183.827 285.77 183.777 285.677 183.678C285.59 183.578 285.546 183.448 285.546 183.286V183.165C285.546 183.003 285.59 182.873 285.677 182.774C285.77 182.674 285.916 182.625 286.115 182.625C286.313 182.625 286.456 182.674 286.543 182.774C286.636 182.873 286.683 183.003 286.683 183.165V183.286C286.683 183.448 286.636 183.578 286.543 183.678C286.456 183.777 286.313 183.827 286.115 183.827ZM290.881 183.715V182.438H287.74V181.749L290.462 177.21H291.626V181.786H292.568V182.438H291.626V183.715H290.881ZM288.477 181.786H290.881V177.816H290.834L288.477 181.786ZM294.605 183.715L297.093 177.881H294.316V179.093H293.617V177.21H297.885V177.9L295.444 183.715H294.605Z" fill="#606367"/>
<path d="M243.152 168.91V167.62H245.841V160.459H245.731L243.509 162.832L242.562 161.982L245.004 159.334H247.364V167.62H249.696V168.91H243.152ZM257.141 160.678H252.888L252.641 164.067H252.737C252.847 163.875 252.961 163.706 253.08 163.559C253.199 163.404 253.336 163.271 253.491 163.161C253.647 163.052 253.825 162.969 254.026 162.914C254.228 162.85 254.466 162.818 254.74 162.818C255.152 162.818 255.531 162.887 255.879 163.024C256.235 163.161 256.542 163.358 256.798 163.614C257.063 163.87 257.269 164.186 257.415 164.561C257.562 164.927 257.635 165.343 257.635 165.809C257.635 166.285 257.557 166.724 257.402 167.127C257.255 167.529 257.036 167.877 256.743 168.169C256.45 168.453 256.089 168.677 255.659 168.842C255.238 168.997 254.758 169.075 254.219 169.075C253.789 169.075 253.409 169.024 253.08 168.924C252.75 168.832 252.458 168.709 252.202 168.553C251.955 168.389 251.735 168.206 251.543 168.005C251.36 167.794 251.196 167.579 251.049 167.36L252.174 166.468C252.293 166.66 252.417 166.834 252.545 166.989C252.673 167.145 252.819 167.282 252.984 167.401C253.148 167.52 253.331 167.611 253.533 167.675C253.743 167.739 253.981 167.771 254.246 167.771C254.813 167.771 255.248 167.616 255.549 167.305C255.86 166.994 256.016 166.564 256.016 166.015V165.851C256.016 165.302 255.86 164.872 255.549 164.561C255.248 164.25 254.813 164.094 254.246 164.094C253.834 164.094 253.505 164.172 253.258 164.328C253.011 164.483 252.801 164.657 252.627 164.849L251.351 164.671L251.708 159.334H257.141V160.678ZM262.514 169.075C261.919 169.075 261.403 168.965 260.963 168.746C260.524 168.517 260.163 168.192 259.88 167.771C259.596 167.351 259.386 166.834 259.248 166.221C259.111 165.608 259.043 164.908 259.043 164.122C259.043 163.344 259.111 162.649 259.248 162.036C259.386 161.414 259.596 160.893 259.88 160.472C260.163 160.052 260.524 159.731 260.963 159.512C261.403 159.283 261.919 159.169 262.514 159.169C263.703 159.169 264.576 159.603 265.134 160.472C265.701 161.341 265.985 162.558 265.985 164.122C265.985 165.686 265.701 166.902 265.134 167.771C264.576 168.64 263.703 169.075 262.514 169.075ZM262.514 167.758C262.843 167.758 263.122 167.694 263.351 167.566C263.589 167.428 263.781 167.236 263.927 166.989C264.073 166.742 264.179 166.45 264.243 166.111C264.307 165.764 264.339 165.38 264.339 164.959V163.285C264.339 162.864 264.307 162.485 264.243 162.146C264.179 161.799 264.073 161.501 263.927 161.254C263.781 161.007 263.589 160.82 263.351 160.692C263.122 160.555 262.843 160.486 262.514 160.486C262.185 160.486 261.901 160.555 261.663 160.692C261.435 160.82 261.247 161.007 261.101 161.254C260.954 161.501 260.849 161.799 260.785 162.146C260.721 162.485 260.689 162.864 260.689 163.285V164.959C260.689 165.38 260.721 165.764 260.785 166.111C260.849 166.45 260.954 166.742 261.101 166.989C261.247 167.236 261.435 167.428 261.663 167.566C261.901 167.694 262.185 167.758 262.514 167.758ZM272.597 168.91H271.047V159.334H275.177C276.036 159.334 276.713 159.594 277.207 160.116C277.701 160.628 277.948 161.328 277.948 162.215C277.948 162.901 277.788 163.472 277.468 163.93C277.157 164.378 276.695 164.694 276.082 164.876L278.154 168.91H276.425L274.504 165.041H272.597V168.91ZM275.067 163.738C275.46 163.738 275.767 163.637 275.986 163.436C276.206 163.225 276.315 162.928 276.315 162.544V161.885C276.315 161.501 276.206 161.209 275.986 161.007C275.767 160.797 275.46 160.692 275.067 160.692H272.597V163.738H275.067ZM283.608 169.075C282.986 169.075 282.419 168.97 281.906 168.759C281.403 168.54 280.969 168.224 280.603 167.813C280.246 167.392 279.967 166.875 279.766 166.262C279.574 165.64 279.478 164.927 279.478 164.122C279.478 163.317 279.574 162.608 279.766 161.995C279.967 161.373 280.246 160.856 280.603 160.445C280.969 160.024 281.403 159.709 281.906 159.498C282.419 159.279 282.986 159.169 283.608 159.169C284.23 159.169 284.792 159.279 285.295 159.498C285.807 159.709 286.242 160.024 286.599 160.445C286.965 160.856 287.244 161.373 287.436 161.995C287.637 162.608 287.737 163.317 287.737 164.122C287.737 164.927 287.637 165.64 287.436 166.262C287.244 166.875 286.965 167.392 286.599 167.813C286.242 168.224 285.807 168.54 285.295 168.759C284.792 168.97 284.23 169.075 283.608 169.075ZM283.608 167.689C283.974 167.689 284.307 167.625 284.609 167.497C284.92 167.369 285.181 167.186 285.391 166.948C285.611 166.701 285.78 166.404 285.899 166.056C286.018 165.709 286.077 165.315 286.077 164.876V163.367C286.077 162.928 286.018 162.535 285.899 162.187C285.78 161.84 285.611 161.547 285.391 161.309C285.181 161.062 284.92 160.875 284.609 160.747C284.307 160.619 283.974 160.555 283.608 160.555C283.233 160.555 282.894 160.619 282.592 160.747C282.291 160.875 282.03 161.062 281.81 161.309C281.6 161.547 281.435 161.84 281.316 162.187C281.198 162.535 281.138 162.928 281.138 163.367V164.876C281.138 165.315 281.198 165.709 281.316 166.056C281.435 166.404 281.6 166.701 281.81 166.948C282.03 167.186 282.291 167.369 282.592 167.497C282.894 167.625 283.233 167.689 283.608 167.689ZM292.25 163.614L291.194 161.584H291.153V168.91H289.671V159.334H291.4L294.528 164.629L295.584 166.66H295.625V159.334H297.107V168.91H295.378L292.25 163.614Z" fill="#1D1D20"/>
<path d="M100.648 177.582H98.7917V166.115H103.736C104.766 166.115 105.576 166.428 106.168 167.052C106.759 167.665 107.055 168.503 107.055 169.565C107.055 170.387 106.863 171.071 106.48 171.619C106.108 172.155 105.554 172.533 104.821 172.752L107.301 177.582H105.231L102.932 172.949H100.648V177.582ZM103.605 171.389C104.076 171.389 104.443 171.268 104.706 171.027C104.969 170.775 105.1 170.42 105.1 169.96V169.171C105.1 168.711 104.969 168.361 104.706 168.12C104.443 167.868 104.076 167.742 103.605 167.742H100.648V171.389H103.605ZM112.536 177.779C111.944 177.779 111.402 177.675 110.909 177.467C110.427 177.259 110.017 176.963 109.677 176.58C109.338 176.186 109.075 175.715 108.889 175.167C108.702 174.609 108.609 173.99 108.609 173.311C108.609 172.632 108.702 172.018 108.889 171.471C109.075 170.912 109.338 170.441 109.677 170.058C110.017 169.664 110.427 169.363 110.909 169.155C111.402 168.946 111.944 168.842 112.536 168.842C113.127 168.842 113.664 168.946 114.146 169.155C114.638 169.363 115.055 169.664 115.394 170.058C115.734 170.441 115.996 170.912 116.183 171.471C116.369 172.018 116.462 172.632 116.462 173.311C116.462 173.99 116.369 174.609 116.183 175.167C115.996 175.715 115.734 176.186 115.394 176.58C115.055 176.963 114.638 177.259 114.146 177.467C113.664 177.675 113.127 177.779 112.536 177.779ZM112.536 176.301C113.149 176.301 113.642 176.114 114.014 175.742C114.386 175.359 114.573 174.789 114.573 174.034V172.588C114.573 171.832 114.386 171.268 114.014 170.896C113.642 170.513 113.149 170.321 112.536 170.321C111.922 170.321 111.429 170.513 111.057 170.896C110.685 171.268 110.499 171.832 110.499 172.588V174.034C110.499 174.789 110.685 175.359 111.057 175.742C111.429 176.114 111.922 176.301 112.536 176.301ZM118.457 177.582V169.04H120.248V170.452H120.33C120.516 169.992 120.795 169.609 121.168 169.302C121.551 168.996 122.071 168.842 122.728 168.842C123.604 168.842 124.283 169.133 124.765 169.713C125.258 170.283 125.505 171.099 125.505 172.161V177.582H123.714V172.391C123.714 171.055 123.177 170.387 122.104 170.387C121.874 170.387 121.644 170.42 121.414 170.485C121.195 170.54 120.998 170.628 120.823 170.748C120.647 170.869 120.505 171.022 120.396 171.208C120.297 171.394 120.248 171.613 120.248 171.865V177.582H118.457ZM128.89 167.512C128.518 167.512 128.244 167.424 128.069 167.249C127.904 167.074 127.822 166.849 127.822 166.575V166.296C127.822 166.022 127.904 165.798 128.069 165.623C128.244 165.447 128.518 165.36 128.89 165.36C129.262 165.36 129.531 165.447 129.695 165.623C129.859 165.798 129.941 166.022 129.941 166.296V166.575C129.941 166.849 129.859 167.074 129.695 167.249C129.531 167.424 129.262 167.512 128.89 167.512ZM127.986 169.04H129.777V177.582H127.986V169.04ZM132.334 177.582V169.04H134.125V170.452H134.207C134.393 169.992 134.672 169.609 135.045 169.302C135.428 168.996 135.948 168.842 136.605 168.842C137.481 168.842 138.16 169.133 138.642 169.713C139.135 170.283 139.382 171.099 139.382 172.161V177.582H137.591V172.391C137.591 171.055 137.054 170.387 135.981 170.387C135.751 170.387 135.521 170.42 135.291 170.485C135.072 170.54 134.875 170.628 134.7 170.748C134.524 170.869 134.382 171.022 134.273 171.208C134.174 171.394 134.125 171.613 134.125 171.865V177.582H132.334Z" fill="#1D1D20"/>
<rect x="44.0703" y="208.715" width="270.516" height="57.2754" rx="13.2174" fill="white"/>
<rect x="59.4414" y="222.762" width="29.1798" height="29.1798" rx="14.5899" fill="#8A46FF"/>
<path d="M78.1272 240.404L82.1334 238.093C82.3458 237.97 82.4771 237.743 82.4771 237.499V232.878C82.4771 232.633 82.3458 232.406 82.1334 232.283L78.1272 229.973C77.9148 229.85 77.6511 229.851 77.44 229.973L73.4337 232.283C73.2213 232.406 73.0901 232.633 73.0901 232.878V241.135L70.2804 242.754L67.4707 241.135V237.895L70.2804 236.276L72.1333 237.345V235.171L70.624 234.3C70.5202 234.241 70.4009 234.209 70.2804 234.209C70.1599 234.209 70.0406 234.241 69.9368 234.3L65.9305 236.611C65.7182 236.734 65.5869 236.961 65.5869 237.205V241.826C65.5869 242.071 65.7182 242.298 65.9305 242.421L69.9368 244.731C70.1492 244.853 70.4117 244.853 70.624 244.731L74.6303 242.421C74.8427 242.298 74.9739 242.071 74.9739 241.826V233.568L75.024 233.539L77.7824 231.948L80.5921 233.568V236.807L77.7824 238.427L75.9319 237.36V239.534L77.4388 240.402C77.6511 240.524 77.9148 240.524 78.126 240.402L78.1272 240.404Z" fill="white"/>
<path d="M270.618 249.754V248.99C270.146 248.959 269.746 248.844 269.416 248.645C269.093 248.44 268.817 248.186 268.587 247.881L269.137 247.387C269.335 247.655 269.553 247.869 269.789 248.03C270.031 248.186 270.311 248.285 270.628 248.329V245.934C269.988 245.791 269.519 245.583 269.221 245.309C268.929 245.03 268.783 244.648 268.783 244.163C268.783 243.915 268.826 243.694 268.913 243.501C269.006 243.303 269.134 243.132 269.295 242.989C269.457 242.846 269.649 242.734 269.873 242.653C270.097 242.566 270.345 242.51 270.618 242.486V241.721H271.196V242.476C271.619 242.514 271.982 242.622 272.286 242.802C272.597 242.976 272.864 243.219 273.088 243.529L272.519 243.958C272.364 243.741 272.178 243.563 271.96 243.427C271.743 243.284 271.485 243.191 271.187 243.147V245.328L271.271 245.347C271.917 245.489 272.386 245.701 272.678 245.98C272.976 246.254 273.125 246.636 273.125 247.126C273.125 247.661 272.951 248.093 272.603 248.422C272.262 248.745 271.793 248.934 271.196 248.99V249.754H270.618ZM272.389 247.173C272.389 246.856 272.296 246.614 272.109 246.446C271.929 246.278 271.622 246.142 271.187 246.036V248.329C271.56 248.279 271.852 248.155 272.063 247.956C272.28 247.751 272.389 247.49 272.389 247.173ZM269.519 244.107C269.519 244.424 269.609 244.663 269.789 244.825C269.975 244.98 270.255 245.107 270.628 245.207V243.147C270.292 243.191 270.022 243.293 269.817 243.455C269.618 243.616 269.519 243.834 269.519 244.107ZM276.104 245.244C276.545 245.244 276.874 245.145 277.092 244.946C277.316 244.741 277.427 244.48 277.427 244.163V244.098C277.427 243.756 277.319 243.501 277.101 243.334C276.89 243.16 276.61 243.073 276.262 243.073C275.927 243.073 275.654 243.147 275.442 243.296C275.231 243.439 275.057 243.635 274.921 243.883L274.343 243.436C274.424 243.306 274.52 243.178 274.632 243.054C274.75 242.924 274.886 242.809 275.042 242.709C275.197 242.61 275.377 242.529 275.582 242.467C275.787 242.405 276.02 242.374 276.281 242.374C276.554 242.374 276.812 242.411 277.055 242.486C277.297 242.554 277.505 242.66 277.679 242.802C277.859 242.939 277.999 243.11 278.098 243.315C278.204 243.52 278.257 243.753 278.257 244.014C278.257 244.225 278.223 244.415 278.154 244.582C278.092 244.75 278.005 244.896 277.893 245.02C277.781 245.145 277.648 245.25 277.493 245.337C277.343 245.424 277.182 245.489 277.008 245.533V245.57C277.182 245.607 277.35 245.67 277.511 245.757C277.679 245.837 277.825 245.946 277.949 246.083C278.08 246.213 278.182 246.375 278.257 246.567C278.337 246.754 278.378 246.968 278.378 247.21C278.378 247.49 278.325 247.748 278.219 247.984C278.114 248.214 277.965 248.412 277.772 248.58C277.58 248.742 277.347 248.869 277.073 248.962C276.8 249.055 276.499 249.102 276.169 249.102C275.89 249.102 275.641 249.071 275.424 249.009C275.206 248.947 275.014 248.863 274.846 248.757C274.678 248.652 274.529 248.534 274.399 248.403C274.274 248.273 274.163 248.136 274.063 247.993L274.65 247.546C274.731 247.676 274.818 247.794 274.911 247.9C275.011 248.006 275.119 248.096 275.237 248.17C275.355 248.245 275.489 248.304 275.638 248.347C275.787 248.385 275.961 248.403 276.16 248.403C276.62 248.403 276.968 248.301 277.204 248.096C277.44 247.884 277.558 247.586 277.558 247.201V247.126C277.558 246.741 277.44 246.446 277.204 246.241C276.968 246.03 276.62 245.924 276.16 245.924H275.396V245.244H276.104ZM284.227 244.871C284.227 245.356 284.155 245.812 284.012 246.241C283.869 246.664 283.683 247.052 283.453 247.406C283.229 247.754 282.981 248.065 282.708 248.338C282.434 248.605 282.167 248.822 281.906 248.99H280.9C281.248 248.736 281.558 248.487 281.832 248.245C282.105 248.002 282.344 247.751 282.549 247.49C282.754 247.223 282.928 246.94 283.071 246.642C283.214 246.337 283.329 245.996 283.416 245.617L283.369 245.598C283.214 245.865 283.012 246.089 282.763 246.269C282.521 246.443 282.201 246.53 281.804 246.53C281.524 246.53 281.266 246.483 281.03 246.39C280.794 246.297 280.592 246.163 280.424 245.99C280.257 245.816 280.123 245.607 280.024 245.365C279.93 245.117 279.884 244.837 279.884 244.526C279.884 244.21 279.934 243.921 280.033 243.66C280.139 243.393 280.285 243.166 280.471 242.98C280.664 242.787 280.89 242.638 281.151 242.532C281.418 242.427 281.717 242.374 282.046 242.374C282.381 242.374 282.683 242.433 282.95 242.551C283.223 242.663 283.453 242.827 283.639 243.045C283.832 243.256 283.978 243.517 284.077 243.828C284.177 244.138 284.227 244.486 284.227 244.871ZM282.055 245.868C282.484 245.868 282.816 245.75 283.052 245.514C283.295 245.278 283.416 244.94 283.416 244.498V244.424C283.416 243.983 283.295 243.644 283.052 243.408C282.816 243.172 282.484 243.054 282.055 243.054C281.627 243.054 281.291 243.172 281.049 243.408C280.813 243.644 280.695 243.983 280.695 244.424V244.498C280.695 244.94 280.813 245.278 281.049 245.514C281.291 245.75 281.627 245.868 282.055 245.868ZM286.115 249.102C285.916 249.102 285.77 249.052 285.677 248.953C285.59 248.854 285.546 248.723 285.546 248.562V248.44C285.546 248.279 285.59 248.148 285.677 248.049C285.77 247.95 285.916 247.9 286.115 247.9C286.313 247.9 286.456 247.95 286.543 248.049C286.636 248.148 286.683 248.279 286.683 248.44V248.562C286.683 248.723 286.636 248.854 286.543 248.953C286.456 249.052 286.313 249.102 286.115 249.102ZM292.027 243.175H289.176L288.989 245.654H289.054C289.21 245.437 289.384 245.263 289.576 245.132C289.775 245.002 290.045 244.936 290.387 244.936C290.667 244.936 290.924 244.983 291.16 245.076C291.397 245.169 291.602 245.303 291.776 245.477C291.949 245.645 292.083 245.853 292.176 246.101C292.276 246.35 292.325 246.633 292.325 246.949C292.325 247.266 292.276 247.558 292.176 247.825C292.077 248.086 291.931 248.313 291.738 248.506C291.552 248.692 291.322 248.838 291.049 248.944C290.782 249.049 290.477 249.102 290.135 249.102C289.862 249.102 289.62 249.071 289.409 249.009C289.204 248.947 289.02 248.863 288.859 248.757C288.697 248.652 288.554 248.534 288.43 248.403C288.312 248.273 288.203 248.136 288.104 247.993L288.691 247.546C288.772 247.676 288.856 247.794 288.943 247.9C289.036 248.006 289.135 248.096 289.241 248.17C289.353 248.245 289.48 248.304 289.623 248.347C289.766 248.385 289.937 248.403 290.135 248.403C290.583 248.403 290.921 248.285 291.151 248.049C291.381 247.813 291.496 247.481 291.496 247.052V246.959C291.496 246.53 291.381 246.198 291.151 245.962C290.921 245.725 290.583 245.607 290.135 245.607C289.837 245.607 289.601 245.663 289.427 245.775C289.259 245.881 289.107 246.008 288.971 246.157L288.309 246.064L288.542 242.486H292.027V243.175ZM297.615 243.175H294.763L294.577 245.654H294.642C294.797 245.437 294.971 245.263 295.164 245.132C295.363 245.002 295.633 244.936 295.975 244.936C296.254 244.936 296.512 244.983 296.748 245.076C296.984 245.169 297.189 245.303 297.363 245.477C297.537 245.645 297.671 245.853 297.764 246.101C297.863 246.35 297.913 246.633 297.913 246.949C297.913 247.266 297.863 247.558 297.764 247.825C297.665 248.086 297.519 248.313 297.326 248.506C297.14 248.692 296.91 248.838 296.636 248.944C296.369 249.049 296.065 249.102 295.723 249.102C295.45 249.102 295.207 249.071 294.996 249.009C294.791 248.947 294.608 248.863 294.446 248.757C294.285 248.652 294.142 248.534 294.018 248.403C293.9 248.273 293.791 248.136 293.692 247.993L294.279 247.546C294.359 247.676 294.443 247.794 294.53 247.9C294.623 248.006 294.723 248.096 294.829 248.17C294.94 248.245 295.068 248.304 295.211 248.347C295.353 248.385 295.524 248.403 295.723 248.403C296.17 248.403 296.509 248.285 296.739 248.049C296.969 247.813 297.084 247.481 297.084 247.052V246.959C297.084 246.53 296.969 246.198 296.739 245.962C296.509 245.725 296.17 245.607 295.723 245.607C295.425 245.607 295.189 245.663 295.015 245.775C294.847 245.881 294.695 246.008 294.558 246.157L293.897 246.064L294.13 242.486H297.615V243.175Z" fill="#606367"/>
<path d="M229.753 234.186V232.896H232.442V225.734H232.332L230.11 228.108L229.163 227.257L231.605 224.609H233.965V232.896H236.297V234.186H229.753ZM240.888 234.35C240.294 234.35 239.777 234.24 239.338 234.021C238.899 233.792 238.537 233.468 238.254 233.047C237.97 232.626 237.76 232.109 237.623 231.496C237.486 230.884 237.417 230.184 237.417 229.397C237.417 228.62 237.486 227.925 237.623 227.312C237.76 226.69 237.97 226.168 238.254 225.748C238.537 225.327 238.899 225.007 239.338 224.787C239.777 224.559 240.294 224.444 240.888 224.444C242.077 224.444 242.951 224.879 243.509 225.748C244.076 226.617 244.359 227.833 244.359 229.397C244.359 230.961 244.076 232.178 243.509 233.047C242.951 233.916 242.077 234.35 240.888 234.35ZM240.888 233.033C241.217 233.033 241.496 232.969 241.725 232.841C241.963 232.704 242.155 232.512 242.301 232.265C242.448 232.018 242.553 231.725 242.617 231.387C242.681 231.039 242.713 230.655 242.713 230.234V228.56C242.713 228.14 242.681 227.76 242.617 227.422C242.553 227.074 242.448 226.777 242.301 226.53C242.155 226.283 241.963 226.095 241.725 225.967C241.496 225.83 241.217 225.761 240.888 225.761C240.559 225.761 240.275 225.83 240.038 225.967C239.809 226.095 239.621 226.283 239.475 226.53C239.329 226.777 239.223 227.074 239.159 227.422C239.095 227.76 239.063 228.14 239.063 228.56V230.234C239.063 230.655 239.095 231.039 239.159 231.387C239.223 231.725 239.329 232.018 239.475 232.265C239.621 232.512 239.809 232.704 240.038 232.841C240.275 232.969 240.559 233.033 240.888 233.033ZM249.115 234.35C248.52 234.35 248.004 234.24 247.564 234.021C247.125 233.792 246.764 233.468 246.481 233.047C246.197 232.626 245.987 232.109 245.849 231.496C245.712 230.884 245.644 230.184 245.644 229.397C245.644 228.62 245.712 227.925 245.849 227.312C245.987 226.69 246.197 226.168 246.481 225.748C246.764 225.327 247.125 225.007 247.564 224.787C248.004 224.559 248.52 224.444 249.115 224.444C250.304 224.444 251.177 224.879 251.735 225.748C252.302 226.617 252.586 227.833 252.586 229.397C252.586 230.961 252.302 232.178 251.735 233.047C251.177 233.916 250.304 234.35 249.115 234.35ZM249.115 233.033C249.444 233.033 249.723 232.969 249.952 232.841C250.19 232.704 250.382 232.512 250.528 232.265C250.674 232.018 250.78 231.725 250.844 231.387C250.908 231.039 250.94 230.655 250.94 230.234V228.56C250.94 228.14 250.908 227.76 250.844 227.422C250.78 227.074 250.674 226.777 250.528 226.53C250.382 226.283 250.19 226.095 249.952 225.967C249.723 225.83 249.444 225.761 249.115 225.761C248.786 225.761 248.502 225.83 248.264 225.967C248.036 226.095 247.848 226.283 247.702 226.53C247.555 226.777 247.45 227.074 247.386 227.422C247.322 227.76 247.29 228.14 247.29 228.56V230.234C247.29 230.655 247.322 231.039 247.386 231.387C247.45 231.725 247.555 232.018 247.702 232.265C247.848 232.512 248.036 232.704 248.264 232.841C248.502 232.969 248.786 233.033 249.115 233.033ZM264.974 226.859H264.906L264.151 228.409L262.052 232.237L259.953 228.409L259.198 226.859H259.13V234.186H257.648V224.609H259.486L262.052 229.48H262.134L264.7 224.609H266.456V234.186H264.974V226.859ZM274.804 234.186L273.94 231.592H270.359L269.522 234.186H267.944L271.21 224.609H273.158L276.423 234.186H274.804ZM272.184 226.036H272.115L270.729 230.262H273.556L272.184 226.036ZM280.562 225.981V234.186H279.012V225.981H276.158V224.609H283.416V225.981H280.562ZM284.435 234.186V232.923H285.739V225.871H284.435V224.609H288.606V225.871H287.289V232.923H288.606V234.186H284.435ZM294.149 234.35C292.896 234.35 291.913 233.929 291.199 233.088C290.486 232.237 290.129 231.007 290.129 229.397C290.129 228.592 290.221 227.883 290.404 227.271C290.587 226.658 290.852 226.141 291.199 225.72C291.547 225.3 291.968 224.984 292.462 224.774C292.965 224.554 293.527 224.444 294.149 224.444C294.982 224.444 295.677 224.627 296.235 224.993C296.802 225.359 297.245 225.899 297.566 226.612L296.262 227.326C296.098 226.868 295.841 226.507 295.494 226.242C295.155 225.967 294.707 225.83 294.149 225.83C293.408 225.83 292.828 226.082 292.407 226.585C291.986 227.088 291.776 227.783 291.776 228.67V230.124C291.776 231.012 291.986 231.707 292.407 232.21C292.828 232.713 293.408 232.964 294.149 232.964C294.726 232.964 295.192 232.818 295.549 232.525C295.915 232.224 296.184 231.839 296.358 231.373L297.607 232.128C297.287 232.823 296.838 233.367 296.262 233.76C295.686 234.154 294.982 234.35 294.149 234.35Z" fill="#1D1D20"/>
<path d="M98.7917 242.857V231.391H103.72C104.782 231.391 105.604 231.703 106.184 232.327C106.765 232.951 107.055 233.789 107.055 234.841C107.055 235.892 106.765 236.73 106.184 237.354C105.604 237.978 104.782 238.29 103.72 238.29H100.648V242.857H98.7917ZM100.648 236.664H103.605C104.076 236.664 104.443 236.544 104.706 236.303C104.969 236.051 105.1 235.695 105.1 235.235V234.446C105.1 233.986 104.969 233.636 104.706 233.395C104.443 233.143 104.076 233.017 103.605 233.017H100.648V236.664ZM111.99 243.055C111.399 243.055 110.857 242.951 110.364 242.742C109.882 242.534 109.471 242.239 109.132 241.855C108.792 241.461 108.529 240.99 108.343 240.443C108.157 239.884 108.064 239.265 108.064 238.586C108.064 237.907 108.157 237.294 108.343 236.746C108.529 236.188 108.792 235.717 109.132 235.333C109.471 234.939 109.882 234.638 110.364 234.43C110.857 234.222 111.399 234.118 111.99 234.118C112.582 234.118 113.118 234.222 113.6 234.43C114.093 234.638 114.509 234.939 114.849 235.333C115.188 235.717 115.451 236.188 115.637 236.746C115.823 237.294 115.916 237.907 115.916 238.586C115.916 239.265 115.823 239.884 115.637 240.443C115.451 240.99 115.188 241.461 114.849 241.855C114.509 242.239 114.093 242.534 113.6 242.742C113.118 242.951 112.582 243.055 111.99 243.055ZM111.99 241.576C112.603 241.576 113.096 241.39 113.469 241.018C113.841 240.634 114.027 240.065 114.027 239.309V237.863C114.027 237.108 113.841 236.544 113.469 236.171C113.096 235.788 112.603 235.596 111.99 235.596C111.377 235.596 110.884 235.788 110.512 236.171C110.139 236.544 109.953 237.108 109.953 237.863V239.309C109.953 240.065 110.139 240.634 110.512 241.018C110.884 241.39 111.377 241.576 111.99 241.576ZM119.735 242.857C119.122 242.857 118.662 242.704 118.355 242.397C118.059 242.08 117.912 241.642 117.912 241.083V230.701H119.702V241.395H120.885V242.857H119.735ZM127.708 234.315H129.433L125.835 244.549C125.737 244.834 125.622 245.075 125.49 245.272C125.37 245.48 125.222 245.645 125.047 245.765C124.883 245.897 124.68 245.99 124.439 246.044C124.198 246.11 123.913 246.143 123.585 246.143H122.55V244.681H123.996L124.488 243.235L121.384 234.315H123.174L124.883 239.342L125.375 241.198H125.458L126 239.342L127.708 234.315ZM137.964 243.662C137.964 244.549 137.625 245.218 136.946 245.667C136.267 246.116 135.16 246.34 133.627 246.34C132.926 246.34 132.329 246.291 131.837 246.192C131.355 246.105 130.955 245.973 130.637 245.798C130.331 245.623 130.106 245.409 129.964 245.157C129.821 244.905 129.75 244.615 129.75 244.287C129.75 243.816 129.876 243.449 130.128 243.186C130.391 242.923 130.752 242.742 131.212 242.644V242.463C130.566 242.255 130.243 241.817 130.243 241.149C130.243 240.711 130.391 240.377 130.687 240.147C130.982 239.906 131.338 239.736 131.754 239.638V239.572C131.251 239.331 130.862 238.997 130.588 238.57C130.325 238.132 130.194 237.622 130.194 237.042C130.194 236.166 130.484 235.459 131.064 234.923C131.656 234.386 132.499 234.118 133.594 234.118C134.197 234.118 134.711 234.205 135.139 234.381V234.151C135.139 233.767 135.226 233.472 135.401 233.264C135.588 233.045 135.872 232.935 136.256 232.935H137.57V234.381H135.829V234.726C136.212 234.978 136.508 235.306 136.716 235.711C136.924 236.106 137.028 236.549 137.028 237.042C137.028 237.907 136.732 238.608 136.141 239.145C135.549 239.67 134.706 239.933 133.611 239.933C133.195 239.933 132.822 239.889 132.494 239.802C132.275 239.879 132.083 239.988 131.919 240.13C131.754 240.262 131.672 240.437 131.672 240.656C131.672 240.886 131.776 241.05 131.984 241.149C132.193 241.247 132.488 241.297 132.872 241.297H134.974C136.026 241.297 136.787 241.51 137.258 241.937C137.729 242.354 137.964 242.929 137.964 243.662ZM136.289 243.86C136.289 243.564 136.174 243.328 135.944 243.153C135.725 242.978 135.319 242.89 134.728 242.89H131.837C131.442 243.12 131.245 243.449 131.245 243.876C131.245 244.226 131.382 244.506 131.656 244.714C131.941 244.933 132.417 245.042 133.085 245.042H134.202C135.593 245.042 136.289 244.648 136.289 243.86ZM133.611 238.635C134.136 238.635 134.542 238.52 134.826 238.29C135.122 238.05 135.27 237.683 135.27 237.19V236.861C135.27 236.368 135.122 236.007 134.826 235.777C134.542 235.536 134.136 235.416 133.611 235.416C133.085 235.416 132.674 235.536 132.379 235.777C132.094 236.007 131.952 236.368 131.952 236.861V237.19C131.952 237.683 132.094 238.05 132.379 238.29C132.674 238.52 133.085 238.635 133.611 238.635ZM142.552 243.055C141.96 243.055 141.418 242.951 140.925 242.742C140.443 242.534 140.033 242.239 139.693 241.855C139.354 241.461 139.091 240.99 138.905 240.443C138.718 239.884 138.625 239.265 138.625 238.586C138.625 237.907 138.718 237.294 138.905 236.746C139.091 236.188 139.354 235.717 139.693 235.333C140.033 234.939 140.443 234.638 140.925 234.43C141.418 234.222 141.96 234.118 142.552 234.118C143.143 234.118 143.68 234.222 144.162 234.43C144.654 234.638 145.071 234.939 145.41 235.333C145.75 235.717 146.012 236.188 146.199 236.746C146.385 237.294 146.478 237.907 146.478 238.586C146.478 239.265 146.385 239.884 146.199 240.443C146.012 240.99 145.75 241.461 145.41 241.855C145.071 242.239 144.654 242.534 144.162 242.742C143.68 242.951 143.143 243.055 142.552 243.055ZM142.552 241.576C143.165 241.576 143.658 241.39 144.03 241.018C144.402 240.634 144.589 240.065 144.589 239.309V237.863C144.589 237.108 144.402 236.544 144.03 236.171C143.658 235.788 143.165 235.596 142.552 235.596C141.938 235.596 141.445 235.788 141.073 236.171C140.701 236.544 140.515 237.108 140.515 237.863V239.309C140.515 240.065 140.701 240.634 141.073 241.018C141.445 241.39 141.938 241.576 142.552 241.576ZM148.473 242.857V234.315H150.264V235.728H150.346C150.532 235.268 150.811 234.884 151.184 234.578C151.567 234.271 152.087 234.118 152.744 234.118C153.62 234.118 154.299 234.408 154.781 234.989C155.274 235.558 155.521 236.374 155.521 237.436V242.857H153.73V237.666C153.73 236.33 153.193 235.662 152.12 235.662C151.89 235.662 151.66 235.695 151.43 235.761C151.211 235.815 151.014 235.903 150.839 236.023C150.663 236.144 150.521 236.297 150.412 236.483C150.313 236.67 150.264 236.889 150.264 237.141V242.857H148.473Z" fill="#1D1D20"/>
</g>
</g>
<defs>
<linearGradient id="paint0_linear_3161_51763" x1="179.773" y1="137.643" x2="179.773" y2="306.259" gradientUnits="userSpaceOnUse">
<stop stop-color="#E9EBEE"/>
<stop offset="0.331731" stop-color="#E9EBEE"/>
</linearGradient>
<clipPath id="clip0_3161_51763">
<rect width="360" height="257" fill="white"/>
</clipPath>
<clipPath id="clip1_3161_51763">
<rect width="360" height="257" fill="white"/>
</clipPath>
</defs>
</svg>
