<svg width="721" height="276" viewBox="0 0 721 276" fill="none" xmlns="http://www.w3.org/2000/svg">
<g clip-path="url(#clip0_3939_112869)">
<rect x="0.00976562" y="0.726562" width="720.344" height="275.271" rx="18" fill="#FBFBFB"/>
<path d="M207.955 86.5891C207.955 65.6631 224.919 48.6992 245.845 48.6992H474.065C494.991 48.6992 511.955 65.6631 511.955 86.5891V437.291H207.955V86.5891Z" fill="#F3F5F7"/>
<path fill-rule="evenodd" clip-rule="evenodd" d="M474.065 53.105H245.845C227.352 53.105 212.361 68.0963 212.361 86.5891V432.885H507.549V86.5891C507.549 68.0963 492.558 53.105 474.065 53.105ZM245.845 48.6992C224.919 48.6992 207.955 65.6631 207.955 86.5891V437.291H511.955V86.5891C511.955 65.6631 494.991 48.6992 474.065 48.6992H245.845Z" fill="url(#paint0_linear_3939_112869)"/>
<rect x="319.42" y="62.7969" width="80.1855" height="22.029" rx="11.0145" fill="#FBFBFB"/>
<rect x="224.252" y="97.1641" width="270.516" height="57.2754" rx="13.2174" fill="white"/>
<rect x="239.623" y="111.211" width="29.1798" height="29.1798" rx="14.5899" fill="#D6E3FF"/>
<path d="M254.193 135.278V130.522L248.311 127.082L254.193 135.278Z" fill="#F0CDC2" stroke="#1616B4" stroke-width="0.105301" stroke-linejoin="round"/>
<path d="M254.213 135.278V130.522L260.095 127.082L254.213 135.278Z" fill="#C9B3F5" stroke="#1616B4" stroke-width="0.105301" stroke-linejoin="round"/>
<path d="M254.194 129.339V123.27L248.244 125.934L254.194 129.339Z" fill="#88AAF1" stroke="#1616B4" stroke-width="0.105301" stroke-linejoin="round"/>
<path d="M254.213 129.339V123.27L260.163 125.934L254.213 129.339Z" fill="#C9B3F5" stroke="#1616B4" stroke-width="0.105301" stroke-linejoin="round"/>
<path d="M248.244 125.932L254.194 116.32V123.268L248.244 125.932Z" fill="#F0CDC2" stroke="#1616B4" stroke-width="0.105301" stroke-linejoin="round"/>
<path d="M260.163 125.932L254.213 116.32V123.268L260.163 125.932Z" fill="#B8FAF6" stroke="#1616B4" stroke-width="0.105301" stroke-linejoin="round"/>
<path d="M439.625 138.202V137.438C439.152 137.406 438.752 137.292 438.422 137.093C438.099 136.888 437.823 136.633 437.593 136.329L438.143 135.835C438.342 136.102 438.559 136.316 438.795 136.478C439.037 136.633 439.317 136.732 439.634 136.776V134.381C438.994 134.238 438.525 134.03 438.227 133.757C437.935 133.477 437.789 133.095 437.789 132.61C437.789 132.362 437.832 132.141 437.919 131.949C438.012 131.75 438.14 131.579 438.301 131.436C438.463 131.293 438.655 131.181 438.879 131.101C439.103 131.014 439.351 130.958 439.625 130.933V130.169H440.202V130.924C440.625 130.961 440.988 131.07 441.293 131.25C441.603 131.424 441.87 131.666 442.094 131.977L441.526 132.405C441.37 132.188 441.184 132.011 440.966 131.874C440.749 131.731 440.491 131.638 440.193 131.595V133.775L440.277 133.794C440.923 133.937 441.392 134.148 441.684 134.427C441.982 134.701 442.131 135.083 442.131 135.574C442.131 136.108 441.957 136.54 441.609 136.869C441.268 137.192 440.799 137.382 440.202 137.438V138.202H439.625ZM441.395 135.62C441.395 135.303 441.302 135.061 441.116 134.893C440.935 134.726 440.628 134.589 440.193 134.483V136.776C440.566 136.726 440.858 136.602 441.069 136.403C441.286 136.198 441.395 135.937 441.395 135.62ZM438.525 132.554C438.525 132.871 438.615 133.11 438.795 133.272C438.982 133.427 439.261 133.555 439.634 133.654V131.595C439.298 131.638 439.028 131.741 438.823 131.902C438.624 132.064 438.525 132.281 438.525 132.554ZM443.498 137.438V136.748H445.315V131.511H445.25L443.61 133.039L443.153 132.545L444.877 130.933H446.098V136.748H447.775V137.438H443.498ZM449.086 137.438V136.748H450.903V131.511H450.838L449.198 133.039L448.741 132.545L450.465 130.933H451.686V136.748H453.363V137.438H449.086ZM456.649 137.549C456.276 137.549 455.95 137.503 455.671 137.41C455.391 137.31 455.155 137.177 454.962 137.009C454.776 136.841 454.633 136.642 454.534 136.412C454.441 136.183 454.394 135.934 454.394 135.667C454.394 135.22 454.515 134.865 454.757 134.605C455 134.344 455.317 134.16 455.708 134.055V133.98C455.366 133.862 455.093 133.673 454.888 133.412C454.689 133.145 454.59 132.825 454.59 132.452C454.59 131.955 454.77 131.56 455.13 131.268C455.49 130.97 455.997 130.821 456.649 130.821C457.301 130.821 457.808 130.97 458.168 131.268C458.528 131.56 458.709 131.955 458.709 132.452C458.709 132.825 458.606 133.145 458.401 133.412C458.202 133.673 457.932 133.862 457.59 133.98V134.055C457.982 134.16 458.299 134.344 458.541 134.605C458.783 134.865 458.904 135.22 458.904 135.667C458.904 135.934 458.855 136.183 458.755 136.412C458.662 136.642 458.519 136.841 458.327 137.009C458.14 137.177 457.907 137.31 457.628 137.41C457.348 137.503 457.022 137.549 456.649 137.549ZM456.649 136.869C457.103 136.869 457.454 136.77 457.702 136.571C457.951 136.366 458.075 136.077 458.075 135.704V135.508C458.075 135.136 457.951 134.85 457.702 134.651C457.454 134.446 457.103 134.344 456.649 134.344C456.196 134.344 455.845 134.446 455.596 134.651C455.348 134.85 455.223 135.136 455.223 135.508V135.704C455.223 136.077 455.348 136.366 455.596 136.571C455.845 136.77 456.196 136.869 456.649 136.869ZM456.649 133.691C457.059 133.691 457.37 133.604 457.581 133.43C457.792 133.256 457.898 133.002 457.898 132.666V132.526C457.898 132.191 457.792 131.936 457.581 131.762C457.37 131.588 457.059 131.501 456.649 131.501C456.239 131.501 455.928 131.588 455.717 131.762C455.506 131.936 455.4 132.191 455.4 132.526V132.666C455.4 133.002 455.506 133.256 455.717 133.43C455.928 133.604 456.239 133.691 456.649 133.691ZM464.082 131.622H461.23L461.044 134.101H461.109C461.265 133.884 461.439 133.71 461.631 133.579C461.83 133.449 462.1 133.384 462.442 133.384C462.721 133.384 462.979 133.43 463.215 133.524C463.451 133.617 463.656 133.75 463.83 133.924C464.004 134.092 464.138 134.3 464.231 134.549C464.331 134.797 464.38 135.08 464.38 135.397C464.38 135.713 464.331 136.005 464.231 136.273C464.132 136.534 463.986 136.76 463.793 136.953C463.607 137.139 463.377 137.285 463.104 137.391C462.836 137.497 462.532 137.549 462.19 137.549C461.917 137.549 461.675 137.518 461.463 137.456C461.258 137.394 461.075 137.31 460.914 137.205C460.752 137.099 460.609 136.981 460.485 136.85C460.367 136.72 460.258 136.583 460.159 136.44L460.746 135.993C460.827 136.124 460.91 136.242 460.997 136.347C461.091 136.453 461.19 136.543 461.296 136.617C461.407 136.692 461.535 136.751 461.678 136.794C461.821 136.832 461.991 136.85 462.19 136.85C462.638 136.85 462.976 136.732 463.206 136.496C463.436 136.26 463.551 135.928 463.551 135.499V135.406C463.551 134.977 463.436 134.645 463.206 134.409C462.976 134.173 462.638 134.055 462.19 134.055C461.892 134.055 461.656 134.111 461.482 134.222C461.314 134.328 461.162 134.455 461.025 134.605L460.364 134.511L460.597 130.933H464.082V131.622ZM466.296 137.549C466.097 137.549 465.951 137.5 465.858 137.4C465.771 137.301 465.728 137.17 465.728 137.009V136.888C465.728 136.726 465.771 136.596 465.858 136.496C465.951 136.397 466.097 136.347 466.296 136.347C466.495 136.347 466.638 136.397 466.725 136.496C466.818 136.596 466.865 136.726 466.865 136.888V137.009C466.865 137.17 466.818 137.301 466.725 137.4C466.638 137.5 466.495 137.549 466.296 137.549ZM469.199 137.438L471.687 131.604H468.91V132.815H468.211V130.933H472.479V131.622L470.037 137.438H469.199ZM475.951 137.549C475.579 137.549 475.252 137.503 474.973 137.41C474.693 137.31 474.457 137.177 474.265 137.009C474.078 136.841 473.935 136.642 473.836 136.412C473.743 136.183 473.696 135.934 473.696 135.667C473.696 135.22 473.817 134.865 474.06 134.605C474.302 134.344 474.619 134.16 475.01 134.055V133.98C474.668 133.862 474.395 133.673 474.19 133.412C473.991 133.145 473.892 132.825 473.892 132.452C473.892 131.955 474.072 131.56 474.432 131.268C474.793 130.97 475.299 130.821 475.951 130.821C476.604 130.821 477.11 130.97 477.47 131.268C477.831 131.56 478.011 131.955 478.011 132.452C478.011 132.825 477.908 133.145 477.703 133.412C477.505 133.673 477.234 133.862 476.893 133.98V134.055C477.284 134.16 477.601 134.344 477.843 134.605C478.085 134.865 478.207 135.22 478.207 135.667C478.207 135.934 478.157 136.183 478.057 136.412C477.964 136.642 477.821 136.841 477.629 137.009C477.442 137.177 477.209 137.31 476.93 137.41C476.65 137.503 476.324 137.549 475.951 137.549ZM475.951 136.869C476.405 136.869 476.756 136.77 477.004 136.571C477.253 136.366 477.377 136.077 477.377 135.704V135.508C477.377 135.136 477.253 134.85 477.004 134.651C476.756 134.446 476.405 134.344 475.951 134.344C475.498 134.344 475.147 134.446 474.898 134.651C474.65 134.85 474.526 135.136 474.526 135.508V135.704C474.526 136.077 474.65 136.366 474.898 136.571C475.147 136.77 475.498 136.869 475.951 136.869ZM475.951 133.691C476.361 133.691 476.672 133.604 476.883 133.43C477.094 133.256 477.2 133.002 477.2 132.666V132.526C477.2 132.191 477.094 131.936 476.883 131.762C476.672 131.588 476.361 131.501 475.951 131.501C475.541 131.501 475.231 131.588 475.019 131.762C474.808 131.936 474.703 132.191 474.703 132.526V132.666C474.703 133.002 474.808 133.256 475.019 133.43C475.231 133.604 475.541 133.691 475.951 133.691Z" fill="#606367"/>
<path d="M426.81 114.401H422.557L422.31 117.79H422.406C422.516 117.598 422.63 117.428 422.749 117.282C422.868 117.126 423.005 116.994 423.161 116.884C423.316 116.774 423.494 116.692 423.696 116.637C423.897 116.573 424.135 116.541 424.409 116.541C424.821 116.541 425.2 116.61 425.548 116.747C425.905 116.884 426.211 117.081 426.467 117.337C426.732 117.593 426.938 117.909 427.085 118.284C427.231 118.649 427.304 119.066 427.304 119.532C427.304 120.008 427.226 120.447 427.071 120.849C426.924 121.252 426.705 121.599 426.412 121.892C426.12 122.175 425.758 122.4 425.328 122.564C424.908 122.72 424.427 122.797 423.888 122.797C423.458 122.797 423.078 122.747 422.749 122.647C422.42 122.555 422.127 122.432 421.871 122.276C421.624 122.111 421.404 121.929 421.212 121.727C421.029 121.517 420.865 121.302 420.718 121.082L421.843 120.191C421.962 120.383 422.086 120.557 422.214 120.712C422.342 120.867 422.488 121.005 422.653 121.124C422.818 121.243 423.001 121.334 423.202 121.398C423.412 121.462 423.65 121.494 423.915 121.494C424.482 121.494 424.917 121.339 425.219 121.028C425.53 120.717 425.685 120.287 425.685 119.738V119.573C425.685 119.024 425.53 118.595 425.219 118.284C424.917 117.973 424.482 117.817 423.915 117.817C423.504 117.817 423.174 117.895 422.927 118.05C422.68 118.206 422.47 118.38 422.296 118.572L421.02 118.393L421.377 113.056H426.81V114.401ZM430.056 122.797C429.718 122.797 429.466 122.711 429.302 122.537C429.137 122.354 429.055 122.13 429.055 121.864V121.659C429.055 121.393 429.137 121.174 429.302 121C429.466 120.817 429.718 120.726 430.056 120.726C430.395 120.726 430.646 120.817 430.811 121C430.976 121.174 431.058 121.393 431.058 121.659V121.864C431.058 122.13 430.976 122.354 430.811 122.537C430.646 122.711 430.395 122.797 430.056 122.797ZM439.469 122.633H432.966V121.151L436.025 118.421C436.51 117.982 436.88 117.566 437.137 117.172C437.402 116.77 437.534 116.349 437.534 115.91V115.732C437.534 115.265 437.393 114.899 437.109 114.634C436.835 114.369 436.46 114.236 435.984 114.236C435.719 114.236 435.486 114.277 435.284 114.36C435.092 114.433 434.923 114.538 434.777 114.675C434.63 114.812 434.507 114.972 434.406 115.155C434.315 115.338 434.242 115.535 434.187 115.745L432.828 115.224C432.929 114.922 433.066 114.634 433.24 114.36C433.414 114.076 433.633 113.825 433.899 113.605C434.164 113.385 434.475 113.212 434.832 113.084C435.197 112.956 435.623 112.892 436.108 112.892C436.592 112.892 437.027 112.965 437.411 113.111C437.795 113.248 438.115 113.445 438.371 113.701C438.637 113.948 438.838 114.245 438.975 114.593C439.112 114.94 439.181 115.32 439.181 115.732C439.181 116.116 439.121 116.473 439.002 116.802C438.884 117.131 438.719 117.442 438.509 117.735C438.298 118.027 438.051 118.306 437.768 118.572C437.493 118.837 437.201 119.107 436.89 119.381L434.639 121.316H439.469V122.633ZM443.868 116.994C444.462 116.994 444.901 116.87 445.185 116.623C445.468 116.367 445.61 116.043 445.61 115.649V115.553C445.61 115.114 445.473 114.78 445.199 114.552C444.924 114.314 444.554 114.195 444.087 114.195C443.63 114.195 443.241 114.3 442.921 114.511C442.601 114.712 442.331 114.995 442.112 115.361L441.083 114.469C441.229 114.259 441.394 114.058 441.576 113.866C441.759 113.674 441.974 113.509 442.221 113.372C442.468 113.225 442.747 113.111 443.058 113.029C443.369 112.937 443.726 112.892 444.128 112.892C444.577 112.892 444.993 112.946 445.377 113.056C445.761 113.166 446.09 113.331 446.365 113.55C446.639 113.761 446.854 114.021 447.01 114.332C447.165 114.634 447.243 114.977 447.243 115.361C447.243 115.663 447.193 115.937 447.092 116.184C447 116.431 446.868 116.651 446.694 116.843C446.529 117.026 446.333 117.177 446.104 117.296C445.885 117.415 445.651 117.502 445.404 117.556V117.625C445.679 117.68 445.935 117.771 446.173 117.899C446.42 118.018 446.635 118.178 446.818 118.38C447 118.572 447.142 118.805 447.243 119.079C447.353 119.345 447.407 119.651 447.407 119.999C447.407 120.419 447.325 120.803 447.161 121.151C446.996 121.489 446.763 121.782 446.461 122.029C446.168 122.276 445.811 122.468 445.391 122.605C444.97 122.733 444.503 122.797 443.991 122.797C443.543 122.797 443.15 122.747 442.811 122.647C442.473 122.555 442.171 122.432 441.906 122.276C441.65 122.111 441.421 121.929 441.22 121.727C441.028 121.517 440.858 121.302 440.712 121.082L441.851 120.191C441.97 120.383 442.093 120.561 442.221 120.726C442.359 120.881 442.509 121.018 442.674 121.137C442.848 121.247 443.04 121.334 443.25 121.398C443.47 121.462 443.717 121.494 443.991 121.494C444.577 121.494 445.025 121.357 445.336 121.082C445.647 120.799 445.802 120.41 445.802 119.916V119.82C445.802 119.326 445.638 118.951 445.308 118.695C444.979 118.439 444.513 118.311 443.909 118.311H442.894V116.994H443.868ZM452.922 122.633V113.056H459.055V114.428H454.472V117.09H458.63V118.462H454.472V121.261H459.055V122.633H452.922ZM464.608 114.428V122.633H463.058V114.428H460.204V113.056H467.462V114.428H464.608ZM474.859 118.462H470.524V122.633H468.974V113.056H470.524V117.09H474.859V113.056H476.41V122.633H474.859V118.462Z" fill="#1D1D20"/>
<path d="M278.973 131.305V119.838H286.317V121.481H280.83V124.668H285.807V126.311H280.83V129.662H286.317V131.305H278.973ZM290.945 131.305C290.321 131.305 289.85 131.146 289.533 130.828C289.215 130.5 289.056 130.04 289.056 129.448V124.224H287.726V122.762H288.448C288.744 122.762 288.947 122.697 289.056 122.565C289.177 122.434 289.237 122.22 289.237 121.924V120.429H290.847V122.762H292.638V124.224H290.847V129.843H292.506V131.305H290.945ZM294.58 119.148H296.371V124.175H296.453C296.639 123.715 296.918 123.332 297.29 123.025C297.674 122.718 298.194 122.565 298.851 122.565C299.727 122.565 300.406 122.855 300.888 123.436C301.381 124.005 301.627 124.821 301.627 125.884V131.305H299.837V126.097C299.837 124.772 299.3 124.109 298.227 124.109C297.997 124.109 297.767 124.142 297.537 124.208C297.318 124.263 297.121 124.35 296.945 124.471C296.77 124.591 296.628 124.745 296.518 124.931C296.42 125.117 296.371 125.33 296.371 125.571V131.305H294.58V119.148ZM307.461 131.502C306.847 131.502 306.3 131.398 305.818 131.19C305.336 130.982 304.925 130.686 304.586 130.303C304.246 129.908 303.983 129.437 303.797 128.89C303.622 128.331 303.534 127.712 303.534 127.033C303.534 126.354 303.622 125.741 303.797 125.194C303.983 124.635 304.246 124.164 304.586 123.781C304.925 123.386 305.336 123.085 305.818 122.877C306.3 122.669 306.847 122.565 307.461 122.565C308.085 122.565 308.632 122.675 309.103 122.894C309.585 123.113 309.985 123.419 310.303 123.814C310.62 124.197 310.856 124.646 311.009 125.161C311.173 125.675 311.255 126.228 311.255 126.82V127.493H305.391V127.773C305.391 128.43 305.582 128.972 305.966 129.399C306.36 129.815 306.918 130.023 307.641 130.023C308.167 130.023 308.61 129.908 308.972 129.678C309.333 129.448 309.64 129.136 309.892 128.742L310.943 129.777C310.626 130.303 310.166 130.724 309.563 131.042C308.961 131.348 308.26 131.502 307.461 131.502ZM307.461 123.961C307.154 123.961 306.869 124.016 306.606 124.126C306.354 124.235 306.135 124.389 305.949 124.586C305.774 124.783 305.637 125.018 305.538 125.292C305.44 125.566 305.391 125.867 305.391 126.196V126.311H309.366V126.146C309.366 125.489 309.196 124.964 308.857 124.569C308.517 124.164 308.052 123.961 307.461 123.961ZM313.238 131.305V122.762H315.028V124.405H315.11C315.231 123.967 315.483 123.584 315.866 123.255C316.249 122.927 316.781 122.762 317.46 122.762H317.936V124.487H317.23C316.518 124.487 315.97 124.602 315.587 124.832C315.214 125.062 315.028 125.402 315.028 125.851V131.305H313.238ZM322.797 131.502C322.184 131.502 321.637 131.398 321.155 131.19C320.673 130.982 320.262 130.686 319.923 130.303C319.583 129.908 319.32 129.437 319.134 128.89C318.959 128.331 318.871 127.712 318.871 127.033C318.871 126.354 318.959 125.741 319.134 125.194C319.32 124.635 319.583 124.164 319.923 123.781C320.262 123.386 320.673 123.085 321.155 122.877C321.637 122.669 322.184 122.565 322.797 122.565C323.422 122.565 323.969 122.675 324.44 122.894C324.922 123.113 325.322 123.419 325.639 123.814C325.957 124.197 326.193 124.646 326.346 125.161C326.51 125.675 326.592 126.228 326.592 126.82V127.493H320.728V127.773C320.728 128.43 320.919 128.972 321.303 129.399C321.697 129.815 322.255 130.023 322.978 130.023C323.504 130.023 323.947 129.908 324.309 129.678C324.67 129.448 324.977 129.136 325.229 128.742L326.28 129.777C325.963 130.303 325.503 130.724 324.9 131.042C324.298 131.348 323.597 131.502 322.797 131.502ZM322.797 123.961C322.491 123.961 322.206 124.016 321.943 124.126C321.691 124.235 321.472 124.389 321.286 124.586C321.111 124.783 320.974 125.018 320.875 125.292C320.777 125.566 320.728 125.867 320.728 126.196V126.311H324.703V126.146C324.703 125.489 324.533 124.964 324.194 124.569C323.854 124.164 323.389 123.961 322.797 123.961ZM333.749 129.892H333.684C333.607 130.1 333.503 130.303 333.371 130.5C333.251 130.697 333.092 130.872 332.895 131.025C332.709 131.168 332.479 131.283 332.205 131.37C331.942 131.458 331.636 131.502 331.285 131.502C330.398 131.502 329.708 131.217 329.215 130.648C328.733 130.078 328.492 129.262 328.492 128.2V122.762H330.283V127.97C330.283 129.295 330.831 129.958 331.926 129.958C332.156 129.958 332.38 129.93 332.599 129.875C332.818 129.81 333.01 129.717 333.174 129.596C333.35 129.476 333.486 129.322 333.585 129.136C333.695 128.95 333.749 128.731 333.749 128.479V122.762H335.54V131.305H333.749V129.892ZM338.104 131.305V122.762H339.895V124.175H339.977C340.064 123.956 340.168 123.748 340.289 123.551C340.42 123.354 340.574 123.184 340.749 123.042C340.935 122.888 341.149 122.773 341.389 122.697C341.641 122.609 341.932 122.565 342.26 122.565C342.841 122.565 343.355 122.707 343.804 122.992C344.253 123.277 344.582 123.715 344.79 124.306H344.839C344.993 123.825 345.288 123.414 345.726 123.074C346.164 122.735 346.729 122.565 347.418 122.565C348.273 122.565 348.935 122.855 349.406 123.436C349.877 124.005 350.113 124.821 350.113 125.884V131.305H348.322V126.097C348.322 125.44 348.196 124.947 347.944 124.619C347.692 124.279 347.293 124.109 346.745 124.109C346.515 124.109 346.296 124.142 346.088 124.208C345.88 124.263 345.694 124.35 345.529 124.471C345.376 124.591 345.25 124.745 345.151 124.931C345.053 125.117 345.004 125.33 345.004 125.571V131.305H343.213V126.097C343.213 124.772 342.693 124.109 341.652 124.109C341.433 124.109 341.214 124.142 340.995 124.208C340.787 124.263 340.601 124.35 340.437 124.471C340.272 124.591 340.141 124.745 340.042 124.931C339.944 125.117 339.895 125.33 339.895 125.571V131.305H338.104Z" fill="#1D1D20"/>
<rect x="224.252" y="162.438" width="270.516" height="57.2754" rx="13.2174" fill="white"/>
<rect x="239.623" y="176.484" width="29.1798" height="29.1798" rx="14.5899" fill="#004DE5"/>
<path d="M258.829 183.566C259.167 183.566 259.491 183.7 259.729 183.938C259.968 184.175 260.102 184.498 260.103 184.834V195.007C260.102 195.197 260.059 195.384 259.977 195.556C259.894 195.727 259.774 195.877 259.625 195.996L254.811 199.846C254.641 199.981 254.43 200.055 254.213 200.055C253.996 200.055 253.785 199.981 253.616 199.846L248.802 195.996C248.653 195.877 248.533 195.727 248.45 195.556C248.368 195.384 248.324 195.197 248.324 195.007V184.834C248.324 184.498 248.459 184.175 248.697 183.938C248.936 183.7 249.26 183.566 249.598 183.566H258.829ZM251.876 186.119C251.585 186.119 251.306 186.237 251.1 186.444C250.894 186.652 250.777 186.934 250.777 187.228V193.661C250.777 193.827 250.814 193.991 250.886 194.141C250.957 194.29 251.061 194.422 251.189 194.525L252.891 195.903C252.911 195.92 252.935 195.93 252.961 195.933C252.987 195.936 253.013 195.931 253.036 195.92C253.059 195.909 253.079 195.891 253.093 195.869C253.107 195.847 253.114 195.821 253.114 195.795V191.246C253.114 191.209 253.129 191.174 253.154 191.148C253.18 191.123 253.215 191.108 253.251 191.107H254.487C254.706 191.107 254.916 191.196 255.07 191.352C255.225 191.507 255.312 191.719 255.312 191.939V195.795C255.312 195.821 255.319 195.846 255.333 195.868C255.347 195.89 255.366 195.909 255.39 195.92C255.413 195.931 255.439 195.936 255.465 195.933C255.491 195.93 255.515 195.92 255.535 195.903L257.235 194.525C257.364 194.422 257.468 194.29 257.539 194.141C257.61 193.991 257.647 193.827 257.647 193.661V191.662C257.647 191.368 257.532 191.086 257.326 190.878C257.12 190.67 256.84 190.554 256.549 190.554C256.84 190.553 257.119 190.436 257.324 190.229C257.53 190.021 257.645 189.739 257.646 189.445V187.228C257.645 186.934 257.53 186.652 257.324 186.444C257.118 186.236 256.838 186.119 256.547 186.119H251.876ZM255.173 187.228C255.209 187.228 255.245 187.243 255.271 187.269C255.296 187.294 255.311 187.33 255.311 187.366V189.168C255.31 189.388 255.224 189.6 255.069 189.756C254.915 189.912 254.705 189.999 254.486 189.999H253.25C253.214 189.999 253.179 189.985 253.153 189.959C253.128 189.933 253.112 189.897 253.112 189.86V187.366C253.112 187.33 253.128 187.295 253.153 187.269C253.179 187.243 253.214 187.228 253.25 187.228H255.173Z" fill="#FDFEFF"/>
<path d="M445.212 203.475V202.711C444.74 202.68 444.339 202.565 444.01 202.366C443.687 202.161 443.411 201.906 443.181 201.602L443.731 201.108C443.929 201.375 444.147 201.59 444.383 201.751C444.625 201.906 444.905 202.006 445.222 202.049V199.654C444.582 199.511 444.113 199.303 443.814 199.03C443.522 198.75 443.376 198.368 443.376 197.884C443.376 197.635 443.42 197.415 443.507 197.222C443.6 197.023 443.727 196.852 443.889 196.71C444.051 196.567 444.243 196.455 444.467 196.374C444.69 196.287 444.939 196.231 445.212 196.206V195.442H445.79V196.197C446.213 196.234 446.576 196.343 446.88 196.523C447.191 196.697 447.458 196.939 447.682 197.25L447.113 197.679C446.958 197.461 446.772 197.284 446.554 197.148C446.337 197.005 446.079 196.911 445.781 196.868V199.049L445.865 199.067C446.511 199.21 446.98 199.421 447.272 199.701C447.57 199.974 447.719 200.356 447.719 200.847C447.719 201.381 447.545 201.813 447.197 202.142C446.856 202.466 446.386 202.655 445.79 202.711V203.475H445.212ZM446.983 200.894C446.983 200.577 446.89 200.335 446.703 200.167C446.523 199.999 446.216 199.862 445.781 199.757V202.049C446.154 202 446.445 201.875 446.657 201.677C446.874 201.472 446.983 201.211 446.983 200.894ZM444.113 197.828C444.113 198.145 444.203 198.384 444.383 198.545C444.569 198.701 444.849 198.828 445.222 198.927V196.868C444.886 196.911 444.616 197.014 444.411 197.175C444.212 197.337 444.113 197.554 444.113 197.828ZM453.233 202.711H448.965V201.91L451.089 199.953C451.394 199.673 451.648 199.378 451.853 199.067C452.059 198.75 452.161 198.434 452.161 198.117V198.005C452.161 197.645 452.062 197.353 451.863 197.129C451.664 196.905 451.363 196.793 450.959 196.793C450.76 196.793 450.586 196.821 450.437 196.877C450.288 196.933 450.157 197.011 450.046 197.11C449.94 197.21 449.85 197.328 449.775 197.464C449.707 197.595 449.651 197.738 449.608 197.893L448.909 197.623C448.971 197.43 449.055 197.244 449.16 197.064C449.272 196.877 449.409 196.713 449.57 196.57C449.738 196.427 449.937 196.312 450.167 196.225C450.403 196.138 450.679 196.094 450.996 196.094C451.313 196.094 451.596 196.141 451.844 196.234C452.093 196.327 452.301 196.458 452.469 196.626C452.636 196.793 452.764 196.992 452.851 197.222C452.944 197.452 452.99 197.707 452.99 197.986C452.99 198.241 452.953 198.477 452.879 198.694C452.81 198.912 452.714 199.12 452.59 199.319C452.465 199.511 452.313 199.701 452.133 199.887C451.959 200.074 451.77 200.26 451.565 200.446L449.813 202.021H453.233V202.711ZM458.82 202.711H454.552V201.91L456.677 199.953C456.981 199.673 457.236 199.378 457.441 199.067C457.646 198.75 457.749 198.434 457.749 198.117V198.005C457.749 197.645 457.649 197.353 457.451 197.129C457.252 196.905 456.95 196.793 456.547 196.793C456.348 196.793 456.174 196.821 456.025 196.877C455.876 196.933 455.745 197.011 455.633 197.11C455.528 197.21 455.438 197.328 455.363 197.464C455.295 197.595 455.239 197.738 455.195 197.893L454.496 197.623C454.559 197.43 454.642 197.244 454.748 197.064C454.86 196.877 454.997 196.713 455.158 196.57C455.326 196.427 455.525 196.312 455.755 196.225C455.991 196.138 456.267 196.094 456.584 196.094C456.901 196.094 457.183 196.141 457.432 196.234C457.68 196.327 457.889 196.458 458.056 196.626C458.224 196.793 458.351 196.992 458.438 197.222C458.532 197.452 458.578 197.707 458.578 197.986C458.578 198.241 458.541 198.477 458.466 198.694C458.398 198.912 458.302 199.12 458.177 199.319C458.053 199.511 457.901 199.701 457.721 199.887C457.547 200.074 457.357 200.26 457.152 200.446L455.4 202.021H458.82V202.711ZM460.261 202.711V202.021H462.078V196.784H462.013L460.373 198.312L459.916 197.818L461.64 196.206H462.861V202.021H464.539V202.711H460.261ZM466.296 202.823C466.097 202.823 465.951 202.773 465.858 202.674C465.771 202.574 465.728 202.444 465.728 202.282V202.161C465.728 202 465.771 201.869 465.858 201.77C465.951 201.67 466.097 201.621 466.296 201.621C466.495 201.621 466.638 201.67 466.725 201.77C466.818 201.869 466.865 202 466.865 202.161V202.282C466.865 202.444 466.818 202.574 466.725 202.674C466.638 202.773 466.495 202.823 466.296 202.823ZM471.063 202.711V201.434H467.922V200.745L470.643 196.206H471.808V200.782H472.749V201.434H471.808V202.711H471.063ZM468.658 200.782H471.063V196.812H471.016L468.658 200.782ZM474.786 202.711L477.275 196.877H474.498V198.089H473.799V196.206H478.067V196.896L475.625 202.711H474.786Z" fill="#606367"/>
<path d="M423.333 187.906V186.617H426.023V179.455H425.913L423.69 181.828L422.743 180.978L425.186 178.33H427.546V186.617H429.878V187.906H423.333ZM437.323 179.674H433.069L432.822 183.063H432.918C433.028 182.871 433.143 182.702 433.261 182.555C433.38 182.4 433.518 182.267 433.673 182.158C433.829 182.048 434.007 181.965 434.208 181.911C434.409 181.847 434.647 181.815 434.922 181.815C435.333 181.815 435.713 181.883 436.06 182.02C436.417 182.158 436.723 182.354 436.98 182.61C437.245 182.866 437.451 183.182 437.597 183.557C437.743 183.923 437.816 184.339 437.816 184.806C437.816 185.281 437.739 185.72 437.583 186.123C437.437 186.525 437.217 186.873 436.925 187.165C436.632 187.449 436.271 187.673 435.841 187.838C435.42 187.993 434.94 188.071 434.4 188.071C433.97 188.071 433.591 188.021 433.261 187.92C432.932 187.829 432.639 187.705 432.383 187.55C432.136 187.385 431.917 187.202 431.725 187.001C431.542 186.79 431.377 186.575 431.231 186.356L432.356 185.464C432.475 185.656 432.598 185.83 432.726 185.985C432.854 186.141 433.001 186.278 433.165 186.397C433.33 186.516 433.513 186.607 433.714 186.671C433.925 186.735 434.162 186.767 434.428 186.767C434.995 186.767 435.429 186.612 435.731 186.301C436.042 185.99 436.198 185.56 436.198 185.011V184.847C436.198 184.298 436.042 183.868 435.731 183.557C435.429 183.246 434.995 183.091 434.428 183.091C434.016 183.091 433.687 183.168 433.44 183.324C433.193 183.479 432.982 183.653 432.809 183.845L431.533 183.667L431.889 178.33H437.323V179.674ZM442.695 188.071C442.101 188.071 441.584 187.961 441.145 187.742C440.706 187.513 440.345 187.188 440.061 186.767C439.778 186.347 439.567 185.83 439.43 185.217C439.293 184.604 439.224 183.905 439.224 183.118C439.224 182.34 439.293 181.645 439.43 181.032C439.567 180.411 439.778 179.889 440.061 179.468C440.345 179.048 440.706 178.728 441.145 178.508C441.584 178.279 442.101 178.165 442.695 178.165C443.885 178.165 444.758 178.599 445.316 179.468C445.883 180.337 446.167 181.554 446.167 183.118C446.167 184.682 445.883 185.899 445.316 186.767C444.758 187.636 443.885 188.071 442.695 188.071ZM442.695 186.754C443.025 186.754 443.304 186.69 443.532 186.562C443.77 186.424 443.962 186.232 444.109 185.985C444.255 185.738 444.36 185.446 444.424 185.107C444.488 184.76 444.52 184.376 444.52 183.955V182.281C444.52 181.86 444.488 181.481 444.424 181.142C444.36 180.795 444.255 180.497 444.109 180.25C443.962 180.003 443.77 179.816 443.532 179.688C443.304 179.551 443.025 179.482 442.695 179.482C442.366 179.482 442.083 179.551 441.845 179.688C441.616 179.816 441.429 180.003 441.282 180.25C441.136 180.497 441.031 180.795 440.967 181.142C440.903 181.481 440.871 181.86 440.871 182.281V183.955C440.871 184.376 440.903 184.76 440.967 185.107C441.031 185.446 441.136 185.738 441.282 185.985C441.429 186.232 441.616 186.424 441.845 186.562C442.083 186.69 442.366 186.754 442.695 186.754ZM452.779 187.906H451.228V178.33H455.358C456.218 178.33 456.895 178.59 457.389 179.112C457.883 179.624 458.13 180.324 458.13 181.211C458.13 181.897 457.97 182.469 457.649 182.926C457.338 183.374 456.877 183.69 456.264 183.873L458.335 187.906H456.607L454.686 184.037H452.779V187.906ZM455.248 182.734C455.642 182.734 455.948 182.633 456.168 182.432C456.387 182.222 456.497 181.924 456.497 181.54V180.882C456.497 180.497 456.387 180.205 456.168 180.003C455.948 179.793 455.642 179.688 455.248 179.688H452.779V182.734H455.248ZM463.789 188.071C463.167 188.071 462.6 187.966 462.088 187.755C461.585 187.536 461.15 187.22 460.785 186.809C460.428 186.388 460.149 185.871 459.948 185.258C459.756 184.636 459.66 183.923 459.66 183.118C459.66 182.313 459.756 181.604 459.948 180.991C460.149 180.369 460.428 179.853 460.785 179.441C461.15 179.02 461.585 178.705 462.088 178.494C462.6 178.275 463.167 178.165 463.789 178.165C464.411 178.165 464.974 178.275 465.477 178.494C465.989 178.705 466.424 179.02 466.78 179.441C467.146 179.853 467.425 180.369 467.617 180.991C467.818 181.604 467.919 182.313 467.919 183.118C467.919 183.923 467.818 184.636 467.617 185.258C467.425 185.871 467.146 186.388 466.78 186.809C466.424 187.22 465.989 187.536 465.477 187.755C464.974 187.966 464.411 188.071 463.789 188.071ZM463.789 186.685C464.155 186.685 464.489 186.621 464.791 186.493C465.102 186.365 465.363 186.182 465.573 185.944C465.792 185.697 465.962 185.4 466.081 185.052C466.199 184.705 466.259 184.312 466.259 183.873V182.363C466.259 181.924 466.199 181.531 466.081 181.183C465.962 180.836 465.792 180.543 465.573 180.305C465.363 180.058 465.102 179.871 464.791 179.743C464.489 179.615 464.155 179.551 463.789 179.551C463.414 179.551 463.076 179.615 462.774 179.743C462.472 179.871 462.212 180.058 461.992 180.305C461.782 180.543 461.617 180.836 461.498 181.183C461.379 181.531 461.32 181.924 461.32 182.363V183.873C461.32 184.312 461.379 184.705 461.498 185.052C461.617 185.4 461.782 185.697 461.992 185.944C462.212 186.182 462.472 186.365 462.774 186.493C463.076 186.621 463.414 186.685 463.789 186.685ZM472.432 182.61L471.375 180.58H471.334V187.906H469.852V178.33H471.581L474.709 183.626L475.766 185.656H475.807V178.33H477.289V187.906H475.56L472.432 182.61Z" fill="#1D1D20"/>
<path d="M280.83 196.578H278.973V185.112H283.918C284.948 185.112 285.758 185.424 286.349 186.048C286.941 186.661 287.237 187.499 287.237 188.561C287.237 189.383 287.045 190.067 286.662 190.615C286.289 191.151 285.736 191.529 285.002 191.748L287.483 196.578H285.413L283.113 191.945H280.83V196.578ZM283.787 190.385C284.258 190.385 284.625 190.264 284.887 190.023C285.15 189.772 285.282 189.416 285.282 188.956V188.167C285.282 187.707 285.15 187.357 284.887 187.116C284.625 186.864 284.258 186.738 283.787 186.738H280.83V190.385H283.787ZM292.717 196.775C292.126 196.775 291.584 196.671 291.091 196.463C290.609 196.255 290.198 195.959 289.859 195.576C289.519 195.182 289.256 194.711 289.07 194.163C288.884 193.605 288.791 192.986 288.791 192.307C288.791 191.628 288.884 191.015 289.07 190.467C289.256 189.908 289.519 189.438 289.859 189.054C290.198 188.66 290.609 188.359 291.091 188.151C291.584 187.943 292.126 187.839 292.717 187.839C293.309 187.839 293.845 187.943 294.327 188.151C294.82 188.359 295.236 188.66 295.576 189.054C295.915 189.438 296.178 189.908 296.364 190.467C296.55 191.015 296.643 191.628 296.643 192.307C296.643 192.986 296.55 193.605 296.364 194.163C296.178 194.711 295.915 195.182 295.576 195.576C295.236 195.959 294.82 196.255 294.327 196.463C293.845 196.671 293.309 196.775 292.717 196.775ZM292.717 195.297C293.331 195.297 293.823 195.111 294.196 194.738C294.568 194.355 294.754 193.785 294.754 193.03V191.584C294.754 190.828 294.568 190.264 294.196 189.892C293.823 189.509 293.331 189.317 292.717 189.317C292.104 189.317 291.611 189.509 291.239 189.892C290.866 190.264 290.68 190.828 290.68 191.584V193.03C290.68 193.785 290.866 194.355 291.239 194.738C291.611 195.111 292.104 195.297 292.717 195.297ZM298.639 196.578V188.036H300.429V189.448H300.511C300.698 188.988 300.977 188.605 301.349 188.299C301.733 187.992 302.253 187.839 302.91 187.839C303.786 187.839 304.465 188.129 304.947 188.709C305.44 189.279 305.686 190.095 305.686 191.157V196.578H303.896V191.387C303.896 190.051 303.359 189.383 302.286 189.383C302.056 189.383 301.826 189.416 301.596 189.481C301.377 189.536 301.18 189.624 301.004 189.744C300.829 189.865 300.687 190.018 300.577 190.204C300.479 190.39 300.429 190.609 300.429 190.861V196.578H298.639ZM309.072 186.508C308.699 186.508 308.425 186.42 308.25 186.245C308.086 186.07 308.004 185.845 308.004 185.572V185.292C308.004 185.018 308.086 184.794 308.25 184.619C308.425 184.443 308.699 184.356 309.072 184.356C309.444 184.356 309.712 184.443 309.877 184.619C310.041 184.794 310.123 185.018 310.123 185.292V185.572C310.123 185.845 310.041 186.07 309.877 186.245C309.712 186.42 309.444 186.508 309.072 186.508ZM308.168 188.036H309.959V196.578H308.168V188.036ZM312.516 196.578V188.036H314.306V189.448H314.388C314.575 188.988 314.854 188.605 315.226 188.299C315.61 187.992 316.13 187.839 316.787 187.839C317.663 187.839 318.342 188.129 318.824 188.709C319.317 189.279 319.563 190.095 319.563 191.157V196.578H317.773V191.387C317.773 190.051 317.236 189.383 316.163 189.383C315.933 189.383 315.703 189.416 315.473 189.481C315.254 189.536 315.057 189.624 314.881 189.744C314.706 189.865 314.564 190.018 314.454 190.204C314.356 190.39 314.306 190.609 314.306 190.861V196.578H312.516Z" fill="#1D1D20"/>
<rect x="224.252" y="227.715" width="270.516" height="57.2754" rx="13.2174" fill="white"/>
<rect x="239.623" y="241.758" width="29.1798" height="29.1798" rx="14.5899" fill="#8A46FF"/>
<path d="M258.31 259.401L262.316 257.091C262.528 256.968 262.66 256.741 262.66 256.496V251.876C262.66 251.631 262.528 251.404 262.316 251.281L258.31 248.971C258.097 248.848 257.834 248.849 257.623 248.971L253.616 251.281C253.404 251.404 253.273 251.631 253.273 251.876V260.133L250.463 261.752L247.653 260.133V256.893L250.463 255.274L252.316 256.343V254.169L250.807 253.298C250.703 253.239 250.584 253.206 250.463 253.206C250.343 253.206 250.223 253.239 250.119 253.298L246.113 255.609C245.901 255.731 245.77 255.959 245.77 256.203V260.824C245.77 261.068 245.901 261.296 246.113 261.419L250.119 263.729C250.332 263.851 250.594 263.851 250.807 263.729L254.813 261.419C255.025 261.296 255.157 261.068 255.157 260.824V252.565L255.207 252.537L257.965 250.946L260.775 252.565V255.805L257.965 257.425L256.115 256.358V258.532L257.621 259.4C257.834 259.522 258.097 259.522 258.309 259.4L258.31 259.401Z" fill="white"/>
<path d="M450.8 268.756V267.992C450.328 267.961 449.927 267.846 449.598 267.647C449.275 267.442 448.998 267.188 448.768 266.883L449.318 266.389C449.517 266.656 449.735 266.871 449.971 267.032C450.213 267.188 450.492 267.287 450.809 267.331V264.936C450.169 264.793 449.7 264.585 449.402 264.311C449.11 264.032 448.964 263.65 448.964 263.165C448.964 262.916 449.008 262.696 449.095 262.503C449.188 262.305 449.315 262.134 449.477 261.991C449.638 261.848 449.831 261.736 450.055 261.655C450.278 261.568 450.527 261.512 450.8 261.488V260.723H451.378V261.478C451.8 261.516 452.164 261.624 452.468 261.804C452.779 261.978 453.046 262.221 453.27 262.531L452.701 262.96C452.546 262.743 452.359 262.565 452.142 262.429C451.925 262.286 451.667 262.193 451.368 262.149V264.33L451.452 264.348C452.098 264.491 452.568 264.703 452.86 264.982C453.158 265.256 453.307 265.638 453.307 266.128C453.307 266.663 453.133 267.094 452.785 267.424C452.443 267.747 451.974 267.936 451.378 267.992V268.756H450.8ZM452.571 266.175C452.571 265.858 452.477 265.616 452.291 265.448C452.111 265.28 451.803 265.144 451.368 265.038V267.331C451.741 267.281 452.033 267.157 452.244 266.958C452.462 266.753 452.571 266.492 452.571 266.175ZM449.7 263.109C449.7 263.426 449.79 263.665 449.971 263.827C450.157 263.982 450.437 264.109 450.809 264.209V262.149C450.474 262.193 450.204 262.295 449.999 262.457C449.8 262.618 449.7 262.836 449.7 263.109ZM456.286 264.246C456.727 264.246 457.056 264.147 457.273 263.948C457.497 263.743 457.609 263.482 457.609 263.165V263.1C457.609 262.758 457.5 262.503 457.283 262.336C457.072 262.162 456.792 262.075 456.444 262.075C456.109 262.075 455.835 262.149 455.624 262.298C455.413 262.441 455.239 262.637 455.102 262.885L454.524 262.438C454.605 262.308 454.701 262.18 454.813 262.056C454.931 261.926 455.068 261.811 455.223 261.711C455.379 261.612 455.559 261.531 455.764 261.469C455.969 261.407 456.202 261.376 456.463 261.376C456.736 261.376 456.994 261.413 457.236 261.488C457.479 261.556 457.687 261.662 457.861 261.804C458.041 261.941 458.181 262.112 458.28 262.317C458.386 262.522 458.438 262.755 458.438 263.016C458.438 263.227 458.404 263.417 458.336 263.584C458.274 263.752 458.187 263.898 458.075 264.022C457.963 264.147 457.83 264.252 457.674 264.339C457.525 264.426 457.364 264.491 457.19 264.535V264.572C457.364 264.609 457.531 264.672 457.693 264.759C457.861 264.839 458.007 264.948 458.131 265.085C458.261 265.215 458.364 265.377 458.438 265.569C458.519 265.756 458.56 265.97 458.56 266.212C458.56 266.492 458.507 266.75 458.401 266.986C458.295 267.216 458.146 267.414 457.954 267.582C457.761 267.744 457.528 267.871 457.255 267.964C456.981 268.057 456.68 268.104 456.351 268.104C456.071 268.104 455.823 268.073 455.605 268.011C455.388 267.949 455.195 267.865 455.028 267.759C454.86 267.654 454.711 267.536 454.58 267.405C454.456 267.275 454.344 267.138 454.245 266.995L454.832 266.548C454.913 266.678 455 266.796 455.093 266.902C455.192 267.007 455.301 267.098 455.419 267.172C455.537 267.247 455.671 267.306 455.82 267.349C455.969 267.386 456.143 267.405 456.342 267.405C456.801 267.405 457.149 267.303 457.385 267.098C457.621 266.886 457.739 266.588 457.739 266.203V266.128C457.739 265.743 457.621 265.448 457.385 265.243C457.149 265.032 456.801 264.926 456.342 264.926H455.577V264.246H456.286ZM464.408 263.873C464.408 264.358 464.337 264.814 464.194 265.243C464.051 265.666 463.865 266.054 463.635 266.408C463.411 266.756 463.163 267.067 462.889 267.34C462.616 267.607 462.349 267.824 462.088 267.992H461.081C461.429 267.737 461.74 267.489 462.013 267.247C462.287 267.004 462.526 266.753 462.731 266.492C462.936 266.225 463.11 265.942 463.253 265.644C463.396 265.339 463.51 264.998 463.597 264.619L463.551 264.6C463.396 264.867 463.194 265.091 462.945 265.271C462.703 265.445 462.383 265.532 461.985 265.532C461.706 265.532 461.448 265.485 461.212 265.392C460.976 265.299 460.774 265.165 460.606 264.991C460.438 264.818 460.305 264.609 460.205 264.367C460.112 264.119 460.066 263.839 460.066 263.528C460.066 263.212 460.115 262.923 460.215 262.662C460.32 262.395 460.466 262.168 460.653 261.981C460.845 261.789 461.072 261.64 461.333 261.534C461.6 261.429 461.898 261.376 462.228 261.376C462.563 261.376 462.864 261.435 463.131 261.553C463.405 261.665 463.635 261.829 463.821 262.047C464.014 262.258 464.16 262.519 464.259 262.829C464.358 263.14 464.408 263.488 464.408 263.873ZM462.237 264.87C462.666 264.87 462.998 264.752 463.234 264.516C463.476 264.28 463.597 263.942 463.597 263.5V263.426C463.597 262.985 463.476 262.646 463.234 262.41C462.998 262.174 462.666 262.056 462.237 262.056C461.808 262.056 461.473 262.174 461.23 262.41C460.994 262.646 460.876 262.985 460.876 263.426V263.5C460.876 263.942 460.994 264.28 461.23 264.516C461.473 264.752 461.808 264.87 462.237 264.87ZM466.296 268.104C466.097 268.104 465.951 268.054 465.858 267.955C465.771 267.856 465.728 267.725 465.728 267.564V267.442C465.728 267.281 465.771 267.15 465.858 267.051C465.951 266.952 466.097 266.902 466.296 266.902C466.495 266.902 466.638 266.952 466.725 267.051C466.818 267.15 466.865 267.281 466.865 267.442V267.564C466.865 267.725 466.818 267.856 466.725 267.955C466.638 268.054 466.495 268.104 466.296 268.104ZM472.209 262.177H469.357L469.171 264.656H469.236C469.391 264.439 469.565 264.265 469.758 264.134C469.957 264.004 470.227 263.938 470.569 263.938C470.848 263.938 471.106 263.985 471.342 264.078C471.578 264.171 471.783 264.305 471.957 264.479C472.131 264.647 472.265 264.855 472.358 265.103C472.457 265.352 472.507 265.634 472.507 265.951C472.507 266.268 472.457 266.56 472.358 266.827C472.258 267.088 472.112 267.315 471.92 267.508C471.734 267.694 471.504 267.84 471.23 267.946C470.963 268.051 470.659 268.104 470.317 268.104C470.044 268.104 469.801 268.073 469.59 268.011C469.385 267.949 469.202 267.865 469.04 267.759C468.879 267.654 468.736 267.536 468.612 267.405C468.494 267.275 468.385 267.138 468.286 266.995L468.873 266.548C468.953 266.678 469.037 266.796 469.124 266.902C469.217 267.007 469.317 267.098 469.422 267.172C469.534 267.247 469.662 267.306 469.805 267.349C469.947 267.386 470.118 267.405 470.317 267.405C470.764 267.405 471.103 267.287 471.333 267.051C471.563 266.815 471.678 266.483 471.678 266.054V265.961C471.678 265.532 471.563 265.2 471.333 264.964C471.103 264.727 470.764 264.609 470.317 264.609C470.019 264.609 469.783 264.665 469.609 264.777C469.441 264.883 469.289 265.01 469.152 265.159L468.491 265.066L468.724 261.488H472.209V262.177ZM477.797 262.177H474.945L474.759 264.656H474.824C474.979 264.439 475.153 264.265 475.346 264.134C475.544 264.004 475.815 263.938 476.156 263.938C476.436 263.938 476.694 263.985 476.93 264.078C477.166 264.171 477.371 264.305 477.545 264.479C477.719 264.647 477.852 264.855 477.946 265.103C478.045 265.352 478.095 265.634 478.095 265.951C478.095 266.268 478.045 266.56 477.946 266.827C477.846 267.088 477.7 267.315 477.508 267.508C477.321 267.694 477.091 267.84 476.818 267.946C476.551 268.051 476.246 268.104 475.905 268.104C475.631 268.104 475.389 268.073 475.178 268.011C474.973 267.949 474.79 267.865 474.628 267.759C474.467 267.654 474.324 267.536 474.199 267.405C474.081 267.275 473.973 267.138 473.873 266.995L474.46 266.548C474.541 266.678 474.625 266.796 474.712 266.902C474.805 267.007 474.905 267.098 475.01 267.172C475.122 267.247 475.249 267.306 475.392 267.349C475.535 267.386 475.706 267.405 475.905 267.405C476.352 267.405 476.691 267.287 476.921 267.051C477.15 266.815 477.265 266.483 477.265 266.054V265.961C477.265 265.532 477.15 265.2 476.921 264.964C476.691 264.727 476.352 264.609 475.905 264.609C475.607 264.609 475.37 264.665 475.197 264.777C475.029 264.883 474.877 265.01 474.74 265.159L474.078 265.066L474.311 261.488H477.797V262.177Z" fill="#606367"/>
<path d="M409.934 253.188V251.898H412.624V244.736H412.514L410.291 247.11L409.345 246.259L411.787 243.611H414.147V251.898H416.479V253.188H409.934ZM421.07 253.352C420.475 253.352 419.958 253.242 419.519 253.023C419.08 252.794 418.719 252.469 418.436 252.049C418.152 251.628 417.942 251.111 417.804 250.498C417.667 249.886 417.599 249.186 417.599 248.399C417.599 247.622 417.667 246.927 417.804 246.314C417.942 245.692 418.152 245.17 418.436 244.75C418.719 244.329 419.08 244.009 419.519 243.789C419.958 243.561 420.475 243.446 421.07 243.446C422.259 243.446 423.132 243.881 423.69 244.75C424.257 245.619 424.541 246.835 424.541 248.399C424.541 249.963 424.257 251.18 423.69 252.049C423.132 252.918 422.259 253.352 421.07 253.352ZM421.07 252.035C421.399 252.035 421.678 251.971 421.907 251.843C422.145 251.706 422.337 251.514 422.483 251.267C422.629 251.02 422.735 250.727 422.799 250.389C422.863 250.041 422.895 249.657 422.895 249.236V247.562C422.895 247.142 422.863 246.762 422.799 246.424C422.735 246.076 422.629 245.779 422.483 245.532C422.337 245.285 422.145 245.097 421.907 244.969C421.678 244.832 421.399 244.763 421.07 244.763C420.741 244.763 420.457 244.832 420.219 244.969C419.991 245.097 419.803 245.285 419.657 245.532C419.51 245.779 419.405 246.076 419.341 246.424C419.277 246.762 419.245 247.142 419.245 247.562V249.236C419.245 249.657 419.277 250.041 419.341 250.389C419.405 250.727 419.51 251.02 419.657 251.267C419.803 251.514 419.991 251.706 420.219 251.843C420.457 251.971 420.741 252.035 421.07 252.035ZM429.296 253.352C428.702 253.352 428.185 253.242 427.746 253.023C427.307 252.794 426.946 252.469 426.662 252.049C426.379 251.628 426.168 251.111 426.031 250.498C425.894 249.886 425.825 249.186 425.825 248.399C425.825 247.622 425.894 246.927 426.031 246.314C426.168 245.692 426.379 245.17 426.662 244.75C426.946 244.329 427.307 244.009 427.746 243.789C428.185 243.561 428.702 243.446 429.296 243.446C430.486 243.446 431.359 243.881 431.917 244.75C432.484 245.619 432.768 246.835 432.768 248.399C432.768 249.963 432.484 251.18 431.917 252.049C431.359 252.918 430.486 253.352 429.296 253.352ZM429.296 252.035C429.626 252.035 429.905 251.971 430.133 251.843C430.371 251.706 430.563 251.514 430.71 251.267C430.856 251.02 430.961 250.727 431.025 250.389C431.089 250.041 431.121 249.657 431.121 249.236V247.562C431.121 247.142 431.089 246.762 431.025 246.424C430.961 246.076 430.856 245.779 430.71 245.532C430.563 245.285 430.371 245.097 430.133 244.969C429.905 244.832 429.626 244.763 429.296 244.763C428.967 244.763 428.684 244.832 428.446 244.969C428.217 245.097 428.03 245.285 427.883 245.532C427.737 245.779 427.632 246.076 427.568 246.424C427.504 246.762 427.472 247.142 427.472 247.562V249.236C427.472 249.657 427.504 250.041 427.568 250.389C427.632 250.727 427.737 251.02 427.883 251.267C428.03 251.514 428.217 251.706 428.446 251.843C428.684 251.971 428.967 252.035 429.296 252.035ZM445.156 245.861H445.087L444.333 247.411L442.234 251.239L440.134 247.411L439.38 245.861H439.311V253.188H437.83V243.611H439.668L442.234 248.482H442.316L444.882 243.611H446.638V253.188H445.156V245.861ZM454.986 253.188L454.121 250.594H450.541L449.704 253.188H448.126L451.391 243.611H453.339L456.605 253.188H454.986ZM452.365 245.038H452.297L450.911 249.264H453.737L452.365 245.038ZM460.744 244.983V253.188H459.193V244.983H456.34V243.611H463.598V244.983H460.744ZM464.617 253.188V251.925H465.92V244.873H464.617V243.611H468.788V244.873H467.471V251.925H468.788V253.188H464.617ZM474.331 253.352C473.078 253.352 472.095 252.931 471.381 252.09C470.668 251.239 470.311 250.009 470.311 248.399C470.311 247.594 470.402 246.885 470.585 246.273C470.768 245.66 471.034 245.143 471.381 244.722C471.729 244.301 472.149 243.986 472.643 243.776C473.146 243.556 473.709 243.446 474.331 243.446C475.163 243.446 475.858 243.629 476.416 243.995C476.983 244.361 477.427 244.901 477.747 245.614L476.444 246.327C476.279 245.87 476.023 245.509 475.675 245.244C475.337 244.969 474.889 244.832 474.331 244.832C473.59 244.832 473.009 245.084 472.588 245.587C472.168 246.09 471.957 246.785 471.957 247.672V249.126C471.957 250.014 472.168 250.709 472.588 251.212C473.009 251.715 473.59 251.966 474.331 251.966C474.907 251.966 475.374 251.82 475.73 251.527C476.096 251.226 476.366 250.841 476.54 250.375L477.788 251.129C477.468 251.825 477.02 252.369 476.444 252.762C475.868 253.155 475.163 253.352 474.331 253.352Z" fill="#1D1D20"/>
<path d="M278.973 261.859V250.393H283.902C284.964 250.393 285.785 250.705 286.366 251.329C286.946 251.953 287.237 252.791 287.237 253.843C287.237 254.894 286.946 255.732 286.366 256.356C285.785 256.98 284.964 257.292 283.902 257.292H280.83V261.859H278.973ZM280.83 255.666H283.787C284.258 255.666 284.625 255.546 284.887 255.305C285.15 255.053 285.282 254.697 285.282 254.237V253.448C285.282 252.988 285.15 252.638 284.887 252.397C284.625 252.145 284.258 252.019 283.787 252.019H280.83V255.666ZM292.172 262.057C291.58 262.057 291.038 261.952 290.545 261.744C290.064 261.536 289.653 261.241 289.313 260.857C288.974 260.463 288.711 259.992 288.525 259.444C288.339 258.886 288.246 258.267 288.246 257.588C288.246 256.909 288.339 256.296 288.525 255.748C288.711 255.19 288.974 254.719 289.313 254.335C289.653 253.941 290.064 253.64 290.545 253.432C291.038 253.224 291.58 253.12 292.172 253.12C292.763 253.12 293.3 253.224 293.782 253.432C294.275 253.64 294.691 253.941 295.03 254.335C295.37 254.719 295.633 255.19 295.819 255.748C296.005 256.296 296.098 256.909 296.098 257.588C296.098 258.267 296.005 258.886 295.819 259.444C295.633 259.992 295.37 260.463 295.03 260.857C294.691 261.241 294.275 261.536 293.782 261.744C293.3 261.952 292.763 262.057 292.172 262.057ZM292.172 260.578C292.785 260.578 293.278 260.392 293.65 260.019C294.023 259.636 294.209 259.067 294.209 258.311V256.865C294.209 256.11 294.023 255.546 293.65 255.173C293.278 254.79 292.785 254.598 292.172 254.598C291.558 254.598 291.066 254.79 290.693 255.173C290.321 255.546 290.135 256.11 290.135 256.865V258.311C290.135 259.067 290.321 259.636 290.693 260.019C291.066 260.392 291.558 260.578 292.172 260.578ZM299.917 261.859C299.303 261.859 298.843 261.706 298.537 261.399C298.241 261.082 298.093 260.644 298.093 260.085V249.703H299.884V260.397H301.067V261.859H299.917ZM307.89 253.317H309.615L306.017 263.551C305.919 263.836 305.804 264.077 305.672 264.274C305.552 264.482 305.404 264.647 305.229 264.767C305.064 264.899 304.862 264.992 304.621 265.046C304.38 265.112 304.095 265.145 303.766 265.145H302.732V263.683H304.177L304.67 262.237L301.565 253.317H303.356L305.064 258.344L305.557 260.2H305.639L306.181 258.344L307.89 253.317ZM318.146 262.664C318.146 263.551 317.806 264.22 317.127 264.669C316.448 265.118 315.342 265.342 313.809 265.342C313.108 265.342 312.511 265.293 312.018 265.194C311.536 265.107 311.137 264.975 310.819 264.8C310.512 264.625 310.288 264.411 310.145 264.159C310.003 263.907 309.932 263.617 309.932 263.289C309.932 262.818 310.058 262.451 310.31 262.188C310.573 261.925 310.934 261.744 311.394 261.646V261.465C310.748 261.257 310.425 260.819 310.425 260.151C310.425 259.713 310.573 259.379 310.868 259.149C311.164 258.908 311.52 258.738 311.936 258.64V258.574C311.432 258.333 311.044 257.999 310.77 257.572C310.507 257.134 310.375 256.624 310.375 256.044C310.375 255.168 310.666 254.461 311.246 253.925C311.838 253.388 312.681 253.12 313.776 253.12C314.378 253.12 314.893 253.207 315.32 253.383V253.153C315.32 252.769 315.408 252.474 315.583 252.266C315.769 252.047 316.054 251.937 316.437 251.937H317.752V253.383H316.01V253.728C316.394 253.98 316.689 254.308 316.897 254.713C317.105 255.108 317.209 255.551 317.209 256.044C317.209 256.909 316.914 257.61 316.322 258.147C315.731 258.672 314.888 258.935 313.792 258.935C313.376 258.935 313.004 258.891 312.675 258.804C312.456 258.88 312.265 258.99 312.1 259.132C311.936 259.264 311.854 259.439 311.854 259.658C311.854 259.888 311.958 260.052 312.166 260.151C312.374 260.249 312.67 260.299 313.053 260.299H315.156C316.207 260.299 316.968 260.512 317.439 260.939C317.91 261.356 318.146 261.931 318.146 262.664ZM316.47 262.861C316.47 262.566 316.355 262.33 316.125 262.155C315.906 261.98 315.501 261.892 314.91 261.892H312.018C311.624 262.122 311.427 262.451 311.427 262.878C311.427 263.228 311.564 263.508 311.838 263.716C312.122 263.935 312.599 264.044 313.267 264.044H314.384C315.775 264.044 316.47 263.65 316.47 262.861ZM313.792 257.637C314.318 257.637 314.723 257.522 315.008 257.292C315.304 257.052 315.452 256.685 315.452 256.192V255.863C315.452 255.37 315.304 255.009 315.008 254.779C314.723 254.538 314.318 254.418 313.792 254.418C313.267 254.418 312.856 254.538 312.56 254.779C312.276 255.009 312.133 255.37 312.133 255.863V256.192C312.133 256.685 312.276 257.052 312.56 257.292C312.856 257.522 313.267 257.637 313.792 257.637ZM322.733 262.057C322.142 262.057 321.6 261.952 321.107 261.744C320.625 261.536 320.214 261.241 319.875 260.857C319.535 260.463 319.272 259.992 319.086 259.444C318.9 258.886 318.807 258.267 318.807 257.588C318.807 256.909 318.9 256.296 319.086 255.748C319.272 255.19 319.535 254.719 319.875 254.335C320.214 253.941 320.625 253.64 321.107 253.432C321.6 253.224 322.142 253.12 322.733 253.12C323.325 253.12 323.861 253.224 324.343 253.432C324.836 253.64 325.252 253.941 325.592 254.335C325.931 254.719 326.194 255.19 326.38 255.748C326.566 256.296 326.66 256.909 326.66 257.588C326.66 258.267 326.566 258.886 326.38 259.444C326.194 259.992 325.931 260.463 325.592 260.857C325.252 261.241 324.836 261.536 324.343 261.744C323.861 261.952 323.325 262.057 322.733 262.057ZM322.733 260.578C323.347 260.578 323.839 260.392 324.212 260.019C324.584 259.636 324.77 259.067 324.77 258.311V256.865C324.77 256.11 324.584 255.546 324.212 255.173C323.839 254.79 323.347 254.598 322.733 254.598C322.12 254.598 321.627 254.79 321.255 255.173C320.882 255.546 320.696 256.11 320.696 256.865V258.311C320.696 259.067 320.882 259.636 321.255 260.019C321.627 260.392 322.12 260.578 322.733 260.578ZM328.655 261.859V253.317H330.445V254.73H330.527C330.714 254.27 330.993 253.886 331.365 253.58C331.749 253.273 332.269 253.12 332.926 253.12C333.802 253.12 334.481 253.41 334.963 253.99C335.456 254.56 335.702 255.376 335.702 256.438V261.859H333.912V256.668C333.912 255.332 333.375 254.664 332.302 254.664C332.072 254.664 331.842 254.697 331.612 254.763C331.393 254.817 331.196 254.905 331.02 255.025C330.845 255.146 330.703 255.299 330.593 255.485C330.495 255.672 330.445 255.891 330.445 256.143V261.859H328.655Z" fill="#1D1D20"/>
</g>
<defs>
<linearGradient id="paint0_linear_3939_112869" x1="359.955" y1="156.641" x2="359.955" y2="325.257" gradientUnits="userSpaceOnUse">
<stop stop-color="#E9EBEE"/>
<stop offset="0.331731" stop-color="#E9EBEE"/>
</linearGradient>
<clipPath id="clip0_3939_112869">
<rect x="0.00976562" y="0.726562" width="720.344" height="275.271" rx="18" fill="white"/>
</clipPath>
</defs>
</svg>
