<svg width="719" height="275" viewBox="0 0 719 275" fill="none" xmlns="http://www.w3.org/2000/svg">
<g clip-path="url(#clip0_3939_114042)">
<rect width="719" height="275" rx="18" fill="#FBFBFB"/>
<path d="M-61 66.8899C-61 45.9639 -44.0361 29 -23.1101 29H472.915C493.841 29 510.805 45.9639 510.805 66.8899V417.591H-61V66.8899Z" fill="#F3F5F7"/>
<path fill-rule="evenodd" clip-rule="evenodd" d="M472.917 33.4058H-75.1101C-93.6029 33.4058 -108.594 48.3971 -108.594 66.8899V413.186H506.401V66.8899C506.401 48.3971 491.41 33.4058 472.917 33.4058ZM-75.1101 29C-96.0361 29 -113 45.9639 -113 66.8899V417.591H510.807V66.8899C510.807 45.9639 493.843 29 472.917 29H-75.1101Z" fill="#E9EBEE"/>
<rect x="212.031" y="56.2969" width="270.516" height="57.2754" rx="13.2174" fill="white"/>
<rect x="227.402" y="70.3438" width="29.1798" height="29.1798" rx="14.5899" fill="#07638E"/>
<path d="M245.004 83.1641H248.004V80.1641" stroke="white" stroke-linecap="round" stroke-linejoin="round"/>
<path d="M238.105 81.0455C238.616 80.5345 239.222 80.1291 239.889 79.8525C240.556 79.576 241.271 79.4336 241.993 79.4336C242.715 79.4336 243.43 79.576 244.097 79.8525C244.764 80.1291 245.37 80.5345 245.88 81.0455L248.005 83.1643" stroke="white" stroke-linecap="round" stroke-linejoin="round"/>
<path d="M238.98 86.7031H235.98V89.7031" stroke="white" stroke-linecap="round" stroke-linejoin="round"/>
<path d="M245.88 88.8219C245.37 89.3329 244.764 89.7382 244.097 90.0148C243.43 90.2914 242.715 90.4338 241.993 90.4338C241.271 90.4338 240.556 90.2914 239.889 90.0148C239.222 89.7382 238.616 89.3329 238.105 88.8219L235.98 86.7031" stroke="white" stroke-linecap="round" stroke-linejoin="round"/>
<path d="M418.487 94.143V93.3432H420.914V94.143H418.487ZM424.071 97.3329V96.5703C423.599 96.5393 423.199 96.4246 422.871 96.2262C422.548 96.0216 422.273 95.7674 422.043 95.4636L422.592 94.9707C422.79 95.2373 423.007 95.4512 423.243 95.6124C423.485 95.7674 423.764 95.8666 424.08 95.91V93.5199C423.441 93.3773 422.973 93.1696 422.676 92.8968C422.384 92.6178 422.238 92.2365 422.238 91.7529C422.238 91.5049 422.282 91.2848 422.369 91.0926C422.462 90.8942 422.589 90.7237 422.75 90.5811C422.911 90.4385 423.103 90.3269 423.327 90.2463C423.55 90.1595 423.798 90.1037 424.071 90.0789V89.3163H424.647V90.0696C425.069 90.1068 425.431 90.2153 425.735 90.3951C426.045 90.5687 426.312 90.8105 426.535 91.1205L425.968 91.5483C425.813 91.3313 425.627 91.1546 425.41 91.0182C425.193 90.8756 424.935 90.7826 424.638 90.7392V92.9154L424.722 92.934C425.366 93.0766 425.834 93.2874 426.126 93.5664C426.423 93.8392 426.572 94.2205 426.572 94.7103C426.572 95.2435 426.399 95.6744 426.051 96.003C425.71 96.3254 425.242 96.5145 424.647 96.5703V97.3329H424.071ZM425.838 94.7568C425.838 94.4406 425.745 94.1988 425.559 94.0314C425.379 93.864 425.072 93.7276 424.638 93.6222V95.91C425.01 95.8604 425.301 95.7364 425.512 95.538C425.729 95.3334 425.838 95.073 425.838 94.7568ZM422.973 91.6971C422.973 92.0133 423.063 92.252 423.243 92.4132C423.429 92.5682 423.708 92.6953 424.08 92.7945V90.7392C423.745 90.7826 423.475 90.8849 423.271 91.0461C423.072 91.2073 422.973 91.4243 422.973 91.6971ZM429.908 96.6819C429.133 96.6819 428.565 96.3874 428.206 95.7984C427.852 95.2094 427.676 94.3848 427.676 93.3246C427.676 92.2644 427.852 91.4398 428.206 90.8508C428.565 90.2618 429.133 89.9673 429.908 89.9673C430.683 89.9673 431.247 90.2618 431.6 90.8508C431.96 91.4398 432.14 92.2644 432.14 93.3246C432.14 94.3848 431.96 95.2094 431.6 95.7984C431.247 96.3874 430.683 96.6819 429.908 96.6819ZM429.908 96.003C430.162 96.003 430.379 95.9503 430.559 95.8449C430.739 95.7395 430.884 95.5907 430.996 95.3985C431.107 95.2063 431.188 94.98 431.238 94.7196C431.293 94.4592 431.321 94.1709 431.321 93.8547V92.7945C431.321 92.4783 431.293 92.19 431.238 91.9296C431.188 91.6692 431.107 91.4429 430.996 91.2507C430.884 91.0585 430.739 90.9097 430.559 90.8043C430.379 90.6989 430.162 90.6462 429.908 90.6462C429.654 90.6462 429.437 90.6989 429.257 90.8043C429.077 90.9097 428.931 91.0585 428.82 91.2507C428.708 91.4429 428.624 91.6692 428.569 91.9296C428.519 92.19 428.494 92.4783 428.494 92.7945V93.8547C428.494 94.1709 428.519 94.4592 428.569 94.7196C428.624 94.98 428.708 95.2063 428.82 95.3985C428.931 95.5907 429.077 95.7395 429.257 95.8449C429.437 95.9503 429.654 96.003 429.908 96.003ZM433.959 96.6819C433.76 96.6819 433.615 96.6323 433.522 96.5331C433.435 96.4339 433.392 96.3037 433.392 96.1425V96.0216C433.392 95.8604 433.435 95.7302 433.522 95.631C433.615 95.5318 433.76 95.4822 433.959 95.4822C434.157 95.4822 434.3 95.5318 434.387 95.631C434.48 95.7302 434.526 95.8604 434.526 96.0216V96.1425C434.526 96.3037 434.48 96.4339 434.387 96.5331C434.3 96.6323 434.157 96.6819 433.959 96.6819ZM437.655 92.8317C438.095 92.8317 438.424 92.7325 438.641 92.5341C438.864 92.3295 438.976 92.0691 438.976 91.7529V91.6878C438.976 91.3468 438.867 91.0926 438.65 90.9252C438.44 90.7516 438.161 90.6648 437.813 90.6648C437.479 90.6648 437.206 90.7392 436.995 90.888C436.784 91.0306 436.611 91.2259 436.474 91.4739L435.898 91.0275C435.978 90.8973 436.074 90.7702 436.186 90.6462C436.304 90.516 436.44 90.4013 436.595 90.3021C436.75 90.2029 436.93 90.1223 437.134 90.0603C437.339 89.9983 437.572 89.9673 437.832 89.9673C438.105 89.9673 438.362 90.0045 438.604 90.0789C438.846 90.1471 439.053 90.2525 439.227 90.3951C439.407 90.5315 439.546 90.702 439.645 90.9066C439.751 91.1112 439.804 91.3437 439.804 91.6041C439.804 91.8149 439.769 92.004 439.701 92.1714C439.639 92.3388 439.552 92.4845 439.441 92.6085C439.329 92.7325 439.196 92.8379 439.041 92.9247C438.892 93.0115 438.731 93.0766 438.557 93.12V93.1572C438.731 93.1944 438.898 93.2564 439.06 93.3432C439.227 93.4238 439.373 93.5323 439.497 93.6687C439.627 93.7989 439.729 93.9601 439.804 94.1523C439.884 94.3383 439.924 94.5522 439.924 94.794C439.924 95.073 439.872 95.3303 439.766 95.5659C439.661 95.7953 439.512 95.9937 439.32 96.1611C439.128 96.3223 438.895 96.4494 438.622 96.5424C438.35 96.6354 438.049 96.6819 437.72 96.6819C437.441 96.6819 437.193 96.6509 436.976 96.5889C436.759 96.5269 436.567 96.4432 436.4 96.3378C436.232 96.2324 436.084 96.1146 435.953 95.9844C435.829 95.8542 435.718 95.7178 435.619 95.5752L436.204 95.1288C436.285 95.259 436.372 95.3768 436.465 95.4822C436.564 95.5876 436.673 95.6775 436.79 95.7519C436.908 95.8263 437.041 95.8852 437.19 95.9286C437.339 95.9658 437.513 95.9844 437.711 95.9844C438.17 95.9844 438.517 95.8821 438.753 95.6775C438.988 95.4667 439.106 95.1691 439.106 94.7847V94.7103C439.106 94.3259 438.988 94.0314 438.753 93.8268C438.517 93.616 438.17 93.5106 437.711 93.5106H436.948V92.8317H437.655ZM443.594 96.6819C442.819 96.6819 442.252 96.3874 441.892 95.7984C441.539 95.2094 441.362 94.3848 441.362 93.3246C441.362 92.2644 441.539 91.4398 441.892 90.8508C442.252 90.2618 442.819 89.9673 443.594 89.9673C444.369 89.9673 444.934 90.2618 445.287 90.8508C445.647 91.4398 445.826 92.2644 445.826 93.3246C445.826 94.3848 445.647 95.2094 445.287 95.7984C444.934 96.3874 444.369 96.6819 443.594 96.6819ZM443.594 96.003C443.849 96.003 444.066 95.9503 444.245 95.8449C444.425 95.7395 444.571 95.5907 444.682 95.3985C444.794 95.2063 444.875 94.98 444.924 94.7196C444.98 94.4592 445.008 94.1709 445.008 93.8547V92.7945C445.008 92.4783 444.98 92.19 444.924 91.9296C444.875 91.6692 444.794 91.4429 444.682 91.2507C444.571 91.0585 444.425 90.9097 444.245 90.8043C444.066 90.6989 443.849 90.6462 443.594 90.6462C443.34 90.6462 443.123 90.6989 442.943 90.8043C442.764 90.9097 442.618 91.0585 442.506 91.2507C442.395 91.4429 442.311 91.6692 442.255 91.9296C442.206 92.19 442.181 92.4783 442.181 92.7945V93.8547C442.181 94.1709 442.206 94.4592 442.255 94.7196C442.311 94.98 442.395 95.2063 442.506 95.3985C442.618 95.5907 442.764 95.7395 442.943 95.8449C443.123 95.9503 443.34 96.003 443.594 96.003ZM450.178 90.0789V94.0965C450.178 94.7165 450.293 95.1877 450.522 95.5101C450.752 95.8263 451.155 95.9844 451.731 95.9844C452.308 95.9844 452.711 95.8263 452.94 95.5101C453.17 95.1877 453.284 94.7165 453.284 94.0965V90.0789H454.066V93.9105C454.066 94.3817 454.022 94.7909 453.935 95.1381C453.855 95.4853 453.721 95.7736 453.535 96.003C453.349 96.2324 453.105 96.4029 452.801 96.5145C452.503 96.6261 452.137 96.6819 451.703 96.6819C451.269 96.6819 450.904 96.6261 450.606 96.5145C450.315 96.4029 450.079 96.2324 449.899 96.003C449.719 95.7736 449.589 95.4853 449.509 95.1381C449.434 94.7909 449.397 94.3817 449.397 93.9105V90.0789H450.178ZM457.569 96.6819C457.042 96.6819 456.593 96.5827 456.221 96.3843C455.849 96.1797 455.533 95.9007 455.272 95.5473L455.849 95.0637C456.078 95.3675 456.332 95.6 456.611 95.7612C456.89 95.9162 457.219 95.9937 457.597 95.9937C458.062 95.9937 458.416 95.8821 458.657 95.6589C458.905 95.4357 459.029 95.1381 459.029 94.7661C459.029 94.4561 458.936 94.2174 458.75 94.05C458.564 93.8826 458.257 93.7493 457.83 93.6501L457.3 93.5292C456.704 93.3928 456.249 93.1882 455.932 92.9154C455.622 92.6364 455.467 92.2458 455.467 91.7436C455.467 91.4584 455.52 91.2042 455.626 90.981C455.731 90.7578 455.877 90.5718 456.063 90.423C456.255 90.2742 456.481 90.1626 456.742 90.0882C457.008 90.0076 457.3 89.9673 457.616 89.9673C458.106 89.9673 458.524 90.0572 458.871 90.237C459.225 90.4168 459.522 90.6803 459.764 91.0275L459.178 91.4553C458.998 91.2073 458.781 91.012 458.527 90.8694C458.273 90.7268 457.957 90.6555 457.579 90.6555C457.163 90.6555 456.835 90.7454 456.593 90.9252C456.357 91.0988 456.239 91.3623 456.239 91.7157C456.239 92.0257 456.339 92.2613 456.537 92.4225C456.742 92.5775 457.048 92.7015 457.458 92.7945L457.988 92.9154C458.626 93.058 459.088 93.275 459.373 93.5664C459.659 93.8578 459.801 94.2453 459.801 94.7289C459.801 95.0265 459.749 95.2962 459.643 95.538C459.544 95.7798 459.398 95.9844 459.206 96.1518C459.014 96.3192 458.778 96.4494 458.499 96.5424C458.226 96.6354 457.916 96.6819 457.569 96.6819ZM461.15 90.0789H463.326C463.729 90.0789 464.095 90.1471 464.424 90.2835C464.752 90.4199 465.031 90.6245 465.261 90.8973C465.496 91.1639 465.676 91.5018 465.8 91.911C465.924 92.314 465.986 92.7852 465.986 93.3246C465.986 93.864 465.924 94.3383 465.8 94.7475C465.676 95.1505 465.496 95.4884 465.261 95.7612C465.031 96.0278 464.752 96.2293 464.424 96.3657C464.095 96.5021 463.729 96.5703 463.326 96.5703H461.15V90.0789ZM463.326 95.8821C463.593 95.8821 463.838 95.8387 464.061 95.7519C464.284 95.6589 464.477 95.5256 464.638 95.352C464.799 95.1784 464.923 94.9676 465.01 94.7196C465.103 94.4654 465.149 94.1771 465.149 93.8547V92.7945C465.149 92.4721 465.103 92.1869 465.01 91.9389C464.923 91.6847 464.799 91.4708 464.638 91.2972C464.477 91.1236 464.284 90.9934 464.061 90.9066C463.838 90.8136 463.593 90.7671 463.326 90.7671H461.931V95.8821H463.326Z" fill="#606367"/>
<path d="M386.51 78.3493V76.8264H390.311V78.3493H386.51ZM395.282 81.9303C394.688 81.9303 394.171 81.8205 393.732 81.601C393.293 81.3723 392.932 81.0476 392.648 80.6269C392.364 80.2061 392.154 79.6893 392.017 79.0765C391.88 78.4637 391.811 77.7639 391.811 76.9773C391.811 76.1999 391.88 75.5047 392.017 74.8919C392.154 74.2699 392.364 73.7485 392.648 73.3278C392.932 72.907 393.293 72.5869 393.732 72.3674C394.171 72.1387 394.688 72.0244 395.282 72.0244C396.471 72.0244 397.345 72.4588 397.903 73.3278C398.47 74.1967 398.753 75.4132 398.753 76.9773C398.753 78.5414 398.47 79.7579 397.903 80.6269C397.345 81.4958 396.471 81.9303 395.282 81.9303ZM395.282 80.6131C395.612 80.6131 395.891 80.5491 396.119 80.4211C396.357 80.2839 396.549 80.0918 396.695 79.8448C396.842 79.5979 396.947 79.3052 397.011 78.9667C397.075 78.6192 397.107 78.235 397.107 77.8142V76.1404C397.107 75.7196 397.075 75.3401 397.011 75.0016C396.947 74.6541 396.842 74.3568 396.695 74.1098C396.549 73.8629 396.357 73.6754 396.119 73.5473C395.891 73.4101 395.612 73.3415 395.282 73.3415C394.953 73.3415 394.669 73.4101 394.432 73.5473C394.203 73.6754 394.015 73.8629 393.869 74.1098C393.723 74.3568 393.618 74.6541 393.554 75.0016C393.49 75.3401 393.458 75.7196 393.458 76.1404V77.8142C393.458 78.235 393.49 78.6192 393.554 78.9667C393.618 79.3052 393.723 79.5979 393.869 79.8448C394.015 80.0918 394.203 80.2839 394.432 80.4211C394.669 80.5491 394.953 80.6131 395.282 80.6131ZM401.382 81.9303C401.044 81.9303 400.792 81.8434 400.628 81.6696C400.463 81.4867 400.381 81.2626 400.381 80.9973V80.7915C400.381 80.5262 400.463 80.3067 400.628 80.1329C400.792 79.95 401.044 79.8585 401.382 79.8585C401.721 79.8585 401.972 79.95 402.137 80.1329C402.302 80.3067 402.384 80.5262 402.384 80.7915V80.9973C402.384 81.2626 402.302 81.4867 402.137 81.6696C401.972 81.8434 401.721 81.9303 401.382 81.9303ZM407.488 81.9303C406.894 81.9303 406.377 81.8205 405.938 81.601C405.499 81.3723 405.138 81.0476 404.854 80.6269C404.571 80.2061 404.36 79.6893 404.223 79.0765C404.086 78.4637 404.017 77.7639 404.017 76.9773C404.017 76.1999 404.086 75.5047 404.223 74.8919C404.36 74.2699 404.571 73.7485 404.854 73.3278C405.138 72.907 405.499 72.5869 405.938 72.3674C406.377 72.1387 406.894 72.0244 407.488 72.0244C408.677 72.0244 409.551 72.4588 410.109 73.3278C410.676 74.1967 410.96 75.4132 410.96 76.9773C410.96 78.5414 410.676 79.7579 410.109 80.6269C409.551 81.4958 408.677 81.9303 407.488 81.9303ZM407.488 80.6131C407.818 80.6131 408.097 80.5491 408.325 80.4211C408.563 80.2839 408.755 80.0918 408.901 79.8448C409.048 79.5979 409.153 79.3052 409.217 78.9667C409.281 78.6192 409.313 78.235 409.313 77.8142V76.1404C409.313 75.7196 409.281 75.3401 409.217 75.0016C409.153 74.6541 409.048 74.3568 408.901 74.1098C408.755 73.8629 408.563 73.6754 408.325 73.5473C408.097 73.4101 407.818 73.3415 407.488 73.3415C407.159 73.3415 406.875 73.4101 406.638 73.5473C406.409 73.6754 406.222 73.8629 406.075 74.1098C405.929 74.3568 405.824 74.6541 405.76 75.0016C405.696 75.3401 405.664 75.7196 405.664 76.1404V77.8142C405.664 78.235 405.696 78.6192 405.76 78.9667C405.824 79.3052 405.929 79.5979 406.075 79.8448C406.222 80.0918 406.409 80.2839 406.638 80.4211C406.875 80.5491 407.159 80.6131 407.488 80.6131ZM415.715 81.9303C415.12 81.9303 414.604 81.8205 414.165 81.601C413.726 81.3723 413.364 81.0476 413.081 80.6269C412.797 80.2061 412.587 79.6893 412.45 79.0765C412.312 78.4637 412.244 77.7639 412.244 76.9773C412.244 76.1999 412.312 75.5047 412.45 74.8919C412.587 74.2699 412.797 73.7485 413.081 73.3278C413.364 72.907 413.726 72.5869 414.165 72.3674C414.604 72.1387 415.12 72.0244 415.715 72.0244C416.904 72.0244 417.778 72.4588 418.336 73.3278C418.903 74.1967 419.186 75.4132 419.186 76.9773C419.186 78.5414 418.903 79.7579 418.336 80.6269C417.778 81.4958 416.904 81.9303 415.715 81.9303ZM415.715 80.6131C416.044 80.6131 416.323 80.5491 416.552 80.4211C416.79 80.2839 416.982 80.0918 417.128 79.8448C417.275 79.5979 417.38 79.3052 417.444 78.9667C417.508 78.6192 417.54 78.235 417.54 77.8142V76.1404C417.54 75.7196 417.508 75.3401 417.444 75.0016C417.38 74.6541 417.275 74.3568 417.128 74.1098C416.982 73.8629 416.79 73.6754 416.552 73.5473C416.323 73.4101 416.044 73.3415 415.715 73.3415C415.386 73.3415 415.102 73.4101 414.864 73.5473C414.636 73.6754 414.448 73.8629 414.302 74.1098C414.155 74.3568 414.05 74.6541 413.986 75.0016C413.922 75.3401 413.89 75.7196 413.89 76.1404V77.8142C413.89 78.235 413.922 78.6192 413.986 78.9667C414.05 79.3052 414.155 79.5979 414.302 79.8448C414.448 80.0918 414.636 80.2839 414.864 80.4211C415.102 80.5491 415.386 80.6131 415.715 80.6131ZM423.942 81.9303C423.347 81.9303 422.83 81.8205 422.391 81.601C421.952 81.3723 421.591 81.0476 421.307 80.6269C421.024 80.2061 420.814 79.6893 420.676 79.0765C420.539 78.4637 420.471 77.7639 420.471 76.9773C420.471 76.1999 420.539 75.5047 420.676 74.8919C420.814 74.2699 421.024 73.7485 421.307 73.3278C421.591 72.907 421.952 72.5869 422.391 72.3674C422.83 72.1387 423.347 72.0244 423.942 72.0244C425.131 72.0244 426.004 72.4588 426.562 73.3278C427.129 74.1967 427.413 75.4132 427.413 76.9773C427.413 78.5414 427.129 79.7579 426.562 80.6269C426.004 81.4958 425.131 81.9303 423.942 81.9303ZM423.942 80.6131C424.271 80.6131 424.55 80.5491 424.779 80.4211C425.016 80.2839 425.209 80.0918 425.355 79.8448C425.501 79.5979 425.606 79.3052 425.67 78.9667C425.734 78.6192 425.766 78.235 425.766 77.8142V76.1404C425.766 75.7196 425.734 75.3401 425.67 75.0016C425.606 74.6541 425.501 74.3568 425.355 74.1098C425.209 73.8629 425.016 73.6754 424.779 73.5473C424.55 73.4101 424.271 73.3415 423.942 73.3415C423.612 73.3415 423.329 73.4101 423.091 73.5473C422.862 73.6754 422.675 73.8629 422.529 74.1098C422.382 74.3568 422.277 74.6541 422.213 75.0016C422.149 75.3401 422.117 75.7196 422.117 76.1404V77.8142C422.117 78.235 422.149 78.6192 422.213 78.9667C422.277 79.3052 422.382 79.5979 422.529 79.8448C422.675 80.0918 422.862 80.2839 423.091 80.4211C423.329 80.5491 423.612 80.6131 423.942 80.6131ZM429.26 81.7656V80.4759H431.949V73.3141H431.839L429.616 75.6876L428.67 74.837L431.112 72.189H433.472V80.4759H435.804V81.7656H429.26ZM440.701 81.7656V72.189H446.834V73.561H442.252V76.2227H446.409V77.5947H442.252V80.3936H446.834V81.7656H440.701ZM452.388 73.561V81.7656H450.837V73.561H447.984V72.189H455.242V73.561H452.388ZM462.639 77.5947H458.303V81.7656H456.753V72.189H458.303V76.2227H462.639V72.189H464.189V81.7656H462.639V77.5947Z" fill="#1D1D20"/>
<path d="M266.553 71.9516H270.026C270.654 71.9516 271.221 72.0547 271.727 72.2609C272.243 72.4671 272.678 72.7765 273.035 73.1889C273.4 73.5919 273.681 74.1028 273.878 74.7215C274.075 75.3307 274.174 76.0431 274.174 76.8586C274.174 77.6741 274.075 78.3912 273.878 79.0098C273.681 79.6191 273.4 80.13 273.035 80.5424C272.678 80.9454 272.243 81.2501 271.727 81.4563C271.221 81.6625 270.654 81.7656 270.026 81.7656H266.553V71.9516ZM270.026 80.3596C270.757 80.3596 271.347 80.13 271.797 79.6707C272.247 79.2114 272.472 78.5365 272.472 77.646V76.0712C272.472 75.1808 272.247 74.5059 271.797 74.0466C271.347 73.5873 270.757 73.3576 270.026 73.3576H268.142V80.3596H270.026ZM278.906 81.9343C278.382 81.9343 277.913 81.8453 277.5 81.6672C277.088 81.4891 276.737 81.236 276.446 80.908C276.155 80.5705 275.93 80.1674 275.771 79.6988C275.621 79.2207 275.546 78.6911 275.546 78.11C275.546 77.5288 275.621 77.0039 275.771 76.5352C275.93 76.0572 276.155 75.6541 276.446 75.326C276.737 74.9886 277.088 74.7308 277.5 74.5527C277.913 74.3746 278.382 74.2856 278.906 74.2856C279.441 74.2856 279.909 74.3793 280.313 74.5668C280.725 74.7543 281.067 75.0167 281.339 75.3542C281.611 75.6822 281.812 76.0665 281.943 76.5071C282.084 76.9477 282.154 77.421 282.154 77.9272V78.5037H277.135V78.7427C277.135 79.3051 277.299 79.7691 277.627 80.1346C277.964 80.4908 278.442 80.6689 279.061 80.6689C279.511 80.6689 279.891 80.5705 280.2 80.3737C280.509 80.1768 280.772 79.9097 280.987 79.5722L281.887 80.458C281.615 80.908 281.222 81.2688 280.706 81.5407C280.191 81.8031 279.591 81.9343 278.906 81.9343ZM278.906 75.4807C278.644 75.4807 278.4 75.5276 278.175 75.6213C277.96 75.715 277.772 75.8463 277.613 76.015C277.463 76.1837 277.346 76.3852 277.261 76.6196C277.177 76.8539 277.135 77.1117 277.135 77.3929V77.4913H280.537V77.3507C280.537 76.7883 280.392 76.3384 280.102 76.0009C279.811 75.6541 279.413 75.4807 278.906 75.4807ZM283.851 74.4543H285.384V75.6635H285.454C285.613 75.2229 285.871 74.8855 286.227 74.6512C286.593 74.4074 287.019 74.2856 287.507 74.2856C288.435 74.2856 289.152 74.623 289.658 75.2979C290.164 75.9634 290.417 76.9008 290.417 78.11C290.417 79.3191 290.164 80.2612 289.658 80.9361C289.152 81.6016 288.435 81.9343 287.507 81.9343C287.019 81.9343 286.593 81.8125 286.227 81.5688C285.871 81.3251 285.613 80.9876 285.454 80.5564H285.384V84.5777H283.851V74.4543ZM287.043 80.6127C287.577 80.6127 288.003 80.444 288.322 80.1065C288.641 79.7597 288.8 79.3051 288.8 78.7427V77.4773C288.8 76.9148 288.641 76.4649 288.322 76.1275C288.003 75.7807 287.577 75.6072 287.043 75.6072C286.574 75.6072 286.18 75.7244 285.862 75.9588C285.543 76.1837 285.384 76.4837 285.384 76.8586V79.3613C285.384 79.7363 285.543 80.0409 285.862 80.2752C286.18 80.5002 286.574 80.6127 287.043 80.6127ZM295.04 81.9343C294.534 81.9343 294.07 81.8453 293.648 81.6672C293.236 81.4891 292.884 81.236 292.594 80.908C292.303 80.5705 292.078 80.1674 291.919 79.6988C291.759 79.2207 291.68 78.6911 291.68 78.11C291.68 77.5288 291.759 77.0039 291.919 76.5352C292.078 76.0572 292.303 75.6541 292.594 75.326C292.884 74.9886 293.236 74.7308 293.648 74.5527C294.07 74.3746 294.534 74.2856 295.04 74.2856C295.546 74.2856 296.006 74.3746 296.418 74.5527C296.84 74.7308 297.196 74.9886 297.487 75.326C297.777 75.6541 298.002 76.0572 298.161 76.5352C298.321 77.0039 298.4 77.5288 298.4 78.11C298.4 78.6911 298.321 79.2207 298.161 79.6988C298.002 80.1674 297.777 80.5705 297.487 80.908C297.196 81.236 296.84 81.4891 296.418 81.6672C296.006 81.8453 295.546 81.9343 295.04 81.9343ZM295.04 80.6689C295.565 80.6689 295.987 80.5096 296.305 80.1909C296.624 79.8628 296.784 79.3754 296.784 78.7286V77.4913C296.784 76.8445 296.624 76.3618 296.305 76.0431C295.987 75.715 295.565 75.551 295.04 75.551C294.515 75.551 294.093 75.715 293.775 76.0431C293.456 76.3618 293.297 76.8445 293.297 77.4913V78.7286C293.297 79.3754 293.456 79.8628 293.775 80.1909C294.093 80.5096 294.515 80.6689 295.04 80.6689ZM302.428 81.9343C301.734 81.9343 301.153 81.8125 300.685 81.5688C300.216 81.3251 299.808 80.9876 299.461 80.5564L300.446 79.6566C300.717 79.9847 301.017 80.2424 301.345 80.4299C301.683 80.608 302.072 80.697 302.512 80.697C302.962 80.697 303.295 80.6127 303.511 80.444C303.736 80.2659 303.848 80.0222 303.848 79.7128C303.848 79.4785 303.768 79.2817 303.609 79.1223C303.459 78.9536 303.192 78.8458 302.808 78.7989L302.133 78.7146C301.383 78.6208 300.792 78.4052 300.361 78.0678C299.939 77.721 299.728 77.2101 299.728 76.5352C299.728 76.179 299.794 75.865 299.925 75.5932C300.057 75.312 300.239 75.0776 300.474 74.8902C300.717 74.6933 301.003 74.5434 301.331 74.4402C301.669 74.3371 302.039 74.2856 302.442 74.2856C303.098 74.2856 303.633 74.3887 304.045 74.5949C304.467 74.8011 304.842 75.087 305.17 75.4526L304.228 76.3524C304.04 76.1275 303.792 75.9353 303.483 75.776C303.183 75.6072 302.836 75.5229 302.442 75.5229C302.02 75.5229 301.706 75.6072 301.5 75.776C301.303 75.9447 301.205 76.165 301.205 76.4368C301.205 76.718 301.294 76.9289 301.472 77.0695C301.65 77.2101 301.936 77.3132 302.33 77.3788L303.004 77.4632C303.811 77.5851 304.396 77.8241 304.762 78.1803C305.137 78.5271 305.324 78.9958 305.324 79.5863C305.324 79.9425 305.254 80.2659 305.114 80.5564C304.982 80.8377 304.79 81.0814 304.537 81.2876C304.284 81.4938 303.979 81.6531 303.623 81.7656C303.267 81.8781 302.869 81.9343 302.428 81.9343ZM307.829 73.1467C307.51 73.1467 307.276 73.0717 307.126 72.9217C306.986 72.7718 306.915 72.5796 306.915 72.3453V72.1063C306.915 71.8719 306.986 71.6798 307.126 71.5298C307.276 71.3798 307.51 71.3048 307.829 71.3048C308.148 71.3048 308.377 71.3798 308.518 71.5298C308.659 71.6798 308.729 71.8719 308.729 72.1063V72.3453C308.729 72.5796 308.659 72.7718 308.518 72.9217C308.377 73.0717 308.148 73.1467 307.829 73.1467ZM307.056 74.4543H308.588V81.7656H307.056V74.4543ZM312.802 81.7656C312.267 81.7656 311.864 81.6297 311.592 81.3579C311.32 81.0767 311.185 80.683 311.185 80.1768V75.7057H310.046V74.4543H310.664C310.917 74.4543 311.091 74.3981 311.185 74.2856C311.288 74.1731 311.339 73.9903 311.339 73.7372V72.4578H312.717V74.4543H314.25V75.7057H312.717V80.5143H314.137V81.7656H312.802ZM320.824 81.7656L318.335 74.4543H319.854L320.964 77.7866L321.71 80.3455H321.794L322.539 77.7866L323.678 74.4543H325.14L322.623 81.7656H320.824ZM329.017 75.9869C329.626 75.9869 330.076 75.8603 330.367 75.6072C330.657 75.3448 330.803 75.012 330.803 74.609V74.5105C330.803 74.0606 330.662 73.7185 330.381 73.4842C330.1 73.2404 329.72 73.1186 329.242 73.1186C328.773 73.1186 328.375 73.2264 328.047 73.442C327.719 73.6482 327.442 73.9388 327.217 74.3137L326.163 73.3998C326.313 73.1842 326.481 72.978 326.669 72.7811C326.856 72.5843 327.077 72.4156 327.33 72.275C327.583 72.125 327.869 72.0078 328.187 71.9235C328.506 71.8297 328.872 71.7829 329.284 71.7829C329.743 71.7829 330.17 71.8391 330.564 71.9516C330.957 72.0641 331.295 72.2328 331.576 72.4578C331.857 72.6733 332.077 72.9405 332.237 73.2592C332.396 73.5685 332.476 73.92 332.476 74.3137C332.476 74.623 332.424 74.9042 332.321 75.1573C332.227 75.4104 332.091 75.6354 331.913 75.8322C331.745 76.0197 331.543 76.1743 331.309 76.2962C331.084 76.4181 330.845 76.5071 330.592 76.5633V76.6336C330.873 76.6899 331.135 76.7836 331.379 76.9148C331.632 77.0367 331.852 77.2007 332.04 77.407C332.227 77.6038 332.373 77.8428 332.476 78.124C332.588 78.3959 332.644 78.7099 332.644 79.0661C332.644 79.4972 332.56 79.8909 332.391 80.2471C332.223 80.5939 331.984 80.8939 331.674 81.147C331.374 81.4001 331.009 81.5969 330.578 81.7375C330.146 81.8687 329.668 81.9343 329.143 81.9343C328.684 81.9343 328.281 81.8828 327.934 81.7797C327.587 81.686 327.278 81.5594 327.006 81.4001C326.744 81.2313 326.509 81.0439 326.303 80.8377C326.106 80.6221 325.933 80.4018 325.783 80.1768L326.95 79.2629C327.072 79.4597 327.198 79.6425 327.33 79.8113C327.47 79.9706 327.625 80.1112 327.794 80.2331C327.972 80.3455 328.169 80.4346 328.384 80.5002C328.609 80.5658 328.862 80.5986 329.143 80.5986C329.743 80.5986 330.203 80.458 330.521 80.1768C330.84 79.8862 330.999 79.4879 330.999 78.9817V78.8833C330.999 78.3771 330.831 77.9928 330.493 77.7303C330.156 77.4679 329.678 77.3367 329.059 77.3367H328.019V75.9869H329.017Z" fill="#1D1D20"/>
<path d="M268.496 96.9007C267.672 96.9007 267.03 96.6217 266.571 96.0637C266.113 95.4995 265.883 94.6718 265.883 93.5806C265.883 92.4894 266.113 91.6524 266.571 91.0696C267.03 90.4806 267.672 90.1861 268.496 90.1861C269.042 90.1861 269.498 90.3101 269.864 90.5581C270.236 90.8061 270.524 91.1564 270.728 91.609L270.096 91.9903C269.966 91.6555 269.767 91.3889 269.501 91.1905C269.234 90.9859 268.899 90.8836 268.496 90.8836C268.217 90.8836 267.966 90.9363 267.743 91.0417C267.526 91.1471 267.34 91.299 267.185 91.4974C267.036 91.6896 266.922 91.9221 266.841 92.1949C266.76 92.4615 266.72 92.7622 266.72 93.097V94.0642C266.72 94.7338 266.875 95.2577 267.185 95.6359C267.495 96.0141 267.932 96.2032 268.496 96.2032C268.912 96.2032 269.259 96.0978 269.538 95.887C269.817 95.67 270.022 95.3848 270.152 95.0314L270.775 95.422C270.57 95.8808 270.276 96.2435 269.891 96.5101C269.507 96.7705 269.042 96.9007 268.496 96.9007ZM273.724 96.9007C273.402 96.9007 273.107 96.8418 272.84 96.724C272.574 96.6062 272.344 96.4388 272.152 96.2218C271.966 95.9986 271.821 95.7351 271.715 95.4313C271.61 95.1213 271.557 94.7741 271.557 94.3897C271.557 94.0115 271.61 93.6674 271.715 93.3574C271.821 93.0474 271.966 92.7839 272.152 92.5669C272.344 92.3437 272.574 92.1732 272.84 92.0554C273.107 91.9376 273.402 91.8787 273.724 91.8787C274.046 91.8787 274.338 91.9376 274.598 92.0554C274.865 92.1732 275.094 92.3437 275.286 92.5669C275.479 92.7839 275.627 93.0474 275.733 93.3574C275.838 93.6674 275.891 94.0115 275.891 94.3897C275.891 94.7741 275.838 95.1213 275.733 95.4313C275.627 95.7351 275.479 95.9986 275.286 96.2218C275.094 96.4388 274.865 96.6062 274.598 96.724C274.338 96.8418 274.046 96.9007 273.724 96.9007ZM273.724 96.2404C274.127 96.2404 274.456 96.1164 274.71 95.8684C274.964 95.6204 275.091 95.2422 275.091 94.7338V94.0456C275.091 93.5372 274.964 93.159 274.71 92.911C274.456 92.663 274.127 92.539 273.724 92.539C273.321 92.539 272.992 92.663 272.738 92.911C272.484 93.159 272.357 93.5372 272.357 94.0456V94.7338C272.357 95.2422 272.484 95.6204 272.738 95.8684C272.992 96.1164 273.321 96.2404 273.724 96.2404ZM277.114 96.7891V91.9903H277.858V92.7715H277.896C278.013 92.4987 278.178 92.2817 278.389 92.1205C278.606 91.9593 278.894 91.8787 279.253 91.8787C279.749 91.8787 280.14 92.0399 280.425 92.3623C280.717 92.6785 280.862 93.128 280.862 93.7108V96.7891H280.118V93.841C280.118 92.9792 279.756 92.5483 279.03 92.5483C278.881 92.5483 278.736 92.5669 278.593 92.6041C278.457 92.6413 278.333 92.6971 278.221 92.7715C278.11 92.8459 278.02 92.942 277.951 93.0598C277.889 93.1714 277.858 93.3047 277.858 93.4597V96.7891H277.114ZM282.661 92.6413H281.879V91.9903H282.661V91.0231C282.661 90.6883 282.747 90.4186 282.921 90.214C283.095 90.0094 283.358 89.9071 283.711 89.9071H284.437V90.5581H283.405V91.9903H286.092V96.7891H285.348V92.6413H283.405V96.7891H282.661V92.6413ZM285.72 90.865C285.559 90.865 285.441 90.8278 285.367 90.7534C285.299 90.6728 285.265 90.5705 285.265 90.4465V90.3256C285.265 90.2016 285.299 90.1024 285.367 90.028C285.441 89.9474 285.559 89.9071 285.72 89.9071C285.881 89.9071 285.996 89.9474 286.064 90.028C286.139 90.1024 286.176 90.2016 286.176 90.3256V90.4465C286.176 90.5705 286.139 90.6728 286.064 90.7534C285.996 90.8278 285.881 90.865 285.72 90.865ZM287.677 96.7891V91.9903H288.421V92.8738H288.467C288.554 92.6444 288.709 92.4398 288.932 92.26C289.156 92.0802 289.462 91.9903 289.853 91.9903H290.141V92.7343H289.704C289.301 92.7343 288.985 92.8118 288.756 92.9668C288.532 93.1156 288.421 93.3047 288.421 93.5341V96.7891H287.677ZM291.092 96.7891V91.9903H291.836V92.7715H291.873C291.929 92.6475 291.991 92.5328 292.059 92.4274C292.133 92.3158 292.22 92.2197 292.319 92.1391C292.425 92.0585 292.546 91.9965 292.682 91.9531C292.818 91.9035 292.98 91.8787 293.166 91.8787C293.482 91.8787 293.773 91.9562 294.04 92.1112C294.306 92.26 294.505 92.508 294.635 92.8552H294.654C294.74 92.5948 294.902 92.3685 295.137 92.1763C295.379 91.9779 295.704 91.8787 296.114 91.8787C296.603 91.8787 296.985 92.0399 297.258 92.3623C297.537 92.6785 297.676 93.128 297.676 93.7108V96.7891H296.932V93.841C296.932 93.4132 296.848 93.0908 296.681 92.8738C296.514 92.6568 296.247 92.5483 295.881 92.5483C295.732 92.5483 295.59 92.5669 295.453 92.6041C295.323 92.6413 295.205 92.6971 295.1 92.7715C294.995 92.8459 294.911 92.942 294.849 93.0598C294.787 93.1714 294.756 93.3047 294.756 93.4597V96.7891H294.012V93.841C294.012 93.4132 293.928 93.0908 293.761 92.8738C293.593 92.6568 293.333 92.5483 292.98 92.5483C292.831 92.5483 292.688 92.5669 292.552 92.6041C292.415 92.6413 292.294 92.6971 292.189 92.7715C292.084 92.8459 291.997 92.942 291.929 93.0598C291.867 93.1714 291.836 93.3047 291.836 93.4597V96.7891H291.092ZM301.015 96.9007C300.687 96.9007 300.389 96.8418 300.122 96.724C299.862 96.6062 299.636 96.4388 299.444 96.2218C299.258 95.9986 299.112 95.7351 299.006 95.4313C298.907 95.1213 298.858 94.7741 298.858 94.3897C298.858 94.0115 298.907 93.6674 299.006 93.3574C299.112 93.0474 299.258 92.7839 299.444 92.5669C299.636 92.3437 299.862 92.1732 300.122 92.0554C300.389 91.9376 300.687 91.8787 301.015 91.8787C301.338 91.8787 301.626 91.9376 301.88 92.0554C302.134 92.1732 302.351 92.3375 302.531 92.5483C302.711 92.7529 302.847 92.9978 302.94 93.283C303.04 93.5682 303.089 93.8813 303.089 94.2223V94.5757H299.639V94.7989C299.639 95.0035 299.67 95.1957 299.732 95.3755C299.8 95.5491 299.893 95.701 300.011 95.8312C300.135 95.9614 300.284 96.0637 300.457 96.1381C300.637 96.2125 300.839 96.2497 301.062 96.2497C301.366 96.2497 301.629 96.1784 301.852 96.0358C302.082 95.8932 302.258 95.6886 302.382 95.422L302.912 95.8033C302.757 96.1319 302.516 96.3985 302.187 96.6031C301.858 96.8015 301.468 96.9007 301.015 96.9007ZM301.015 92.5018C300.811 92.5018 300.625 92.539 300.457 92.6134C300.29 92.6816 300.144 92.7808 300.02 92.911C299.902 93.0412 299.809 93.1962 299.741 93.376C299.673 93.5496 299.639 93.7418 299.639 93.9526V94.0177H302.289V93.9154C302.289 93.4876 302.172 93.1466 301.936 92.8924C301.707 92.632 301.4 92.5018 301.015 92.5018ZM307.384 96.0079H307.347C307.056 96.6031 306.587 96.9007 305.943 96.9007C305.645 96.9007 305.375 96.8418 305.134 96.724C304.892 96.6062 304.684 96.4388 304.51 96.2218C304.343 96.0048 304.213 95.7413 304.12 95.4313C304.033 95.1213 303.99 94.7741 303.99 94.3897C303.99 94.0053 304.033 93.6581 304.12 93.3481C304.213 93.0381 304.343 92.7746 304.51 92.5576C304.684 92.3406 304.892 92.1732 305.134 92.0554C305.375 91.9376 305.645 91.8787 305.943 91.8787C306.277 91.8787 306.563 91.9531 306.798 92.1019C307.04 92.2445 307.223 92.4677 307.347 92.7715H307.384V89.9071H308.128V96.7891H307.384V96.0079ZM306.147 96.2311C306.315 96.2311 306.473 96.2094 306.622 96.166C306.777 96.1226 306.91 96.0606 307.021 95.98C307.133 95.8932 307.22 95.7909 307.282 95.6731C307.35 95.5491 307.384 95.4096 307.384 95.2546V93.469C307.384 93.3388 307.35 93.2179 307.282 93.1063C307.22 92.9885 307.133 92.8893 307.021 92.8087C306.91 92.7281 306.777 92.6661 306.622 92.6227C306.473 92.5731 306.315 92.5483 306.147 92.5483C305.726 92.5483 305.394 92.6816 305.152 92.9482C304.91 93.2086 304.789 93.5527 304.789 93.9805V94.7989C304.789 95.2267 304.91 95.5739 305.152 95.8405C305.394 96.1009 305.726 96.2311 306.147 96.2311Z" fill="#07638E"/>
<rect x="212.031" y="121.57" width="270.516" height="57.2754" rx="13.2174" fill="white"/>
<rect x="227.402" y="135.617" width="29.1798" height="29.1798" rx="14.5899" fill="#0B6E40"/>
<path d="M247.846 145.853C248.041 146.049 248.041 146.365 247.846 146.561L240.846 153.561C240.752 153.654 240.625 153.707 240.492 153.707C240.36 153.707 240.232 153.654 240.139 153.561L236.639 150.061C236.443 149.865 236.443 149.549 236.639 149.353C236.834 149.158 237.15 149.158 237.346 149.353L240.492 152.5L247.139 145.853C247.334 145.658 247.65 145.658 247.846 145.853Z" fill="white"/>
<path d="M272.683 147.039L271.797 144.382H268.128L267.27 147.039H265.653L268.999 137.225H270.996L274.342 147.039H272.683ZM269.998 138.687H269.927L268.507 143.018H271.404L269.998 138.687ZM275.75 139.728H277.282V140.937H277.353C277.512 140.496 277.77 140.159 278.126 139.925C278.492 139.681 278.918 139.559 279.406 139.559C280.333 139.559 281.051 139.896 281.557 140.571C282.063 141.237 282.316 142.174 282.316 143.383C282.316 144.593 282.063 145.535 281.557 146.21C281.051 146.875 280.333 147.208 279.406 147.208C278.918 147.208 278.492 147.086 278.126 146.842C277.77 146.599 277.512 146.261 277.353 145.83H277.282V149.851H275.75V139.728ZM278.942 145.886C279.476 145.886 279.902 145.717 280.221 145.38C280.54 145.033 280.699 144.579 280.699 144.016V142.751C280.699 142.188 280.54 141.738 280.221 141.401C279.902 141.054 279.476 140.881 278.942 140.881C278.473 140.881 278.079 140.998 277.76 141.232C277.442 141.457 277.282 141.757 277.282 142.132V144.635C277.282 145.01 277.442 145.314 277.76 145.549C278.079 145.774 278.473 145.886 278.942 145.886ZM284.071 139.728H285.603V140.937H285.674C285.833 140.496 286.091 140.159 286.447 139.925C286.812 139.681 287.239 139.559 287.726 139.559C288.654 139.559 289.371 139.896 289.878 140.571C290.384 141.237 290.637 142.174 290.637 143.383C290.637 144.593 290.384 145.535 289.878 146.21C289.371 146.875 288.654 147.208 287.726 147.208C287.239 147.208 286.812 147.086 286.447 146.842C286.091 146.599 285.833 146.261 285.674 145.83H285.603V149.851H284.071V139.728ZM287.262 145.886C287.797 145.886 288.223 145.717 288.542 145.38C288.86 145.033 289.02 144.579 289.02 144.016V142.751C289.02 142.188 288.86 141.738 288.542 141.401C288.223 141.054 287.797 140.881 287.262 140.881C286.794 140.881 286.4 140.998 286.081 141.232C285.763 141.457 285.603 141.757 285.603 142.132V144.635C285.603 145.01 285.763 145.314 286.081 145.549C286.4 145.774 286.794 145.886 287.262 145.886ZM292.391 147.039V139.728H293.924V141.134H293.994C294.097 140.759 294.313 140.431 294.641 140.15C294.969 139.868 295.424 139.728 296.005 139.728H296.413V141.204H295.808C295.199 141.204 294.73 141.302 294.402 141.499C294.083 141.696 293.924 141.987 293.924 142.371V147.039H292.391ZM300.574 147.208C300.067 147.208 299.603 147.119 299.182 146.941C298.769 146.763 298.418 146.509 298.127 146.181C297.836 145.844 297.611 145.441 297.452 144.972C297.293 144.494 297.213 143.965 297.213 143.383C297.213 142.802 297.293 142.277 297.452 141.809C297.611 141.331 297.836 140.928 298.127 140.599C298.418 140.262 298.769 140.004 299.182 139.826C299.603 139.648 300.067 139.559 300.574 139.559C301.08 139.559 301.539 139.648 301.951 139.826C302.373 140.004 302.729 140.262 303.02 140.599C303.311 140.928 303.536 141.331 303.695 141.809C303.854 142.277 303.934 142.802 303.934 143.383C303.934 143.965 303.854 144.494 303.695 144.972C303.536 145.441 303.311 145.844 303.02 146.181C302.729 146.509 302.373 146.763 301.951 146.941C301.539 147.119 301.08 147.208 300.574 147.208ZM300.574 145.942C301.098 145.942 301.52 145.783 301.839 145.464C302.158 145.136 302.317 144.649 302.317 144.002V142.765C302.317 142.118 302.158 141.635 301.839 141.317C301.52 140.988 301.098 140.824 300.574 140.824C300.049 140.824 299.627 140.988 299.308 141.317C298.989 141.635 298.83 142.118 298.83 142.765V144.002C298.83 144.649 298.989 145.136 299.308 145.464C299.627 145.783 300.049 145.942 300.574 145.942ZM307.121 147.039L304.632 139.728H306.15L307.261 143.06L308.006 145.619H308.091L308.836 143.06L309.975 139.728H311.437L308.92 147.039H307.121ZM315.485 147.208C314.96 147.208 314.491 147.119 314.079 146.941C313.667 146.763 313.315 146.509 313.024 146.181C312.734 145.844 312.509 145.441 312.35 144.972C312.2 144.494 312.125 143.965 312.125 143.383C312.125 142.802 312.2 142.277 312.35 141.809C312.509 141.331 312.734 140.928 313.024 140.599C313.315 140.262 313.667 140.004 314.079 139.826C314.491 139.648 314.96 139.559 315.485 139.559C316.019 139.559 316.488 139.653 316.891 139.84C317.303 140.028 317.646 140.29 317.917 140.628C318.189 140.956 318.391 141.34 318.522 141.781C318.663 142.221 318.733 142.694 318.733 143.201V143.777H313.713V144.016C313.713 144.579 313.877 145.043 314.206 145.408C314.543 145.764 315.021 145.942 315.64 145.942C316.09 145.942 316.469 145.844 316.779 145.647C317.088 145.45 317.35 145.183 317.566 144.846L318.466 145.731C318.194 146.181 317.8 146.542 317.285 146.814C316.769 147.077 316.169 147.208 315.485 147.208ZM315.485 140.754C315.223 140.754 314.979 140.801 314.754 140.895C314.538 140.988 314.351 141.12 314.191 141.288C314.042 141.457 313.924 141.659 313.84 141.893C313.756 142.127 313.713 142.385 313.713 142.666V142.765H317.116V142.624C317.116 142.062 316.971 141.612 316.68 141.274C316.39 140.928 315.991 140.754 315.485 140.754ZM325.369 137.225V143.271C325.369 144.105 325.529 144.733 325.847 145.155C326.166 145.577 326.71 145.788 327.478 145.788C328.247 145.788 328.791 145.577 329.109 145.155C329.428 144.733 329.587 144.105 329.587 143.271V137.225H331.148V143.018C331.148 143.74 331.082 144.363 330.951 144.888C330.82 145.413 330.609 145.849 330.318 146.195C330.028 146.533 329.648 146.786 329.18 146.955C328.72 147.123 328.153 147.208 327.478 147.208C326.803 147.208 326.232 147.123 325.763 146.955C325.304 146.786 324.929 146.533 324.638 146.195C324.348 145.849 324.137 145.413 324.005 144.888C323.874 144.363 323.809 143.74 323.809 143.018V137.225H325.369ZM336.442 147.208C335.617 147.208 334.914 147.058 334.333 146.758C333.762 146.458 333.269 146.055 332.857 145.549L333.954 144.522C334.301 144.944 334.68 145.263 335.093 145.478C335.514 145.694 335.992 145.802 336.527 145.802C337.155 145.802 337.628 145.661 337.947 145.38C338.265 145.099 338.425 144.719 338.425 144.241C338.425 143.857 338.312 143.552 338.087 143.327C337.862 143.102 337.464 142.933 336.892 142.821L336.021 142.666C335.064 142.488 334.347 142.174 333.869 141.724C333.391 141.274 333.152 140.656 333.152 139.868C333.152 139.437 333.232 139.048 333.391 138.701C333.56 138.345 333.79 138.05 334.08 137.816C334.38 137.572 334.741 137.384 335.163 137.253C335.585 137.122 336.058 137.056 336.583 137.056C337.323 137.056 337.966 137.188 338.509 137.45C339.053 137.703 339.517 138.073 339.901 138.561L338.79 139.545C338.537 139.217 338.228 138.954 337.862 138.758C337.497 138.561 337.042 138.462 336.499 138.462C335.936 138.462 335.5 138.575 335.191 138.8C334.882 139.025 334.727 139.353 334.727 139.784C334.727 140.196 334.854 140.506 335.107 140.712C335.36 140.909 335.753 141.059 336.288 141.162L337.159 141.345C338.144 141.532 338.861 141.851 339.311 142.301C339.77 142.751 340 143.369 340 144.157C340 144.616 339.92 145.033 339.761 145.408C339.601 145.783 339.367 146.106 339.058 146.378C338.758 146.641 338.387 146.847 337.947 146.997C337.506 147.137 337.005 147.208 336.442 147.208ZM341.907 137.225H345.38C346.008 137.225 346.575 137.328 347.081 137.534C347.597 137.741 348.033 138.05 348.389 138.462C348.754 138.865 349.035 139.376 349.232 139.995C349.429 140.604 349.528 141.317 349.528 142.132C349.528 142.948 349.429 143.665 349.232 144.283C349.035 144.893 348.754 145.403 348.389 145.816C348.033 146.219 347.597 146.524 347.081 146.73C346.575 146.936 346.008 147.039 345.38 147.039H341.907V137.225ZM345.38 145.633C346.111 145.633 346.701 145.403 347.151 144.944C347.601 144.485 347.826 143.81 347.826 142.919V141.345C347.826 140.454 347.601 139.779 347.151 139.32C346.701 138.861 346.111 138.631 345.38 138.631H343.496V145.633H345.38ZM355.188 147.208C353.904 147.208 352.897 146.777 352.166 145.914C351.434 145.043 351.069 143.782 351.069 142.132C351.069 141.307 351.163 140.581 351.35 139.953C351.537 139.325 351.809 138.795 352.166 138.364C352.522 137.933 352.953 137.609 353.459 137.394C353.975 137.169 354.551 137.056 355.188 137.056C356.041 137.056 356.754 137.244 357.326 137.619C357.907 137.994 358.361 138.547 358.689 139.278L357.354 140.009C357.185 139.54 356.923 139.17 356.566 138.898C356.22 138.617 355.76 138.476 355.188 138.476C354.429 138.476 353.834 138.734 353.403 139.25C352.972 139.765 352.756 140.478 352.756 141.387V142.877C352.756 143.786 352.972 144.499 353.403 145.014C353.834 145.53 354.429 145.788 355.188 145.788C355.779 145.788 356.257 145.638 356.623 145.338C356.998 145.028 357.274 144.635 357.452 144.157L358.732 144.93C358.404 145.642 357.944 146.2 357.354 146.603C356.763 147.006 356.041 147.208 355.188 147.208ZM365.946 147.208C365.253 147.208 364.671 147.086 364.203 146.842C363.734 146.599 363.326 146.261 362.979 145.83L363.964 144.93C364.236 145.258 364.535 145.516 364.864 145.703C365.201 145.881 365.59 145.97 366.031 145.97C366.48 145.97 366.813 145.886 367.029 145.717C367.254 145.539 367.366 145.296 367.366 144.986C367.366 144.752 367.287 144.555 367.127 144.396C366.977 144.227 366.71 144.119 366.326 144.072L365.651 143.988C364.901 143.894 364.311 143.679 363.879 143.341C363.458 142.994 363.247 142.484 363.247 141.809C363.247 141.452 363.312 141.138 363.443 140.867C363.575 140.585 363.757 140.351 363.992 140.164C364.236 139.967 364.521 139.817 364.849 139.714C365.187 139.611 365.557 139.559 365.96 139.559C366.616 139.559 367.151 139.662 367.563 139.868C367.985 140.075 368.36 140.36 368.688 140.726L367.746 141.626C367.558 141.401 367.31 141.209 367.001 141.049C366.701 140.881 366.354 140.796 365.96 140.796C365.538 140.796 365.224 140.881 365.018 141.049C364.821 141.218 364.723 141.438 364.723 141.71C364.723 141.991 364.812 142.202 364.99 142.343C365.168 142.484 365.454 142.587 365.848 142.652L366.523 142.737C367.329 142.858 367.915 143.098 368.28 143.454C368.655 143.801 368.843 144.269 368.843 144.86C368.843 145.216 368.772 145.539 368.632 145.83C368.5 146.111 368.308 146.355 368.055 146.561C367.802 146.767 367.497 146.927 367.141 147.039C366.785 147.152 366.387 147.208 365.946 147.208ZM370.574 139.728H372.107V140.937H372.177C372.336 140.496 372.594 140.159 372.95 139.925C373.316 139.681 373.742 139.559 374.23 139.559C375.158 139.559 375.875 139.896 376.381 140.571C376.887 141.237 377.14 142.174 377.14 143.383C377.14 144.593 376.887 145.535 376.381 146.21C375.875 146.875 375.158 147.208 374.23 147.208C373.742 147.208 373.316 147.086 372.95 146.842C372.594 146.599 372.336 146.261 372.177 145.83H372.107V149.851H370.574V139.728ZM373.766 145.886C374.3 145.886 374.726 145.717 375.045 145.38C375.364 145.033 375.523 144.579 375.523 144.016V142.751C375.523 142.188 375.364 141.738 375.045 141.401C374.726 141.054 374.3 140.881 373.766 140.881C373.297 140.881 372.903 140.998 372.585 141.232C372.266 141.457 372.107 141.757 372.107 142.132V144.635C372.107 145.01 372.266 145.314 372.585 145.549C372.903 145.774 373.297 145.886 373.766 145.886ZM381.763 147.208C381.238 147.208 380.769 147.119 380.357 146.941C379.945 146.763 379.593 146.509 379.303 146.181C379.012 145.844 378.787 145.441 378.628 144.972C378.478 144.494 378.403 143.965 378.403 143.383C378.403 142.802 378.478 142.277 378.628 141.809C378.787 141.331 379.012 140.928 379.303 140.599C379.593 140.262 379.945 140.004 380.357 139.826C380.769 139.648 381.238 139.559 381.763 139.559C382.297 139.559 382.766 139.653 383.169 139.84C383.582 140.028 383.924 140.29 384.195 140.628C384.467 140.956 384.669 141.34 384.8 141.781C384.941 142.221 385.011 142.694 385.011 143.201V143.777H379.991V144.016C379.991 144.579 380.156 145.043 380.484 145.408C380.821 145.764 381.299 145.942 381.918 145.942C382.368 145.942 382.747 145.844 383.057 145.647C383.366 145.45 383.628 145.183 383.844 144.846L384.744 145.731C384.472 146.181 384.078 146.542 383.563 146.814C383.047 147.077 382.447 147.208 381.763 147.208ZM381.763 140.754C381.501 140.754 381.257 140.801 381.032 140.895C380.816 140.988 380.629 141.12 380.47 141.288C380.32 141.457 380.202 141.659 380.118 141.893C380.034 142.127 379.991 142.385 379.991 142.666V142.765H383.394V142.624C383.394 142.062 383.249 141.612 382.958 141.274C382.668 140.928 382.269 140.754 381.763 140.754ZM386.708 147.039V139.728H388.24V140.937H388.31C388.47 140.543 388.709 140.215 389.027 139.953C389.356 139.69 389.801 139.559 390.363 139.559C391.113 139.559 391.694 139.807 392.107 140.304C392.528 140.792 392.739 141.49 392.739 142.399V147.039H391.207V142.596C391.207 141.452 390.748 140.881 389.829 140.881C389.632 140.881 389.435 140.909 389.238 140.965C389.051 141.012 388.882 141.087 388.732 141.19C388.582 141.293 388.46 141.424 388.367 141.584C388.282 141.743 388.24 141.931 388.24 142.146V147.039H386.708ZM399.461 145.83H399.391C399.232 146.261 398.969 146.599 398.604 146.842C398.247 147.086 397.826 147.208 397.338 147.208C396.41 147.208 395.693 146.875 395.187 146.21C394.681 145.535 394.428 144.593 394.428 143.383C394.428 142.174 394.681 141.237 395.187 140.571C395.693 139.896 396.41 139.559 397.338 139.559C397.826 139.559 398.247 139.681 398.604 139.925C398.969 140.159 399.232 140.496 399.391 140.937H399.461V136.634H400.994V147.039H399.461V145.83ZM397.802 145.886C398.271 145.886 398.665 145.774 398.983 145.549C399.302 145.314 399.461 145.01 399.461 144.635V142.132C399.461 141.757 399.302 141.457 398.983 141.232C398.665 140.998 398.271 140.881 397.802 140.881C397.268 140.881 396.841 141.054 396.523 141.401C396.204 141.738 396.045 142.188 396.045 142.751V144.016C396.045 144.579 396.204 145.033 396.523 145.38C396.841 145.717 397.268 145.886 397.802 145.886ZM403.958 138.42C403.639 138.42 403.405 138.345 403.255 138.195C403.114 138.045 403.044 137.853 403.044 137.619V137.38C403.044 137.145 403.114 136.953 403.255 136.803C403.405 136.653 403.639 136.578 403.958 136.578C404.276 136.578 404.506 136.653 404.647 136.803C404.787 136.953 404.858 137.145 404.858 137.38V137.619C404.858 137.853 404.787 138.045 404.647 138.195C404.506 138.345 404.276 138.42 403.958 138.42ZM403.184 139.728H404.717V147.039H403.184V139.728ZM406.905 147.039V139.728H408.438V140.937H408.508C408.668 140.543 408.907 140.215 409.225 139.953C409.553 139.69 409.999 139.559 410.561 139.559C411.311 139.559 411.892 139.807 412.304 140.304C412.726 140.792 412.937 141.49 412.937 142.399V147.039H411.405V142.596C411.405 141.452 410.945 140.881 410.027 140.881C409.83 140.881 409.633 140.909 409.436 140.965C409.249 141.012 409.08 141.087 408.93 141.19C408.78 141.293 408.658 141.424 408.564 141.584C408.48 141.743 408.438 141.931 408.438 142.146V147.039H406.905ZM421.473 147.728C421.473 148.487 421.182 149.059 420.601 149.443C420.02 149.828 419.073 150.02 417.761 150.02C417.161 150.02 416.65 149.978 416.228 149.893C415.816 149.818 415.474 149.706 415.202 149.556C414.94 149.406 414.747 149.223 414.626 149.007C414.504 148.792 414.443 148.544 414.443 148.262C414.443 147.859 414.551 147.545 414.766 147.32C414.991 147.095 415.3 146.941 415.694 146.856V146.702C415.141 146.524 414.865 146.149 414.865 145.577C414.865 145.202 414.991 144.916 415.244 144.719C415.497 144.513 415.802 144.368 416.158 144.283V144.227C415.727 144.021 415.394 143.735 415.16 143.369C414.935 142.994 414.822 142.559 414.822 142.062C414.822 141.312 415.071 140.707 415.568 140.248C416.074 139.789 416.795 139.559 417.733 139.559C418.248 139.559 418.689 139.634 419.054 139.784V139.587C419.054 139.259 419.129 139.006 419.279 138.828C419.439 138.64 419.683 138.547 420.011 138.547H421.135V139.784H419.645V140.079C419.973 140.295 420.226 140.576 420.404 140.923C420.582 141.26 420.671 141.64 420.671 142.062C420.671 142.802 420.418 143.402 419.912 143.861C419.406 144.311 418.684 144.536 417.747 144.536C417.391 144.536 417.072 144.499 416.791 144.424C416.603 144.489 416.439 144.583 416.299 144.705C416.158 144.818 416.088 144.968 416.088 145.155C416.088 145.352 416.177 145.492 416.355 145.577C416.533 145.661 416.786 145.703 417.114 145.703H418.914C419.814 145.703 420.465 145.886 420.868 146.252C421.271 146.608 421.473 147.1 421.473 147.728ZM420.039 147.897C420.039 147.644 419.94 147.442 419.743 147.292C419.556 147.142 419.209 147.067 418.703 147.067H416.228C415.891 147.264 415.722 147.545 415.722 147.911C415.722 148.211 415.839 148.45 416.074 148.628C416.317 148.815 416.725 148.909 417.297 148.909H418.253C419.443 148.909 420.039 148.572 420.039 147.897ZM417.747 143.426C418.197 143.426 418.544 143.327 418.787 143.13C419.04 142.924 419.167 142.61 419.167 142.188V141.907C419.167 141.485 419.04 141.176 418.787 140.979C418.544 140.773 418.197 140.67 417.747 140.67C417.297 140.67 416.945 140.773 416.692 140.979C416.449 141.176 416.327 141.485 416.327 141.907V142.188C416.327 142.61 416.449 142.924 416.692 143.13C416.945 143.327 417.297 143.426 417.747 143.426ZM428.762 147.208C428.237 147.208 427.769 147.119 427.356 146.941C426.944 146.763 426.597 146.509 426.316 146.181C426.035 145.844 425.819 145.441 425.669 144.972C425.519 144.494 425.444 143.965 425.444 143.383C425.444 142.802 425.519 142.277 425.669 141.809C425.819 141.331 426.035 140.928 426.316 140.599C426.597 140.262 426.944 140.004 427.356 139.826C427.769 139.648 428.237 139.559 428.762 139.559C429.493 139.559 430.093 139.723 430.562 140.051C431.031 140.379 431.373 140.815 431.588 141.359L430.323 141.949C430.22 141.612 430.037 141.345 429.775 141.148C429.521 140.942 429.184 140.839 428.762 140.839C428.2 140.839 427.773 141.017 427.483 141.373C427.202 141.72 427.061 142.174 427.061 142.737V144.044C427.061 144.607 427.202 145.066 427.483 145.422C427.773 145.769 428.2 145.942 428.762 145.942C429.212 145.942 429.568 145.835 429.831 145.619C430.103 145.394 430.318 145.099 430.478 144.733L431.645 145.352C431.401 145.952 431.035 146.411 430.548 146.73C430.06 147.048 429.465 147.208 428.762 147.208ZM438.46 147.039C438.057 147.039 437.748 146.927 437.532 146.702C437.317 146.467 437.186 146.172 437.139 145.816H437.069C436.928 146.275 436.67 146.622 436.295 146.856C435.92 147.091 435.466 147.208 434.931 147.208C434.172 147.208 433.586 147.011 433.174 146.617C432.771 146.224 432.569 145.694 432.569 145.028C432.569 144.297 432.832 143.749 433.357 143.383C433.891 143.018 434.669 142.835 435.691 142.835H437.012V142.216C437.012 141.766 436.89 141.42 436.647 141.176C436.403 140.932 436.023 140.81 435.508 140.81C435.077 140.81 434.725 140.904 434.453 141.092C434.181 141.279 433.952 141.518 433.764 141.809L432.85 140.979C433.094 140.567 433.436 140.229 433.877 139.967C434.317 139.695 434.894 139.559 435.606 139.559C436.553 139.559 437.279 139.779 437.786 140.22C438.292 140.66 438.545 141.293 438.545 142.118V145.788H439.318V147.039H438.46ZM435.367 146.041C435.845 146.041 436.239 145.938 436.548 145.731C436.858 145.516 437.012 145.23 437.012 144.874V143.819H435.719C434.66 143.819 434.13 144.147 434.13 144.803V145.057C434.13 145.385 434.238 145.633 434.453 145.802C434.678 145.961 434.983 146.041 435.367 146.041ZM440.82 139.728H442.353V140.937H442.423C442.582 140.496 442.84 140.159 443.196 139.925C443.562 139.681 443.988 139.559 444.476 139.559C445.404 139.559 446.121 139.896 446.627 140.571C447.133 141.237 447.386 142.174 447.386 143.383C447.386 144.593 447.133 145.535 446.627 146.21C446.121 146.875 445.404 147.208 444.476 147.208C443.988 147.208 443.562 147.086 443.196 146.842C442.84 146.599 442.582 146.261 442.423 145.83H442.353V149.851H440.82V139.728ZM444.012 145.886C444.546 145.886 444.973 145.717 445.291 145.38C445.61 145.033 445.769 144.579 445.769 144.016V142.751C445.769 142.188 445.61 141.738 445.291 141.401C444.973 141.054 444.546 140.881 444.012 140.881C443.543 140.881 443.149 140.998 442.831 141.232C442.512 141.457 442.353 141.757 442.353 142.132V144.635C442.353 145.01 442.512 145.314 442.831 145.549C443.149 145.774 443.543 145.886 444.012 145.886Z" fill="#1D1D20"/>
<path d="M268.496 163.174C267.672 163.174 267.03 162.895 266.571 162.337C266.113 161.773 265.883 160.945 265.883 159.854C265.883 158.763 266.113 157.926 266.571 157.343C267.03 156.754 267.672 156.459 268.496 156.459C269.042 156.459 269.498 156.583 269.864 156.831C270.236 157.079 270.524 157.43 270.728 157.882L270.096 158.264C269.966 157.929 269.767 157.662 269.501 157.464C269.234 157.259 268.899 157.157 268.496 157.157C268.217 157.157 267.966 157.21 267.743 157.315C267.526 157.42 267.34 157.572 267.185 157.771C267.036 157.963 266.922 158.195 266.841 158.468C266.76 158.735 266.72 159.036 266.72 159.37V160.338C266.72 161.007 266.875 161.531 267.185 161.909C267.495 162.287 267.932 162.477 268.496 162.477C268.912 162.477 269.259 162.371 269.538 162.16C269.817 161.943 270.022 161.658 270.152 161.305L270.775 161.695C270.57 162.154 270.276 162.517 269.891 162.783C269.507 163.044 269.042 163.174 268.496 163.174ZM273.724 163.174C273.402 163.174 273.107 163.115 272.84 162.997C272.574 162.88 272.344 162.712 272.152 162.495C271.966 162.272 271.821 162.008 271.715 161.705C271.61 161.395 271.557 161.047 271.557 160.663C271.557 160.285 271.61 159.941 271.715 159.631C271.821 159.321 271.966 159.057 272.152 158.84C272.344 158.617 272.574 158.447 272.84 158.329C273.107 158.211 273.402 158.152 273.724 158.152C274.046 158.152 274.338 158.211 274.598 158.329C274.865 158.447 275.094 158.617 275.286 158.84C275.479 159.057 275.627 159.321 275.733 159.631C275.838 159.941 275.891 160.285 275.891 160.663C275.891 161.047 275.838 161.395 275.733 161.705C275.627 162.008 275.479 162.272 275.286 162.495C275.094 162.712 274.865 162.88 274.598 162.997C274.338 163.115 274.046 163.174 273.724 163.174ZM273.724 162.514C274.127 162.514 274.456 162.39 274.71 162.142C274.964 161.894 275.091 161.516 275.091 161.007V160.319C275.091 159.811 274.964 159.432 274.71 159.184C274.456 158.936 274.127 158.812 273.724 158.812C273.321 158.812 272.992 158.936 272.738 159.184C272.484 159.432 272.357 159.811 272.357 160.319V161.007C272.357 161.516 272.484 161.894 272.738 162.142C272.992 162.39 273.321 162.514 273.724 162.514ZM277.114 163.062V158.264H277.858V159.045H277.896C278.013 158.772 278.178 158.555 278.389 158.394C278.606 158.233 278.894 158.152 279.253 158.152C279.749 158.152 280.14 158.313 280.425 158.636C280.717 158.952 280.862 159.401 280.862 159.984V163.062H280.118V160.114C280.118 159.253 279.756 158.822 279.03 158.822C278.881 158.822 278.736 158.84 278.593 158.877C278.457 158.915 278.333 158.97 278.221 159.045C278.11 159.119 278.02 159.215 277.951 159.333C277.889 159.445 277.858 159.578 277.858 159.733V163.062H277.114ZM282.661 158.915H281.879V158.264H282.661V157.296C282.661 156.962 282.747 156.692 282.921 156.487C283.095 156.283 283.358 156.18 283.711 156.18H284.437V156.831H283.405V158.264H286.092V163.062H285.348V158.915H283.405V163.062H282.661V158.915ZM285.72 157.138C285.559 157.138 285.441 157.101 285.367 157.027C285.299 156.946 285.265 156.844 285.265 156.72V156.599C285.265 156.475 285.299 156.376 285.367 156.301C285.441 156.221 285.559 156.18 285.72 156.18C285.881 156.18 285.996 156.221 286.064 156.301C286.139 156.376 286.176 156.475 286.176 156.599V156.72C286.176 156.844 286.139 156.946 286.064 157.027C285.996 157.101 285.881 157.138 285.72 157.138ZM287.677 163.062V158.264H288.421V159.147H288.467C288.554 158.918 288.709 158.713 288.932 158.533C289.156 158.354 289.462 158.264 289.853 158.264H290.141V159.008H289.704C289.301 159.008 288.985 159.085 288.756 159.24C288.532 159.389 288.421 159.578 288.421 159.807V163.062H287.677ZM291.092 163.062V158.264H291.836V159.045H291.873C291.929 158.921 291.991 158.806 292.059 158.701C292.133 158.589 292.22 158.493 292.319 158.412C292.425 158.332 292.546 158.27 292.682 158.226C292.818 158.177 292.98 158.152 293.166 158.152C293.482 158.152 293.773 158.23 294.04 158.385C294.306 158.533 294.505 158.781 294.635 159.129H294.654C294.74 158.868 294.902 158.642 295.137 158.45C295.379 158.251 295.704 158.152 296.114 158.152C296.603 158.152 296.985 158.313 297.258 158.636C297.537 158.952 297.676 159.401 297.676 159.984V163.062H296.932V160.114C296.932 159.687 296.848 159.364 296.681 159.147C296.514 158.93 296.247 158.822 295.881 158.822C295.732 158.822 295.59 158.84 295.453 158.877C295.323 158.915 295.205 158.97 295.1 159.045C294.995 159.119 294.911 159.215 294.849 159.333C294.787 159.445 294.756 159.578 294.756 159.733V163.062H294.012V160.114C294.012 159.687 293.928 159.364 293.761 159.147C293.593 158.93 293.333 158.822 292.98 158.822C292.831 158.822 292.688 158.84 292.552 158.877C292.415 158.915 292.294 158.97 292.189 159.045C292.084 159.119 291.997 159.215 291.929 159.333C291.867 159.445 291.836 159.578 291.836 159.733V163.062H291.092ZM301.015 163.174C300.687 163.174 300.389 163.115 300.122 162.997C299.862 162.88 299.636 162.712 299.444 162.495C299.258 162.272 299.112 162.008 299.006 161.705C298.907 161.395 298.858 161.047 298.858 160.663C298.858 160.285 298.907 159.941 299.006 159.631C299.112 159.321 299.258 159.057 299.444 158.84C299.636 158.617 299.862 158.447 300.122 158.329C300.389 158.211 300.687 158.152 301.015 158.152C301.338 158.152 301.626 158.211 301.88 158.329C302.134 158.447 302.351 158.611 302.531 158.822C302.711 159.026 302.847 159.271 302.94 159.556C303.04 159.842 303.089 160.155 303.089 160.496V160.849H299.639V161.072C299.639 161.277 299.67 161.469 299.732 161.649C299.8 161.822 299.893 161.974 300.011 162.105C300.135 162.235 300.284 162.337 300.457 162.411C300.637 162.486 300.839 162.523 301.062 162.523C301.366 162.523 301.629 162.452 301.852 162.309C302.082 162.167 302.258 161.962 302.382 161.695L302.912 162.077C302.757 162.405 302.516 162.672 302.187 162.876C301.858 163.075 301.468 163.174 301.015 163.174ZM301.015 158.775C300.811 158.775 300.625 158.812 300.457 158.887C300.29 158.955 300.144 159.054 300.02 159.184C299.902 159.315 299.809 159.47 299.741 159.649C299.673 159.823 299.639 160.015 299.639 160.226V160.291H302.289V160.189C302.289 159.761 302.172 159.42 301.936 159.166C301.707 158.905 301.4 158.775 301.015 158.775ZM307.384 162.281H307.347C307.056 162.876 306.587 163.174 305.943 163.174C305.645 163.174 305.375 163.115 305.134 162.997C304.892 162.88 304.684 162.712 304.51 162.495C304.343 162.278 304.213 162.015 304.12 161.705C304.033 161.395 303.99 161.047 303.99 160.663C303.99 160.279 304.033 159.931 304.12 159.621C304.213 159.311 304.343 159.048 304.51 158.831C304.684 158.614 304.892 158.447 305.134 158.329C305.375 158.211 305.645 158.152 305.943 158.152C306.277 158.152 306.563 158.226 306.798 158.375C307.04 158.518 307.223 158.741 307.347 159.045H307.384V156.18H308.128V163.062H307.384V162.281ZM306.147 162.504C306.315 162.504 306.473 162.483 306.622 162.439C306.777 162.396 306.91 162.334 307.021 162.253C307.133 162.167 307.22 162.064 307.282 161.946C307.35 161.822 307.384 161.683 307.384 161.528V159.742C307.384 159.612 307.35 159.491 307.282 159.38C307.22 159.262 307.133 159.163 307.021 159.082C306.91 159.001 306.777 158.939 306.622 158.896C306.473 158.846 306.315 158.822 306.147 158.822C305.726 158.822 305.394 158.955 305.152 159.222C304.91 159.482 304.789 159.826 304.789 160.254V161.072C304.789 161.5 304.91 161.847 305.152 162.114C305.394 162.374 305.726 162.504 306.147 162.504Z" fill="#0B6E40"/>
<rect x="212.031" y="186.848" width="270.516" height="57.2754" rx="13.2174" fill="white"/>
<rect x="227.402" y="200.891" width="29.1798" height="29.1798" rx="14.5899" fill="#4B468D"/>
<path d="M239.367 214.355L241.992 216.98L244.617 214.355" stroke="white" stroke-linecap="round" stroke-linejoin="round"/>
<path d="M241.992 209.98V216.98" stroke="white" stroke-linecap="round" stroke-linejoin="round"/>
<path d="M247.492 216.98V220.48C247.492 220.613 247.44 220.74 247.346 220.834C247.252 220.928 247.125 220.98 246.992 220.98H236.992C236.86 220.98 236.732 220.928 236.639 220.834C236.545 220.74 236.492 220.613 236.492 220.48V216.98" stroke="white" stroke-linecap="round" stroke-linejoin="round"/>
<path d="M268.142 212.32H266.553V202.506H270.785C271.666 202.506 272.36 202.773 272.866 203.308C273.372 203.833 273.625 204.55 273.625 205.459C273.625 206.162 273.461 206.748 273.133 207.216C272.814 207.676 272.341 207.999 271.713 208.187L273.836 212.32H272.065L270.096 208.355H268.142V212.32ZM270.673 207.02C271.076 207.02 271.39 206.917 271.615 206.71C271.84 206.495 271.952 206.19 271.952 205.796V205.121C271.952 204.728 271.84 204.428 271.615 204.222C271.39 204.006 271.076 203.898 270.673 203.898H268.142V207.02H270.673ZM278.316 212.489C277.791 212.489 277.322 212.4 276.91 212.222C276.498 212.044 276.146 211.791 275.856 211.463C275.565 211.125 275.34 210.722 275.181 210.253C275.031 209.775 274.956 209.246 274.956 208.665C274.956 208.083 275.031 207.559 275.181 207.09C275.34 206.612 275.565 206.209 275.856 205.881C276.146 205.543 276.498 205.286 276.91 205.107C277.322 204.929 277.791 204.84 278.316 204.84C278.85 204.84 279.319 204.934 279.722 205.121C280.135 205.309 280.477 205.571 280.748 205.909C281.02 206.237 281.222 206.621 281.353 207.062C281.494 207.502 281.564 207.976 281.564 208.482V209.058H276.544V209.297C276.544 209.86 276.709 210.324 277.037 210.689C277.374 211.046 277.852 211.224 278.471 211.224C278.921 211.224 279.3 211.125 279.61 210.928C279.919 210.732 280.181 210.464 280.397 210.127L281.297 211.013C281.025 211.463 280.631 211.824 280.116 212.095C279.6 212.358 279 212.489 278.316 212.489ZM278.316 206.035C278.054 206.035 277.81 206.082 277.585 206.176C277.369 206.27 277.182 206.401 277.023 206.57C276.873 206.738 276.755 206.94 276.671 207.174C276.587 207.409 276.544 207.666 276.544 207.948V208.046H279.947V207.905C279.947 207.343 279.802 206.893 279.511 206.556C279.221 206.209 278.822 206.035 278.316 206.035ZM286.087 212.489C285.562 212.489 285.093 212.4 284.681 212.222C284.268 212.044 283.921 211.791 283.64 211.463C283.359 211.125 283.143 210.722 282.993 210.253C282.843 209.775 282.768 209.246 282.768 208.665C282.768 208.083 282.843 207.559 282.993 207.09C283.143 206.612 283.359 206.209 283.64 205.881C283.921 205.543 284.268 205.286 284.681 205.107C285.093 204.929 285.562 204.84 286.087 204.84C286.818 204.84 287.418 205.004 287.886 205.332C288.355 205.66 288.697 206.096 288.913 206.64L287.647 207.231C287.544 206.893 287.361 206.626 287.099 206.429C286.846 206.223 286.508 206.12 286.087 206.12C285.524 206.12 285.098 206.298 284.807 206.654C284.526 207.001 284.385 207.455 284.385 208.018V209.325C284.385 209.888 284.526 210.347 284.807 210.703C285.098 211.05 285.524 211.224 286.087 211.224C286.537 211.224 286.893 211.116 287.155 210.9C287.427 210.675 287.643 210.38 287.802 210.014L288.969 210.633C288.725 211.233 288.36 211.692 287.872 212.011C287.385 212.33 286.79 212.489 286.087 212.489ZM293.214 212.489C292.689 212.489 292.22 212.4 291.808 212.222C291.395 212.044 291.044 211.791 290.753 211.463C290.463 211.125 290.238 210.722 290.078 210.253C289.928 209.775 289.853 209.246 289.853 208.665C289.853 208.083 289.928 207.559 290.078 207.09C290.238 206.612 290.463 206.209 290.753 205.881C291.044 205.543 291.395 205.286 291.808 205.107C292.22 204.929 292.689 204.84 293.214 204.84C293.748 204.84 294.217 204.934 294.62 205.121C295.032 205.309 295.374 205.571 295.646 205.909C295.918 206.237 296.12 206.621 296.251 207.062C296.391 207.502 296.462 207.976 296.462 208.482V209.058H291.442V209.297C291.442 209.86 291.606 210.324 291.934 210.689C292.272 211.046 292.75 211.224 293.369 211.224C293.818 211.224 294.198 211.125 294.507 210.928C294.817 210.732 295.079 210.464 295.295 210.127L296.195 211.013C295.923 211.463 295.529 211.824 295.014 212.095C294.498 212.358 293.898 212.489 293.214 212.489ZM293.214 206.035C292.951 206.035 292.708 206.082 292.483 206.176C292.267 206.27 292.08 206.401 291.92 206.57C291.77 206.738 291.653 206.94 291.569 207.174C291.484 207.409 291.442 207.666 291.442 207.948V208.046H294.845V207.905C294.845 207.343 294.7 206.893 294.409 206.556C294.118 206.209 293.72 206.035 293.214 206.035ZM298.932 203.701C298.613 203.701 298.379 203.626 298.229 203.476C298.088 203.326 298.018 203.134 298.018 202.9V202.661C298.018 202.427 298.088 202.234 298.229 202.084C298.379 201.934 298.613 201.86 298.932 201.86C299.25 201.86 299.48 201.934 299.621 202.084C299.761 202.234 299.831 202.427 299.831 202.661V202.9C299.831 203.134 299.761 203.326 299.621 203.476C299.48 203.626 299.25 203.701 298.932 203.701ZM298.158 205.009H299.691V212.32H298.158V205.009ZM303.468 212.32L300.979 205.009H302.498L303.609 208.341L304.354 210.9H304.438L305.184 208.341L306.322 205.009H307.785L305.268 212.32H303.468ZM311.833 212.489C311.308 212.489 310.839 212.4 310.427 212.222C310.014 212.044 309.663 211.791 309.372 211.463C309.082 211.125 308.857 210.722 308.697 210.253C308.547 209.775 308.472 209.246 308.472 208.665C308.472 208.083 308.547 207.559 308.697 207.09C308.857 206.612 309.082 206.209 309.372 205.881C309.663 205.543 310.014 205.286 310.427 205.107C310.839 204.929 311.308 204.84 311.833 204.84C312.367 204.84 312.836 204.934 313.239 205.121C313.651 205.309 313.993 205.571 314.265 205.909C314.537 206.237 314.738 206.621 314.87 207.062C315.01 207.502 315.081 207.976 315.081 208.482V209.058H310.061V209.297C310.061 209.86 310.225 210.324 310.553 210.689C310.891 211.046 311.369 211.224 311.987 211.224C312.437 211.224 312.817 211.125 313.126 210.928C313.436 210.732 313.698 210.464 313.914 210.127L314.813 211.013C314.542 211.463 314.148 211.824 313.632 212.095C313.117 212.358 312.517 212.489 311.833 212.489ZM311.833 206.035C311.57 206.035 311.326 206.082 311.102 206.176C310.886 206.27 310.698 206.401 310.539 206.57C310.389 206.738 310.272 206.94 310.188 207.174C310.103 207.409 310.061 207.666 310.061 207.948V208.046H313.464V207.905C313.464 207.343 313.318 206.893 313.028 206.556C312.737 206.209 312.339 206.035 311.833 206.035Z" fill="#1D1D20"/>
<path d="M269.268 224.192V229C269.268 229.273 269.222 229.521 269.129 229.744C269.042 229.967 268.915 230.157 268.748 230.312C268.586 230.467 268.391 230.587 268.162 230.674C267.932 230.755 267.681 230.795 267.408 230.795C266.906 230.795 266.5 230.662 266.19 230.395C265.886 230.122 265.691 229.763 265.604 229.316L266.311 229.149C266.373 229.428 266.491 229.657 266.664 229.837C266.838 230.011 267.092 230.098 267.427 230.098C267.762 230.098 268.022 229.995 268.208 229.791C268.394 229.586 268.487 229.276 268.487 228.861V224.88H266.255V224.192H269.268ZM274.363 230.684C274.084 230.684 273.882 230.609 273.758 230.46C273.64 230.312 273.566 230.126 273.535 229.902H273.488C273.383 230.2 273.209 230.423 272.968 230.572C272.726 230.721 272.437 230.795 272.103 230.795C271.594 230.795 271.197 230.665 270.912 230.405C270.633 230.144 270.494 229.791 270.494 229.344C270.494 228.892 270.658 228.545 270.987 228.303C271.321 228.061 271.839 227.94 272.54 227.94H273.488V227.466C273.488 227.125 273.395 226.864 273.209 226.685C273.023 226.505 272.738 226.415 272.354 226.415C272.062 226.415 271.817 226.48 271.619 226.61C271.427 226.74 271.266 226.914 271.135 227.131L270.689 226.712C270.819 226.452 271.027 226.232 271.312 226.052C271.597 225.866 271.957 225.773 272.391 225.773C272.974 225.773 273.426 225.916 273.749 226.201C274.071 226.486 274.232 226.883 274.232 227.391V230.033H274.781V230.684H274.363ZM272.224 230.163C272.41 230.163 272.58 230.141 272.735 230.098C272.89 230.054 273.023 229.992 273.135 229.912C273.247 229.831 273.333 229.738 273.395 229.633C273.457 229.527 273.488 229.413 273.488 229.289V228.498H272.503C272.075 228.498 271.762 228.56 271.563 228.684C271.371 228.808 271.275 228.988 271.275 229.223V229.419C271.275 229.654 271.359 229.837 271.526 229.967C271.7 230.098 271.932 230.163 272.224 230.163ZM275.843 230.684V225.885H276.587V226.666H276.624C276.742 226.393 276.906 226.176 277.117 226.015C277.334 225.854 277.622 225.773 277.982 225.773C278.478 225.773 278.869 225.934 279.154 226.257C279.445 226.573 279.591 227.022 279.591 227.605V230.684H278.847V227.735C278.847 226.874 278.484 226.443 277.759 226.443C277.61 226.443 277.464 226.461 277.322 226.499C277.185 226.536 277.061 226.592 276.95 226.666C276.838 226.74 276.748 226.836 276.68 226.954C276.618 227.066 276.587 227.199 276.587 227.354V230.684H275.843ZM283.354 230.684V229.995H285.168V224.769H285.103L283.466 226.294L283.01 225.801L284.731 224.192H285.949V229.995H287.623V230.684H283.354ZM293.069 230.684H288.81V229.884L290.93 227.931C291.234 227.652 291.488 227.357 291.693 227.047C291.898 226.731 292 226.415 292 226.099V225.987C292 225.627 291.901 225.336 291.702 225.113C291.504 224.89 291.203 224.778 290.8 224.778C290.602 224.778 290.428 224.806 290.279 224.862C290.131 224.918 290 224.995 289.889 225.094C289.783 225.193 289.693 225.311 289.619 225.448C289.551 225.578 289.495 225.72 289.452 225.875L288.754 225.606C288.816 225.414 288.9 225.228 289.005 225.048C289.117 224.862 289.253 224.697 289.414 224.555C289.582 224.412 289.78 224.298 290.01 224.211C290.245 224.124 290.521 224.081 290.837 224.081C291.154 224.081 291.436 224.127 291.684 224.22C291.932 224.313 292.139 224.443 292.307 224.611C292.474 224.778 292.601 224.976 292.688 225.206C292.781 225.435 292.828 225.689 292.828 225.968C292.828 226.223 292.79 226.458 292.716 226.675C292.648 226.892 292.552 227.1 292.428 227.298C292.304 227.491 292.152 227.68 291.972 227.866C291.798 228.052 291.609 228.238 291.405 228.424L289.656 229.995H293.069V230.684Z" fill="#4B468D"/>
<path d="M301.209 230.684V224.192H305.077V224.88H301.99V227.057H304.808V227.745H301.99V230.684H301.209ZM306.148 230.684V225.885H306.892V226.768H306.938C307.025 226.539 307.18 226.334 307.403 226.154C307.626 225.975 307.933 225.885 308.324 225.885H308.612V226.629H308.175C307.772 226.629 307.456 226.706 307.226 226.861C307.003 227.01 306.892 227.199 306.892 227.429V230.684H306.148ZM311.33 230.795C311.008 230.795 310.714 230.736 310.447 230.618C310.18 230.501 309.951 230.333 309.759 230.116C309.573 229.893 309.427 229.63 309.322 229.326C309.216 229.016 309.164 228.669 309.164 228.284C309.164 227.906 309.216 227.562 309.322 227.252C309.427 226.942 309.573 226.678 309.759 226.461C309.951 226.238 310.18 226.068 310.447 225.95C310.714 225.832 311.008 225.773 311.33 225.773C311.653 225.773 311.944 225.832 312.205 225.95C312.471 226.068 312.701 226.238 312.893 226.461C313.085 226.678 313.234 226.942 313.339 227.252C313.445 227.562 313.497 227.906 313.497 228.284C313.497 228.669 313.445 229.016 313.339 229.326C313.234 229.63 313.085 229.893 312.893 230.116C312.701 230.333 312.471 230.501 312.205 230.618C311.944 230.736 311.653 230.795 311.33 230.795ZM311.33 230.135C311.733 230.135 312.062 230.011 312.316 229.763C312.57 229.515 312.698 229.137 312.698 228.628V227.94C312.698 227.432 312.57 227.053 312.316 226.805C312.062 226.557 311.733 226.433 311.33 226.433C310.927 226.433 310.599 226.557 310.345 226.805C310.09 227.053 309.963 227.432 309.963 227.94V228.628C309.963 229.137 310.09 229.515 310.345 229.763C310.599 230.011 310.927 230.135 311.33 230.135ZM314.721 230.684V225.885H315.465V226.666H315.502C315.558 226.542 315.62 226.427 315.688 226.322C315.763 226.21 315.849 226.114 315.949 226.034C316.054 225.953 316.175 225.891 316.311 225.848C316.448 225.798 316.609 225.773 316.795 225.773C317.111 225.773 317.402 225.851 317.669 226.006C317.936 226.154 318.134 226.402 318.264 226.75H318.283C318.37 226.489 318.531 226.263 318.766 226.071C319.008 225.872 319.334 225.773 319.743 225.773C320.233 225.773 320.614 225.934 320.887 226.257C321.166 226.573 321.305 227.022 321.305 227.605V230.684H320.561V227.735C320.561 227.308 320.478 226.985 320.31 226.768C320.143 226.551 319.876 226.443 319.51 226.443C319.362 226.443 319.219 226.461 319.083 226.499C318.952 226.536 318.835 226.592 318.729 226.666C318.624 226.74 318.54 226.836 318.478 226.954C318.416 227.066 318.385 227.199 318.385 227.354V230.684H317.641V227.735C317.641 227.308 317.557 226.985 317.39 226.768C317.223 226.551 316.962 226.443 316.609 226.443C316.46 226.443 316.317 226.461 316.181 226.499C316.045 226.536 315.924 226.592 315.818 226.666C315.713 226.74 315.626 226.836 315.558 226.954C315.496 227.066 315.465 227.199 315.465 227.354V230.684H314.721ZM323.408 230.795C323.209 230.795 323.064 230.746 322.971 230.646C322.884 230.547 322.84 230.417 322.84 230.256V230.135C322.84 229.974 322.884 229.843 322.971 229.744C323.064 229.645 323.209 229.595 323.408 229.595C323.606 229.595 323.749 229.645 323.835 229.744C323.928 229.843 323.975 229.974 323.975 230.135V230.256C323.975 230.417 323.928 230.547 323.835 230.646C323.749 230.746 323.606 230.795 323.408 230.795ZM323.408 226.973C323.209 226.973 323.064 226.923 322.971 226.824C322.884 226.725 322.84 226.595 322.84 226.433V226.313C322.84 226.151 322.884 226.021 322.971 225.922C323.064 225.823 323.209 225.773 323.408 225.773C323.606 225.773 323.749 225.823 323.835 225.922C323.928 226.021 323.975 226.151 323.975 226.313V226.433C323.975 226.595 323.928 226.725 323.835 226.824C323.749 226.923 323.606 226.973 323.408 226.973ZM329.753 230.795C328.978 230.795 328.411 230.501 328.051 229.912C327.698 229.323 327.521 228.498 327.521 227.438C327.521 226.378 327.698 225.553 328.051 224.964C328.411 224.375 328.978 224.081 329.753 224.081C330.528 224.081 331.092 224.375 331.446 224.964C331.805 225.553 331.985 226.378 331.985 227.438C331.985 228.498 331.805 229.323 331.446 229.912C331.092 230.501 330.528 230.795 329.753 230.795ZM329.753 230.116C330.007 230.116 330.224 230.064 330.404 229.958C330.584 229.853 330.73 229.704 330.841 229.512C330.953 229.32 331.033 229.093 331.083 228.833C331.139 228.572 331.167 228.284 331.167 227.968V226.908C331.167 226.592 331.139 226.303 331.083 226.043C331.033 225.782 330.953 225.556 330.841 225.364C330.73 225.172 330.584 225.023 330.404 224.918C330.224 224.812 330.007 224.759 329.753 224.759C329.499 224.759 329.282 224.812 329.102 224.918C328.922 225.023 328.777 225.172 328.665 225.364C328.553 225.556 328.47 225.782 328.414 226.043C328.364 226.303 328.34 226.592 328.34 226.908V227.968C328.34 228.284 328.364 228.572 328.414 228.833C328.47 229.093 328.553 229.32 328.665 229.512C328.777 229.704 328.922 229.853 329.102 229.958C329.282 230.064 329.499 230.116 329.753 230.116ZM332.735 230.684L334.511 228.266L332.809 225.885H333.683L334.902 227.67H334.93L336.194 225.885H337.022L335.33 228.21L337.059 230.684H336.185L334.939 228.805H334.911L333.563 230.684H332.735ZM338.881 230.684L341.364 224.862H338.592V226.071H337.895V224.192H342.154V224.88L339.718 230.684H338.881ZM345.619 230.795C345.247 230.795 344.922 230.749 344.643 230.656C344.364 230.556 344.128 230.423 343.936 230.256C343.75 230.088 343.608 229.89 343.508 229.661C343.415 229.431 343.369 229.183 343.369 228.917C343.369 228.47 343.49 228.117 343.732 227.856C343.973 227.596 344.29 227.413 344.68 227.308V227.233C344.339 227.115 344.066 226.926 343.862 226.666C343.663 226.399 343.564 226.08 343.564 225.708C343.564 225.212 343.744 224.818 344.104 224.527C344.463 224.229 344.968 224.081 345.619 224.081C346.27 224.081 346.776 224.229 347.135 224.527C347.495 224.818 347.675 225.212 347.675 225.708C347.675 226.08 347.572 226.399 347.368 226.666C347.169 226.926 346.9 227.115 346.559 227.233V227.308C346.949 227.413 347.266 227.596 347.507 227.856C347.749 228.117 347.87 228.47 347.87 228.917C347.87 229.183 347.82 229.431 347.721 229.661C347.628 229.89 347.486 230.088 347.293 230.256C347.107 230.423 346.875 230.556 346.596 230.656C346.317 230.749 345.991 230.795 345.619 230.795ZM345.619 230.116C346.072 230.116 346.422 230.017 346.67 229.819C346.918 229.614 347.042 229.326 347.042 228.954V228.758C347.042 228.386 346.918 228.101 346.67 227.903C346.422 227.698 346.072 227.596 345.619 227.596C345.167 227.596 344.817 227.698 344.569 227.903C344.321 228.101 344.197 228.386 344.197 228.758V228.954C344.197 229.326 344.321 229.614 344.569 229.819C344.817 230.017 345.167 230.116 345.619 230.116ZM345.619 226.945C346.029 226.945 346.339 226.858 346.549 226.685C346.76 226.511 346.866 226.257 346.866 225.922V225.782C346.866 225.448 346.76 225.193 346.549 225.02C346.339 224.846 346.029 224.759 345.619 224.759C345.21 224.759 344.9 224.846 344.689 225.02C344.479 225.193 344.373 225.448 344.373 225.782V225.922C344.373 226.257 344.479 226.511 344.689 226.685C344.9 226.858 345.21 226.945 345.619 226.945ZM351.205 230.795C350.87 230.795 350.567 230.739 350.294 230.628C350.027 230.51 349.798 230.346 349.606 230.135C349.42 229.918 349.277 229.654 349.178 229.344C349.079 229.034 349.029 228.687 349.029 228.303C349.029 227.819 349.1 227.367 349.243 226.945C349.385 226.517 349.568 226.13 349.792 225.782C350.021 225.429 350.272 225.119 350.545 224.852C350.818 224.58 351.084 224.36 351.345 224.192H352.349C352.002 224.446 351.692 224.694 351.419 224.936C351.146 225.178 350.908 225.432 350.703 225.699C350.498 225.959 350.325 226.241 350.182 226.545C350.04 226.843 349.925 227.181 349.838 227.559L349.885 227.577C350.04 227.311 350.238 227.091 350.48 226.917C350.728 226.737 351.05 226.647 351.447 226.647C351.726 226.647 351.983 226.694 352.219 226.787C352.454 226.88 352.656 227.013 352.823 227.187C352.991 227.36 353.121 227.571 353.214 227.819C353.313 228.067 353.363 228.343 353.363 228.647C353.363 228.963 353.31 229.254 353.205 229.521C353.105 229.781 352.96 230.008 352.768 230.2C352.582 230.386 352.355 230.532 352.089 230.637C351.822 230.742 351.528 230.795 351.205 230.795ZM351.196 230.116C351.624 230.116 351.955 229.998 352.191 229.763C352.433 229.527 352.554 229.189 352.554 228.749V228.675C352.554 228.235 352.433 227.897 352.191 227.661C351.955 227.425 351.624 227.308 351.196 227.308C350.768 227.308 350.433 227.425 350.191 227.661C349.956 227.897 349.838 228.235 349.838 228.675V228.749C349.838 229.189 349.956 229.527 350.191 229.763C350.433 229.998 350.768 230.116 351.196 230.116ZM355.247 230.795C355.049 230.795 354.903 230.746 354.81 230.646C354.723 230.547 354.68 230.417 354.68 230.256V230.135C354.68 229.974 354.723 229.843 354.81 229.744C354.903 229.645 355.049 229.595 355.247 229.595C355.445 229.595 355.588 229.645 355.675 229.744C355.768 229.843 355.814 229.974 355.814 230.135V230.256C355.814 230.417 355.768 230.547 355.675 230.646C355.588 230.746 355.445 230.795 355.247 230.795ZM357.781 230.795C357.583 230.795 357.437 230.746 357.344 230.646C357.257 230.547 357.214 230.417 357.214 230.256V230.135C357.214 229.974 357.257 229.843 357.344 229.744C357.437 229.645 357.583 229.595 357.781 229.595C357.979 229.595 358.122 229.645 358.209 229.744C358.302 229.843 358.348 229.974 358.348 230.135V230.256C358.348 230.417 358.302 230.547 358.209 230.646C358.122 230.746 357.979 230.795 357.781 230.795ZM360.315 230.795C360.116 230.795 359.971 230.746 359.878 230.646C359.791 230.547 359.748 230.417 359.748 230.256V230.135C359.748 229.974 359.791 229.843 359.878 229.744C359.971 229.645 360.116 229.595 360.315 229.595C360.513 229.595 360.656 229.645 360.743 229.744C360.836 229.843 360.882 229.974 360.882 230.135V230.256C360.882 230.417 360.836 230.547 360.743 230.646C360.656 230.746 360.513 230.795 360.315 230.795ZM362.374 223.802H363.118V226.666H363.156C363.28 226.362 363.459 226.139 363.695 225.996C363.937 225.848 364.225 225.773 364.56 225.773C364.857 225.773 365.127 225.832 365.369 225.95C365.611 226.068 365.815 226.235 365.983 226.452C366.156 226.669 366.287 226.933 366.373 227.243C366.466 227.553 366.513 227.9 366.513 228.284C366.513 228.669 366.466 229.016 366.373 229.326C366.287 229.636 366.156 229.899 365.983 230.116C365.815 230.333 365.611 230.501 365.369 230.618C365.127 230.736 364.857 230.795 364.56 230.795C363.909 230.795 363.441 230.498 363.156 229.902H363.118V230.684H362.374V223.802ZM364.355 230.126C364.777 230.126 365.109 229.995 365.35 229.735C365.592 229.468 365.713 229.121 365.713 228.693V227.875C365.713 227.447 365.592 227.103 365.35 226.843C365.109 226.576 364.777 226.443 364.355 226.443C364.188 226.443 364.027 226.468 363.872 226.517C363.723 226.561 363.593 226.623 363.481 226.703C363.369 226.784 363.28 226.883 363.211 227.001C363.149 227.112 363.118 227.233 363.118 227.363V229.149C363.118 229.304 363.149 229.444 363.211 229.568C363.28 229.685 363.369 229.788 363.481 229.874C363.593 229.955 363.723 230.017 363.872 230.06C364.027 230.104 364.188 230.126 364.355 230.126ZM371.936 230.684H367.676V229.884L369.797 227.931C370.1 227.652 370.355 227.357 370.559 227.047C370.764 226.731 370.866 226.415 370.866 226.099V225.987C370.866 225.627 370.767 225.336 370.568 225.113C370.37 224.89 370.069 224.778 369.666 224.778C369.468 224.778 369.294 224.806 369.146 224.862C368.997 224.918 368.867 224.995 368.755 225.094C368.65 225.193 368.56 225.311 368.485 225.448C368.417 225.578 368.361 225.72 368.318 225.875L367.62 225.606C367.682 225.414 367.766 225.228 367.871 225.048C367.983 224.862 368.119 224.697 368.281 224.555C368.448 224.412 368.646 224.298 368.876 224.211C369.111 224.124 369.387 224.081 369.704 224.081C370.02 224.081 370.302 224.127 370.55 224.22C370.798 224.313 371.006 224.443 371.173 224.611C371.34 224.778 371.467 224.976 371.554 225.206C371.647 225.435 371.694 225.689 371.694 225.968C371.694 226.223 371.657 226.458 371.582 226.675C371.514 226.892 371.418 227.1 371.294 227.298C371.17 227.491 371.018 227.68 370.838 227.866C370.665 228.052 370.475 228.238 370.271 228.424L368.522 229.995H371.936V230.684ZM377.512 226.573C377.512 227.057 377.441 227.512 377.298 227.94C377.155 228.362 376.969 228.749 376.74 229.103C376.517 229.45 376.269 229.76 375.996 230.033C375.723 230.299 375.457 230.516 375.196 230.684H374.192C374.539 230.429 374.849 230.181 375.122 229.94C375.395 229.698 375.633 229.447 375.838 229.186C376.042 228.92 376.216 228.638 376.359 228.34C376.501 228.036 376.616 227.695 376.703 227.317L376.656 227.298C376.501 227.565 376.3 227.788 376.052 227.968C375.81 228.142 375.491 228.228 375.094 228.228C374.815 228.228 374.558 228.182 374.322 228.089C374.086 227.996 373.885 227.863 373.717 227.689C373.55 227.515 373.417 227.308 373.318 227.066C373.225 226.818 373.178 226.539 373.178 226.229C373.178 225.913 373.228 225.624 373.327 225.364C373.432 225.097 373.578 224.871 373.764 224.685C373.956 224.493 374.182 224.344 374.443 224.239C374.709 224.133 375.007 224.081 375.336 224.081C375.67 224.081 375.971 224.139 376.238 224.257C376.511 224.369 376.74 224.533 376.926 224.75C377.118 224.961 377.264 225.221 377.363 225.531C377.462 225.841 377.512 226.189 377.512 226.573ZM375.345 227.568C375.773 227.568 376.104 227.45 376.34 227.215C376.582 226.979 376.703 226.641 376.703 226.201V226.127C376.703 225.686 376.582 225.348 376.34 225.113C376.104 224.877 375.773 224.759 375.345 224.759C374.917 224.759 374.582 224.877 374.341 225.113C374.105 225.348 373.987 225.686 373.987 226.127V226.201C373.987 226.641 374.105 226.979 374.341 227.215C374.582 227.45 374.917 227.568 375.345 227.568ZM380.707 230.795C380.373 230.795 380.072 230.736 379.805 230.618C379.539 230.501 379.312 230.333 379.126 230.116C378.947 229.899 378.807 229.636 378.708 229.326C378.615 229.016 378.568 228.669 378.568 228.284C378.568 227.9 378.615 227.553 378.708 227.243C378.807 226.933 378.947 226.669 379.126 226.452C379.312 226.235 379.539 226.068 379.805 225.95C380.072 225.832 380.373 225.773 380.707 225.773C381.185 225.773 381.566 225.879 381.851 226.089C382.143 226.294 382.36 226.564 382.502 226.898L381.879 227.215C381.792 226.967 381.65 226.774 381.451 226.638C381.253 226.502 381.005 226.433 380.707 226.433C380.484 226.433 380.289 226.471 380.122 226.545C379.954 226.613 379.815 226.712 379.703 226.843C379.591 226.967 379.508 227.119 379.452 227.298C379.396 227.472 379.368 227.664 379.368 227.875V228.693C379.368 229.115 379.48 229.462 379.703 229.735C379.932 230.002 380.267 230.135 380.707 230.135C381.309 230.135 381.743 229.856 382.009 229.298L382.549 229.661C382.394 230.008 382.161 230.284 381.851 230.488C381.548 230.693 381.166 230.795 380.707 230.795Z" fill="#606367"/>
<path d="M413.729 228.256V227.456H416.157V228.256H413.729ZM419.313 231.446V230.684C418.842 230.653 418.442 230.538 418.114 230.339C417.791 230.135 417.515 229.881 417.286 229.577L417.835 229.084C418.033 229.351 418.25 229.564 418.486 229.726C418.727 229.881 419.006 229.98 419.323 230.023V227.633C418.684 227.491 418.216 227.283 417.918 227.01C417.627 226.731 417.481 226.35 417.481 225.866C417.481 225.618 417.525 225.398 417.611 225.206C417.704 225.007 417.831 224.837 417.993 224.694C418.154 224.552 418.346 224.44 418.569 224.36C418.792 224.273 419.04 224.217 419.313 224.192V223.43H419.89V224.183C420.311 224.22 420.674 224.329 420.978 224.508C421.288 224.682 421.555 224.924 421.778 225.234L421.21 225.662C421.055 225.445 420.869 225.268 420.652 225.131C420.435 224.989 420.178 224.896 419.881 224.852V227.029L419.964 227.047C420.609 227.19 421.077 227.401 421.369 227.68C421.666 227.952 421.815 228.334 421.815 228.824C421.815 229.357 421.641 229.788 421.294 230.116C420.953 230.439 420.485 230.628 419.89 230.684V231.446H419.313ZM421.08 228.87C421.08 228.554 420.987 228.312 420.801 228.145C420.621 227.977 420.315 227.841 419.881 227.735V230.023C420.253 229.974 420.544 229.85 420.755 229.651C420.972 229.447 421.08 229.186 421.08 228.87ZM418.216 225.81C418.216 226.127 418.306 226.365 418.486 226.526C418.672 226.681 418.951 226.809 419.323 226.908V224.852C418.988 224.896 418.718 224.998 418.513 225.159C418.315 225.321 418.216 225.538 418.216 225.81ZM423.988 230.684L426.471 224.862H423.7V226.071H423.002V224.192H427.262V224.88L424.825 230.684H423.988ZM432.894 226.573C432.894 227.057 432.822 227.512 432.68 227.94C432.537 228.362 432.351 228.749 432.122 229.103C431.899 229.45 431.651 229.76 431.378 230.033C431.105 230.299 430.838 230.516 430.578 230.684H429.574C429.921 230.429 430.231 230.181 430.504 229.94C430.776 229.698 431.015 229.447 431.22 229.186C431.424 228.92 431.598 228.638 431.741 228.34C431.883 228.036 431.998 227.695 432.085 227.317L432.038 227.298C431.883 227.565 431.682 227.788 431.434 227.968C431.192 228.142 430.873 228.228 430.476 228.228C430.197 228.228 429.939 228.182 429.704 228.089C429.468 227.996 429.267 227.863 429.099 227.689C428.932 227.515 428.799 227.308 428.699 227.066C428.606 226.818 428.56 226.539 428.56 226.229C428.56 225.913 428.61 225.624 428.709 225.364C428.814 225.097 428.96 224.871 429.146 224.685C429.338 224.493 429.564 224.344 429.825 224.239C430.091 224.133 430.389 224.081 430.718 224.081C431.052 224.081 431.353 224.139 431.62 224.257C431.892 224.369 432.122 224.533 432.308 224.75C432.5 224.961 432.646 225.221 432.745 225.531C432.844 225.841 432.894 226.189 432.894 226.573ZM430.727 227.568C431.155 227.568 431.486 227.45 431.722 227.215C431.964 226.979 432.085 226.641 432.085 226.201V226.127C432.085 225.686 431.964 225.348 431.722 225.113C431.486 224.877 431.155 224.759 430.727 224.759C430.299 224.759 429.964 224.877 429.722 225.113C429.487 225.348 429.369 225.686 429.369 226.127V226.201C429.369 226.641 429.487 226.979 429.722 227.215C429.964 227.45 430.299 227.568 430.727 227.568ZM434.778 230.795C434.58 230.795 434.434 230.746 434.341 230.646C434.254 230.547 434.211 230.417 434.211 230.256V230.135C434.211 229.974 434.254 229.843 434.341 229.744C434.434 229.645 434.58 229.595 434.778 229.595C434.976 229.595 435.119 229.645 435.206 229.744C435.299 229.843 435.345 229.974 435.345 230.135V230.256C435.345 230.417 435.299 230.547 435.206 230.646C435.119 230.746 434.976 230.795 434.778 230.795ZM438.846 230.795C438.512 230.795 438.208 230.739 437.935 230.628C437.668 230.51 437.439 230.346 437.247 230.135C437.061 229.918 436.918 229.654 436.819 229.344C436.72 229.034 436.67 228.687 436.67 228.303C436.67 227.819 436.741 227.367 436.884 226.945C437.027 226.517 437.21 226.13 437.433 225.782C437.662 225.429 437.913 225.119 438.186 224.852C438.459 224.58 438.725 224.36 438.986 224.192H439.99C439.643 224.446 439.333 224.694 439.06 224.936C438.787 225.178 438.549 225.432 438.344 225.699C438.14 225.959 437.966 226.241 437.823 226.545C437.681 226.843 437.566 227.181 437.479 227.559L437.526 227.577C437.681 227.311 437.879 227.091 438.121 226.917C438.369 226.737 438.691 226.647 439.088 226.647C439.367 226.647 439.624 226.694 439.86 226.787C440.096 226.88 440.297 227.013 440.465 227.187C440.632 227.36 440.762 227.571 440.855 227.819C440.954 228.067 441.004 228.343 441.004 228.647C441.004 228.963 440.951 229.254 440.846 229.521C440.747 229.781 440.601 230.008 440.409 230.2C440.223 230.386 439.996 230.532 439.73 230.637C439.463 230.742 439.169 230.795 438.846 230.795ZM438.837 230.116C439.265 230.116 439.597 229.998 439.832 229.763C440.074 229.527 440.195 229.189 440.195 228.749V228.675C440.195 228.235 440.074 227.897 439.832 227.661C439.597 227.425 439.265 227.308 438.837 227.308C438.409 227.308 438.074 227.425 437.833 227.661C437.597 227.897 437.479 228.235 437.479 228.675V228.749C437.479 229.189 437.597 229.527 437.833 229.763C438.074 229.998 438.409 230.116 438.837 230.116ZM443.251 230.684L445.734 224.862H442.963V226.071H442.265V224.192H446.525V224.88L444.088 230.684H443.251ZM450.997 224.192V228.21C450.997 228.83 451.112 229.301 451.341 229.623C451.571 229.94 451.974 230.098 452.55 230.098C453.127 230.098 453.53 229.94 453.759 229.623C453.989 229.301 454.103 228.83 454.103 228.21V224.192H454.885V228.024C454.885 228.495 454.841 228.904 454.754 229.251C454.674 229.599 454.541 229.887 454.355 230.116C454.169 230.346 453.924 230.516 453.62 230.628C453.322 230.739 452.956 230.795 452.522 230.795C452.088 230.795 451.723 230.739 451.425 230.628C451.134 230.516 450.898 230.346 450.718 230.116C450.538 229.887 450.408 229.599 450.328 229.251C450.253 228.904 450.216 228.495 450.216 228.024V224.192H450.997ZM458.388 230.795C457.861 230.795 457.412 230.696 457.04 230.498C456.668 230.293 456.352 230.014 456.091 229.661L456.668 229.177C456.897 229.481 457.151 229.713 457.43 229.874C457.709 230.029 458.038 230.107 458.416 230.107C458.881 230.107 459.235 229.995 459.476 229.772C459.724 229.549 459.848 229.251 459.848 228.879C459.848 228.569 459.755 228.331 459.569 228.163C459.383 227.996 459.076 227.863 458.649 227.763L458.119 227.642C457.523 227.506 457.068 227.301 456.751 227.029C456.441 226.75 456.286 226.359 456.286 225.857C456.286 225.572 456.339 225.317 456.445 225.094C456.55 224.871 456.696 224.685 456.882 224.536C457.074 224.387 457.3 224.276 457.561 224.201C457.827 224.121 458.119 224.081 458.435 224.081C458.925 224.081 459.343 224.17 459.69 224.35C460.044 224.53 460.341 224.794 460.583 225.141L459.997 225.569C459.817 225.321 459.6 225.125 459.346 224.983C459.092 224.84 458.776 224.769 458.398 224.769C457.982 224.769 457.654 224.859 457.412 225.038C457.176 225.212 457.058 225.476 457.058 225.829C457.058 226.139 457.158 226.375 457.356 226.536C457.561 226.691 457.867 226.815 458.277 226.908L458.807 227.029C459.445 227.171 459.907 227.388 460.192 227.68C460.478 227.971 460.62 228.359 460.62 228.842C460.62 229.14 460.568 229.409 460.462 229.651C460.363 229.893 460.217 230.098 460.025 230.265C459.833 230.432 459.597 230.563 459.318 230.656C459.045 230.749 458.735 230.795 458.388 230.795ZM461.969 224.192H464.145C464.548 224.192 464.914 224.26 465.243 224.397C465.571 224.533 465.85 224.738 466.08 225.011C466.315 225.277 466.495 225.615 466.619 226.024C466.743 226.427 466.805 226.898 466.805 227.438C466.805 227.977 466.743 228.452 466.619 228.861C466.495 229.264 466.315 229.602 466.08 229.874C465.85 230.141 465.571 230.343 465.243 230.479C464.914 230.615 464.548 230.684 464.145 230.684H461.969V224.192ZM464.145 229.995C464.412 229.995 464.657 229.952 464.88 229.865C465.103 229.772 465.296 229.639 465.457 229.465C465.618 229.292 465.742 229.081 465.829 228.833C465.922 228.579 465.968 228.29 465.968 227.968V226.908C465.968 226.585 465.922 226.3 465.829 226.052C465.742 225.798 465.618 225.584 465.457 225.41C465.296 225.237 465.103 225.107 464.88 225.02C464.657 224.927 464.412 224.88 464.145 224.88H462.75V229.995H464.145Z" fill="#606367"/>
<path d="M402.963 208.904V207.381H406.764V208.904H402.963ZM411.736 212.485C411.141 212.485 410.624 212.375 410.185 212.156C409.746 211.927 409.385 211.602 409.101 211.182C408.818 210.761 408.607 210.244 408.47 209.631C408.333 209.018 408.264 208.319 408.264 207.532C408.264 206.755 408.333 206.059 408.47 205.447C408.607 204.825 408.818 204.303 409.101 203.882C409.385 203.462 409.746 203.142 410.185 202.922C410.624 202.693 411.141 202.579 411.736 202.579C412.925 202.579 413.798 203.014 414.356 203.882C414.923 204.751 415.207 205.968 415.207 207.532C415.207 209.096 414.923 210.313 414.356 211.182C413.798 212.05 412.925 212.485 411.736 212.485ZM411.736 211.168C412.065 211.168 412.344 211.104 412.573 210.976C412.81 210.839 413.002 210.646 413.149 210.4C413.295 210.153 413.4 209.86 413.464 209.521C413.528 209.174 413.56 208.79 413.56 208.369V206.695C413.56 206.274 413.528 205.895 413.464 205.556C413.4 205.209 413.295 204.911 413.149 204.665C413.002 204.418 412.81 204.23 412.573 204.102C412.344 203.965 412.065 203.896 411.736 203.896C411.406 203.896 411.123 203.965 410.885 204.102C410.656 204.23 410.469 204.418 410.322 204.665C410.176 204.911 410.071 205.209 410.007 205.556C409.943 205.895 409.911 206.274 409.911 206.695V208.369C409.911 208.79 409.943 209.174 410.007 209.521C410.071 209.86 410.176 210.153 410.322 210.4C410.469 210.646 410.656 210.839 410.885 210.976C411.123 211.104 411.406 211.168 411.736 211.168ZM417.836 212.485C417.497 212.485 417.246 212.398 417.081 212.224C416.916 212.041 416.834 211.817 416.834 211.552V211.346C416.834 211.081 416.916 210.861 417.081 210.688C417.246 210.505 417.497 210.413 417.836 210.413C418.174 210.413 418.426 210.505 418.59 210.688C418.755 210.861 418.837 211.081 418.837 211.346V211.552C418.837 211.817 418.755 212.041 418.59 212.224C418.426 212.398 418.174 212.485 417.836 212.485ZM423.942 212.485C423.347 212.485 422.83 212.375 422.391 212.156C421.952 211.927 421.591 211.602 421.307 211.182C421.024 210.761 420.814 210.244 420.676 209.631C420.539 209.018 420.471 208.319 420.471 207.532C420.471 206.755 420.539 206.059 420.676 205.447C420.814 204.825 421.024 204.303 421.307 203.882C421.591 203.462 421.952 203.142 422.391 202.922C422.83 202.693 423.347 202.579 423.942 202.579C425.131 202.579 426.004 203.014 426.562 203.882C427.129 204.751 427.413 205.968 427.413 207.532C427.413 209.096 427.129 210.313 426.562 211.182C426.004 212.05 425.131 212.485 423.942 212.485ZM423.942 211.168C424.271 211.168 424.55 211.104 424.779 210.976C425.016 210.839 425.209 210.646 425.355 210.4C425.501 210.153 425.606 209.86 425.67 209.521C425.734 209.174 425.766 208.79 425.766 208.369V206.695C425.766 206.274 425.734 205.895 425.67 205.556C425.606 205.209 425.501 204.911 425.355 204.665C425.209 204.418 425.016 204.23 424.779 204.102C424.55 203.965 424.271 203.896 423.942 203.896C423.612 203.896 423.329 203.965 423.091 204.102C422.862 204.23 422.675 204.418 422.529 204.665C422.382 204.911 422.277 205.209 422.213 205.556C422.149 205.895 422.117 206.274 422.117 206.695V208.369C422.117 208.79 422.149 209.174 422.213 209.521C422.277 209.86 422.382 210.153 422.529 210.4C422.675 210.646 422.862 210.839 423.091 210.976C423.329 211.104 423.612 211.168 423.942 211.168ZM435.022 204.088H430.769L430.522 207.477H430.618C430.728 207.285 430.842 207.116 430.961 206.969C431.08 206.814 431.217 206.681 431.373 206.572C431.528 206.462 431.706 206.38 431.908 206.325C432.109 206.261 432.347 206.229 432.621 206.229C433.033 206.229 433.412 206.297 433.76 206.434C434.117 206.572 434.423 206.768 434.679 207.024C434.944 207.28 435.15 207.596 435.297 207.971C435.443 208.337 435.516 208.753 435.516 209.22C435.516 209.695 435.438 210.134 435.283 210.537C435.136 210.939 434.917 211.287 434.624 211.579C434.332 211.863 433.97 212.087 433.54 212.252C433.12 212.407 432.639 212.485 432.1 212.485C431.67 212.485 431.29 212.435 430.961 212.334C430.632 212.243 430.339 212.119 430.083 211.964C429.836 211.799 429.616 211.616 429.424 211.415C429.241 211.204 429.077 210.989 428.93 210.77L430.055 209.878C430.174 210.07 430.298 210.244 430.426 210.4C430.554 210.555 430.7 210.692 430.865 210.811C431.03 210.93 431.213 211.021 431.414 211.086C431.624 211.15 431.862 211.182 432.127 211.182C432.694 211.182 433.129 211.026 433.431 210.715C433.742 210.404 433.897 209.974 433.897 209.425V209.261C433.897 208.712 433.742 208.282 433.431 207.971C433.129 207.66 432.694 207.505 432.127 207.505C431.716 207.505 431.386 207.582 431.139 207.738C430.892 207.893 430.682 208.067 430.508 208.259L429.232 208.081L429.589 202.744H435.022V204.088ZM440.701 212.32V202.744H446.834V204.116H442.252V206.777H446.409V208.149H442.252V210.948H446.834V212.32H440.701ZM452.388 204.116V212.32H450.837V204.116H447.984V202.744H455.242V204.116H452.388ZM462.639 208.149H458.303V212.32H456.753V202.744H458.303V206.777H462.639V202.744H464.189V212.32H462.639V208.149Z" fill="#1D1D20"/>
</g>
<defs>
<clipPath id="clip0_3939_114042">
<rect width="719" height="275" rx="18" fill="white"/>
</clipPath>
</defs>
</svg>
